<svg xmlns="http://www.w3.org/2000/svg" xmlns:xlink="http://www.w3.org/1999/xlink" version="1.1" x="0px" y="0px" viewBox="0 0 90 112.5" style="enable-background:new 0 0 90 90;" xml:space="preserve"><g><path d="M88.6,64.4c-2.1-3.2-6.4-4.1-9.7-2c0,0-1.1,0.7-3.1,1.7c-3.9-5.9-5.7-14.7-6.4-19.4c5.1,2.9,9,3.3,11.6,1.3   c1.4-1,1.6-3.2,0.6-5.6c-1.9-4.7-7.9-9.7-18.9-8.4c-12.5,1.4-20.9,0.4-23.2,0c-1-1.8-3.9-6.8-8.1-11.7c-4.4-5.3-10.2-6.5-12.2-6.7   c-1.4-2-4.3-5.4-6.7-5.5c-0.8,0-1.6,0.3-2.1,0.9c-3.3,3.7-1.9,9.9-1.2,12.1C7.6,23.6,2,32.3,3,38.2c0.3,1.8,1.2,3.1,2.6,4.1   c6.2,4.2,11.7-2.6,14.7-6.4c0.5,2.6,1.1,7.1,1.1,13.4c0,6.8-2.5,12.8-4.4,16.4c-4.1-1.7-6.3-3.2-6.4-3.2c-3.2-2.1-7.5-1.2-9.7,2   c-2.1,3.2-1.2,7.6,2,9.7c0.7,0.5,17,11,41.8,11S86,74.5,86.7,74C89.9,71.9,90.7,67.6,88.6,64.4z M55.8,35.6v7.1   c0,4.3-3.5,7.8-7.8,7.8s-7.8-3.5-7.8-7.8v-7.5C42.8,35.5,48.1,36,55.8,35.6z M12.3,22.2c0.3-0.4,0.4-0.9,0.2-1.4   c-0.7-1.8-1.9-7,0.3-9.7c0.9,0.3,3,2.5,4.6,4.8c0.3,0.4,0.7,0.6,1.1,0.6c0,0,2.3,0.2,5.1,1.4c-3.4,7.4-9.6,14.4-11.6,16.4   c-1.8-1.2-3.8-1.8-5.2-2.1C8.2,28.3,10.9,24,12.3,22.2z M7.3,39.7c-0.7-0.5-1.1-1.1-1.3-2.1c-0.2-1-0.1-2.2,0.3-3.4   c2,0.4,5.7,1.6,7.2,4.6C11.4,40.5,9.3,41.1,7.3,39.7z M85,71.5C84.3,72,68.8,82.1,44.8,82.1S5.3,72,4.6,71.5   c-1.8-1.2-2.3-3.7-1.1-5.5c0.8-1.2,2-1.8,3.3-1.8c0.8,0,1.5,0.2,2.2,0.7c0,0,2.9,1.9,8.1,4c0.7,0.3,1.5,0,1.9-0.6   c2-3.5,5.5-10.7,5.5-19c0-11.2-1.8-16.8-1.9-17c-0.2-0.5-0.5-0.8-1-1c-0.5-0.1-1,0-1.4,0.3c-0.6,0.5-1.2,1.3-2.1,2.4   c-1,1.3-2.1,2.5-3.1,3.6c-0.4-0.7-0.9-1.3-1.4-1.8c2.1-2.2,8.2-9.1,11.8-16.8c1.3,0.8,2.7,1.9,4,3.4c4.2,5,7.2,10.2,7.9,11.5v8.9   c0,5.9,4.8,10.8,10.8,10.8s10.8-4.8,10.8-10.8v-7.3c1.4-0.1,2.9-0.2,4.4-0.4c10.3-1.1,14.2,3.9,15.2,5.4c1,1.7,1,3,0.9,3.2   c-1.9,1.4-5.7,0.3-10.8-3.1c-0.5-0.3-1.1-0.3-1.6,0c-0.5,0.3-0.8,0.8-0.7,1.4c0.1,0.7,1.5,16.2,8.1,25c0.4,0.6,1.2,0.8,1.8,0.5   c2.9-1.4,4.6-2.4,4.6-2.4c1.8-1.2,4.3-0.7,5.5,1.1c0,0,0,0,0,0C87.3,67.9,86.8,70.3,85,71.5z"/><path d="M58.2,58.7c-0.4-0.5-1.1-0.8-1.7-0.5c0,0-4.6,1.6-10.8,1.6c-6.2,0-11.4-1.6-11.4-1.6c-0.7-0.2-1.4,0.1-1.8,0.7l-6,11   c-0.2,0.4-0.2,0.9,0,1.3c0.2,0.4,0.6,0.7,1,0.8c5.7,1.3,11.5,2,17.3,2c6.7,0,13.4-0.9,19.9-2.7c0.5-0.1,0.9-0.5,1-0.9   s0.1-1-0.2-1.4L58.2,58.7z M30.1,69.6l4.5-8.2c2,0.5,6.2,1.4,11.1,1.4c4.9,0,8.9-0.9,10.7-1.5l5.5,7.7   C51.5,71.6,40.6,71.8,30.1,69.6z"/><circle cx="14.7" cy="25.8" r="1.6"/></g><text x="0" y="105" fill="#000000" font-size="5px" font-weight="bold" font-family="'Helvetica Neue', Helvetica, Arial-Unicode, Arial, Sans-serif"></text><text x="0" y="110" fill="#000000" font-size="5px" font-weight="bold" font-family="'Helvetica Neue', Helvetica, Arial-Unicode, Arial, Sans-serif"></text></svg>