<svg xmlns="http://www.w3.org/2000/svg" xmlns:xlink="http://www.w3.org/1999/xlink" version="1.1" x="0px" y="0px" viewBox="0 0 100 125" style="enable-background:new 0 0 100 100;" xml:space="preserve"><g><path d="M70.5833359,2.5H29.416666c-2.6233521,0-4.75,2.1266475-4.75,4.75v27.2080002   C22.77561,35.1265717,21.5083141,36.910923,21.5,38.9166679V92.75c0,2.6233521,2.126646,4.75,4.75,4.75h47.5   c2.6233521,0,4.75-2.1266479,4.75-4.75V38.9166679c-0.008316-2.0057449-1.2756119-3.7900963-3.1666641-4.4586678V7.25   C75.3333359,4.6266475,73.2066803,2.5,70.5833359,2.5z M27.833334,7.25c0-0.8744507,0.7088833-1.5833335,1.5833321-1.5833335   h41.1666718c0.8744507,0,1.5833282,0.7088828,1.5833282,1.5833335v26.9166679H27.833334V7.25z M75.3333359,92.75   c0,0.8744507-0.7088852,1.5833359-1.5833359,1.5833359H35.8054161L75.3333359,79.217247V92.75z M75.3333359,75.8273315   L26.9387512,94.3333359H26.25c-0.8744507,0-1.583334-0.7088852-1.583334-1.5833359v-2.0773315l50.6666718-19.3720856V75.8273315z    M75.3333359,67.9106674L24.666666,87.282753V38.9166679c0-0.8744507,0.7088833-1.5833359,1.583334-1.5833359h47.5   c0.8744507,0,1.5833359,0.7088852,1.5833359,1.5833359V67.9106674z"/><path d="M57.9166679,42.0833321C55.0365906,42.0817757,52.2427902,43.0663109,50,44.8731651   c-2.2427902-1.8068542-5.0365906-2.7913895-7.9166679-2.7898331c-5.3263321,0-9.5,4.8165016-9.5,10.9630013   c0,6.3950844,4.4333344,15.222168,16.9543343,19.0506668c0.3012238,0.0928802,0.6234436,0.0928802,0.9246674,0   c12.5209999-3.8285065,16.9543304-12.6555824,16.9543304-19.0506668   C67.4166641,46.8998337,63.2429962,42.0833321,57.9166679,42.0833321z M50,68.923996   c-10.507-3.3899078-14.25-10.6399994-14.25-15.8776627C35.75,49.2083321,38.125,45.25,42.0833321,45.25   c2.5274315-0.0180397,4.9525337,0.9971886,6.7133331,2.8104172c0.2999916,0.3488617,0.7368927,0.5499763,1.1970024,0.5509987   c0.4570236-0.0264664,0.8877678-0.2223587,1.2080841-0.5494156c1.7610207-1.8140564,4.1867409-2.8298721,6.7149162-2.8120003   C61.875,45.25,64.25,49.2083321,64.25,53.0463333C64.25,58.2839966,60.5070038,65.5340881,50,68.923996z"/><path d="M35.75,8.833333c-2.6233521,0-4.75,2.1266479-4.75,4.75s2.1266479,4.750001,4.75,4.750001s4.75-2.1266479,4.75-4.750001   S38.3733521,8.833333,35.75,8.833333z M35.75,15.166667c-0.8744507,0-1.5833321-0.7088833-1.5833321-1.583334   S34.8755493,12,35.75,12s1.5833321,0.7088823,1.5833321,1.583333S36.6244507,15.166667,35.75,15.166667z"/><path d="M35.75,21.5c-2.6233521,0-4.75,2.126646-4.75,4.75S33.1266479,31,35.75,31s4.75-2.126646,4.75-4.75   S38.3733521,21.5,35.75,21.5z M35.75,27.833334c-0.8744507,0-1.5833321-0.7088833-1.5833321-1.583334   S34.8755493,24.666666,35.75,24.666666s1.5833321,0.7088833,1.5833321,1.583334S36.6244507,27.833334,35.75,27.833334z"/><path d="M50,8.833333c-2.6233521,0-4.75,2.1266479-4.75,4.75s2.1266479,4.750001,4.75,4.750001s4.75-2.1266479,4.75-4.750001   S52.6233521,8.833333,50,8.833333z M50,15.166667c-0.8744507,0-1.5833321-0.7088833-1.5833321-1.583334S49.1255493,12,50,12   s1.5833321,0.7088823,1.5833321,1.583333S50.8744507,15.166667,50,15.166667z"/><path d="M50,21.5c-2.6233521,0-4.75,2.126646-4.75,4.75S47.3766479,31,50,31s4.75-2.126646,4.75-4.75S52.6233521,21.5,50,21.5z    M50,27.833334c-0.8744507,0-1.5833321-0.7088833-1.5833321-1.583334S49.1255493,24.666666,50,24.666666   s1.5833321,0.7088833,1.5833321,1.583334S50.8744507,27.833334,50,27.833334z"/><path d="M64.25,8.833333c-2.6233521,0-4.75,2.1266479-4.75,4.75s2.1266479,4.750001,4.75,4.750001S69,16.206686,69,13.583333   S66.8733521,8.833333,64.25,8.833333z M64.25,15.166667c-0.8744507,0-1.5833321-0.7088833-1.5833321-1.583334   S63.3755493,12,64.25,12s1.5833359,0.7088823,1.5833359,1.583333S65.1244507,15.166667,64.25,15.166667z"/><path d="M64.25,21.5c-2.6233521,0-4.75,2.126646-4.75,4.75S61.6266479,31,64.25,31S69,28.873354,69,26.25   S66.8733521,21.5,64.25,21.5z M64.25,27.833334c-0.8744507,0-1.5833321-0.7088833-1.5833321-1.583334   S63.3755493,24.666666,64.25,24.666666s1.5833359,0.7088833,1.5833359,1.583334S65.1244507,27.833334,64.25,27.833334z"/></g><text x="0" y="115" fill="#000000" font-size="5px" font-weight="bold" font-family="'Helvetica Neue', Helvetica, Arial-Unicode, Arial, Sans-serif"></text><text x="0" y="120" fill="#000000" font-size="5px" font-weight="bold" font-family="'Helvetica Neue', Helvetica, Arial-Unicode, Arial, Sans-serif"></text></svg>