<svg xmlns="http://www.w3.org/2000/svg" viewBox="0 0 128 160" x="0px" y="0px"><g><path d="M110.789,32.265c1.483-5.24.52-10.324-2.69-13.838-3.159-3.458-7.992-4.857-13.131-3.855C92.4,8.957,87.5,5.15,81.455,5.515a13.436,13.436,0,0,0-8.262,3.629c-4.508,4.135-6.37,10.681-6.628,16.884A31.781,31.781,0,0,0,66.985,33a23.5,23.5,0,0,0-9.324,5.727L38.726,57.66A23.512,23.512,0,0,0,33,67a32.572,32.572,0,0,0-7.818-.378C12.151,67.448,6.5,74.536,5.619,80.354,4.7,86.431,8.185,92.048,14.571,94.969c-1,5.138.4,9.972,3.856,13.13,3.514,3.208,8.6,4.172,13.838,2.69a17.793,17.793,0,0,0,7.785,9.86A12.611,12.611,0,0,0,49.7,121.8h0c8.7-2.49,12.026-12.513,11.436-22a23.533,23.533,0,0,0,13.117-6.613L93.189,74.251a23.577,23.577,0,0,0,6.6-13.105,32.849,32.849,0,0,0,8.746-.591h0c8.129-1.763,13.523-7.209,13.744-13.875C122.487,40.388,118.025,34.859,110.789,32.265ZM48.846,118.832a9.535,9.535,0,0,1-7.3-.882c-3.116-1.723-5.532-5.109-6.8-9.534a1.542,1.542,0,0,0-2.021-1.019h0c-4.661,1.738-9.226,1.15-12.211-1.576-2.883-2.632-3.874-6.881-2.651-11.365h0a1.543,1.543,0,0,0-.939-1.847c-5.764-2.2-9-6.825-8.25-11.794a9.341,9.341,0,0,1,.462-1.793c1.547-4.243,6.451-8.7,16.269-9.329a29.722,29.722,0,0,1,6.832.293c-2.035,9.566,2.976,18.8,10.335,24.652a23.376,23.376,0,0,0,15.5,5.425C58.529,107.814,56.061,116.769,48.846,118.832ZM96.913,59.359v0a20.482,20.482,0,0,1-5.906,12.709L72.072,91.007a20.438,20.438,0,0,1-28.912,0c-9.6-7.609-11.266-22.428-2.254-31.168L59.841,40.906a20.392,20.392,0,0,1,9.317-5.333h0A20.507,20.507,0,0,1,88.735,40.9C89.511,42.006,97.9,47.82,96.913,59.359Zm10.965-1.817h0a29.213,29.213,0,0,1-7.807.531c.245-12.189-8.355-18.242-9.153-19.358a23.609,23.609,0,0,0-20.931-6.483,28.778,28.778,0,0,1-.338-6.075c.266-6.419,2.267-11.654,5.632-14.74a10.218,10.218,0,0,1,7.06-2.83c4.926.087,8.5,3.693,10.271,8.332a1.543,1.543,0,0,0,1.847.937h0c4.484-1.222,8.734-.233,11.366,2.65,2.726,2.985,3.314,7.55,1.576,12.212a1.542,1.542,0,0,0,1.019,2.022h0c6.722,1.928,10.954,6.576,10.779,11.838C119.025,51.785,114.582,56.089,107.878,57.542Z"/><path d="M74.144,47.757c-2.926-1.394-5.57-1.441-7.859-.14-4.408,2.509-5.9,9.461-6.341,12.316-2.858.44-9.816,1.94-12.326,6.353-1.3,2.289-1.255,4.932.14,7.858,4.332,9.078,19.2,6.411,28.275,2.74a1.506,1.506,0,0,0,.851-.851C77.258,75.11,85.9,53.365,74.144,47.757Zm.116,26.5c-3.4,1.255-19.792,6.788-23.719-1.442-.947-1.988-1.027-3.624-.245-5,1.931-3.4,8.716-4.739,11.167-4.968a1.546,1.546,0,0,0,1.393-1.395c.223-2.445,1.549-9.215,4.954-11.152,1.595-.908,3.354-.545,5.007.243C81.045,54.468,75.513,70.86,74.26,74.259Z"/></g><text x="0" y="143" fill="#000000" font-size="5px" font-weight="bold" font-family="'Helvetica Neue', Helvetica, Arial-Unicode, Arial, Sans-serif"></text><text x="0" y="148" fill="#000000" font-size="5px" font-weight="bold" font-family="'Helvetica Neue', Helvetica, Arial-Unicode, Arial, Sans-serif"></text></svg>