<svg xmlns="http://www.w3.org/2000/svg" xmlns:xlink="http://www.w3.org/1999/xlink" xmlns:serif="http://www.serif.com/" viewBox="0 0 101 126.25" version="1.1" xml:space="preserve" style="" x="0px" y="0px" fill-rule="evenodd" clip-rule="evenodd" stroke-linejoin="round" stroke-miterlimit="2"><rect serif:id="Page 13" x="0.93" y="0.383" width="100" height="100" style="" fill="none"/><g><path d="M15.373,32.208c0,-0 -2.678,-5.036 -3.432,-9.896c-0.53,-3.415 -0.076,-6.723 2.637,-8.346c2.794,-1.671 5.529,-1.307 7.806,-0.255c3.314,1.531 5.628,4.538 5.628,4.538c0.179,0.234 0.135,0.569 -0.098,0.749c-0.234,0.179 -0.569,0.135 -0.749,-0.098c0,-0 -1.497,-1.945 -3.782,-3.419c-2.216,-1.429 -5.195,-2.43 -8.257,-0.599c-2.347,1.404 -2.588,4.312 -2.13,7.266c0.729,4.695 3.32,9.558 3.32,9.558c0.138,0.26 0.039,0.584 -0.221,0.722c-0.26,0.139 -0.583,0.04 -0.722,-0.22Z"/><path d="M69.18,14.804c-5.508,-2.734 -11.703,-4.271 -18.25,-4.271c-6.548,0 -12.743,1.537 -18.251,4.271c-1.811,-2.783 -6.037,-6.192 -10.603,-7.717c-3.264,-1.09 -6.692,-1.216 -9.552,0.446c-5.47,3.179 -6.914,8.302 -6.538,13.507c0.529,7.335 4.718,14.824 5.99,16.944c-1.654,4.526 -2.558,9.421 -2.558,14.528c0,11.578 3.238,22.062 10.035,29.657c6.802,7.599 17.172,12.322 31.477,12.322c14.304,0 24.674,-4.723 31.476,-12.322c6.797,-7.595 10.035,-18.079 10.035,-29.657c-0,-5.107 -0.904,-10.002 -2.558,-14.528c1.272,-2.12 5.461,-9.609 5.991,-16.944c0.376,-5.205 -1.069,-10.328 -6.539,-13.507c-2.86,-1.662 -6.288,-1.536 -9.552,-0.446c-4.566,1.525 -8.792,4.934 -10.603,7.717Zm-0.044,1.173l0.453,0.232l0.253,-0.442c1.542,-2.693 5.743,-6.152 10.279,-7.667c2.965,-0.99 6.08,-1.153 8.677,0.356c5.059,2.94 6.358,7.694 6.011,12.507c-0.535,7.409 -4.925,14.973 -5.971,16.686l-0.135,0.222l0.09,0.243c1.667,4.477 2.58,9.331 2.58,14.398c0,11.296 -3.131,21.535 -9.762,28.945c-6.627,7.404 -16.745,11.966 -30.681,11.966c-13.937,0 -24.055,-4.562 -30.682,-11.966c-6.631,-7.41 -9.762,-17.649 -9.762,-28.945c0,-5.067 0.913,-9.921 2.58,-14.398l0.09,-0.243l-0.135,-0.222c-1.046,-1.713 -5.435,-9.277 -5.971,-16.686c-0.347,-4.813 0.953,-9.567 6.011,-12.507c2.597,-1.509 5.713,-1.346 8.677,-0.356c4.536,1.515 8.737,4.974 10.279,7.667l0.253,0.442l0.453,-0.232c5.472,-2.798 11.658,-4.376 18.207,-4.376c6.548,0 12.734,1.578 18.206,4.376Z"/><path d="M45.131,51.779c-6.358,2.254 -10.889,8.106 -10.889,14.954c-0,8.793 7.471,15.944 16.688,15.944c9.217,0 16.687,-7.151 16.687,-15.944c0,-6.848 -4.531,-12.7 -10.889,-14.954c-0.168,-0.533 -0.505,-1.086 -1,-1.589c-1.016,-1.03 -2.701,-1.871 -4.798,-1.871c-2.098,0 -3.783,0.841 -4.798,1.871c-0.496,0.503 -0.833,1.056 -1.001,1.589Zm5.788,15.488c-0.88,0.005 -1.797,0.654 -2.604,1.39c-1.324,1.209 -2.329,2.719 -2.329,2.719l0,0c-0.163,0.245 -0.495,0.312 -0.74,0.149c-0.245,-0.163 -0.312,-0.495 -0.149,-0.74c0,-0 1.078,-1.62 2.498,-2.916c0.859,-0.783 1.846,-1.431 2.801,-1.617l-0,-9.585c-0.437,-0.061 -0.866,-0.199 -1.266,-0.413l-0.001,-0c-1.162,-0.624 -2.653,-1.526 -3.447,-2.367c-0.303,-0.321 -0.507,-0.645 -0.606,-0.949c-5.722,2.207 -9.767,7.551 -9.767,13.795c0,8.218 7.006,14.877 15.621,14.877c8.614,-0 15.62,-6.659 15.62,-14.877c-0,-6.244 -4.045,-11.588 -9.767,-13.795c-0.099,0.304 -0.303,0.628 -0.606,0.949c-0.793,0.841 -2.285,1.743 -3.447,2.367l-0.001,0c-0.4,0.214 -0.829,0.352 -1.266,0.414l0,9.584c0.955,0.186 1.942,0.834 2.801,1.617c1.42,1.296 2.498,2.916 2.498,2.916c0.163,0.245 0.096,0.577 -0.149,0.74c-0.245,0.163 -0.577,0.096 -0.74,-0.149c0,0 -1.005,-1.51 -2.329,-2.719c-0.81,-0.739 -1.731,-1.39 -2.614,-1.39l-0.011,-0Z"/><path d="M66.145,33.153c-1.441,0 -2.672,1.395 -2.672,3.174c-0,1.78 1.231,3.174 2.672,3.174c1.442,0 2.673,-1.394 2.673,-3.174c-0,-1.779 -1.231,-3.174 -2.673,-3.174Z"/><path d="M66.145,27.33c-4.044,0 -7.389,4.004 -7.389,8.997c0,4.993 3.345,8.998 7.389,8.998c4.045,-0 7.389,-4.005 7.389,-8.998c0,-4.993 -3.344,-8.997 -7.389,-8.997Zm0,1.068c3.523,-0 6.322,3.58 6.322,7.929c-0,4.349 -2.799,7.93 -6.322,7.93c-3.523,-0 -6.321,-3.581 -6.321,-7.93c-0,-4.349 2.798,-7.929 6.321,-7.929Z"/><path d="M86.486,32.208c-0,-0 2.678,-5.036 3.432,-9.896c0.53,-3.415 0.076,-6.723 -2.637,-8.346c-2.794,-1.671 -5.529,-1.307 -7.806,-0.255c-3.314,1.531 -5.627,4.538 -5.627,4.538c-0.18,0.234 -0.136,0.569 0.097,0.749c0.234,0.179 0.569,0.135 0.749,-0.098c-0,-0 1.497,-1.945 3.782,-3.419c2.216,-1.429 5.195,-2.43 8.257,-0.599c2.347,1.404 2.588,4.312 2.13,7.266c-0.729,4.695 -3.32,9.558 -3.32,9.558c-0.138,0.26 -0.039,0.584 0.221,0.722c0.26,0.139 0.583,0.04 0.722,-0.22Z"/><path d="M44.735,38.211c-5.893,-0.764 -10.793,-3.226 -14.829,-7.162c-0.593,-0.578 -1.543,-0.566 -2.121,0.027c-0.578,0.592 -0.566,1.543 0.026,2.121c4.502,4.389 9.965,7.137 16.538,7.989c0.821,0.107 1.574,-0.473 1.681,-1.294c0.106,-0.821 -0.474,-1.574 -1.295,-1.681Z"/><path d="M34.195,44.498l7.935,-13.678c0.416,-0.716 0.172,-1.635 -0.544,-2.05c-0.716,-0.415 -1.635,-0.171 -2.05,0.545l-7.936,13.678c-0.415,0.716 -0.171,1.634 0.545,2.05c0.716,0.415 1.635,0.171 2.05,-0.545Z"/></g><text x="0" y="116" fill="#000000" font-size="5px" font-weight="bold" font-family="'Helvetica Neue', Helvetica, Arial-Unicode, Arial, Sans-serif"></text><text x="0" y="121" fill="#000000" font-size="5px" font-weight="bold" font-family="'Helvetica Neue', Helvetica, Arial-Unicode, Arial, Sans-serif"></text></svg>