<svg xmlns="http://www.w3.org/2000/svg" xmlns:xlink="http://www.w3.org/1999/xlink" version="1.1" x="0px" y="0px" viewBox="0 0 512 640" style="enable-background:new 0 0 512 512;" xml:space="preserve"><g><g><path d="M102,232c0-5.523-4.477-10-10-10s-10,4.477-10,10v10H72c-5.523,0-10,4.477-10,10c0,5.522,4.477,10,10,10    h10v10c0,5.522,4.477,10,10,10s10-4.478,10-10v-10h10c5.523,0,10-4.478,10-10c0-5.523-4.477-10-10-10h-10V232z"/><path d="M12,70.5c11.855,0,21.5,9.645,21.5,21.5c0,5.523,4.477,10,10,10h17c5.523,0,10-4.477,10-10    c0-11.855,9.645-21.5,21.5-21.5c5.523,0,10-4.477,10-10v-17c0-5.523-4.477-10-10-10c-11.855,0-21.5-9.645-21.5-21.5    c0-5.523-4.477-10-10-10h-17c-5.523,0-10,4.477-10,10c0,11.855-9.645,21.5-21.5,21.5c-5.523,0-10,4.477-10,10v17    C2,66.023,6.477,70.5,12,70.5z M52,23.074C55.88,37.071,66.929,48.12,80.926,52C66.929,55.88,55.88,66.929,52,80.926    C48.12,66.929,37.071,55.88,23.074,52C37.071,48.12,48.12,37.071,52,23.074z"/><path d="M412,413.5c-11.855,0-21.5-9.645-21.5-21.5c0-5.522-4.478-10-10-10h-17c-5.522,0-10,4.478-10,10    c0,11.855-9.645,21.5-21.5,21.5c-5.522,0-10,4.478-10,10v17c0,5.522,4.478,10,10,10c11.855,0,21.5,9.645,21.5,21.5    c0,5.522,4.478,10,10,10h17c5.522,0,10-4.478,10-10c0-11.855,9.645-21.5,21.5-21.5c5.522,0,10-4.478,10-10v-17    C422,417.978,417.522,413.5,412,413.5z M372,460.926c-3.88-13.997-14.929-25.046-28.926-28.926    c13.997-3.88,25.046-14.929,28.926-28.926c3.88,13.997,14.929,25.046,28.926,28.926C386.929,435.88,375.88,446.929,372,460.926z"/><path d="M467.021,44.978C417.745-4.297,341.499-13.016,282.74,22.884c-11.714-11.494-30.591-11.434-42.22,0.197    l-7.755,7.755c-11.629,11.63-11.691,30.507-0.196,42.22c-29.624,48.486-28.864,108.875-0.005,156.198L11.396,450.422    c-13.834,13.836-13.834,36.347,0,50.183c6.918,6.917,16.004,10.376,25.091,10.376c9.087,0,18.173-3.459,25.091-10.376    l221.172-221.171c23.815,14.524,50.934,21.941,78.188,21.94c26.895-0.002,53.911-7.244,77.993-21.956    c5.825,5.723,13.421,8.59,21.02,8.59c7.683,0,15.365-2.925,21.214-8.773l7.755-7.755c5.666-5.666,8.787-13.199,8.787-21.213    c0-7.918-3.052-15.365-8.591-21.007C525.016,170.5,516.299,94.255,467.021,44.978z M452.879,59.121    c41.551,41.549,49.842,105.212,21.629,155.522L297.358,37.492C347.67,9.28,411.331,17.572,452.879,59.121z M108.566,425.331    l-21.897-21.897l84.966-84.966l21.897,21.897L108.566,425.331z M47.435,486.462c-6.036,6.037-15.86,6.038-21.897,0    c-6.037-6.037-6.037-15.86,0-21.897l46.988-46.988l21.897,21.897L47.435,486.462z M207.674,326.223l-21.897-21.897l58.503-58.503    c3.235,3.976,6.691,7.823,10.382,11.515c3.691,3.691,7.535,7.153,11.51,10.387L207.674,326.223z M268.805,243.196    c-41.549-41.55-49.841-105.212-21.629-155.522l177.15,177.15C374.015,293.035,310.353,284.746,268.805,243.196z M474.776,257.338    l-7.755,7.755c-3.898,3.901-10.243,3.9-14.142,0L246.907,59.12c-3.899-3.899-3.899-10.243,0-14.142l7.755-7.755    c1.95-1.95,4.511-2.924,7.071-2.924s5.122,0.975,7.071,2.924l205.972,205.973c1.889,1.889,2.93,4.4,2.93,7.071    S476.665,255.448,474.776,257.338z"/></g></g><text x="0" y="527" fill="#000000" font-size="5px" font-weight="bold" font-family="'Helvetica Neue', Helvetica, Arial-Unicode, Arial, Sans-serif"></text><text x="0" y="532" fill="#000000" font-size="5px" font-weight="bold" font-family="'Helvetica Neue', Helvetica, Arial-Unicode, Arial, Sans-serif"></text></svg>