<svg xmlns="http://www.w3.org/2000/svg" xmlns:xlink="http://www.w3.org/1999/xlink" version="1.1" x="0px" y="0px" viewBox="0 0 32 40" style="enable-background:new 0 0 32 32;" xml:space="preserve"><path d="M22.3,8.53C21.63,5.6,19.05,3.5,16,3.5s-5.63,2.1-6.3,5.03C9.01,8.67,8.5,9.28,8.5,10s0.51,1.33,1.2,1.47  c0.56,2.44,2.43,4.28,4.8,4.84V27c0,0.83,0.67,1.5,1.5,1.5s1.5-0.67,1.5-1.5V16.31c2.37-0.56,4.24-2.4,4.8-4.84  c0.68-0.14,1.2-0.75,1.2-1.47S22.99,8.67,22.3,8.53z M16,4.5c2.49,0,4.61,1.65,5.27,4H10.73C11.39,6.15,13.51,4.5,16,4.5z M16.5,27  c0,0.28-0.22,0.5-0.5,0.5s-0.5-0.22-0.5-0.5V16.46c0.17,0.01,0.33,0.04,0.5,0.04s0.33-0.03,0.5-0.04V27z M16,15.5  c-2.49,0-4.61-1.65-5.27-4h10.53C20.61,13.85,18.49,15.5,16,15.5z M22,10.5H10c-0.28,0-0.5-0.22-0.5-0.5S9.72,9.5,10,9.5h12  c0.28,0,0.5,0.22,0.5,0.5S22.28,10.5,22,10.5z"/><path d="M16.59,5.11c-0.28-0.04-0.52,0.16-0.56,0.43C16,5.82,16.19,6.07,16.46,6.1c0.79,0.1,1.51,0.46,2.07,1.04  c0.1,0.1,0.23,0.15,0.36,0.15c0.13,0,0.25-0.05,0.35-0.14c0.2-0.19,0.2-0.51,0.01-0.71C18.53,5.71,17.61,5.25,16.59,5.11z"/><text x="0" y="47" fill="#000000" font-size="5px" font-weight="bold" font-family="'Helvetica Neue', Helvetica, Arial-Unicode, Arial, Sans-serif"></text><text x="0" y="52" fill="#000000" font-size="5px" font-weight="bold" font-family="'Helvetica Neue', Helvetica, Arial-Unicode, Arial, Sans-serif"></text></svg>