<svg xmlns="http://www.w3.org/2000/svg" viewBox="0 0 64 80" x="0px" y="0px"><title></title><g data-name="17 Love Arrow"><path d="M42.6,24.18a1,1,0,1,0-1.2,1.6A6.273,6.273,0,0,1,44,30.72c0,2.958-1.429,6.021-4.246,9.105a1,1,0,0,0,1.476,1.35C44.4,37.71,46,34.192,46,30.72A8.278,8.278,0,0,0,42.6,24.18Z"/><path d="M53,35.5v2a1,1,0,0,0,1.447.9l6-3a1,1,0,0,0,0-1.79l-6-3A1,1,0,0,0,53,31.5v2H49.745A15.591,15.591,0,0,0,50,30.72,12.439,12.439,0,0,0,37.67,18.5a10.1,10.1,0,0,0-8.5,3.905,10.111,10.111,0,0,0-8.5-3.905,12.527,12.527,0,0,0-12.259,11H4a1,1,0,0,0-.8,1.6l2.55,3.4L3.2,37.9A1,1,0,0,0,4,39.5h6.9c3.161,5.394,9.144,10.4,17.812,14.888a1,1,0,0,0,.92,0C42.426,47.762,47.534,41,49.251,35.5Zm2-2.382L57.764,34.5,55,35.882ZM9.34,31.5H14.5l1.5,2H7.5L6,31.5Zm-1.84,4H16l-1.5,2H6ZM29.17,52.372C21.64,48.413,16.294,44.091,13.245,39.5H15a1,1,0,0,0,.8-.4l2.7-3.6H29a1,1,0,0,0,0-2H18.5l-2.7-3.6a1,1,0,0,0-.8-.4H10.414a10.5,10.5,0,0,1,10.256-9c5.776,0,7.5,4.051,7.57,4.218a1,1,0,0,0,.93.632h0a1,1,0,0,0,.93-.634c.016-.042,1.727-4.216,7.569-4.216A10.544,10.544,0,0,1,48,30.72C48,36.1,44.717,44.2,29.17,52.372Z"/><path d="M29,30.5a1,1,0,0,0,0,2,2,2,0,0,1,0,4,1,1,0,0,0,0,2,4,4,0,0,0,0-8Z"/><path d="M49,13.5h2v2a1,1,0,0,0,2,0v-2h2a1,1,0,0,0,0-2H53v-2a1,1,0,0,0-2,0v2H49a1,1,0,0,0,0,2Z"/><path d="M16,53.5H14v-2a1,1,0,0,0-2,0v2H10a1,1,0,0,0,0,2h2v2a1,1,0,0,0,2,0v-2h2a1,1,0,0,0,0-2Z"/><path d="M10.54,17.388a1,1,0,0,0,.92,0C17.691,14.163,19,10.752,19,8.458A5.046,5.046,0,0,0,14,3.5a4.313,4.313,0,0,0-3,1.077A4.313,4.313,0,0,0,8,3.5,5.046,5.046,0,0,0,3,8.458C3,10.752,4.309,14.163,10.54,17.388ZM8,5.5a2.12,2.12,0,0,1,2.075,1.094,1,1,0,0,0,1.856-.014A2.137,2.137,0,0,1,14,5.5a3.057,3.057,0,0,1,3,2.958c0,2.366-2.126,4.808-6,6.91-3.874-2.1-6-4.544-6-6.91A3.057,3.057,0,0,1,8,5.5Z"/><path d="M11.7,13.614a.989.989,0,0,0,.558-.171C14.706,11.793,16,10.07,16,8.458a1,1,0,1,0-2,0c0,.677-.751,1.906-2.859,3.327a1,1,0,0,0,.559,1.829Z"/><path d="M56,46.5a4.309,4.309,0,0,0-3,1.077A4.309,4.309,0,0,0,50,46.5a5.046,5.046,0,0,0-5,4.958c0,2.294,1.309,5.7,7.54,8.93a1,1,0,0,0,.92,0c6.231-3.225,7.54-6.636,7.54-8.93A5.046,5.046,0,0,0,56,46.5ZM53,58.368c-3.874-2.1-6-4.545-6-6.91A3.057,3.057,0,0,1,50,48.5a2.123,2.123,0,0,1,2.075,1.094,1,1,0,0,0,1.856-.014A2.137,2.137,0,0,1,56,48.5a3.057,3.057,0,0,1,3,2.958C59,53.823,56.874,56.267,53,58.368Z"/><path d="M57,50.459a1,1,0,0,0-1,1c0,.676-.751,1.9-2.859,3.326a1,1,0,0,0,.559,1.829.989.989,0,0,0,.558-.171C56.706,54.794,58,53.07,58,51.459A1,1,0,0,0,57,50.459Z"/></g><text x="0" y="79" fill="#000000" font-size="5px" font-weight="bold" font-family="'Helvetica Neue', Helvetica, Arial-Unicode, Arial, Sans-serif"></text><text x="0" y="84" fill="#000000" font-size="5px" font-weight="bold" font-family="'Helvetica Neue', Helvetica, Arial-Unicode, Arial, Sans-serif"></text></svg>