<svg xmlns="http://www.w3.org/2000/svg" version="1.0" viewBox="0 0 1024 1280" preserveAspectRatio="xMidYMid meet" x="0px" y="0px"><g transform="translate(0.000000,1024.000000) scale(0.100000,-0.100000)" fill="#000000" stroke="none"><path d="M8064 9000 c-24 -9 -46 -36 -107 -130 -57 -87 -159 -165 -427 -325 -235 -140 -408 -256 -540 -360 -143 -113 -335 -300 -426 -416 -57 -73 -92 -109 -103 -107 -14 3 -16 24 -18 168 -2 184 -20 283 -69 365 -30 52 -49 65 -96 65 -28 0 -49 -13 -118 -75 l-85 -75 -13 101 c-24 195 -66 324 -148 455 -84 136 -142 140 -220 16 -43 -68 -83 -112 -101 -112 -23 0 -14 34 27 94 63 93 47 161 -38 160 -42 0 -149 -47 -238 -105 -67 -43 -74 -46 -74 -24 0 22 -39 38 -82 32 -21 -3 -72 -26 -114 -53 -231 -144 -391 -329 -476 -551 l-31 -83 -61 58 c-34 32 -82 73 -109 91 -146 100 -204 74 -253 -115 -22 -85 -26 -125 -29 -279 -3 -149 -6 -181 -18 -183 -9 -2 -40 28 -73 70 -112 142 -377 389 -554 517 -124 89 -341 232 -430 283 -194 112 -370 234 -427 297 -13 14 -42 58 -64 96 -23 39 -49 76 -57 83 -40 31 -115 -2 -127 -57 -9 -43 13 -149 43 -204 14 -27 79 -104 143 -172 93 -99 126 -142 162 -212 64 -124 83 -206 117 -491 42 -362 110 -598 219 -755 76 -111 249 -248 415 -329 l68 -33 -7 -70 c-20 -208 -24 -293 -24 -530 0 -143 6 -311 12 -372 7 -62 10 -113 7 -113 -3 0 -46 11 -95 25 -167 46 -235 29 -235 -58 1 -119 167 -309 359 -410 50 -27 91 -52 91 -56 0 -5 -14 -26 -31 -47 -42 -53 -53 -83 -40 -112 16 -35 85 -62 159 -62 l62 0 88 -89 c82 -83 198 -169 300 -220 l42 -21 0 -113 c0 -90 -5 -130 -24 -196 -13 -46 -28 -87 -34 -93 -5 -5 -37 -5 -79 0 -84 10 -125 0 -154 -36 -20 -25 -21 -34 -15 -141 l6 -114 -57 7 c-247 28 -445 325 -673 1006 -99 298 -154 530 -180 761 -10 91 -10 99 9 130 28 45 26 99 -4 160 -57 111 -152 178 -268 186 -53 4 -66 2 -90 -17 -26 -21 -28 -27 -23 -64 4 -23 8 -56 9 -75 2 -39 14 -29 -203 -178 -267 -184 -496 -398 -704 -658 -362 -452 -616 -1017 -642 -1431 -9 -129 -1 -172 32 -184 40 -16 62 3 79 68 35 129 117 258 201 318 226 161 610 79 875 -185 129 -129 189 -237 264 -473 44 -140 55 -158 98 -158 37 0 60 21 90 80 74 147 294 279 512 308 125 17 365 -17 365 -51 0 -7 -11 -25 -23 -41 l-23 -29 -65 29 c-52 24 -78 29 -140 29 -126 0 -151 -38 -155 -240 -2 -71 -7 -129 -11 -128 -133 26 -187 29 -247 12 -97 -27 -111 -99 -51 -266 20 -54 39 -106 42 -116 5 -16 -1 -17 -88 -11 -109 7 -164 -4 -200 -42 -21 -23 -24 -34 -23 -97 1 -49 10 -96 28 -146 14 -41 24 -77 21 -79 -3 -3 -36 7 -75 23 -38 15 -90 29 -116 29 -70 2 -95 -37 -119 -186 -3 -21 -11 -38 -16 -38 -6 0 -39 16 -73 35 -35 19 -73 35 -85 35 -31 0 -67 -43 -87 -103 -9 -29 -19 -54 -21 -57 -3 -3 -21 14 -41 37 -23 25 -49 44 -69 48 -27 5 -36 1 -69 -34 -20 -23 -41 -41 -45 -41 -5 0 -16 15 -25 33 -23 45 -54 77 -75 77 -10 0 -33 -13 -52 -29 l-33 -30 -19 32 c-23 41 -86 107 -101 107 -19 0 -27 36 -20 85 9 57 60 116 128 145 44 19 64 22 126 17 87 -7 212 -60 263 -113 38 -39 58 -42 84 -14 20 23 15 69 -16 135 -26 55 -112 137 -179 172 -49 25 -66 28 -150 28 -52 0 -107 -4 -121 -8 -24 -8 -25 -7 -22 20 10 64 -62 74 -161 24 -123 -63 -228 -184 -242 -279 -3 -26 -12 -58 -19 -71 -12 -23 -12 -23 -44 29 -50 81 -270 368 -288 374 -17 7 -63 -18 -63 -34 0 -45 99 -340 145 -430 121 -240 283 -429 505 -587 101 -73 311 -175 455 -221 256 -82 371 -103 760 -137 160 -15 300 -28 313 -31 18 -4 22 -11 23 -42 0 -49 37 -123 71 -142 27 -14 29 -14 57 17 29 33 98 58 129 49 9 -3 28 -22 41 -41 13 -19 27 -35 32 -35 4 0 24 11 44 24 62 43 90 43 135 2 41 -37 64 -44 76 -25 16 26 94 48 207 58 64 6 149 18 188 26 98 21 103 20 133 -24 15 -22 38 -42 51 -45 13 -3 33 -21 44 -40 32 -51 51 -53 86 -13 39 45 64 57 119 57 43 0 96 -16 96 -29 0 -4 14 -21 30 -40 38 -41 67 -37 119 18 39 42 78 59 189 86 102 24 136 22 182 -10 37 -26 41 -27 64 -12 33 22 67 80 73 127 l5 39 62 6 c33 4 83 5 110 3 47 -3 50 -4 63 -43 7 -22 27 -50 43 -63 16 -12 39 -39 51 -60 32 -54 60 -82 81 -82 10 0 39 19 63 41 l45 41 64 -7 c61 -6 66 -8 106 -56 22 -27 49 -49 59 -49 9 0 33 16 52 36 46 48 77 63 149 71 l61 6 43 -47 c24 -25 50 -46 59 -46 8 0 27 17 42 37 49 67 109 123 130 123 11 0 45 -7 75 -16 31 -8 134 -19 234 -24 130 -7 185 -14 202 -25 32 -21 57 -19 85 6 78 68 192 75 249 14 32 -34 52 -32 89 10 77 88 102 213 63 327 -26 79 -80 164 -124 200 -21 16 -38 34 -38 40 0 6 15 49 34 97 59 146 71 216 71 401 0 140 -4 177 -22 242 -55 188 -134 311 -330 508 -126 127 -145 151 -158 195 -25 88 -26 100 -13 117 40 53 312 70 463 29 152 -41 294 -142 375 -267 24 -36 54 -70 67 -75 47 -18 62 4 177 255 54 116 115 203 208 292 132 127 270 210 447 271 91 31 122 37 222 41 144 6 229 -16 306 -77 81 -63 115 -115 153 -230 32 -97 37 -106 62 -109 20 -2 31 4 45 25 39 59 12 377 -49 563 -108 334 -294 686 -550 1040 -164 228 -422 489 -703 713 -86 68 -83 60 -69 163 6 47 4 52 -21 72 -40 32 -100 29 -182 -8 -88 -40 -148 -91 -178 -151 -35 -68 -32 -106 11 -170 37 -52 37 -53 30 -131 -27 -324 -118 -693 -243 -988 -172 -405 -327 -609 -538 -711 -114 -55 -245 -86 -245 -58 0 6 16 45 35 87 59 128 51 177 -40 226 -34 18 -58 21 -160 22 l-120 1 -16 89 c-9 49 -17 132 -17 185 l-1 97 92 47 c144 75 254 152 352 246 l90 87 80 7 c94 9 116 16 144 46 27 29 27 61 0 85 -46 42 -44 50 23 90 258 151 424 389 333 479 -31 32 -79 33 -215 4 -55 -12 -103 -19 -106 -16 -3 2 0 81 7 173 19 273 -2 659 -46 852 -21 90 -20 96 26 121 157 88 339 259 417 390 109 184 150 348 177 714 28 370 69 502 202 649 163 179 213 264 216 362 2 81 -45 136 -99 116z m11 -142 c-13 -60 -59 -131 -149 -227 -49 -53 -102 -116 -119 -140 -79 -116 -130 -303 -148 -551 -36 -500 -122 -734 -342 -928 -67 -59 -229 -176 -261 -188 -9 -3 -17 4 -21 18 -4 13 -19 47 -33 76 -14 28 -23 54 -21 55 2 2 31 24 64 49 73 56 115 99 190 198 96 126 131 209 164 395 31 175 78 375 100 430 5 11 21 54 37 95 30 82 151 322 193 385 15 22 63 69 106 105 107 86 198 179 219 224 21 45 30 46 21 4z m-5604 -20 c12 -24 35 -60 52 -81 28 -37 181 -172 259 -230 21 -15 41 -40 44 -54 4 -14 25 -55 47 -92 105 -172 211 -434 276 -681 92 -345 116 -403 223 -538 44 -55 228 -214 260 -224 8 -3 7 -19 -6 -59 -32 -98 -46 -100 -166 -28 -166 99 -297 214 -357 316 -68 117 -130 329 -157 543 -39 298 -53 377 -92 503 -48 155 -96 229 -254 392 -64 66 -123 136 -132 155 -16 35 -32 120 -23 120 2 0 14 -19 26 -42z m3079 -123 c0 -3 -13 -31 -29 -63 -16 -31 -34 -75 -40 -97 -10 -36 -9 -42 10 -57 26 -22 96 -24 142 -5 37 16 94 76 127 135 27 47 31 49 52 25 59 -67 129 -270 149 -431 11 -88 11 -113 -4 -194 -38 -214 -103 -360 -210 -472 l-58 -61 -24 29 c-28 35 -59 127 -76 221 -15 85 -6 220 21 333 24 99 25 143 5 181 -28 55 -93 62 -177 20 -48 -24 -173 -126 -255 -206 -47 -46 -75 -66 -99 -70 l-34 -6 0 71 c0 97 15 157 60 245 50 99 102 168 182 243 86 81 258 186 258 159z m-374 -110 c-3 -9 -24 -43 -47 -76 -22 -33 -49 -80 -60 -103 -25 -58 -57 -265 -54 -352 l3 -72 -76 -32 c-84 -35 -151 -91 -183 -152 -25 -48 -26 -84 -1 -48 59 86 192 172 291 186 l43 7 -41 -64 c-61 -94 -110 -202 -133 -299 -29 -121 -22 -293 17 -400 42 -113 138 -279 242 -414 52 -68 63 -69 63 -9 0 72 35 195 86 300 54 114 124 191 253 281 184 127 347 306 373 409 7 29 16 43 27 43 28 0 286 -125 383 -186 161 -101 350 -308 456 -499 46 -82 34 -27 -17 80 -51 107 -118 200 -206 288 l-74 72 75 95 c244 308 479 507 917 772 220 133 224 134 157 43 -53 -72 -173 -303 -210 -403 -40 -110 -66 -214 -94 -385 -32 -185 -33 -191 -66 -259 -59 -119 -179 -272 -289 -366 -39 -34 -80 -66 -92 -73 -23 -12 -23 -12 -3 -28 37 -30 53 -65 78 -174 64 -271 87 -486 88 -817 0 -397 -66 -704 -192 -890 -187 -278 -463 -435 -1115 -635 -321 -99 -460 -107 -710 -40 -27 7 -95 25 -150 40 -681 181 -955 339 -1127 646 -136 243 -186 488 -195 959 -5 274 9 510 38 642 8 34 7 52 -1 68 -14 26 8 99 47 157 24 35 24 38 8 48 -10 5 -52 38 -94 71 -110 88 -223 213 -266 296 -34 63 -85 204 -85 232 0 6 -12 54 -26 106 -58 214 -109 355 -172 482 -57 112 -89 166 -177 293 -31 45 58 9 205 -83 393 -247 690 -496 887 -745 34 -42 64 -86 68 -97 5 -16 -8 -35 -60 -88 -72 -75 -110 -129 -172 -242 -33 -62 -73 -164 -73 -189 0 -3 22 32 48 79 143 254 255 374 516 550 97 65 259 150 286 150 17 0 20 -7 20 -53 0 -30 3 -57 7 -61 12 -11 43 113 53 213 25 239 102 393 281 566 128 124 266 213 245 160z m364 -403 c0 -5 -9 -53 -21 -108 -25 -117 -30 -310 -10 -397 14 -62 73 -201 97 -228 13 -14 11 -19 -18 -41 -18 -14 -44 -29 -57 -33 -14 -4 -64 -46 -112 -94 -99 -98 -137 -165 -188 -326 -17 -55 -34 -107 -37 -115 -11 -32 -164 265 -189 367 -21 87 -17 295 9 385 38 136 131 282 260 410 125 124 266 219 266 180z m771 -104 c28 -91 40 -205 33 -305 -4 -51 -8 -93 -9 -93 -2 0 -71 34 -154 76 l-151 75 0 37 c1 20 6 49 13 63 15 33 217 209 237 206 8 -1 22 -27 31 -59z m-1956 7 c74 -47 176 -144 191 -182 28 -65 22 -75 -68 -118 -46 -22 -122 -66 -169 -97 -48 -32 -90 -58 -93 -58 -3 0 -6 60 -6 134 0 134 18 268 45 333 16 38 23 37 100 -12z m-1549 -2074 c48 -22 131 -113 140 -154 4 -22 0 -37 -16 -59 -21 -29 -22 -37 -16 -127 8 -107 47 -345 76 -461 42 -164 126 -420 212 -645 201 -527 389 -749 667 -789 l79 -11 -19 -35 c-50 -95 -81 -197 -95 -314 -10 -88 -19 -125 -31 -137 -37 -35 -358 -188 -370 -176 -2 2 53 60 123 128 70 68 139 142 155 163 l29 40 -26 27 c-14 15 -85 60 -157 101 -139 77 -214 141 -294 248 -126 169 -242 510 -262 774 -12 156 4 182 40 64 43 -146 242 -554 344 -708 105 -157 246 -287 330 -304 l30 -6 -25 18 c-97 68 -218 198 -305 327 -60 89 -229 417 -289 560 -98 236 -202 619 -270 998 -8 42 -24 107 -36 143 -21 64 -22 66 -4 87 11 12 12 17 4 10 -8 -6 -44 -21 -80 -33 -64 -22 -167 -73 -252 -126 -128 -80 -406 -355 -629 -624 -63 -77 -254 -353 -334 -485 -94 -155 -246 -470 -290 -600 -60 -180 -74 -169 -19 15 174 584 483 1086 934 1514 114 107 316 263 450 346 181 112 180 112 140 190 -11 22 -20 44 -20 50 0 16 41 12 86 -9z m5154 -55 c0 -8 -5 -37 -12 -65 -14 -60 -11 -64 81 -125 154 -103 431 -364 585 -551 294 -356 547 -797 665 -1155 49 -151 88 -307 78 -316 -3 -3 -22 46 -42 108 -72 219 -315 658 -571 1033 -101 149 -237 325 -338 438 -102 115 -369 341 -436 370 -14 6 -42 22 -62 34 -39 24 -58 29 -58 15 0 -5 18 -16 40 -26 44 -19 50 -38 26 -85 -22 -41 -51 -165 -86 -356 -57 -323 -93 -471 -156 -644 -51 -140 -84 -208 -177 -368 -184 -315 -311 -454 -582 -641 -33 -23 -73 -53 -90 -68 -29 -25 -29 -25 -5 -19 81 23 267 145 372 243 91 86 177 196 273 352 85 137 215 391 215 421 0 11 5 19 10 19 14 0 5 -58 -32 -210 -43 -178 -109 -332 -208 -487 -152 -240 -282 -357 -457 -414 -99 -33 -145 -65 -173 -120 -17 -33 -19 -46 -11 -76 6 -20 9 -38 7 -40 -1 -2 -26 26 -55 62 -28 36 -55 65 -60 65 -4 0 -11 34 -15 75 -7 81 -36 186 -67 247 -11 21 -19 39 -19 41 0 2 47 7 104 10 119 7 206 35 329 108 91 53 235 197 306 304 56 85 185 342 245 487 111 270 226 783 226 1009 0 85 0 86 -35 118 -22 20 -35 41 -35 57 0 30 78 117 130 144 43 23 90 26 90 6z m-5162 -353 c18 -88 51 -265 56 -293 9 -57 88 -390 108 -459 20 -67 21 -81 10 -163 -9 -72 -8 -107 4 -178 58 -361 175 -625 366 -826 55 -58 82 -78 143 -104 41 -18 75 -36 75 -39 0 -4 -35 -3 -77 2 -126 14 -305 2 -398 -26 -161 -49 -287 -130 -383 -246 l-48 -58 -19 293 c-33 530 -16 875 89 1866 31 286 51 349 74 231z m-118 -19 c0 -19 -14 -148 -46 -419 -75 -642 -87 -970 -55 -1440 12 -170 26 -339 32 -374 12 -74 5 -92 -11 -30 -27 105 -113 277 -187 374 -58 75 -194 187 -297 244 -121 67 -219 99 -343 113 -164 19 -282 -9 -419 -97 -42 -27 -70 -39 -72 -32 -3 16 142 301 218 428 193 320 456 668 700 922 82 85 209 197 225 197 4 0 -20 -30 -53 -67 -57 -65 -277 -356 -373 -493 -62 -89 -170 -272 -219 -372 -22 -46 -34 -74 -28 -64 252 382 418 612 582 805 94 112 274 296 282 289 3 -4 -6 -38 -20 -77 -14 -39 -43 -144 -66 -233 -70 -285 -107 -554 -114 -821 -2 -89 -2 -139 0 -112 2 28 10 104 18 170 8 66 18 147 21 180 14 133 58 370 101 550 41 171 90 348 101 368 7 13 23 7 23 -9z m5366 -283 c70 -402 89 -628 82 -986 -4 -239 4 -234 21 13 9 132 3 405 -14 602 -5 61 -77 499 -92 558 l-6 27 23 -20 c23 -20 150 -174 206 -249 126 -169 310 -465 443 -713 52 -95 95 -173 97 -173 11 0 -135 307 -218 460 -78 141 -226 370 -350 538 -37 50 -64 92 -59 92 13 0 203 -200 271 -286 95 -119 410 -556 410 -568 0 -3 33 -54 73 -114 41 -60 98 -156 127 -213 29 -57 73 -140 97 -184 45 -80 103 -209 103 -227 0 -5 -19 4 -42 20 -127 87 -236 112 -395 93 -126 -15 -239 -51 -379 -120 -259 -128 -409 -278 -535 -533 -33 -68 -57 -114 -54 -103 14 46 88 428 100 520 8 55 21 150 29 212 9 61 23 214 32 340 27 381 8 1036 -36 1228 -15 63 -10 74 12 26 11 -24 35 -132 54 -240z m-4645 240 c52 -17 110 -34 129 -38 33 -9 35 -12 47 -72 7 -35 22 -92 33 -128 11 -36 20 -67 20 -69 0 -21 -135 62 -207 128 -63 58 -133 155 -133 184 0 13 4 24 9 24 4 0 50 -13 102 -29z m4009 -1 c13 -8 12 -14 -5 -47 -44 -82 -164 -190 -303 -272 -58 -34 -61 -30 -37 40 18 49 43 159 47 204 3 29 6 30 83 47 44 9 98 21 120 26 53 13 77 14 95 2z m540 -265 c14 -322 11 -876 -5 -1115 -15 -211 -60 -647 -72 -684 -3 -10 -18 -91 -33 -180 l-27 -161 -17 33 c-42 81 -156 174 -287 236 -94 45 -173 66 -274 73 -111 8 -117 13 -56 52 113 73 295 299 385 478 84 169 157 433 152 552 -2 42 3 79 12 101 42 100 104 370 142 620 11 74 27 160 36 190 15 52 17 53 26 30 5 -14 14 -115 18 -225z m-921 -239 c16 -19 0 -29 -33 -20 -16 4 -23 11 -19 20 7 18 37 18 52 0z m-3315 -54 c-46 -4 -51 1 -29 35 l18 27 23 -30 24 -29 -36 -3z m727 -517 c114 -43 388 -121 599 -171 245 -58 408 -59 620 -3 105 28 563 179 574 190 32 30 34 -17 5 -114 -11 -38 -63 -176 -116 -306 -125 -312 -165 -431 -202 -598 -60 -273 -65 -499 -16 -667 l27 -90 -46 -87 c-63 -119 -110 -269 -141 -450 -14 -85 -40 -198 -56 -252 -30 -97 -32 -100 -119 -193 -90 -96 -150 -192 -150 -243 0 -47 -10 -52 -100 -49 l-83 3 -14 58 c-19 87 -58 159 -123 231 -124 137 -179 244 -255 496 -81 266 -133 399 -202 515 -26 44 -28 53 -17 70 63 97 63 590 0 873 -38 169 -72 276 -141 437 -83 195 -153 385 -141 385 2 0 46 -16 97 -35z m-14 -343 c144 -300 214 -611 217 -962 1 -141 -17 -267 -44 -310 -11 -18 -11 -19 -121 148 -45 67 -83 122 -85 122 -11 0 93 -226 162 -351 77 -143 129 -278 176 -459 60 -237 87 -329 110 -374 47 -95 95 -165 155 -228 102 -107 139 -212 122 -347 -5 -41 -10 -76 -12 -78 -2 -2 -16 28 -31 67 -39 99 -115 162 -152 126 -28 -28 -35 -74 -17 -118 21 -53 14 -59 -122 -98 -60 -17 -110 -32 -111 -33 0 -1 -6 -11 -12 -22 -8 -15 -9 0 -5 61 4 62 2 87 -10 111 -36 68 -80 83 -115 38 -20 -25 -38 -110 -33 -149 2 -14 -2 -17 -14 -12 -9 3 -29 6 -45 6 -26 0 -28 3 -34 54 -6 41 -14 60 -36 81 l-29 28 -31 -34 c-30 -34 -50 -83 -50 -126 0 -13 -6 -23 -14 -23 -13 0 -76 63 -76 78 -1 4 -5 27 -10 52 -5 27 -5 72 1 115 12 85 -1 174 -42 290 -208 592 -269 834 -269 1070 0 97 18 217 36 247 4 6 20 -22 36 -61 30 -71 56 -97 44 -43 -29 129 -37 183 -42 292 -11 199 33 365 136 514 144 210 163 242 194 329 19 50 39 118 46 149 l13 58 25 -37 c14 -20 54 -97 89 -171z m1868 111 c9 -106 34 -173 123 -343 112 -212 128 -247 163 -362 31 -100 32 -109 33 -288 1 -102 -2 -210 -6 -240 -8 -58 -5 -55 31 30 l18 45 19 -60 c30 -96 25 -288 -9 -437 -47 -198 -90 -343 -181 -597 -108 -303 -116 -344 -91 -473 23 -126 18 -193 -21 -241 l-29 -37 -12 65 c-14 75 -36 113 -69 121 -38 10 -68 -23 -79 -87 -7 -42 -28 -59 -75 -59 -19 0 -46 -7 -58 -16 l-22 -15 6 54 c8 65 -22 147 -53 147 -31 0 -91 -70 -105 -123 l-12 -48 -71 7 c-38 4 -71 7 -72 8 -1 1 2 21 8 44 5 23 6 55 3 70 -8 34 -42 72 -64 72 -37 0 -100 -97 -100 -155 0 -37 -19 -31 -37 12 -11 27 -14 59 -11 114 6 95 33 146 125 233 110 103 133 164 188 477 53 305 88 398 254 674 49 82 88 152 85 154 -2 2 -5 2 -7 0 -2 -2 -35 -40 -73 -84 -38 -44 -79 -93 -92 -109 -19 -25 -25 -28 -36 -15 -43 45 -70 242 -55 397 9 97 51 326 71 392 29 99 97 280 162 433 40 95 85 207 101 249 15 43 31 76 35 73 4 -3 11 -40 15 -82z m-2212 -176 l57 -12 -36 -61 c-20 -34 -46 -74 -59 -90 l-22 -28 -12 52 c-15 72 -15 152 2 152 6 -1 38 -6 70 -13z m2563 -12 c20 -13 24 -22 20 -41 -12 -48 -82 -179 -97 -182 -11 -2 -35 31 -78 107 -33 60 -61 112 -61 115 0 3 15 10 33 15 46 15 152 7 183 -14z m-3208 -745 c23 -10 42 -21 42 -24 0 -4 -40 -47 -89 -98 l-89 -92 -7 38 c-9 44 0 135 17 171 9 20 18 25 47 25 20 0 55 -9 79 -20z m382 -94 c0 -14 -11 -71 -25 -128 -32 -131 -42 -300 -25 -434 23 -185 91 -424 244 -859 26 -74 41 -131 36 -133 -6 -2 -27 13 -48 33 -61 60 -148 113 -198 121 -24 3 -79 1 -122 -6 -57 -9 -84 -9 -106 0 -16 6 -64 13 -105 17 -97 7 -167 -13 -239 -68 -65 -48 -68 -47 -121 60 -80 159 -106 278 -105 476 1 128 5 164 26 245 44 166 109 286 218 403 42 46 74 69 137 99 45 21 96 41 115 45 47 9 120 43 218 101 47 28 88 51 93 52 4 0 7 -11 7 -24z m2945 -36 c4 -6 32 -29 62 -52 81 -59 277 -252 335 -328 65 -85 123 -206 149 -310 19 -73 21 -103 16 -239 -5 -172 -25 -268 -76 -369 l-29 -56 -79 3 c-58 2 -91 -2 -119 -14 -34 -14 -48 -15 -111 -4 -40 6 -110 10 -156 7 -104 -7 -162 -34 -235 -111 -64 -68 -68 -54 -18 72 147 367 237 666 272 904 21 139 12 255 -31 420 -14 53 -25 100 -25 102 0 8 38 -13 45 -25z m-3650 -220 l26 -10 -41 -60 c-22 -33 -49 -80 -60 -105 -11 -25 -22 -45 -25 -45 -10 0 -42 82 -55 142 -18 81 -13 88 64 88 36 0 76 -4 91 -10z m-1575 -306 c0 -3 -16 -35 -35 -71 -19 -36 -35 -73 -35 -82 -1 -9 -21 -38 -45 -64 l-45 -49 -10 27 c-17 46 -11 81 23 131 35 51 108 114 133 114 8 0 14 -2 14 -6z m365 -68 c58 -27 105 -65 137 -109 l23 -32 -35 23 c-126 82 -225 103 -347 71 -91 -23 -148 -60 -190 -123 -53 -78 -59 -113 -40 -214 24 -123 59 -156 236 -222 117 -43 219 -61 345 -61 169 0 269 24 431 101 110 53 188 108 342 242 56 48 104 88 107 88 3 0 6 -45 6 -100 l0 -100 -42 -31 c-55 -40 -290 -154 -371 -180 -252 -81 -485 -103 -656 -64 -118 27 -274 90 -353 141 -63 40 -109 77 -281 226 -35 30 -33 34 9 18 42 -17 56 3 79 114 l6 30 23 -29 23 -29 24 29 c53 64 116 129 152 158 96 76 270 101 372 53z m1003 -27 c19 -6 32 -17 32 -27 -1 -35 -159 -227 -174 -211 -9 10 -46 144 -52 189 -6 46 -5 50 17 60 27 11 126 5 177 -11z m-1855 -149 c9 -14 17 -30 17 -38 0 -19 96 -136 172 -208 146 -141 259 -213 425 -273 159 -56 222 -66 428 -66 162 1 191 3 288 28 156 39 335 105 474 176 34 17 66 31 71 31 4 0 18 -44 31 -97 13 -54 32 -118 43 -143 19 -45 19 -45 -1 -61 -23 -19 -122 -41 -331 -73 -231 -36 -390 -49 -530 -44 -74 3 -113 2 -96 -3 56 -16 349 -21 501 -10 83 6 223 23 312 37 161 26 162 26 207 8 25 -11 45 -21 43 -24 -2 -4 -52 -109 -77 -160 -21 -45 -506 -28 -780 26 -264 53 -412 105 -600 212 -179 101 -302 203 -420 347 -77 95 -122 168 -185 299 -60 125 -81 187 -38 110 16 -27 37 -61 46 -74z m1542 -180 l59 -26 -58 -45 c-82 -63 -145 -103 -152 -97 -7 8 16 168 28 191 11 21 35 16 123 -23z m-1005 -99 c14 -26 13 -61 -2 -61 -18 0 -48 31 -48 50 0 34 33 42 50 11z m658 -46 c17 -14 49 -34 73 -44 l42 -19 -39 -17 c-64 -27 -184 -61 -184 -52 0 9 39 117 49 136 15 27 23 26 59 -4z m-459 -38 c28 -74 27 -75 -41 -56 -45 12 -47 23 -11 61 28 29 40 28 52 -5z m225 -42 l36 -55 -57 0 c-78 0 -89 8 -69 48 14 27 42 62 50 62 2 0 20 -25 40 -55z m1424 -251 c28 -8 28 -18 0 -57 -21 -31 -20 -31 21 7 l44 39 82 -6 c60 -4 93 -2 126 9 49 17 124 12 168 -11 39 -19 140 -129 156 -169 16 -37 20 -130 9 -186 -10 -46 -62 -67 -200 -80 -169 -16 -164 -17 -152 24 13 41 -6 79 -48 98 -22 10 -28 8 -55 -18 -19 -20 -32 -45 -37 -74 l-7 -45 -72 -5 c-49 -3 -77 -11 -91 -23 -20 -18 -21 -18 -43 30 -17 35 -23 66 -24 118 0 59 -3 70 -18 73 -28 6 -74 -45 -97 -106 -11 -29 -18 -57 -16 -60 2 -4 -6 -22 -19 -40 -22 -32 -23 -32 -28 -10 -25 106 -13 221 34 309 42 79 115 147 181 170 61 21 56 20 86 13z m3532 -21 c98 -27 183 -144 196 -270 10 -90 3 -104 -61 -136 -64 -31 -65 -31 -65 -14 0 6 -5 29 -10 49 -9 29 -18 39 -46 48 -19 7 -37 10 -39 8 -2 -1 10 -22 26 -46 35 -51 36 -58 7 -66 -79 -21 -429 16 -450 48 -4 6 -8 26 -8 45 0 18 -7 60 -15 92 l-16 59 37 58 c38 59 84 104 138 134 26 14 49 16 141 12 61 -3 135 -13 165 -21z m210 5 c79 -26 150 -93 194 -182 24 -48 30 -72 30 -130 1 -47 -5 -83 -16 -106 l-17 -35 4 40 c6 51 -21 121 -57 148 -24 18 -30 18 -57 7 -17 -7 -31 -17 -31 -23 0 -22 -17 9 -39 71 -27 77 -87 179 -112 193 -24 12 -24 26 -1 32 31 8 37 7 102 -15z m-2193 -300 c31 -34 53 -83 53 -118 l0 -30 -40 25 c-23 14 -44 24 -49 21 -4 -3 -8 0 -9 7 -13 85 -13 100 -1 108 20 12 23 11 46 -13z m708 -33 c4 -28 2 -61 -6 -83 -15 -47 -57 -132 -66 -132 -3 0 -4 42 -1 94 4 74 10 102 27 130 13 20 26 36 31 36 4 0 11 -20 15 -45z m1602 27 c13 -8 43 -73 43 -92 0 -7 -6 -8 -19 0 -11 5 -40 10 -65 10 -41 0 -46 2 -46 23 0 49 49 83 87 59z m-3997 -46 c0 -39 -3 -45 -25 -50 -49 -12 -61 22 -24 68 32 40 49 34 49 -18z m1318 -83 c2 -43 0 -94 -6 -113 l-9 -35 -23 50 c-27 59 -38 162 -20 195 l12 22 21 -20 c16 -16 21 -37 25 -99z m1372 78 c17 -33 11 -92 -17 -176 l-27 -80 -7 45 c-4 25 -11 56 -16 69 -12 31 -1 102 21 135 20 31 32 33 46 7z m289 -25 c7 -16 16 -59 19 -95 l5 -66 -46 50 c-48 52 -55 76 -35 120 15 33 39 29 57 -9z m-2631 12 c17 -17 15 -43 -9 -90 l-21 -42 -14 25 c-18 32 -17 54 1 89 17 33 25 36 43 18z m718 -5 c7 -10 14 -38 14 -61 0 -35 -4 -45 -19 -49 -11 -3 -28 -25 -40 -51 l-21 -47 4 85 c4 117 29 166 62 123z"/><path d="M6357 6819 c-124 -30 -241 -135 -327 -294 l-33 -60 49 55 c195 221 394 309 537 236 26 -13 47 -20 47 -16 0 10 -69 57 -103 69 -41 16 -127 21 -170 10z"/><path d="M4149 6767 c-50 -14 -134 -64 -164 -97 -25 -28 -14 -25 42 10 57 35 147 54 214 45 104 -14 254 -108 364 -227 l67 -73 -28 55 c-41 77 -183 218 -263 259 -74 39 -158 49 -232 28z"/><path d="M6283 6386 c-127 -61 -218 -176 -279 -352 -18 -53 -31 -94 -28 -92 2 3 24 45 48 94 78 160 170 259 296 317 52 24 83 31 155 35 85 5 88 6 60 18 -16 7 -64 13 -105 14 -66 0 -85 -4 -147 -34z"/><path d="M4111 6379 c-34 -11 -61 -22 -59 -25 3 -2 39 1 81 8 96 15 195 1 274 -38 53 -26 180 -141 231 -209 l22 -30 -15 40 c-36 92 -139 200 -232 243 -79 36 -209 41 -302 11z"/><path d="M6845 6351 c-3 -6 -25 -21 -48 -34 -39 -20 -55 -22 -218 -22 l-175 0 -86 -42 c-243 -121 -392 -441 -404 -870 l-4 -142 56 26 56 26 117 -17 c143 -20 181 -20 256 -1 101 26 178 70 239 135 87 95 129 199 142 355 5 74 -6 218 -21 257 -6 14 4 17 62 23 37 3 79 11 93 17 23 10 20 12 -45 28 -38 9 -81 23 -95 30 -25 14 -25 15 20 20 57 7 113 41 145 88 13 20 23 37 21 39 -2 2 -26 -10 -53 -27 -41 -26 -59 -31 -98 -28 -27 2 -50 8 -51 13 -2 6 14 23 36 38 37 27 78 83 67 94 -3 2 -8 -1 -12 -6z m-342 -181 c36 -10 58 -24 88 -59 42 -47 87 -128 108 -193 33 -102 29 -264 -9 -352 -64 -150 -247 -266 -418 -266 -42 0 -93 5 -112 10 -19 6 -68 11 -107 12 -77 2 -84 8 -57 47 19 26 24 26 144 -9 134 -38 235 -14 334 80 65 62 93 116 111 222 28 155 -14 322 -105 421 -26 29 -60 59 -74 66 -32 18 -33 28 -3 34 26 5 36 3 100 -13z m-239 -132 c43 -58 40 -142 -8 -192 -29 -31 -40 -36 -78 -36 -63 0 -98 35 -98 97 0 54 18 90 65 132 48 42 86 42 119 -1z m266 -357 c39 -74 -60 -215 -187 -266 -107 -42 -196 -27 -277 49 -55 50 -62 82 -9 36 50 -44 130 -80 178 -80 49 0 131 38 166 76 40 45 69 99 69 128 0 26 27 75 42 76 4 0 12 -9 18 -19z"/><path d="M3808 6303 c12 -17 22 -35 22 -40 0 -11 63 -64 100 -83 l25 -13 -40 -18 c-44 -20 -110 -24 -150 -9 -23 9 -25 8 -16 -9 15 -27 54 -50 113 -65 l52 -13 -34 -11 c-19 -5 -48 -13 -64 -17 -42 -9 -19 -25 46 -32 l55 -6 6 -146 c7 -167 27 -254 85 -366 64 -122 160 -198 307 -240 69 -20 172 -17 310 11 83 16 117 14 178 -11 15 -6 17 1 17 88 0 176 -61 451 -132 592 -68 134 -182 261 -277 309 -108 55 -197 67 -306 41 -70 -17 -172 -19 -211 -5 -15 6 -45 25 -68 43 l-41 32 23 -32z m511 -142 c11 -7 9 -10 -7 -15 -30 -10 -121 -121 -149 -182 -33 -72 -46 -156 -39 -244 7 -89 23 -146 64 -227 43 -84 72 -115 144 -153 56 -30 72 -34 143 -34 70 -1 89 4 152 33 81 38 127 37 121 -1 -3 -17 -20 -25 -114 -48 -143 -35 -240 -38 -325 -9 -74 25 -173 92 -219 146 -146 177 -137 517 18 667 58 55 172 92 211 67z m141 -98 c34 -23 47 -43 54 -77 8 -41 -20 -121 -51 -146 -61 -48 -146 -32 -176 33 -22 46 -21 72 4 125 16 33 32 49 63 63 51 23 75 24 106 2z m-207 -450 c16 -53 57 -137 77 -158 12 -13 45 -33 73 -45 74 -32 142 -24 214 26 30 20 58 45 64 56 10 18 29 25 29 9 0 -4 -19 -29 -41 -55 -102 -116 -236 -124 -363 -21 -57 47 -116 122 -116 149 0 15 37 56 51 56 4 0 9 -8 12 -17z"/><path d="M5240 5280 c-39 -10 -111 -39 -95 -39 6 0 37 6 70 14 93 23 266 18 368 -10 21 -6 21 -5 3 6 -56 35 -253 51 -346 29z"/><path d="M5620 5072 c-41 -21 -83 -96 -78 -138 l3 -26 61 46 c66 50 77 54 68 31 -4 -8 -1 -15 4 -15 25 0 33 97 10 111 -19 13 -29 11 -68 -9z"/><path d="M5062 5068 c-17 -17 -15 -83 3 -98 13 -11 15 -8 15 21 0 33 0 33 15 11 16 -22 134 -96 142 -89 2 3 -6 30 -17 61 -16 41 -31 63 -58 81 -39 27 -81 32 -100 13z"/><path d="M5991 4865 c-147 -131 -276 -202 -433 -236 -122 -27 -324 -22 -438 11 -123 35 -300 142 -410 246 -20 19 -43 34 -51 34 -8 0 -37 -14 -65 -32 -27 -17 -71 -40 -99 -50 l-50 -18 50 6 c28 3 66 10 85 15 61 16 92 11 125 -20 122 -115 338 -236 475 -266 109 -24 282 -22 393 4 149 36 275 104 414 226 l92 81 58 -7 c105 -13 112 -11 48 18 -33 15 -66 35 -73 45 -7 10 -19 18 -25 18 -7 0 -50 -34 -96 -75z"/><path d="M8112 4080 c0 -14 2 -19 5 -12 2 6 2 18 0 25 -3 6 -5 1 -5 -13z"/><path d="M4420 1700 c-11 -8 -7 -9 15 -4 37 8 45 14 19 14 -10 0 -26 -5 -34 -10z"/><path d="M6087 1690 c45 -18 127 -40 118 -31 -6 5 -34 16 -64 25 -58 17 -90 21 -54 6z"/></g><text x="0" y="1039" fill="#000000" font-size="5px" font-weight="bold" font-family="'Helvetica Neue', Helvetica, Arial-Unicode, Arial, Sans-serif"></text><text x="0" y="1044" fill="#000000" font-size="5px" font-weight="bold" font-family="'Helvetica Neue', Helvetica, Arial-Unicode, Arial, Sans-serif"></text></svg>