<svg xmlns="http://www.w3.org/2000/svg" version="1.0" viewBox="0 0 700 875" preserveAspectRatio="xMidYMid meet" x="0px" y="0px"><g transform="translate(0.000000,700.000000) scale(0.100000,-0.100000)" fill="#000000" stroke="none"><path d="M3320 5822 c46 -49 84 -142 74 -185 l-6 -30 -142 6 c-197 7 -275 27 -363 93 -17 13 -34 24 -36 24 -8 0 111 -217 149 -274 19 -28 34 -54 34 -58 0 -14 -165 -8 -219 8 -29 8 -55 14 -56 12 -2 -2 46 -44 107 -93 97 -79 128 -111 128 -129 0 -3 -21 -20 -47 -37 -27 -18 -71 -52 -99 -75 l-50 -43 -31 19 c-17 10 -56 49 -86 87 -119 148 -212 319 -253 466 -37 128 -65 154 -112 104 -60 -64 -96 -227 -96 -437 0 -265 52 -442 176 -602 73 -94 106 -147 127 -203 29 -78 52 -235 60 -410 9 -184 17 -210 98 -286 73 -69 117 -98 247 -164 l120 -60 18 -55 c30 -96 20 -180 -21 -180 -31 0 -132 74 -256 187 -232 213 -334 329 -407 462 -16 29 -20 31 -76 31 -49 0 -66 5 -106 31 -40 27 -51 30 -71 21 -27 -13 -70 -72 -113 -159 -25 -49 -51 -79 -129 -146 -126 -109 -237 -225 -303 -318 -125 -177 -249 -489 -253 -632 -1 -60 10 -89 25 -63 39 69 290 106 498 72 248 -40 401 -140 450 -294 12 -37 24 -74 26 -82 3 -8 13 8 23 38 21 61 55 101 126 147 89 58 200 79 286 55 70 -19 69 -32 -8 -107 -110 -108 -149 -213 -141 -378 4 -79 11 -106 51 -206 58 -141 59 -159 10 -196 -83 -64 -123 -107 -134 -143 -14 -46 -5 -99 22 -134 17 -22 29 -26 69 -26 42 0 51 -4 69 -29 44 -61 152 -67 264 -13 74 36 79 37 158 20 102 -21 185 24 209 113 12 44 24 47 90 24 30 -11 83 -15 181 -15 l139 0 20 -40 c30 -59 65 -73 160 -64 77 6 79 6 137 -30 85 -52 162 -48 217 13 16 17 31 21 86 21 77 0 107 16 134 75 14 28 15 42 7 73 -6 20 -11 42 -11 48 0 8 52 13 163 17 230 7 326 38 425 138 93 94 93 251 0 335 -53 47 -109 71 -195 84 -165 23 -315 -39 -368 -151 -15 -33 -25 -45 -34 -39 -11 6 -10 19 4 66 51 175 15 369 -94 495 l-35 41 45 -7 c108 -17 228 -96 271 -180 20 -38 21 -39 29 -17 5 13 13 51 19 85 12 74 59 149 125 196 59 42 274 145 349 166 33 10 87 18 120 18 99 1 155 -41 178 -132 l12 -46 14 35 c45 110 15 334 -66 495 -61 122 -119 194 -304 377 -142 142 -203 210 -249 280 -69 105 -125 168 -149 168 -9 0 -31 -18 -48 -39 -24 -30 -45 -43 -84 -55 -80 -23 -95 -38 -103 -98 -9 -67 -25 -97 -90 -178 -110 -135 -389 -385 -422 -378 -15 3 -18 14 -17 78 2 104 20 142 86 179 173 97 296 199 336 278 17 32 20 69 25 243 9 297 29 377 129 525 72 105 140 244 162 331 28 109 38 258 26 372 -20 186 -60 305 -120 356 -39 32 -51 32 -89 1 -29 -25 -43 -55 -76 -168 -35 -121 -215 -439 -266 -470 -13 -8 -32 2 -87 47 l-70 58 -4 107 c-3 94 -7 113 -35 171 -17 36 -45 81 -61 100 l-31 35 -1 -37 c0 -82 -51 -129 -115 -108 -28 9 -41 24 -70 78 -45 86 -110 160 -188 216 -77 54 -172 102 -220 111 l-36 7 39 -40z m155 -89 c100 -67 158 -135 212 -250 81 -175 84 -374 6 -527 -14 -28 -56 -82 -92 -120 -54 -57 -60 -66 -32 -50 50 28 138 130 171 199 40 81 52 149 48 280 l-3 109 45 8 c34 6 54 17 82 47 21 22 39 37 42 33 2 -4 11 -31 20 -61 64 -217 -72 -473 -319 -603 -104 -55 -95 -62 20 -15 147 60 243 140 321 268 19 32 42 59 50 59 8 0 13 -4 10 -9 -3 -5 0 -8 8 -7 20 2 140 -107 186 -168 132 -176 166 -342 149 -743 -8 -187 -12 -223 -30 -259 -27 -57 -107 -137 -202 -202 -93 -64 -518 -286 -579 -302 -74 -20 -140 -6 -278 61 -69 34 -164 79 -211 99 -260 115 -398 210 -449 310 -19 39 -35 300 -35 590 0 135 3 163 23 220 51 148 169 301 305 393 66 45 95 46 116 2 21 -43 25 -179 8 -242 l-14 -52 28 20 c49 34 105 110 129 173 15 41 4 30 -29 -27 -16 -29 -46 -70 -66 -92 l-37 -40 20 35 c32 57 52 139 50 209 l-1 66 -6 -60 -6 -60 -8 49 c-10 69 -45 122 -131 203 l-75 70 32 3 c86 8 140 0 200 -31 l62 -31 -40 36 c-22 19 -43 35 -47 36 -3 0 -21 19 -39 43 l-33 42 45 -40 c80 -74 95 -80 33 -15 -61 64 -144 172 -144 187 0 4 17 -9 38 -29 39 -38 129 -98 146 -98 6 0 -7 12 -30 28 -59 39 -124 94 -124 103 0 5 12 4 28 -2 15 -6 99 -16 187 -22 154 -10 161 -12 188 -38 30 -30 34 -27 12 11 -18 32 -18 40 0 40 8 0 33 -23 55 -51 22 -28 40 -48 40 -46 0 3 -16 33 -36 65 -48 82 -90 222 -66 222 4 0 25 -12 47 -27z m-1107 -50 c6 -10 13 -38 17 -63 12 -75 71 -226 121 -311 56 -97 167 -242 217 -286 21 -18 37 -36 37 -40 0 -5 -15 -29 -33 -54 -40 -56 -99 -181 -136 -285 -15 -43 -32 -79 -40 -82 -19 -6 -93 76 -150 169 -83 135 -125 289 -135 494 -5 95 -5 96 4 30 18 -131 33 -200 62 -285 58 -165 150 -310 197 -310 22 0 56 36 66 70 8 25 7 25 -13 6 -12 -10 -20 -23 -19 -30 1 -6 -10 -12 -24 -14 -21 -2 -34 6 -62 38 -82 96 -145 260 -172 450 -22 147 -17 426 7 483 18 40 42 48 56 20z m2247 1 c62 -63 108 -358 85 -554 -16 -144 -36 -215 -96 -336 -56 -116 -123 -204 -153 -204 -19 0 -31 23 -76 150 -15 41 -40 99 -57 128 -16 29 -26 57 -23 63 4 5 2 8 -4 7 -6 -2 -24 17 -40 41 l-30 45 28 35 c111 141 239 388 266 513 24 110 60 151 100 112z m186 -1656 c17 -24 47 -72 66 -108 55 -101 103 -171 112 -165 13 7 232 -205 304 -295 119 -150 188 -289 214 -435 7 -44 11 -96 7 -115 -6 -34 -7 -32 -33 50 -61 190 -154 322 -397 560 -172 168 -279 256 -360 296 -87 42 -87 42 -236 -250 -116 -227 -132 -254 -197 -321 -64 -66 -97 -119 -125 -200 -7 -20 -8 -20 -22 -1 -26 36 -18 73 31 151 l19 30 -23 -20 c-13 -11 -37 -40 -54 -65 l-31 -44 -17 39 c-32 77 -32 89 4 110 32 18 32 18 17 -1 -8 -10 3 -2 25 18 22 20 56 51 75 68 l35 31 -40 -25 c-35 -22 -116 -56 -134 -56 -3 0 91 98 209 218 118 119 216 217 218 216 1 -1 -2 -13 -7 -28 -20 -52 0 -25 34 45 19 40 42 105 51 145 15 69 18 74 51 85 50 16 92 4 180 -52 l78 -50 -50 46 c-27 25 -62 52 -77 61 -16 8 -28 17 -28 19 0 12 53 85 61 85 5 0 23 -19 40 -42z m-2627 -37 l28 -29 -39 -28 c-21 -15 -64 -47 -95 -71 l-58 -43 41 77 c49 91 70 122 85 123 5 0 23 -13 38 -29z m141 -37 c8 -4 41 -41 73 -83 70 -93 456 -488 526 -538 65 -46 106 -84 106 -97 0 -5 -7 -1 -15 10 -13 16 -14 16 -9 2 8 -22 -15 -23 -69 -3 -35 12 -37 12 -25 -3 18 -21 40 -73 34 -79 -5 -5 -80 32 -118 59 -16 11 -28 17 -28 14 0 -4 123 -94 136 -100 1 -1 5 -21 9 -46 l7 -45 -36 40 -37 40 26 -43 26 -43 -62 61 c-35 33 -95 86 -136 118 -72 57 -73 58 -153 222 -103 208 -181 340 -220 374 -61 51 -108 35 -290 -102 -305 -230 -591 -585 -686 -852 -36 -99 -30 -30 6 82 56 170 177 387 307 548 71 87 241 254 328 321 153 118 248 163 300 143z m-19 -170 c19 -9 48 -32 65 -51 34 -40 198 -372 206 -418 4 -24 -5 -45 -42 -100 -59 -90 -107 -189 -139 -290 -32 -104 -43 -166 -52 -304 -4 -62 -10 -107 -14 -100 -15 29 -19 128 -9 214 15 124 48 232 130 421 76 177 84 222 48 268 -17 22 -29 26 -68 26 -53 0 -149 -30 -263 -83 -83 -38 -278 -145 -278 -153 0 -2 45 18 100 46 249 125 441 178 484 134 26 -26 19 -66 -40 -206 -31 -73 -67 -164 -81 -203 -13 -38 -27 -77 -30 -85 -3 -8 -7 -22 -9 -30 -27 -148 -38 -190 -50 -190 -7 0 -35 14 -61 30 -137 87 -346 138 -645 156 -54 3 -98 9 -98 12 0 4 5 14 11 22 9 13 10 12 5 -2 -3 -12 0 -18 10 -18 10 0 13 7 9 23 -8 29 39 84 148 173 45 37 89 74 97 83 20 20 -51 -31 -130 -94 -36 -28 -75 -57 -88 -64 -22 -12 -23 -11 -12 9 6 11 16 17 22 14 7 -4 8 -3 4 5 -10 15 77 157 166 273 139 180 397 421 512 478 49 24 49 24 92 4z m2452 -31 c173 -117 490 -421 580 -556 29 -43 52 -84 52 -90 0 -7 -14 9 -30 36 -17 26 -33 47 -36 47 -6 0 1 -13 27 -51 10 -15 23 -38 28 -52 9 -22 2 -19 -64 28 -134 95 -331 199 -518 271 -113 43 -138 44 -32 0 127 -52 318 -153 432 -228 99 -65 233 -182 233 -203 0 -6 -46 -10 -108 -10 -91 0 -120 -4 -192 -29 -116 -38 -229 -100 -310 -168 -38 -31 -71 -54 -75 -50 -3 3 -3 -1 0 -10 4 -9 2 -18 -2 -21 -5 -3 -17 34 -26 83 -9 49 -48 176 -86 282 -91 251 -89 242 -57 264 38 24 148 30 223 11 66 -17 225 -77 285 -108 20 -10 41 -19 45 -19 25 1 -202 109 -296 141 -170 59 -348 34 -325 -45 3 -12 34 -91 69 -176 35 -85 73 -186 85 -225 36 -120 66 -366 41 -351 -4 3 -14 47 -21 98 -33 244 -138 497 -264 631 -14 15 -26 30 -26 31 0 12 199 387 217 410 23 29 91 86 103 86 4 0 25 -12 48 -27z m-1518 -328 c27 -14 71 -39 97 -55 60 -38 161 -70 222 -70 63 0 135 22 196 61 l50 31 -30 -33 -30 -32 32 22 33 22 -28 -53 c-24 -47 -27 -62 -26 -153 0 -68 7 -125 21 -176 17 -64 18 -81 8 -105 -19 -43 -65 -82 -131 -110 -45 -19 -50 -23 -24 -18 50 9 127 53 161 91 19 22 31 30 34 21 11 -30 25 -105 25 -134 0 -42 -43 -124 -96 -183 -54 -60 -109 -81 -208 -81 -130 0 -211 35 -273 117 -24 32 -28 47 -31 117 -2 45 1 92 7 106 8 19 9 1 5 -70 -3 -56 -1 -101 5 -110 16 -24 20 -8 10 45 -5 27 -6 70 -3 96 l6 48 53 -30 c70 -39 82 -37 15 4 -62 37 -73 62 -54 127 7 25 22 79 34 120 44 156 11 289 -93 372 -57 45 -54 47 13 13z m-34 -18 c32 -22 58 -52 81 -92 29 -53 33 -69 33 -135 0 -78 -2 -82 -85 -305 -21 -55 -39 -106 -42 -114 -3 -11 -7 -10 -19 5 -16 20 -16 18 2 -33 4 -10 -7 -2 -25 17 -29 33 -30 34 -21 8 18 -53 53 -115 130 -228 42 -63 87 -135 100 -160 41 -80 36 -240 -7 -240 -26 0 -53 31 -53 61 0 55 -17 37 -29 -31 -13 -72 -46 -135 -71 -135 -11 0 -18 21 -27 75 l-12 75 4 -78 5 -77 -28 14 c-39 21 -68 55 -82 101 -24 78 -34 56 -15 -37 5 -27 -21 -22 -57 11 -32 28 -33 32 -36 118 -1 48 -5 99 -9 113 l-6 25 -7 -25 c-10 -38 -40 170 -40 278 0 111 13 155 105 357 71 155 126 320 140 418 4 26 11 47 15 47 4 0 29 -15 56 -33z m744 2 c0 -40 69 -269 132 -439 70 -189 91 -296 85 -436 -2 -61 -9 -119 -15 -130 -10 -17 -12 -16 -13 11 -1 17 -5 -15 -9 -70 -7 -102 -21 -147 -63 -192 -27 -31 -37 -21 -38 40 l-1 52 -9 -40 c-17 -75 -30 -93 -77 -116 -45 -22 -45 -22 -81 -3 -43 23 -81 86 -81 134 0 26 -3 31 -10 20 -5 -8 -10 -27 -10 -41 0 -15 -7 -32 -16 -39 -13 -11 -19 -10 -37 8 -16 16 -22 37 -25 86 -5 80 16 130 127 301 76 116 111 192 111 238 0 16 -5 12 -19 -18 l-18 -40 -6 46 c-3 25 -27 101 -53 170 -40 104 -48 138 -52 211 -5 96 2 125 51 196 30 45 79 82 110 82 12 0 17 -8 17 -31z m-1223 -235 c21 -15 57 -46 80 -67 l42 -40 -51 -26 c-64 -33 -213 -164 -283 -248 -29 -35 -68 -92 -85 -126 -18 -34 -35 -64 -37 -67 -10 -11 -23 29 -23 73 0 156 97 399 206 514 l42 44 36 -15 c20 -8 53 -27 73 -42z m1679 36 c72 -45 195 -286 219 -427 4 -21 9 -47 12 -58 3 -14 -4 -9 -24 15 -92 114 -215 209 -330 254 -54 21 -58 25 -55 52 2 16 11 45 20 64 19 40 93 120 112 120 7 0 28 -9 46 -20z m-1513 -220 c23 -44 19 -88 -18 -207 l-27 -90 -37 13 c-38 13 -134 10 -207 -6 -34 -8 -87 -29 -147 -58 -19 -9 47 101 101 170 64 80 157 157 237 194 62 30 75 28 98 -16z m1472 -56 c70 -34 191 -145 180 -164 -5 -8 -4 -11 2 -7 11 7 42 -33 48 -61 2 -9 8 -30 14 -46 7 -16 10 -30 9 -32 -2 -1 -57 15 -123 36 -66 21 -132 41 -146 44 -44 10 -145 90 -158 126 -14 41 -14 81 -1 116 10 25 13 26 63 22 29 -3 78 -17 112 -34z m-46 -290 c93 -86 151 -214 151 -336 0 -96 -57 -317 -107 -412 l-18 -34 -50 13 c-27 8 -72 16 -100 19 l-50 6 60 -18 c89 -27 117 -45 180 -114 95 -103 114 -173 64 -227 -17 -18 -30 -21 -72 -19 l-52 3 -11 85 c-6 47 -12 81 -13 75 0 -5 -17 17 -37 48 -20 32 -38 57 -40 55 -2 -2 9 -33 23 -68 15 -36 29 -91 31 -123 4 -48 1 -63 -19 -91 -12 -18 -31 -39 -42 -46 -18 -11 -19 -10 -13 7 4 10 9 32 12 48 4 23 1 20 -13 -15 -22 -52 -41 -59 -87 -31 -93 58 -107 99 -65 190 33 72 32 91 -3 37 -26 -40 -34 -44 -41 -18 -3 10 -5 5 -6 -12 -2 -50 -24 -107 -49 -127 -16 -12 -40 -19 -69 -19 -41 0 -45 2 -60 37 -31 75 8 189 99 288 34 38 52 66 54 88 3 22 1 28 -5 17 -6 -8 -8 -17 -5 -22 5 -8 -36 -34 -48 -30 -5 1 -7 -3 -5 -9 1 -6 -4 -14 -10 -16 -10 -3 -11 1 -4 19 5 13 14 22 21 20 6 -1 9 2 5 8 -8 13 39 96 74 131 14 14 43 36 63 48 20 12 46 36 57 54 41 67 78 246 87 417 3 63 7 120 9 127 7 21 46 1 104 -53z m-1475 -101 c2 -16 8 -50 11 -78 4 -27 17 -93 30 -145 13 -52 26 -115 29 -140 4 -25 15 -60 26 -77 18 -31 84 -73 112 -73 17 0 49 -36 40 -45 -4 -3 0 -4 8 -1 21 8 44 -13 69 -61 11 -23 36 -59 53 -80 27 -32 28 -34 5 -14 -34 31 -35 14 -2 -25 55 -63 86 -173 66 -226 -6 -16 -17 -28 -25 -28 -8 0 -18 -4 -21 -10 -4 -6 1 -7 12 -4 14 4 15 4 4 -4 -7 -5 -23 -7 -35 -5 -17 4 -18 3 -6 -6 11 -8 1 -10 -39 -6 -61 5 -71 14 -71 67 0 28 7 42 31 62 37 31 54 32 96 6 22 -13 30 -15 27 -5 -8 20 -69 46 -91 39 -10 -4 -28 -16 -40 -27 l-23 -20 0 21 c0 12 -4 22 -9 22 -12 0 -31 -80 -31 -129 0 -27 -4 -41 -13 -41 -10 0 -12 15 -9 58 4 52 1 61 -23 90 -38 46 -46 40 -19 -15 34 -65 31 -95 -11 -137 -37 -38 -128 -72 -159 -60 -9 3 -21 27 -28 52 -6 26 -13 41 -15 35 -3 -7 0 -28 6 -47 12 -45 0 -47 -40 -7 -18 19 -29 40 -29 58 0 45 43 125 98 181 28 29 48 52 45 52 -3 0 -26 -15 -52 -34 -51 -39 -91 -81 -108 -117 -8 -17 -12 -19 -12 -7 -1 9 -13 26 -28 37 -24 20 -28 20 -50 5 -24 -15 -24 -15 -14 5 6 11 47 49 91 84 88 71 140 91 280 106 l75 8 -85 2 c-47 0 -109 -5 -138 -13 -40 -10 -52 -10 -52 -1 0 7 -15 46 -34 88 -56 121 -76 199 -76 291 0 126 40 235 113 314 38 39 54 41 61 5z m539 -62 c54 -21 177 -31 249 -21 39 6 73 9 75 7 1 -2 -11 -31 -27 -65 -17 -33 -33 -83 -37 -110 -6 -57 -15 -62 -98 -61 -68 1 -107 25 -117 72 -4 20 -19 60 -33 87 -14 28 -23 50 -20 50 3 0 22 -34 42 -75 39 -82 52 -93 28 -24 -21 58 -61 126 -83 138 -22 13 -11 14 21 2z m85 -340 c-3 -42 -2 -67 3 -56 4 11 8 46 8 78 l1 57 64 0 c35 0 70 2 78 5 8 3 22 -14 38 -47 20 -41 34 -57 65 -71 22 -11 49 -28 61 -38 11 -11 22 -18 25 -17 2 2 1 -1 -3 -6 -20 -26 -322 -50 -354 -28 -6 4 -10 18 -8 32 2 14 4 60 5 102 1 47 6 75 12 71 5 -3 7 -38 5 -82z m1529 36 c83 -42 120 -108 110 -194 -8 -73 -78 -157 -140 -168 -23 -5 -27 -2 -28 17 l0 23 -11 -21 c-12 -25 -46 -34 -129 -34 l-59 0 -2 38 -1 37 -4 -38 c-2 -21 -10 -40 -18 -43 -20 -8 -124 15 -168 38 -61 30 -77 52 -78 106 -1 29 -4 37 -6 19 -2 -15 -8 -25 -13 -22 -7 4 5 73 15 83 1 1 29 -13 61 -32 95 -56 191 -79 304 -74 85 4 101 8 153 37 31 18 57 35 57 38 0 3 -13 3 -30 1 -24 -4 -31 0 -36 16 -4 12 -16 34 -27 50 -20 29 -20 29 -1 23 18 -7 18 -6 -1 8 -11 8 -28 22 -37 31 -11 10 -18 13 -18 6 0 -8 -21 -11 -67 -10 l-68 1 65 7 65 7 -78 0 c-73 0 -77 -1 -62 -17 15 -16 13 -18 -13 -23 -16 -3 -40 -3 -53 0 -22 6 -23 5 -9 -12 12 -15 12 -17 1 -10 -11 6 -13 4 -8 -8 4 -12 1 -17 -11 -17 -18 0 -42 -18 -42 -32 0 -4 8 -5 18 -2 16 5 16 5 0 -6 -51 -32 -78 50 -38 115 43 70 116 96 255 92 84 -3 108 -8 152 -30z m-120 -137 c42 -25 59 -56 42 -77 -11 -12 -29 -14 -92 -11 -43 3 -82 9 -88 15 -14 14 31 76 61 84 39 11 43 10 77 -11z m-1000 -47 c1 -43 0 -44 -6 -13 -3 19 -12 35 -18 34 -38 -3 -42 -5 -37 -19 9 -22 -35 -92 -75 -120 -49 -33 -145 -65 -198 -65 -52 0 -125 35 -168 79 l-29 31 37 37 36 37 138 2 c125 2 160 7 314 43 3 0 6 -20 6 -46z m-1192 -377 c21 -51 7 -90 -34 -94 -43 -4 -61 13 -61 56 0 72 69 100 95 38z"/><path d="M3470 5611 c0 -6 4 -13 10 -16 6 -3 7 1 4 9 -7 18 -14 21 -14 7z"/><path d="M4230 4647 c30 -31 56 -54 59 -52 8 9 -51 76 -82 91 -28 14 -25 9 23 -39z"/><path d="M3907 4633 c-30 -42 -78 -126 -64 -113 4 4 85 123 103 153 3 4 3 7 0 7 -2 0 -20 -21 -39 -47z"/><path d="M2787 4640 c-29 -23 -72 -88 -64 -96 3 -3 11 4 17 16 6 12 28 39 47 61 39 43 39 50 0 19z"/><path d="M3080 4585 c19 -22 45 -53 58 -70 l23 -30 -18 33 c-9 18 -35 49 -57 70 l-40 37 34 -40z"/><path d="M4054 4489 c-41 -11 -119 -96 -149 -162 -49 -106 -74 -282 -51 -347 8 -22 7 -24 -8 -11 -9 8 -19 12 -21 9 -19 -19 96 -51 232 -65 89 -9 178 51 235 159 29 56 31 179 5 254 -20 57 -75 127 -116 148 -36 18 -90 25 -127 15z m126 -85 c50 -42 73 -98 78 -189 5 -97 -17 -161 -76 -217 -37 -35 -100 -64 -111 -52 -3 4 1 9 9 12 24 8 75 66 95 109 29 59 31 155 5 233 -12 36 -33 80 -46 98 -24 30 -24 32 -5 32 11 0 34 -12 51 -26z m-52 -70 c48 -33 15 -104 -48 -104 -62 0 -91 60 -48 100 26 24 65 26 96 4z"/><path d="M2800 4438 c-61 -41 -84 -98 -88 -213 -3 -84 0 -109 17 -156 36 -95 158 -199 232 -199 50 1 212 49 233 70 15 15 16 19 5 15 -14 -5 -17 6 -22 67 -11 146 -104 338 -195 402 -58 41 -133 47 -182 14z m126 -64 c-52 -36 -86 -110 -86 -190 0 -48 6 -74 31 -122 27 -55 98 -132 121 -132 4 0 8 -5 8 -10 0 -17 -69 -1 -116 26 -44 25 -96 97 -109 149 -15 63 -6 166 17 214 27 53 83 91 138 91 l35 0 -39 -26z m99 -49 c14 -13 25 -33 25 -43 0 -27 -33 -53 -67 -54 -69 -2 -104 53 -62 98 30 32 72 32 104 -1z"/><path d="M3386 3964 c-61 -19 -54 -29 8 -13 28 7 88 10 149 7 92 -4 98 -3 62 8 -54 17 -160 16 -219 -2z"/><path d="M3621 3814 c-31 -39 -26 -44 19 -22 22 11 40 26 40 34 0 23 -37 16 -59 -12z"/><path d="M3326 3811 c-7 -10 8 -22 47 -39 31 -13 34 -6 11 26 -15 22 -48 30 -58 13z"/><path d="M3815 3771 c5 -25 0 -34 -52 -80 -78 -69 -169 -114 -243 -119 -68 -5 -123 11 -262 76 -84 38 -98 48 -98 69 0 20 -3 22 -19 14 -10 -6 -26 -22 -35 -36 -17 -25 -17 -26 7 -20 17 5 49 -6 106 -35 168 -84 248 -106 334 -90 78 15 144 52 225 125 40 36 74 65 77 65 2 0 15 -4 29 -10 14 -5 26 -6 26 -1 0 8 -84 71 -95 71 -4 0 -4 -13 0 -29z"/><path d="M2616 4973 c23 -61 37 -82 55 -83 4 0 -11 34 -33 75 -22 41 -41 75 -43 75 -2 0 7 -30 21 -67z"/><path d="M4671 5324 c-1 -142 -19 -270 -52 -367 -46 -137 -116 -247 -157 -247 -12 0 -28 17 -45 48 -29 51 -38 42 -11 -11 23 -45 44 -67 65 -67 47 0 138 166 180 329 26 101 40 279 30 371 -8 73 -8 71 -10 -56z"/><path d="M4376 5018 c-25 -82 -35 -178 -17 -178 4 0 12 28 15 63 4 34 14 91 21 127 7 36 12 66 10 68 -2 2 -15 -34 -29 -80z"/><path d="M4046 3207 c3 -10 9 -15 12 -12 3 3 0 11 -7 18 -10 9 -11 8 -5 -6z"/><path d="M2345 3536 c-70 -34 -313 -171 -328 -185 -4 -4 81 37 189 91 112 56 208 98 225 98 21 0 27 4 23 15 -9 22 -32 18 -109 -19z"/><path d="M3675 3104 c-93 -79 -212 -85 -301 -15 -11 9 -5 2 13 -15 78 -73 199 -68 282 12 50 48 54 58 6 18z"/><path d="M3270 2604 c0 -6 7 -19 16 -30 14 -18 14 -18 3 6 -14 31 -19 36 -19 24z"/><path d="M2967 2903 c-40 -92 -66 -248 -49 -292 7 -19 10 -5 15 65 6 78 31 195 52 247 4 9 5 17 3 17 -3 0 -12 -17 -21 -37z"/><path d="M4010 3073 c0 -30 88 -278 96 -270 4 4 -82 267 -91 275 -3 3 -5 1 -5 -5z"/><path d="M3892 2150 c0 -14 2 -19 5 -12 2 6 2 18 0 25 -3 6 -5 1 -5 -13z"/><path d="M3972 2000 c0 -19 2 -27 5 -17 2 9 2 25 0 35 -3 9 -5 1 -5 -18z"/><path d="M3839 1663 l-24 -27 32 22 c41 29 59 28 88 -4 28 -30 34 -21 9 14 -22 32 -73 30 -105 -5z"/></g><text x="0" y="715" fill="#000000" font-size="5px" font-weight="bold" font-family="'Helvetica Neue', Helvetica, Arial-Unicode, Arial, Sans-serif"></text><text x="0" y="720" fill="#000000" font-size="5px" font-weight="bold" font-family="'Helvetica Neue', Helvetica, Arial-Unicode, Arial, Sans-serif"></text></svg>