<svg xmlns="http://www.w3.org/2000/svg" xmlns:xlink="http://www.w3.org/1999/xlink" version="1.1" x="0px" y="0px" viewBox="0 0 100 125" enable-background="new 0 0 100 100" xml:space="preserve"><path d="M50,6.594c-18.61,0-33.75,15.14-33.75,33.75v48.695c0,1.263,0.718,2.362,1.874,2.869c1.157,0.508,2.452,0.291,3.38-0.563  l8.545-7.861c0.027-0.025,0.059-0.036,0.097-0.035c0.037,0.002,0.068,0.017,0.093,0.044l7.975,8.875  c0.606,0.674,1.455,1.061,2.38,1.039c0.906-0.014,1.761-0.419,2.345-1.113l6.959-8.252c0,0,0,0,0,0  c0.019-0.023,0.183-0.024,0.203-0.001l6.96,8.255c0.584,0.692,1.438,1.098,2.344,1.112c0.017,0,0.033,0,0.049,0  c0.889,0,1.736-0.377,2.331-1.04l7.975-8.875c0.024-0.028,0.056-0.042,0.093-0.044c0.038-0.001,0.069,0.01,0.097,0.035l8.545,7.861  c0.928,0.854,2.224,1.071,3.38,0.563c1.156-0.507,1.874-1.606,1.874-2.869V40.344C83.75,21.734,68.61,6.594,50,6.594z M80.75,89.038  c0,0.035,0,0.087-0.08,0.122c-0.077,0.035-0.117,0-0.144-0.024l-8.545-7.861c-0.621-0.571-1.433-0.86-2.27-0.824  c-0.843,0.04-1.618,0.408-2.182,1.036l-7.975,8.875c-0.01,0.011-0.085,0.051-0.102,0.044c-0.06-0.001-0.089-0.035-0.099-0.046  l-6.96-8.255c-0.596-0.707-1.469-1.112-2.394-1.112c-0.926,0-1.799,0.406-2.396,1.114l-6.958,8.251  c-0.01,0.012-0.039,0.046-0.1,0.047c-0.059,0.003-0.091-0.033-0.101-0.044l-7.975-8.876c-0.564-0.627-1.339-0.995-2.182-1.035  c-0.837-0.038-1.649,0.252-2.27,0.824l-8.545,7.861c-0.026,0.024-0.064,0.059-0.144,0.024c-0.08-0.035-0.08-0.087-0.08-0.122V40.344  c0-16.956,13.794-30.75,30.75-30.75s30.75,13.794,30.75,30.75V89.038z"/><path d="M57.323,49.29c-0.814-0.167-1.603,0.362-1.767,1.174c-0.429,2.129-2.818,3.734-5.556,3.734s-5.127-1.605-5.556-3.734  c-0.164-0.812-0.954-1.34-1.767-1.174c-0.812,0.164-1.338,0.955-1.174,1.767c0.717,3.559,4.291,6.142,8.497,6.142  s7.779-2.583,8.497-6.142C58.661,50.244,58.135,49.453,57.323,49.29z"/><path d="M68.535,33.664c-1.483,0.11-2.815,1.09-3.413,2.385h-0.06c-0.598-1.295-1.93-2.275-3.413-2.385  c-1.421-0.105-2.803,0.55-3.518,1.745c-1.224,2.047,0.022,4.501,1.39,6.164c1.431,1.74,3.178,3.295,5.018,4.646  c0.325,0.239,0.781,0.239,1.106,0c1.84-1.35,3.587-2.905,5.018-4.646c1.368-1.664,2.614-4.118,1.39-6.164  C71.337,34.213,69.955,33.558,68.535,33.664z"/><path d="M41.87,35.408c-0.715-1.195-2.097-1.85-3.518-1.745c-1.483,0.11-2.815,1.09-3.413,2.385h-0.06  c-0.598-1.295-1.93-2.275-3.413-2.385c-1.421-0.105-2.803,0.55-3.518,1.745c-1.224,2.047,0.022,4.501,1.39,6.164  c1.431,1.74,3.178,3.295,5.018,4.646c0.325,0.239,0.781,0.239,1.106,0c1.84-1.35,3.587-2.905,5.018-4.646  C41.848,39.909,43.094,37.455,41.87,35.408z"/><text x="0" y="115" fill="#000000" font-size="5px" font-weight="bold" font-family="'Helvetica Neue', Helvetica, Arial-Unicode, Arial, Sans-serif"></text><text x="0" y="120" fill="#000000" font-size="5px" font-weight="bold" font-family="'Helvetica Neue', Helvetica, Arial-Unicode, Arial, Sans-serif"></text></svg>