<svg xmlns="http://www.w3.org/2000/svg" version="1.1" viewBox="-5.0 -10.0 110.0 135.0">
    <path d="m68.332 95.98-0.10938-0.007813-0.42188-0.046875-0.50781-0.10938-0.5625-0.17188-0.50781-0.19531-0.46875-0.22656-0.34375-0.22656-0.35156-0.26562-0.38281-0.32812-2.1797-2.1719-0.64844-0.57031-0.64844-0.53906-0.50781-0.40625-0.44531-0.33594-0.66406-0.47656-1.2891-0.85156-0.60156-0.35938-0.50781-0.28906-1-0.52344-1.4219-0.6875-1.3828-0.64844-2.8281-1.3047-1.0938-0.50781-1.1328-0.54688-1.5781-0.78906-0.80469-0.42188-0.64844-0.35156-0.82031-0.46875-0.6875-0.41406-0.78125-0.49219-0.73438-0.49219-0.57812-0.39844-0.73438-0.53906-0.78125-0.60156-0.66406-0.53906-0.91406-0.75781-0.625-0.53125-0.78125-0.69531-0.44531-0.42188-0.43359-0.41797-0.43359-0.42578-0.26953-0.27734-0.26562-0.27344-0.33594-0.36719-0.33203-0.36719-0.33594-0.39062-0.33203-0.38672-0.29297-0.35938-0.28906-0.35547-0.55469-0.71094-0.27734-0.37891-0.28125-0.38281-0.26562-0.38672-0.26953-0.38672-0.5-0.78125-0.5625-0.9375-0.53125-0.9375-0.26953-0.48047-0.26172-0.48828-0.78906-1.5781-0.21484-0.49219-0.21875-0.48828-0.21875-0.54297-0.22266-0.54297-0.23047-0.625-0.22656-0.625-0.38281-1.1562-0.22656-0.72656-0.25781 0.375-0.21875 0.28125-0.38281 0.44531-0.46875 0.46094-0.44531 0.38281-0.375 0.28906-0.46875 0.3125-0.50781 0.28906-0.53125 0.24219-0.26562 0.10938-0.35938 0.11719-0.46875 0.10937-0.35938 0.03125-0.55469-0.007812-0.42187-0.0625-0.41406-0.11719-0.39062-0.14844-0.32812-0.16406-0.39844-0.26562-0.375-0.32031-0.41406-0.4375-0.29688-0.40625-0.19531-0.3125-0.23438-0.49219-0.14062-0.42188-0.09375-0.39844-0.0625-0.44531-0.054688-0.71094 0.023438-1.3359 0.046874-1.0938v-1.7344l-0.054687-0.86719-0.070313-0.66406-0.042968-0.39453-0.054688-0.41016-0.15625-0.875-0.17969-0.86719-0.11328-0.48828-0.10938-0.48828-0.27734-1.1016-0.27344-1.1016-0.11328-0.48828-0.10938-0.49219-0.13281-0.66406-0.058593-0.34766-0.054688-0.34375-0.039062-0.33203-0.039063-0.33594v-1.2266l0.09375-0.80469 0.13281-0.79688 0.09375-0.46094 0.13281-0.57812 0.15625-0.57812 0.41406-1.3828 0.023437-0.125h-0.03125l-0.46875 0.09375-0.46875 0.023437-0.375-0.054687-0.35938-0.10938-0.4375-0.21875-0.32031-0.24219-0.22656-0.23438-0.1875-0.25-0.20312-0.39844-0.10938-0.35938-0.0625-0.26562v-0.95312l0.10156-0.46875 0.14844-0.45312 0.22656-0.47656 0.1875-0.29688 0.22656-0.3125 0.33594-0.39844 0.5-0.49219 0.45312-0.35938 0.47656-0.32031 0.71094-0.35938 0.50781-0.1875 0.39844-0.11719 0.55469-0.11719h1.0938l0.49219 0.11719 0.44531 0.16406 0.40625 0.19531 0.47656 0.28906 0.40625 0.30469 0.38281 0.35156 0.36719 0.39844 0.25 0.3125 0.38281 0.51562 0.60156 0.91406 0.39844 0.64844 0.39844 0.66406 0.28125 0.50781 0.007812-0.070312 0.070313-0.84375 0.15625-1.5547 0.15625-1.3594 0.19531-1.5 0.21875-1.4609 0.20312-1.1797 0.28906-1.5156 0.28125-1.3594 0.28906-1.25 0.32031-1.2422 0.35156-1.2422 0.28906-0.9375 0.38281-1.1562 0.52344-1.4453 0.40625-1.0469 0.39844-0.95312 0.44531-0.97656 0.44531-0.89062 0.55469-0.96875 0.59375-0.90625 0.54688-0.71875 0.42188-0.45703 0.39062-0.45703 1.0625-1.0859 0.91406-0.80469 0.77344-0.60938 0.82812-0.58594 0.9375-0.58594 0.84375-0.46875 0.95312-0.47656 0.96094-0.42188 1.0938-0.42188 1.0938-0.35156 1.1328-0.3125 1.1094-0.24219 1.1328-0.20312 1.25-0.17188 1.1797-0.10938 1.0703-0.054687h1.6719l0.97656 0.054687 1.0938 0.09375 1.0938 0.13281 1.1797 0.19531 1.0391 0.21875 1 0.25 1.0938 0.32812 1.0469 0.375 0.95312 0.39844 0.89062 0.42188 0.89062 0.46875 0.78125 0.44531 0.875 0.53906 0.875 0.57812 0.42969 0.29688 0.73438 0.53906 0.73438 0.57812 0.53125 0.44531 0.79688 0.71094 1.0078 1.0078 0.69531 0.76562 0.46875 0.54688 0.35938 0.44531 0.49219 0.64844 0.40625 0.57031 0.5 0.74219 0.51562 0.82031 0.4375 0.75781 0.5 1 0.25 0.59375 0.22656 0.60156 0.19531 0.625 0.17969 0.6875 0.15625 0.71094 0.10938 0.64844 0.085938 0.625 0.070312 0.65625 0.046875 0.85938-0.023437 1.6875-0.09375 1-0.09375 0.75781-0.13281 0.91406-0.15625 0.9375-0.42188 2.3125-0.25 1.3359-0.15625 0.84375-0.28906 1.5156-0.24219 1.2031-0.28906 1.3828-0.3125 1.3984-0.57812 2.4844 0.015625 0.015625 0.75-0.53125 1.2891-0.88281 0.84375-0.55469 0.50781-0.33594 0.92969-0.57812 0.8125-0.46094 0.76562-0.38281 0.64844-0.27344 0.55469-0.20312 0.57812-0.17188 0.48438-0.11719 0.54688-0.085937 0.72656-0.03125 0.50781 0.054687 0.375 0.0625 0.39844 0.10938 0.39844 0.14062 0.625 0.3125 0.46094 0.28906 0.53906 0.40625 0.46094 0.40625 0.39062 0.44531 0.35938 0.5 0.32031 0.53125 0.28906 0.55469 0.26562 0.60938 0.17188 0.46094 0.11719 0.375 0.10938 0.46875 0.054688 0.59375-0.054688 0.47656-0.085937 0.35156-0.13281 0.33594-0.11719 0.23438-0.21875 0.32031-0.36719 0.35156-0.26562 0.17188-0.26562 0.125-0.40625 0.13281-0.39062 0.070313-0.14062 0.023437 0.15625 0.39062 0.1875 0.66406 0.17969 0.80469 0.19531 1.0859 0.13281 0.95312 0.085937 0.82031 0.070313 0.86719 0.046875 1v0.95312l-0.046875 1.2031-0.070313 0.97656-0.070312 0.73438-0.10938 1-0.10938 0.75781-0.13281 0.78125-0.17969 0.86719-0.21875 0.86719-0.1875 0.64062-0.32812 0.97656-0.35938 0.96875-0.26562 0.61719-0.32812 0.66406-0.23438 0.39844-0.3125 0.46094-0.22656 0.24219-0.09375 0.47656-0.14062 0.375-0.17969 0.3125-0.17969 0.24219-0.3125 0.32812-0.42188 0.30469-0.42188 0.22656-0.39844 0.15625-0.42188 0.11719-0.21094 0.035156-0.21094 0.03125-0.64844 0.054688-0.75781-0.03125-0.55469-0.046875-0.72656-0.085937-0.76562-0.13281-0.75781-0.15625-1.2031-0.30469-1.0156-0.28906-0.89844-0.28906-1.3047-0.44531v0.63281l0.046875 0.67969 0.085938 0.69531 0.11719 0.59375 0.19531 0.73438 0.21875 0.70312 0.14062 0.39063 0.26562 0.66406 0.36719 0.78125 0.41406 0.75781 0.39844 0.64844 0.3125 0.44531 0.41406 0.54688 0.19922 0.23828 0.20313 0.23828 0.69531 0.70312 0.625 0.53906 0.44531 0.35937 0.95313 0.71094 0.84375 0.59375 1.0469 0.69531 1.0391 0.625 0.86719 0.47656 0.55469 0.3125 0.41406 0.25781 0.35938 0.27344 0.30469 0.28906 0.24219 0.32031 0.17969 0.35938 0.070312 0.24219 0.054688 0.375-0.023438 0.49219-0.070312 0.35938-0.13281 0.50781-0.20313 0.55469-0.26562 0.60156-0.22656 0.42187-0.24219 0.375-0.33594 0.42969-0.53906 0.53125-0.71094 0.57031-0.82031 0.54688-0.3125 0.17187-0.44531 0.21875-0.26562 0.10938-0.42188 0.15625-0.625 0.17187-0.57812 0.11719-0.6875 0.085938-0.65625 0.070312h-0.85938l-0.44531-0.0625-0.49219-0.11719-0.6875-0.20312-0.64844-0.25-0.58594-0.25781-0.85938-0.42969-0.60156-0.33594-0.39844-0.24219 0.046875 0.0625 0.40625 0.50781 0.46094 0.6875 0.39062 0.66406 0.47656 0.9375 0.22656 0.57812 0.16406 0.50781 0.14844 0.625 0.09375 0.625 0.03125 0.59375-0.054688 0.53125-0.085938 0.375-0.10937 0.3125-0.15625 0.28906-0.21875 0.29687-0.1875 0.17188-0.26563 0.17969-0.375 0.1875-0.52344 0.17188-0.54688 0.10938-0.49219 0.046875-0.3125-0.007812zm0.92188-1.1641 0.22656-0.046875 0.36719-0.11719 0.3125-0.14844 0.22656-0.20312 0.15625-0.32031 0.085937-0.35938 0.03125-0.5625-0.054687-0.50781-0.13281-0.65625-0.21875-0.67969-0.17969-0.4375-0.41406-0.82031-0.44531-0.74219-0.34375-0.5-0.33594-0.42188-0.46875-0.51562-0.54688-0.57812-0.41406-0.46875-0.52344-0.64844-0.51562-0.67969-0.16406-0.32031-0.023438-0.30469 0.078125-0.19531 0.24219-0.22656 0.25-0.070313 0.25781 0.023438 0.25781 0.09375 0.39844 0.23438 0.5 0.35938 1.1797 0.9375 0.60938 0.45312 0.57031 0.35938 0.49219 0.28125 0.75781 0.39062 0.55469 0.25 0.57812 0.23438 0.49219 0.15625 0.50781 0.13281 0.32031 0.070313 0.50781 0.046875 0.72656-0.046875 0.86719-0.10938 0.375-0.070313 0.53125-0.13281 0.53125-0.17969 0.46094-0.20312 0.53906-0.3125 0.57812-0.39062 0.52344-0.40625 0.53125-0.50781 0.30469-0.38281 0.17969-0.28125 0.26562-0.51562 0.22656-0.54688 0.16406-0.5 0.10938-0.50781v-0.33594l-0.0625-0.21875-0.078125-0.14844-0.29688-0.32031-0.35156-0.26562-0.47656-0.28125-0.90625-0.5-0.46875-0.26562-0.9375-0.5625-1.1094-0.74219-0.78125-0.54688-0.84375-0.625-0.73438-0.58594-0.55469-0.48438-0.80469-0.80469-0.53906-0.64844-0.35938-0.46875-0.35938-0.50781-0.33594-0.53125-0.36719-0.64844-0.52344-1.0703-0.25-0.625-0.21875-0.59375-0.19531-0.60938-0.13281-0.46875-0.10938-0.44531-0.10938-0.53125-0.046875-0.28906-0.046875-0.32812-0.070312-0.71875-0.023438-1.4297-1.2266-0.42969-3.3828-1.125-0.71094-0.28906-0.66406-0.29688-0.25781-0.10156-0.14844-0.11719-0.11719-0.19531-0.023438-0.24219 0.078125-0.23438 0.1875-0.1875 0.25781-0.070312 0.20312 0.03125 0.66406 0.28906 0.71875 0.30469 0.86719 0.3125 1.8047 0.58594 1.6016 0.54688 2.1406 0.75781 1.125 0.375 1.1797 0.35156 1 0.26562 0.75781 0.17969 0.66406 0.13281 0.71094 0.10938 0.60156 0.070313 0.82031 0.054687 0.66406-0.03125 0.42188-0.070312 0.26562-0.070313 0.24219-0.09375 0.35938-0.17969 0.21875-0.15625 0.20312-0.17969 0.19531-0.24219 0.14844-0.3125 0.070312-0.32031v-0.375l-0.070312-0.52344-0.15625-0.6875-0.24219-0.89062-0.40625-1.4922-0.4375-1.7812-0.33594-1.4219-0.20312-0.96094-0.17969-1.0391-0.09375-0.625-0.085937-0.75781-0.046875-0.53125-0.0625-0.9375-0.054688-1.8594 0.054688-1.6562 0.0625-0.8125 0.070312-0.65625 0.19531-1.3984 0.15625-0.91406 0.15625-0.75781 0.17188-0.63281 0.11719-0.3125 0.17969-0.35156 0.24219-0.25781 0.29688-0.14062 0.29688-0.015625 0.25781 0.078125 0.21875 0.125 0.45312 0.375 0.25781 0.15625 0.34375 0.14062 0.33594 0.085937 0.60156 0.085938 0.67969 0.054687 0.53906-0.054687 0.375-0.10938 0.1875-0.09375 0.22656-0.17188 0.16406-0.21875 0.13281-0.26562 0.09375-0.32812 0.023437-0.39844-0.070312-0.44531-0.16406-0.53125-0.22656-0.57812-0.41406-0.82031-0.29688-0.49219-0.35938-0.48438-0.5625-0.55469-0.4375-0.32031-0.45312-0.28906-0.51562-0.25781-0.46875-0.15625-0.48438-0.09375-0.625-0.023438-0.48438 0.046875-0.5625 0.11719-0.55469 0.16406-0.55469 0.20312-0.66406 0.28906-0.55469 0.28125-0.91406 0.52344-0.82031 0.50781-0.91406 0.59375-1.0938 0.73438-1.0234 0.71094-1.2422 0.89062-1.2891 0.96094-0.84375 0.66406-1.0703 0.86719-1.2266 1.0234-0.80469 0.6875-0.375 0.33594-0.50781 0.46875-0.46875 0.44531-0.21094 0.0625-0.21875-0.023437-0.17188-0.085938-0.11719-0.125-0.09375-0.20312v-0.24219l0.10156-0.21875 0.61719-0.60156 0.80469-0.71094 0.91406-0.78125 1.3594-1.1328 0.89062-0.71875 0.71094-0.55469 0.89844-0.67969v-0.015625l0.13281-0.61719 0.26562-1.1562 0.40625-1.7344 0.32812-1.4688 0.28906-1.3594 0.33594-1.6875 0.20312-1.0469 0.44531-2.4062 0.35938-1.9609 0.17969-1.0469 0.15625-1.0703 0.085937-0.75781 0.078125-0.84375v-2.1797l-0.078125-0.73438-0.085937-0.64844-0.13281-0.73438-0.09375-0.42188-0.19531-0.78125-0.19531-0.61719-0.22656-0.60156-0.10156-0.32422-0.14453-0.33203-0.19531-0.375-0.19531-0.37891-0.14844-0.26172-0.14844-0.25781-0.15234-0.25391-0.15234-0.25-0.36719-0.57813-0.21484-0.3125-0.21094-0.3125-0.28516-0.39453-0.28906-0.39453-0.30078-0.38281-0.30469-0.38281-0.1875-0.22266-0.19141-0.22266-0.28906-0.32422-0.28906-0.32031-1.1797-1.1797-0.625-0.55469-0.66406-0.55469-0.60156-0.46875-0.51563-0.38281-0.79687-0.55469-0.66406-0.4375-0.84375-0.52344-0.82031-0.46875-0.91406-0.46875-0.8125-0.38281-0.86719-0.35938-0.88281-0.3125-1.0234-0.3125-1.0469-0.26562-0.95313-0.20312-1.0469-0.17188-1.0859-0.14062-1.0469-0.085938-1.3828-0.0625h-0.9375l-1.3594 0.070313-1.1328 0.10938-1.1328 0.15625-1.1094 0.20312-1 0.21875-1.0938 0.28906-1.0703 0.34375-0.95312 0.36719-0.9375 0.41406-0.89062 0.42969-0.99219 0.55469-0.78906 0.5-0.75781 0.53125-0.78125 0.625-0.57812 0.51562-0.74219 0.71094-0.6875 0.73438-0.53125 0.625-0.54688 0.72656-0.54688 0.82812-0.46875 0.82031-0.53125 1.0703-0.33594 0.74219-0.40625 0.96875-0.375 0.96094-0.52344 1.4453-0.21094 0.64453-0.21484 0.64453-0.26562 0.86719-0.3125 1.0938-0.35938 1.3984-0.27344 1.1797-0.125 0.625-0.13281 0.64844-0.28906 1.4922-0.22656 1.3125-0.17969 1.2031-0.19531 1.4844-0.17969 1.5391-0.13281 1.3359-0.10938 1.3125-0.09375 1.2891-0.070313 1.3594-0.039062 1.4922v2.4219l0.070312 1.8047 0.070313 1.1797 0.085937 1.1562 0.10938 1.2031 0.13281 1.2266 0.13281 1.0703 0.15625 1.0938 0.17969 1.1094 0.21875 1.2422 0.24219 1.2031 0.22656 1.0234 0.21875 0.89062 0.28906 1.0703 0.35156 1.1797 0.27344 0.85156 0.375 1.1016 0.35156 0.95312 0.35938 0.89844 0.44531 1.0156 0.79688 1.6016 0.5625 1.0469 0.44531 0.78125 0.5625 0.9375 0.41406 0.64844 0.51562 0.75781 0.625 0.84375 0.53906 0.6875 0.60156 0.73438 0.53125 0.625 0.82031 0.91406 1.2656 1.2734 0.91406 0.82812 0.53125 0.46875 0.57812 0.49219 0.625 0.51562 0.78125 0.625 0.57812 0.44531 0.75781 0.55469 0.50781 0.35938 0.86719 0.57812 0.73438 0.46094 0.92969 0.55469 0.98438 0.54688 1.2031 0.63281 1.7344 0.85156 1.2266 0.57812 0.91406 0.42188 2.6016 1.1953 1.6875 0.79688 1.7109 0.85938 0.92188 0.51562 0.63281 0.38281 1.3594 0.89844 0.84375 0.61719 0.6875 0.53125 0.71875 0.59375 0.57812 0.51562 0.44531 0.41406 1.7344 1.75 0.4375 0.38281 0.375 0.28125 0.32812 0.1875 0.41406 0.17969 0.64844 0.21094 0.50781 0.11719 0.35938 0.046875 0.64844-0.015625zm0.94141-8.7227-0.097656-0.019531-0.09375-0.054688-0.09375-0.050781-1.2266-0.70312-0.82031-0.54688-0.73438-0.53125-0.80469-0.60156-0.42188-0.33594-0.9375-0.78125-0.50781-0.44531-0.71094-0.64844-1.3828-1.3828-0.75781-0.82813-0.78125-0.89062-0.96094-1.1328-0.9375-1.1328-0.91406-1.1328-0.67188-0.86719-0.72656-1-0.5-0.74219-0.20312-0.375-0.070312-0.26562 0.03125-0.1875 0.14062-0.23438 0.20312-0.125 0.25-0.023437 0.20312 0.054687 0.19531 0.17188 0.16406 0.34375 0.375 0.57031 0.57031 0.79688 0.75781 1 0.60156 0.75781 0.78125 0.95312 1.0938 1.3125 0.82031 0.95312 0.53906 0.60156 0.78906 0.84375 1.1484 1.1406 0.35938 0.33594 0.44531 0.39844 0.8125 0.69531 0.78906 0.64062 0.73438 0.55469 0.875 0.625 0.65625 0.4375 0.49219 0.28906 0.46875 0.25781 0.52344 0.3125 0.13281 0.15625 0.0625 0.21875v0.09375l-0.070313 0.23438-0.15625 0.17187-0.1875 0.085938-0.15625 0.023438zm-5.1016-22.395-0.10547-0.039063-0.3125-0.21094-0.46875-0.44531-0.30469-0.38281-0.26562-0.39844-0.42188-0.71094-0.46094-0.82031-0.36719-0.75781-0.24219-0.625-0.10938-0.39844-0.046875-0.23438v-0.23438l0.0625-0.16406 0.10938-0.14844 0.24219-0.13281h0.28906l0.17969 0.09375 0.14062 0.14844 0.070312 0.14062 0.046875 0.3125 0.14844 0.46094 0.1875 0.44531 0.35938 0.71094 0.39844 0.71094 0.35938 0.60156 0.30469 0.44531 0.28906 0.33594 0.29688 0.24219 0.16406 0.085938 0.14844 0.14062 0.09375 0.17969v0.3125l-0.09375 0.17969-0.125 0.11719-0.20312 0.09375h-0.24219zm8.7109-9.9531-0.11328-0.050782-0.14062-0.17187-0.070312-0.24219 0.03125-0.20312 0.19531-0.57812 0.44531-1.0469 0.38281-0.84375 0.52344-1.0234 0.69531-1.2188 0.76562-1.2969 0.34375-0.54687 0.32031-0.4375 0.45312-0.53125 0.35156-0.33594 0.20312-0.13281 0.23438-0.11719 0.21094-0.023438 0.21875 0.070313 0.17188 0.14062 0.10156 0.22656v0.21875l-0.054687 0.17188-0.15625 0.17969-0.16406 0.085937-0.21875 0.17969-0.30469 0.34375-0.35156 0.4375-0.25781 0.38281-0.33594 0.55469-0.82031 1.3984-0.51562 0.91406-0.29688 0.57812-0.33594 0.71094-0.35156 0.80469-0.28125 0.6875-0.13281 0.42188-0.070312 0.13281-0.16406 0.14844-0.14844 0.0625h-0.25781zm-31.344-0.53906-0.089844-0.007812-0.375-0.070313-0.3125-0.085937-0.375-0.13281-0.63281-0.3125-0.58594-0.39062-0.49219-0.42188-0.42188-0.44531-0.39062-0.48438-0.27344-0.39062-0.30469-0.47656-0.42188-0.84375-0.28906-0.73438-0.25-0.78125-0.11328-0.44141-0.10937-0.43359-0.10938-0.54297-0.11328-0.54688-0.17969-1.0859-0.054688-0.4375-0.054687-0.43359-0.046875-0.44141-0.042969-0.44531-0.042969-0.57031-0.046875-0.56641-0.046875-0.73438-0.023437-0.35938-0.03125-0.054688-0.24219 0.11719-0.53125 0.28906h-0.28906l-0.23438-0.125-0.11719-0.14844-0.070312-0.20312 0.023437-0.23438 0.085938-0.17188 0.125-0.11719 0.26562-0.15625 0.73438-0.375 0.86719-0.49219 0.625-0.32812 0.42188-0.25 0.21875-0.054688 0.19531 0.023438 0.23438 0.14062 0.125 0.20312 0.023437 0.25-0.054687 0.20312-0.17188 0.19531-0.66406 0.36719v0.046875l0.40625 0.40625 0.35938 0.28906 0.49219 0.32812 0.57812 0.32031 0.42188 0.19531 0.33594 0.13281 0.57812 0.19531 0.61719 0.14844 0.67969 0.10938 0.64844 0.070312 1.3984 0.023438 0.75781-0.054688 0.65625-0.085937 0.57031-0.10938 0.59375-0.15625 0.5-0.15625 0.50781-0.20312 0.47656-0.23438 0.34375-0.20312 0.17188-0.13281-0.89062-0.85938-0.09375-0.19531v-0.28906l0.078125-0.17969 0.20312-0.17969 0.17188-0.054687h0.19531l0.21875 0.10156 0.82031 0.79688 0.44531 0.36719 0.50781 0.38281 0.55469 0.375 0.3125 0.14844 0.24219 0.046875 0.19531 0.09375 0.14844 0.19531 0.054688 0.24219-0.054688 0.21875-0.10938 0.17188-0.13281 0.10156-0.17969 0.0625h-0.16406l-0.29688-0.0625-0.39062-0.15625-0.03125 0.03125-0.078125 0.53125-0.10938 0.48438-0.22656 0.82031-0.28906 0.89062-0.23438 0.63281-0.33594 0.80469-0.96094 2.1562-0.36719 0.73438-0.39062 0.66406-0.46875 0.71094-0.45312 0.60156-0.50781 0.57031-0.47656 0.4375-0.32031 0.25781-0.55469 0.375-0.53125 0.25781-0.44531 0.15625-0.42188 0.09375-0.42969 0.046875-0.54688-0.007813zm0.86328-1.1289 0.21875-0.035156 0.46094-0.15625 0.39844-0.20312 0.46094-0.3125 0.42188-0.35156 0.49219-0.50781 0.375-0.47656 0.47656-0.69531 0.44531-0.73438 0.32812-0.64062 0.5-1.1094 0.54688-1.2266 0.3125-0.76562 0.28125-0.76562 0.22656-0.73438 0.10938-0.39844 0.11719-0.46875 0.17188-1.0312 0.046875-0.09375h-0.023438l-0.25781 0.21094-0.3125 0.20312-0.53906 0.28906-0.44531 0.19531-0.54688 0.21094-0.8125 0.24219-0.625 0.14062-0.6875 0.10938-0.6875 0.070313-1.2891 0.023437-0.86719-0.046875-0.60156-0.070312-0.53125-0.085938-0.71094-0.15625-0.84375-0.28125-0.48438-0.21094-0.5625-0.28125-0.4375-0.25781-0.53125-0.35156-0.41406-0.33594-0.10938-0.085937 0.023438 0.4375 0.085937 1.2031 0.10938 1.1328 0.10938 0.82031 0.15625 0.9375 0.13281 0.6875 0.19531 0.84375 0.15625 0.57812 0.17969 0.53125 0.21875 0.55469 0.1875 0.39844 0.25781 0.48438 0.29688 0.45312 0.36719 0.49219 0.32812 0.35938 0.20312 0.1875 0.19922 0.1875 0.33594 0.25 0.33594 0.20312 0.50781 0.24219 0.42188 0.14062 0.35938 0.0625 0.53125 0.007812zm22.977-1.3047-0.050781-0.019532-0.13281-0.09375-0.125-0.17188-0.046876-0.23438 0.046876-0.21875 0.33594-0.50781 0.33594-0.44531 0.45313-0.53906 0.47656-0.53125 0.88281-0.9375 0.88281-0.84375 0.625-0.57812 0.82031-0.73438 1.0938-0.95312 0.66406-0.57031 0.625-0.49219 0.53125-0.38281 0.55469-0.35156 1.2656-0.78125 0.96094-0.53906 0.28125-0.17969 0.17969-0.046875 0.21094 0.023437 0.17188 0.085938 0.14844 0.16406 0.0625 0.15625v0.25l-0.070313 0.17969-0.14062 0.14844-0.38281 0.23438-0.91406 0.50781-1.2891 0.79688-0.50781 0.32812-0.39844 0.28906-0.39844 0.3125-0.53125 0.44531-1.2656 1.1094-0.80469 0.71094-0.80469 0.73438-1.3359 1.3359-0.78906 0.875-0.5 0.59375-0.33594 0.48438-0.19531 0.28906-0.24219 0.125h-0.29688zm-9.7461-10.598-0.10156-0.03125-0.16406-0.13281-0.53906-0.80469-0.11719-0.25 0.023438-0.25 0.09375-0.17969 0.15625-0.14062 0.15625-0.070313h0.22656l0.17188 0.054688 0.17187 0.15625 0.57813 0.875 0.046874 0.125v0.27344l-0.09375 0.19531-0.17969 0.15625-0.21875 0.0625h-0.11719zm1.2266-0.64062-0.074219-0.023437-0.20312-0.17969-0.40625-0.82031v-0.32031l0.09375-0.17969 0.125-0.11719 0.20312-0.09375h0.24219l0.22656 0.10156 0.125 0.14844 0.40625 0.82031v0.27344l-0.13281 0.23438-0.14844 0.10938-0.16406 0.0625h-0.21875zm1.5117-0.023437-0.074219-0.027344-0.17188-0.14844-0.085937-0.16406-0.16406-0.73438-0.023437-0.27344 0.070312-0.21094 0.11719-0.14844 0.21094-0.125h0.33594l0.21875 0.13281 0.14063 0.21094 0.03125 0.21094 0.15625 0.73438-0.023438 0.1875-0.085938 0.16406-0.125 0.11719-0.20312 0.09375h-0.24219zm-28.191-0.57812-0.082031-0.03125-0.15625-0.09375-0.10938-0.16406-0.054687-0.17188 0.023437-0.23438 0.09375-0.17969 1.3906-1.3828 0.20312-0.15625 0.14844-0.046875h0.20312l0.22656 0.10156 0.14844 0.17188 0.0625 0.14844v0.25781l-0.10156 0.20312-1.5312 1.5156-0.14062 0.070312-0.23438 0.023438zm22.301-0.59766-0.24609-0.015626-0.49219-0.09375-0.45312-0.15625-0.50781-0.25-0.41406-0.27344-0.25781-0.21094-0.34375-0.3125-0.375-0.42969-0.24219-0.3125-0.3125-0.46094-0.3125-0.55469-0.1875-0.39844-0.19531-0.46094-0.25-0.69531-0.19531-0.6875-0.09375-0.39844-0.085938-0.39844-0.085938-0.51562-0.070312-0.46875-0.070312-0.64844-0.039063-0.57812v-1.7109l0.054687-0.625 0.070313-0.625 0.085937-0.625 0.13281-0.73438 0.21875-0.9375 0.22656-0.78125 0.21875-0.64844 0.22656-0.60156 0.27344-0.625 0.30469-0.61719 0.28906-0.51562 0.24219-0.39844 0.33594-0.49219 0.28906-0.375 0.3125-0.375 0.49219-0.50781 0.44531-0.38281 0.42188-0.3125 0.39844-0.24219 0.3125-0.16406 0.29687-0.13281 0.375-0.13281 0.46875-0.11719 0.39844-0.046876h0.60938l0.57031 0.09375 0.53125 0.17969 0.50781 0.25 0.41406 0.27344 0.25781 0.21094 0.34375 0.3125 0.375 0.42969 0.24219 0.3125 0.3125 0.46875 0.3125 0.55469 0.1875 0.39844 0.19531 0.46094 0.25 0.69531 0.19531 0.6875 0.09375 0.39844 0.085937 0.39844 0.085937 0.51563 0.070313 0.46875 0.070313 0.64844 0.03125 0.64062v1.625l-0.054688 0.66406-0.085938 0.75781-0.09375 0.59375-0.10937 0.58594-0.1875 0.82031-0.25781 0.91406-0.25 0.71875-0.24219 0.61719-0.32031 0.70312-0.25 0.49219-0.26562 0.46875-0.24219 0.39844-0.33594 0.49219-0.28906 0.375-0.3125 0.375-0.60156 0.60938-0.33594 0.28125-0.42187 0.3125-0.39844 0.24219-0.35938 0.17969-0.42188 0.17969-0.46875 0.13281-0.35938 0.070313-0.50781 0.03125zm4.5352-9.2852 0.12891-0.03125 0.23438-0.11719 0.26562-0.27344 0.14062-0.28906 0.070313-0.28906v-0.29688l-0.085938-0.34375-0.14062-0.26562-0.25781-0.27344-0.24219-0.14062-0.26562-0.070313h-0.33594l-0.22656 0.078125-0.25781 0.15625-0.25 0.24219-0.16406 0.3125-0.070312 0.27344v0.25l0.046875 0.23438 0.15625 0.33594 0.35938 0.35938 0.26562 0.13281 0.20312 0.054688h0.28906zm-0.83594-4.207 0.17188-0.035156 0.26562-0.10938 0.3125-0.1875 0.375-0.35938 0.24219-0.35938 0.19531-0.42188 0.10938-0.42188 0.046874-0.39844v-0.39844l-0.0625-0.46875-0.09375-0.35938-0.15625-0.42188-0.23437-0.46875-0.23438-0.33594-0.35937-0.35938-0.26563-0.17188-0.32031-0.125-0.32812-0.054687-0.35156 0.03125-0.35156 0.11719-0.25 0.15625-0.29688 0.015625-0.23438 0.125-0.13281 0.17969-0.19531 0.35938-0.21094 0.49219-0.13281 0.50781v0.89062l0.09375 0.51562 0.15625 0.53125 0.17969 0.41406 0.16406 0.27344 0.24219 0.30469 0.35938 0.28906 0.33594 0.17188 0.22656 0.070312 0.19531 0.039063 0.36719 0.007812zm-27.129 12.867-0.10156-0.046876-0.125-0.11719-0.046875-0.085937-0.042969-0.085938-0.023438-0.23438 0.070313-0.20312 0.29688-0.42188h-0.023438l-0.78906 0.875-0.17969 0.085937h-0.28125l-0.14844-0.0625-0.16406-0.14844-0.09375-0.17969v-0.3125l0.09375-0.17969 0.8125-0.90625 0.21094-0.10938 0.21094-0.023437 0.17969 0.046874 0.17969 0.13281 0.125 0.21094v0.28906l-0.039062 0.10938 0.17969-0.21875 0.085937-0.078125 0.16406-0.070313h0.27344l0.16406 0.070313 0.14844 0.14062 0.09375 0.17969v0.3125l-0.078125 0.14062-0.5 0.72656-0.09375 0.10938-0.21875 0.10156h-0.24219zm4.9062-1.3789-0.15625-0.015625-0.29688-0.070312-0.35156-0.13281-0.36719-0.21875-0.29688-0.24219-0.34375-0.35156-0.28906-0.36719-0.25781-0.40625-0.32031-0.64062-0.21875-0.5625-0.17969-0.55469-0.15625-0.60156-0.13281-0.64844-0.09375-0.60156-0.070313-0.55469-0.070312-0.97656v-1.5156l0.023437-0.37891 0.027344-0.37891 0.085937-0.91406 0.070313-0.50781 0.054687-0.34766 0.054688-0.34375 0.078125-0.40234 0.078125-0.39844 0.21875-0.91406 0.089844-0.30469 0.089844-0.30859 0.19531-0.60938 0.10156-0.27734 0.097657-0.27734 0.17969-0.44531 0.16406-0.39844 0.27344-0.57812 0.35156-0.66406 0.28125-0.46875 0.35938-0.53125 0.41406-0.53906 0.60938-0.625 0.3125-0.25781 0.39062-0.28125 0.625-0.3125 0.39062-0.10938 0.29688-0.046875h0.50781l0.40625 0.085938 0.35938 0.14062 0.36719 0.21875 0.29688 0.24219 0.34375 0.35156 0.28906 0.36719 0.25781 0.40625 0.32031 0.64062 0.21875 0.5625 0.17969 0.55469 0.15625 0.60156 0.13281 0.64844 0.09375 0.60156 0.070312 0.55469 0.070313 0.97656v1.5156l-0.046875 0.75781-0.085938 0.91406-0.070312 0.50781-0.10938 0.6875-0.15625 0.80469-0.21875 0.89062-0.1875 0.64062-0.19531 0.60156-0.19531 0.55469-0.17969 0.44531-0.16406 0.39844-0.27344 0.57812-0.35156 0.66406-0.28125 0.46875-0.35938 0.53125-0.41406 0.53906-0.60938 0.625-0.3125 0.25781-0.39062 0.28125-0.625 0.3125-0.39844 0.10937-0.28906 0.039063-0.3125 0.015625zm4.5117-8.7852 0.12891-0.046875 0.22656-0.1875 0.14062-0.21094 0.10156-0.25781v-0.42188l-0.085937-0.28125-0.16406-0.25-0.25-0.27344-0.16406-0.0625-0.23438-0.03125-0.23438 0.054687-0.20312 0.10156-0.25 0.22656-0.14062 0.21875-0.10938 0.33594v0.35156l0.085937 0.28125 0.15625 0.22656 0.1875 0.15625 0.1875 0.09375 0.16406 0.039063 0.3125-0.015625zm-0.76562-3.9062 0.14453-0.035156 0.28125-0.13281 0.29688-0.24219 0.25781-0.34375 0.28906-0.57812 0.14062-0.42188 0.09375-0.44531 0.046875-0.53125-0.023437-0.44531-0.085938-0.4375-0.09375-0.27344-0.14844-0.32812-0.20312-0.30469-0.20312-0.22656-0.25-0.17188-0.26562-0.10156-0.375-0.007813-0.24219 0.078125-0.29688 0.17969h-0.10156l-0.14453 0.058594-0.11328 0.054687-0.10156 0.085937-0.097656 0.089844-0.125 0.16016-0.12109 0.16406-0.078125 0.15625-0.078125 0.15234-0.11719 0.35938-0.085937 0.42188-0.070313 0.53125 0.023438 0.78125 0.085937 0.375 0.11719 0.33594 0.15625 0.3125 0.19531 0.27344 0.28906 0.26562 0.30469 0.16406 0.25781 0.0625h0.28906zm43.332 40.617 0.10938-0.21875 0.27344-0.625 0.32812-0.88281 0.29688-0.86719 0.19531-0.67187 0.20312-0.78906 0.17969-0.83594 0.14062-0.78125 0.125-0.89063 0.09375-0.80469 0.070312-0.73438 0.070313-0.9375 0.046875-1.1016v-1.2109l-0.046875-0.89062-0.085938-1.0469-0.13281-1.0703-0.15625-0.91406-0.15625-0.80469-0.17969-0.70313-0.13281-0.42969-0.3125-0.65625-0.22656-0.03125-0.50781-0.085937-0.35156-0.09375-0.38281-0.14844-0.28906-0.14062-0.28906-0.1875-0.25781-0.21094h-0.023437l-0.10938 0.35156-0.10938 0.4375-0.11719 0.53125-0.15625 0.89062-0.13281 0.86719-0.09375 0.6875-0.046875 0.44531-0.0625 0.78125-0.054688 1.3594 0.03125 1.6484 0.046875 0.86719 0.070313 0.86719 0.10938 0.9375 0.09375 0.625 0.09375 0.53125 0.14844 0.78125 0.15625 0.71094 0.35938 1.5312 0.39844 1.5781 0.20312 0.73438 0.42188 1.5312 0.054687 0.25781h0.015625zm-59.859-1.957 0.16797-0.03125 0.35938-0.11719 0.375-0.15625 0.35938-0.17969 0.35938-0.20312 0.46875-0.3125 0.3125-0.25 0.5-0.4375 0.40625-0.42969 0.35938-0.44531 0.32031-0.49219 0.36719-0.6875 0.046875-0.070313-0.23438-0.88281-0.19531-0.80469-0.22656-1.0234-0.26562-1.3359-0.15625-0.89062-0.19531-1.2266-0.17969-1.2656-0.13281-1.0703-0.13281-1.2422-0.10938-1.2031-0.085937-1.1797-0.085938-1.6719-0.046875-1.6016v-2.0078l0.046875-1.625 0.039062-0.78125-0.21875-0.42969-0.20312-0.45703-0.19922-0.39844-0.19922-0.40234-0.16797-0.29688-0.16797-0.30078-0.19922-0.33594-0.19922-0.33203-0.24609-0.39062-0.24609-0.38672-0.48438-0.72656-0.35937-0.47656-0.375-0.42969-0.33594-0.3125-0.40625-0.30469-0.35938-0.21875-0.39844-0.1875-0.35938-0.11719-0.26562-0.054687h-0.57813l-0.35937 0.054687-0.375 0.085937-0.46094 0.15625-0.44531 0.19531-0.32031 0.1875-0.42188 0.28906-0.375 0.32031-0.33594 0.35156-0.26562 0.3125-0.20313 0.28906-0.20312 0.36719-0.13281 0.34375-0.09375 0.35938-0.046875 0.42969 0.039062 0.41406 0.070313 0.25781 0.13281 0.26562 0.26562 0.28125 0.28125 0.16406 0.34375 0.10937h0.30469l0.48438-0.085937 0.28906-0.03125 0.32812 0.046875 0.27344 0.125 0.17969 0.14062 0.16406 0.22656 0.09375 0.25 0.023438 0.28906-0.054688 0.375-0.35156 1.1797-0.19531 0.69531-0.15625 0.64844-0.15625 0.8125-0.09375 0.64844-0.054687 0.42188v1.1797l0.054687 0.44531 0.085937 0.60156 0.20313 1 0.17969 0.75781 0.44531 1.7812 0.28125 1.2031 0.21875 1.0625 0.15625 0.89062 0.10937 0.78125 0.070313 0.64844 0.046875 0.66406 0.03125 1.2031-0.03125 1.4688-0.054688 1.4922 0.023438 0.9375 0.070312 0.49219 0.085938 0.35938 0.10938 0.3125 0.16406 0.33594 0.25 0.375 0.30469 0.35937 0.25781 0.22656 0.15625 0.13281 0.26562 0.17969 0.28906 0.14844 0.27344 0.10156 0.36719 0.09375 0.42188 0.039063 0.33594-0.023438zm-2.6992-3.9102-0.085938-0.03125-0.16406-0.10938-0.13281-0.24219v-0.33594l0.11719-0.71094 0.070313-0.57813 0.046875-0.6875v-1.1719l-0.046875-0.75-0.09375-0.73438-0.15625-0.84375-0.15625-0.73437-0.17969-0.71094-0.22656-0.78125-0.53125-1.7344-0.14844-0.625-0.15625-0.86719-0.09375-0.73438-0.054688-0.73437v-1.8672l0.054688-0.35156 0.09375-0.20313 0.10156-0.10156 0.21094-0.10938h0.28906l0.21875 0.10938 0.10938 0.13281 0.078125 0.20313-0.023438 0.34375-0.046874 0.78125 0.046874 1.1562 0.046876 0.64844 0.10937 0.78906 0.13281 0.70312 0.13281 0.53125 0.32812 1.0547 0.26563 0.89062 0.20312 0.73438 0.13281 0.5625 0.17969 0.83594 0.13281 0.73437 0.070313 0.49219 0.070312 0.73438 0.023438 1.5156-0.054688 0.82031-0.0625 0.60156-0.14062 0.9375-0.039063 0.16406-0.14062 0.1875-0.20313 0.10156-0.24219 0.023438z"></path>
   <text x="0.0" y="117.5" font-size="5.0" font-weight="bold" font-family="Arbeit Regular, Helvetica, Arial-Unicode, Arial, Sans-serif" fill="#000000"></text><text x="0.0" y="122.5" font-size="5.0" font-weight="bold" font-family="Arbeit Regular, Helvetica, Arial-Unicode, Arial, Sans-serif" fill="#000000"></text></svg>
