<svg xmlns="http://www.w3.org/2000/svg" viewBox="0 0 100 125" x="0px" y="0px"><title>ghost</title><g data-name="Layer 1"><path d="M59.84,87.08a41.27,41.27,0,0,1-8.3-.87c-14.15-2.93-22.62-3-22.7-3a1.51,1.51,0,0,1-1.18-.57,1.55,1.55,0,0,1-.28-1.28l6-24.79c-10-7.47-15.58-14.41-15-18.67a3.53,3.53,0,0,1,2.34-3c3.07-1.16,8.42.92,14.33,5.48.28-4.15,1.37-11.42,5.54-15.73a11.22,11.22,0,0,1,8.36-3.48c10,0,13.41,11.77,14.47,17.24,5.09-4,9.54-5.75,12.41-4.73A3.94,3.94,0,0,1,78.46,37c.77,4.52-4.07,11.63-12.66,18.66A61.89,61.89,0,0,0,76.06,80.86,1.49,1.49,0,0,1,76.32,82a1.53,1.53,0,0,1-.61,1C75.41,83.17,69.73,87.08,59.84,87.08ZM30.73,80.3a142.47,142.47,0,0,1,21.42,3c10.53,2.18,17.73-.59,20.52-2a63.64,63.64,0,0,1-10-26.09,1.48,1.48,0,0,1,.55-1.33C73.72,45.47,75.84,39.48,75.5,37.48a1,1,0,0,0-.68-.89c-1.28-.45-5.15.27-11.49,5.88a1.49,1.49,0,0,1-2.48-1c0-.17-1.89-17.25-11.91-17.25a8.22,8.22,0,0,0-6.2,2.56C37.67,32.05,38,43.39,38,43.51a1.5,1.5,0,0,1-2.48,1.18c-7.15-6.17-12.11-7.51-13.71-6.91a.59.59,0,0,0-.43.55c-.25,1.81,2.49,7.57,14.6,16.45a1.51,1.51,0,0,1,.58,1.56Z"/><circle cx="44.87" cy="37.88" r="1.92"/><circle cx="53.76" cy="37.88" r="1.92"/></g><text x="0" y="115" fill="#000000" font-size="5px" font-weight="bold" font-family="'Helvetica Neue', Helvetica, Arial-Unicode, Arial, Sans-serif"></text><text x="0" y="120" fill="#000000" font-size="5px" font-weight="bold" font-family="'Helvetica Neue', Helvetica, Arial-Unicode, Arial, Sans-serif"></text></svg>