<svg xmlns="http://www.w3.org/2000/svg" xmlns:xlink="http://www.w3.org/1999/xlink" version="1.1" x="0px" y="0px" viewBox="1 -1 512 640" style="enable-background:new 1 -1 512 512;" xml:space="preserve"><g><g><g><path d="M237.7,152.8c-2.2,0-4.2-1.5-4.8-3.7c-3.8-13.8-5.9-31.3-5.9-49.1c0-39.8,10.3-80,30-80     c18.3,0,27.3,34.2,29.4,63.5c0.2,2.8-1.9,5.2-4.6,5.4c-2.8,0.2-5.1-1.9-5.4-4.6C273.8,48.8,263.5,30,257,30c-8.2,0-20,27.3-20,70     c0,17,2,33.5,5.6,46.5c0.7,2.7-0.8,5.4-3.5,6.1C238.6,152.7,238.2,152.8,237.7,152.8z"/></g><g><path d="M226.7,166.1c-1.3,0-2.5-0.5-3.5-1.4c-10.2-10.1-20.8-24.1-29.7-39.6c-10.3-17.8-17.6-35.9-20.7-51.1     c-4.4-21.7,1.2-30,6.7-33.2c15.8-9.1,40.7,16,57.2,40.3c1.6,2.3,1,5.4-1.3,6.9c-2.3,1.6-5.4,1-6.9-1.3     c-19.9-29.4-38.3-40.5-43.9-37.3c-2.7,1.6-4.8,8.4-1.9,22.5c2.9,14.1,9.9,31.2,19.6,48.1c8.5,14.7,18.5,28,28,37.5     c2,1.9,2,5.1,0.1,7.1C229.3,165.6,228,166.1,226.7,166.1z"/></g><g><path d="M223.8,183.1c-0.4,0-0.8-0.1-1.3-0.2c-13.9-3.6-30-10.5-45.5-19.4c-17.8-10.3-33.3-22.3-43.5-33.9     c-14.7-16.5-14-26.6-10.8-32.1c9.1-15.8,43.3-6.5,69.7,6.3c2.5,1.2,3.5,4.2,2.3,6.7c-1.2,2.5-4.2,3.5-6.7,2.3     c-31.9-15.5-53.4-15.9-56.7-10.3c-1.6,2.7,0,9.7,9.6,20.5c9.6,10.8,24.1,22.1,41,31.8c14.7,8.5,30,15,43,18.4     c2.7,0.7,4.3,3.4,3.6,6.1C228.1,181.6,226,183.1,223.8,183.1z"/></g><g><path d="M182,205c-39.8,0-80-10.3-80-30c0-18.3,34.2-27.3,63.5-29.4c2.7-0.2,5.1,1.9,5.4,4.6     c0.2,2.8-1.9,5.1-4.6,5.4c-35.4,2.6-54.2,12.9-54.2,19.4c0,8.2,27.3,20,70,20c17,0,33.5-2,46.5-5.6c2.7-0.7,5.4,0.8,6.1,3.5     c0.7,2.7-0.8,5.4-3.5,6.1C217.3,202.9,199.9,205,182,205z"/></g><g><path d="M142.1,260.9c-9,0-15.9-2.5-19.3-8.4c-9.1-15.8,16-40.7,40.3-57.2c2.3-1.6,5.4-1,6.9,1.3     s1,5.4-1.3,6.9c-29.4,19.9-40.5,38.3-37.3,43.9c4.1,7.1,33.6,3.7,70.6-17.7c14.7-8.5,28-18.5,37.5-28c1.9-2,5.1-2,7.1-0.1     c2,1.9,2,5.1,0.1,7.1c-10.1,10.2-24.1,20.8-39.6,29.7C184.4,251.6,159.4,260.9,142.1,260.9z"/></g><g><path d="M186.8,311.1c-3,0-5.4-0.8-7.3-1.9c-15.8-9.1-6.5-43.3,6.3-69.7c1.2-2.5,4.2-3.5,6.7-2.3     c2.5,1.2,3.5,4.2,2.3,6.7c-15.5,31.9-15.9,53.4-10.3,56.7c2.7,1.6,9.7,0,20.5-9.6c10.8-9.6,22.1-24.1,31.8-41     c8.5-14.7,15-30,18.4-43c0.7-2.7,3.4-4.3,6.1-3.6c2.7,0.7,4.3,3.4,3.6,6.1c-3.6,13.9-10.5,30-19.4,45.5     c-10.3,17.8-22.3,33.3-33.9,43.5C200.7,308.1,192.6,311.1,186.8,311.1z"/></g><g><path d="M257,330c-18.3,0-27.3-34.2-29.4-63.5c-0.2-2.8,1.9-5.1,4.6-5.4c2.7-0.2,5.1,1.9,5.4,4.6     c2.6,35.4,12.9,54.2,19.4,54.2c8.2,0,20-27.3,20-70c0-17-2-33.5-5.6-46.5c-0.7-2.7,0.8-5.4,3.5-6.1c2.7-0.7,5.4,0.8,6.1,3.5     c3.8,13.8,5.9,31.3,5.9,49.1C287,289.8,276.7,330,257,330z"/></g><g><path d="M327.2,311.2c-15.5,0-35.7-21.4-49.9-42.2c-1.6-2.3-1-5.4,1.3-6.9c2.3-1.6,5.4-1,6.9,1.3     c19.9,29.4,38.3,40.5,43.9,37.3c7.1-4.1,3.7-33.6-17.7-70.6c-8.5-14.7-18.5-28-28-37.5c-2-1.9-2-5.1-0.1-7.1s5.1-2,7.1-0.1     c10.2,10.1,20.8,24.1,29.7,39.6c19.9,34.4,31.1,74.4,14,84.3C332.2,310.5,329.8,311.2,327.2,311.2z"/></g><g><path d="M372.1,260.8c-14.5,0-34.1-6.6-50.6-14.6c-2.5-1.2-3.5-4.2-2.3-6.7c1.2-2.5,4.2-3.5,6.7-2.3     c31.9,15.5,53.4,15.9,56.7,10.3c4.1-7.1-13.6-31-50.6-52.3c-14.7-8.5-30-15-43-18.4c-2.7-0.7-4.3-3.4-3.6-6.1     c0.7-2.7,3.4-4.3,6.1-3.6c13.9,3.6,30,10.5,45.5,19.4c34.4,19.9,64.1,48.9,54.3,66C387.8,258.4,380.9,260.8,372.1,260.8z"/></g><g><path d="M348.1,204.4c-2.6,0-4.8-2-5-4.6c-0.2-2.8,1.9-5.1,4.6-5.4c35.4-2.6,54.2-12.9,54.2-19.4     c0-8.2-27.3-20-70-20c-17,0-33.5,2-46.5,5.6c-2.7,0.7-5.4-0.8-6.1-3.5s0.8-5.4,3.5-6.1c13.8-3.8,31.3-5.9,49.1-5.9     c39.8,0,80,10.3,80,30c0,18.3-34.2,27.3-63.5,29.4C348.4,204.4,348.2,204.4,348.1,204.4z"/></g><g><path d="M348.1,155.6c-1.6,0-3.2-0.8-4.1-2.2c-1.6-2.3-1-5.4,1.3-6.9c29.4-19.9,40.5-38.3,37.3-43.9     c-4.1-7.1-33.6-3.7-70.6,17.7c-14.7,8.5-28,18.5-37.5,28c-1.9,2-5.1,2-7.1,0.1s-2-5.1-0.1-7.1c10.1-10.2,24.1-20.8,39.6-29.7     c34.4-19.9,74.4-31.1,84.3-14c9.1,15.8-16,40.7-40.3,57.2C350.1,155.3,349.1,155.6,348.1,155.6z"/></g><g><path d="M253.9,146.8c-0.4,0-0.8-0.1-1.3-0.2c-2.7-0.7-4.3-3.4-3.6-6.1c3.6-13.9,10.5-30,19.4-45.5     c19.9-34.4,48.9-64.1,66-54.3c15.8,9.1,6.5,43.3-6.3,69.7c-1.2,2.5-4.2,3.5-6.7,2.3c-2.5-1.2-3.5-4.2-2.3-6.7     c15.5-31.9,15.9-53.4,10.3-56.7c-7.1-4.1-31,13.6-52.3,50.6c-8.5,14.7-15,30-18.4,43C258.2,145.3,256.1,146.8,253.9,146.8z"/></g><g><path d="M257,213.3c-21.1,0-38.3-17.2-38.3-38.3s17.2-38.3,38.3-38.3s38.3,17.2,38.3,38.3     S278.1,213.3,257,213.3z M257,146.7c-15.6,0-28.3,12.7-28.3,28.3s12.7,28.3,28.3,28.3s28.3-12.7,28.3-28.3S272.6,146.7,257,146.7     z"/></g><g><path d="M137,490c-2.3,0-4.4-1.7-4.9-4c-0.5-2.7,1.2-5.3,3.9-5.9c53.6-10.6,89.4-39.7,106.4-86.7     c12.8-35.2,9.6-67.6,9.6-67.9c-0.3-2.7,1.7-5.2,4.5-5.5c2.8-0.3,5.2,1.7,5.5,4.5c0.1,1.4,3.4,35-10.1,72.3     c-12.6,34.7-42.5,79-113.9,93.1C137.6,490,137.3,490,137,490z"/></g><g><path d="M299.3,386.1c-19.3,0-37.3-10.4-47-27.2c-0.9-1.5-0.9-3.5,0-5c9.7-16.8,27.7-27.2,47-27.2     c19.3,0,37.3,10.4,47,27.2c0.9,1.5,0.9,3.5,0,5C336.6,375.7,318.6,386.1,299.3,386.1z M262.5,356.5c8.2,12.2,22,19.7,36.8,19.7     s28.6-7.5,36.8-19.7c-8.2-12.2-22-19.7-36.8-19.7S270.7,344.3,262.5,356.5z"/></g><g><path d="M214.2,426.5c-10.1,0-20.1-2.8-28.8-8.3c-16.4-10.3-26.1-28.6-25.4-48c0.1-1.8,1.1-3.4,2.7-4.2     c17.1-9,37.9-8.3,54.3,2c16.4,10.3,26.1,28.6,25.4,48c-0.1,1.8-1.1,3.4-2.7,4.2C231.6,424.4,222.9,426.5,214.2,426.5z      M169.9,373.5c0.5,14.7,8.2,28.4,20.8,36.2c12.5,7.8,28.2,8.9,41.6,2.9c-0.5-14.7-8.2-28.4-20.8-36.2l0,0     C199,368.6,183.3,367.5,169.9,373.5z"/></g></g></g><text x="1" y="526" fill="#000000" font-size="5px" font-weight="bold" font-family="'Helvetica Neue', Helvetica, Arial-Unicode, Arial, Sans-serif"></text><text x="1" y="531" fill="#000000" font-size="5px" font-weight="bold" font-family="'Helvetica Neue', Helvetica, Arial-Unicode, Arial, Sans-serif"></text></svg>