<svg xmlns="http://www.w3.org/2000/svg" xmlns:xlink="http://www.w3.org/1999/xlink" version="1.1" x="0px" y="0px" viewBox="1 -1 512 640" style="enable-background:new 1 -1 512 512;" xml:space="preserve"><g><g><path d="M269.8,133.9c9.8-9.5,22.9-19.1,37.2-27.3c4.3-2.5,8.6-4.8,13-7c14.7-31.1,15.1-52,9.6-55.1    c-7.1-4.1-31,13.6-52.3,50.6c-7.2,12.4-12.9,25.3-16.6,36.8C263.8,132.1,266.8,132.8,269.8,133.9z"/><path d="M250,132.3c3.8-13.1,10.3-28,18.5-42.3c2.5-4.3,5.1-8.5,7.8-12.5C273.5,43.2,263.4,25,257,25    c-8.2,0-20,27.3-20,70c0,14.4,1.4,28.3,4,40.2C243.8,133.9,246.8,132.9,250,132.3z"/><path d="M202.2,115c7.2,12.4,15.4,23.9,23.6,32.8c1.8-2.6,3.9-4.9,6.3-6.9c-3.3-13.3-5.1-29.4-5.1-45.9    c0-4.9,0.2-9.9,0.5-14.7c-19.6-28.3-37.4-39-43-35.8c-2.7,1.6-4.8,8.4-1.9,22.5C185.5,81.1,192.4,98.1,202.2,115z"/><path d="M182,190c14.4,0,28.3-1.4,40.2-4c-1.3-2.8-2.3-5.8-2.9-9c-13.1-3.8-28-10.3-42.3-18.6    c-4.3-2.5-8.5-5.1-12.5-7.8c-34.3,2.8-52.5,12.9-52.5,19.3C112,178.2,139.3,190,182,190z"/><path d="M182,149.8c12.4,7.2,25.3,12.9,36.8,16.6c0.3-3.2,1-6.3,2-9.2c-9.5-9.8-19.1-22.9-27.3-37.2    c-2.5-4.3-4.8-8.7-7-13c-31.1-14.7-51.9-15.1-55.1-9.6C127.3,104.6,145,128.5,182,149.8z"/><path d="M296,331.8c-13.8,0-26.7,6.5-35,17.2c1.7-17.5,1-31.7,0.7-36.7c7.4-7.8,15.3-32.4,15.3-67.4    c0-14.4-1.4-28.3-4-40.2c-2.8,1.3-5.8,2.3-9,2.9c-3.8,13.1-10.3,28-18.6,42.3c-2.5,4.3-5.1,8.5-7.8,12.5    c2.1,25.6,8.3,42.3,13.9,49c0,0,0,0,0,0c0,0.3,3.6,41.6-9.2,76.9c-2.1,5.9-4.5,11.4-7.2,16.7c-1.8-12.9-9.1-24.6-20.3-31.6    c-12.5-7.8-28.2-8.9-41.6-2.9c0.5,14.7,8.2,28.4,20.8,36.2c11.4,7.1,25.4,8.6,37.9,4.3c-19.4,33.7-51.5,55.1-95.8,63.9    c-2.7,0.5-4.5,3.2-3.9,5.9c0.5,2.4,2.6,4,4.9,4c0.3,0,0.6,0,1-0.1c71.3-14.1,101.3-58.4,113.9-93.1c4.7-12.9,7.3-26.3,8.7-38.5    c8.3,11.1,21.5,17.8,35.5,17.8c14.8,0,28.6-7.5,36.8-19.7C324.6,339.3,310.8,331.8,296,331.8z"/><path d="M154,244.4c14.1-2.9,31.2-9.9,48.1-19.6c12.4-7.2,23.9-15.4,32.8-23.6c-2.6-1.8-4.9-3.9-6.9-6.3    c-13.3,3.3-29.4,5.1-45.9,5.1c-4.9,0-9.9-0.2-14.7-0.5c-28.3,19.6-39,37.4-35.8,43C133,245.2,139.8,247.3,154,244.4z"/><path d="M279.2,138.7c2.6,1.8,4.9,3.9,6.9,6.3c13.3-3.3,29.4-5.1,45.9-5.1c4.9,0,9.9,0.2,14.7,0.5    c28.3-19.6,39-37.4,35.8-43c-4.1-7.1-33.6-3.7-70.6,17.7C299.5,122.4,288.1,130.6,279.2,138.7z"/><path d="M347.5,150.5c-4.9-0.3-10.1-0.5-15.5-0.5c-14.4,0-28.3,1.4-40.2,4c1.3,2.8,2.3,5.8,2.9,9    c13.1,3.8,28,10.3,42.3,18.6c4.3,2.5,8.5,5.1,12.5,7.8c34.3-2.8,52.5-12.9,52.5-19.3c0-7.1-20.7-17-54.2-19.4    C347.7,150.6,347.6,150.6,347.5,150.5z"/><path d="M345.5,198.7c0,0-0.1-0.1-0.1-0.1c-4.1-2.8-8.6-5.6-13.4-8.4c-12.4-7.2-25.3-12.9-36.8-16.6    c-0.3,3.2-1,6.3-2,9.2c9.5,9.8,19.1,22.9,27.3,37.2c2.5,4.3,4.8,8.6,7,13c31.1,14.7,52,15.1,55.1,9.6    C386.1,236.4,373.2,217.5,345.5,198.7z"/><path d="M194.1,240.4c-14.7,31.1-15.1,51.9-9.6,55.1c2.7,1.6,9.7,0,20.5-9.6c10.8-9.6,22.1-24.1,31.8-41    c7.2-12.4,12.9-25.3,16.6-36.8c-3.2-0.3-6.3-1-9.2-2c-9.8,9.5-22.9,19.1-37.2,27.3C202.7,236,198.4,238.3,194.1,240.4z"/><path d="M257,198.3c15.6,0,28.3-12.7,28.3-28.3s-12.7-28.3-28.3-28.3s-28.3,12.7-28.3,28.3    S241.4,198.3,257,198.3z"/><path d="M329.5,295.6c7.1-4.1,3.7-33.6-17.7-70.6c-7.2-12.4-15.4-23.9-23.6-32.8c-1.8,2.6-3.9,4.9-6.3,6.9    c3.3,13.3,5.1,29.4,5.1,45.9c0,4.9-0.2,9.9-0.5,14.7C306.1,288,324,298.8,329.5,295.6z"/></g></g><text x="1" y="526" fill="#000000" font-size="5px" font-weight="bold" font-family="'Helvetica Neue', Helvetica, Arial-Unicode, Arial, Sans-serif"></text><text x="1" y="531" fill="#000000" font-size="5px" font-weight="bold" font-family="'Helvetica Neue', Helvetica, Arial-Unicode, Arial, Sans-serif"></text></svg>