<svg xmlns="http://www.w3.org/2000/svg" viewBox="0 0 512 640" x="0px" y="0px"><g data-name="sun glasses, love, heart, fashion copy"><path d="m470.30957 241.41577c-29.279-48.77148-82.69336-129.46557-116.89844-131.97485-2.90527-.21436-11.7334-.85694-36.35351 23.47412-13.85184 13.69275 4.30957 35.61514 20.25293 24.76123 8.47168-5.76758 13.793-7.24951 15.94922-6.72119 13.4165 3.28174 30.9663 26.97021 49.67065 66.905a71.95317 71.95317 0 0 0 -34.571 9.363c-27.5344-15.51492-61.86387-11.10389-83.707 8.68409-13.78906 12.50586-37.15039 16.5747-55.126.1582-22.337-20.3844-56.85763-24.0735-83.88477-8.84277a72.17963 72.17963 0 0 0 -34.58252-9.335c18.69068-39.94874 36.24414-63.64771 49.688-66.93409 2.1543-.53027 7.47266.95557 15.94238 6.72315 15.94473 10.85166 34.10708-11.06713 20.252-24.76221-24.62012-24.33154-33.44629-23.68652-36.3545-23.47363-34.12524 2.50708-87.50366 83.0664-116.78247 131.78613-21.02514 8.193-24.28794 39.20854-2.80835 50.648 4.54338 47.60764 51.86372 89.50361 90.89356 116.79492a24.09308 24.09308 0 0 0 27.502-.00195c40.01771-27.97451 88.466-71.13754 91.14258-119.91113.45917-8.43828 12.46624-8.72881 12.93164-.11524 2.584 48.74593 50.98355 91.95046 91.14258 120.02637a24.09284 24.09284 0 0 0 27.5039 0c39.053-27.30678 86.34931-69.1976 90.89161-116.794 21.27714-11.33392 18.33687-42.01366-2.69449-50.45815zm-6.57957 32.30423a5 5 0 1 1 5-5 5.00181 5.00181 0 0 1 -5 5zm-95.36965 110.3884c-53.49121-37.92578-81.33008-76.5586-76.46582-106.23926 5.4303-33.12952 50.58549-43.06858 73.49317-17.62305a4.00084 4.00084 0 0 0 5.94628 0c22.86846-25.41636 68.04835-15.51084 73.48243 17.63477 4.86621 29.67578-22.96973 68.30469-76.45606 106.22754zm-324.8103-115.3884a5 5 0 1 1 5 5 5.00181 5.00181 0 0 1 -5-5zm25.63354 9.16089c5.42826-33.11014 50.57817-43.08692 73.48243-17.63477a4.00116 4.00116 0 0 0 5.94628 0c22.917-25.45667 68.06561-15.48973 73.49317 17.62305 4.86426 29.68066-22.97461 68.31348-76.46582 106.23926-53.48633-37.92288-81.32227-76.55179-76.45606-106.22757z"/></g><text x="0" y="527" fill="#000000" font-size="5px" font-weight="bold" font-family="'Helvetica Neue', Helvetica, Arial-Unicode, Arial, Sans-serif"></text><text x="0" y="532" fill="#000000" font-size="5px" font-weight="bold" font-family="'Helvetica Neue', Helvetica, Arial-Unicode, Arial, Sans-serif"></text></svg>