<svg xmlns="http://www.w3.org/2000/svg" version="1.1" viewBox="-5.0 -10.0 110.0 135.0">
 <g fill-rule="evenodd">
  <path d="m27.863 32.07c-0.39453 0.14844-0.77344 0.27344-1.1406 0.43359-0.87109 0.37109-1.7383 0.74219-2.5977 1.1406-2.3555 1.0898-4.793 1.125-7.2383 0.46484-1.7617-0.47656-3.3945-1.2852-4.7305-2.5703-0.73047-0.70312-1.4961-1.4062-1.8711-2.3867-0.21875-0.57031-0.39062-1.1641-0.50391-1.7617-0.26562-1.375-0.55078-2.75-0.50781-4.1602 0.042968-1.3594 0.39844-2.6328 1.2422-3.7188 0.83594-1.0742 1.957-1.7109 3.3125-1.8477 1.0977-0.10937 1.9922 0.35938 2.7109 1.1758 0.51563 0.58594 0.82031 1.2852 1.0898 2.0039 0.40234 1.0742 0.83984 2.1367 1.2305 3.2148 0.19922 0.55078 0.64062 0.73047 1.1406 0.84766 0.79688 0.17969 1.5781 0.058594 2.3633-0.10547 0.79297-0.16406 1.5156-0.51172 2.2305-0.875 1.4141-0.72266 2.8281-1.4453 4.3125-2.0117 1.8438-0.70312 3.7422-1.1055 5.7305-1.1016 1.4102 0.003906 2.8164 0.066406 4.207 0.31641 1.0977 0.19922 2.1406 0.59375 3.1484 1.0703 0.17578 0.082031 0.34375 0.1875 0.52734 0.24609 0.11328 0.035157 0.25391 0.015626 0.37891 0.007813 1.3789-0.11719 2.7617-0.24609 4.1406-0.34375 0.33984-0.023437 0.69531 0.03125 1.0312 0.10547 0.53516 0.11719 1.0664 0.15625 1.6133 0.09375 0.75391-0.085938 1.4648 0.089844 2.1445 0.40234 0.30078 0.13672 0.60938 0.25781 0.91016 0.39844 0.13281 0.058594 0.21094 0.046875 0.3125-0.070313 1.8594-2.0508 3.7578-4.0664 5.9961-5.7148 0.77344-0.57031 1.5742-1.1094 2.4883-1.4297 0.4375-0.15234 0.91016-0.25391 1.3711-0.26562 0.64844-0.019531 1.1289 0.35156 1.4453 0.91016 0.44922 0.78906 0.75391 1.6406 0.92578 2.5312 0.27344 1.4297 0.56641 2.8633 0.76953 4.3047 0.10938 0.79688 0.046875 1.6133 0.058594 2.4219 0.007812 0.63672 0.015625 1.2695 0.019531 1.9062 0 0.14062 0.050781 0.23438 0.17578 0.3125 0.51953 0.32812 1.0352 0.66016 1.5312 1.0156 0.30469 0.21875 0.57031 0.48828 0.85938 0.72266 0.25391 0.20703 0.50391 0.4375 0.78516 0.60156 0.77734 0.44922 1.4727 0.99219 2.0234 1.707 0.21094 0.27344 0.46484 0.47656 0.79297 0.60938 0.28125 0.11328 0.53906 0.29688 0.78125 0.48438 0.61328 0.48047 1.1953 1.0039 1.8242 1.4609 0.69531 0.50781 1.1523 1.1836 1.5117 1.9414 0.0625 0.13281 0.13281 0.18359 0.27734 0.16797 1.1758-0.13281 2.3516-0.24219 3.5078-0.52734 0.63281-0.15625 1.2969-0.19141 1.9453-0.28906 1.2773-0.19141 2.5586-0.19922 3.8477-0.097656 1 0.078125 2.0117 0.046875 3 0.19531 0.9375 0.14063 1.8555 0.43359 2.7695 0.6875 0.39063 0.10938 0.59766 0.41797 0.69141 0.81641 0.11328 0.48047 0.011719 0.9375-0.14062 1.3828-0.79297 2.332-1.6523 4.6445-2.9453 6.7539-0.58203 0.94922-1.2852 1.832-2 2.6914-0.875 1.0547-1.8047 2.0664-2.7383 3.0664-0.82422 0.88672-1.5742 1.8242-2.2734 2.8086-0.28516 0.40234-0.64062 0.75781-0.95703 1.1367-0.035156 0.039063-0.058593 0.097657-0.070312 0.14844-0.058594 0.20703-0.10156 0.42188-0.16797 0.625-0.21484 0.63672-0.3125 1.293-0.27734 1.9609 0.023438 0.46094 0.125 0.91406 0.19531 1.3711 0.13672 0.88281 0.27734 1.7695 0.41016 2.6523 0.019531 0.11719 0.003906 0.24609-0.007813 0.36719-0.078124 0.94922-0.11328 1.9062-0.24609 2.8477-0.21875 1.5312-0.64453 3-1.4531 4.3438-0.55078 0.91406-0.99219 1.8984-1.5898 2.7812-0.77344 1.1484-1.6484 2.2266-2.4805 3.3398-0.76172 1.0195-1.5625 2.0078-2.4883 2.8828-1.2266 1.1562-2.5 2.2695-4.1055 2.8789-0.98438 0.37109-1.9961 0.67188-3.0039 0.97656-1.332 0.40234-2.7109 0.57812-4.0938 0.66406-0.71094 0.046875-1.4336-0.011718-2.1406-0.10156-1.0938-0.14062-2.1797-0.074219-3.2617 0.058594-1.1875 0.14453-2.3711 0.34766-3.5586 0.49609-0.40234 0.050781-0.82031 0.003907-1.2305 0.019531-0.68359 0.019532-1.375 0.019532-2.0547 0.089844-1.3398 0.14453-2.6758 0.19531-4.0195 0.097656-0.76562-0.054687-1.543-0.035156-2.3125 0.003907-0.74219 0.039062-1.4727-0.003907-2.2031-0.10547-0.60547-0.082031-1.207-0.089844-1.8125-0.027344-0.96094 0.097656-1.9297 0.16016-2.8906 0.27344-0.75781 0.089844-1.5078 0.27344-2.2656 0.35156-1.3672 0.13281-2.6445-0.12891-3.7422-1.0195-0.40625-0.33203-0.63672-0.79688-0.89453-1.2383-0.035156-0.0625-0.089844-0.14844-0.14844-0.16016-0.88672-0.1875-1.6484-0.57031-2.1328-1.3438-0.31641 0.32422-0.59375 0.67578-0.93359 0.94531-0.78906 0.62891-1.6523 1.1289-2.6992 1.1523-0.42188 0.011718-0.85156-0.050782-1.2734-0.097656-0.14062-0.015626-0.23828-0.003907-0.34766 0.097656-0.36328 0.34766-0.78125 0.61328-1.2578 0.78516-0.80859 0.29297-1.5352 0.14062-2.1875-0.39453-0.30469-0.25-0.57813-0.53906-0.83594-0.77734-0.37109 0.23047-0.71875 0.51953-1.1133 0.68359-0.91406 0.38672-1.8359 0.33203-2.7109-0.15234-0.30859-0.17188-0.59375-0.37891-0.89453-0.5625-0.054688-0.03125-0.13281-0.054687-0.19531-0.050781-1.3203 0.082031-2.4688-0.27734-3.4297-1.2227-1.3711-1.3477-1.9609-3.0156-1.9766-4.8867-0.007813-1.0078 0.13672-2.0156 0.22656-3.0195 0.058594-0.61719 0.10547-1.2383 0.22656-1.8477 0.23438-1.1836 0.86719-2.1484 1.7031-3.0078 0.91406-0.94141 1.9219-1.7422 3.1016-2.3242 1.1328-0.55859 1.957-1.4297 2.5547-2.5352 0.51172-0.95312 1.0352-1.9023 1.5898-2.832 0.48828-0.81641 1.0156-1.6094 1.6602-2.3242 0.88672-0.98438 1.5117-2.1328 2.0039-3.3477 0.39844-0.98047 0.75391-1.9844 1.0977-2.9883 0.19922-0.57812 0.32422-1.1797 0.50391-1.7656 0.22656-0.73047 0.46875-1.4531 0.71484-2.1797 0.33203-0.98828 0.53125-2.0078 0.69922-3.0352 0.25-1.5195 0.64453-3.0039 1.0508-4.4883 0.20312-0.73438 0.375-1.4844 0.49219-2.2383 0.19922-1.293 0.68359-2.4766 1.3047-3.6055 0.44922-0.81641 0.94141-1.6055 1.4141-2.4062 0.015624-0.023437 0.015624-0.046875 0.027343-0.089844zm62.465 6.2969c-0.72656-0.14063-1.4336-0.33203-2.1523-0.40234-0.88281-0.085938-1.7773-0.027344-2.6602-0.11719-1.543-0.15625-3.0547 0.10156-4.5703 0.28906-0.49609 0.0625-0.98047 0.25-1.4766 0.32812-0.74219 0.11719-1.4883 0.19141-2.2344 0.27734-0.86328 0.10156-1.7109 0.058593-2.5508-0.1875-0.43359-0.12891-0.88672-0.20313-1.332-0.28906-0.070312-0.015625-0.1875 0.007813-0.23047 0.054687-0.35156 0.40625-0.67969 0.84375-0.70703 1.4062-0.050781 0.96484-0.15234 1.9297 0.023438 2.8945 0.13672 0.73438 0.11328 1.4648-0.16406 2.1758-0.45703 1.1602-1.1719 2.1523-2.0508 3.0234-0.28125 0.27734-0.60547 0.51563-0.91797 0.75781-0.16016 0.12109-0.35547 0.125-0.53125 0.015625-0.17969-0.10938-0.25391-0.28125-0.21875-0.48438 0.03125-0.16016 0.082031-0.32422 0.16016-0.46094 0.25-0.4375 0.53125-0.85938 0.78125-1.2969 0.57422-1.0156 0.83984-2.0469 0.4375-3.2266-0.30859-0.90234-0.42578-1.8633-0.33984-2.8398 0.082031-0.89844 0.33984-1.7227 0.81641-2.4805 0.12891-0.20703 0.24609-0.41797 0.37109-0.62891-0.85938-0.61328-1.6953-1.2109-2.5391-1.8125-0.015626 0.011719-0.035157 0.027344-0.058594 0.046875-0.76562 0.64844-1.4961 1.3398-2.3086 1.9297-0.92578 0.67188-1.9414 1.2031-3.0977 1.3789-0.61719 0.09375-1.2422 0.17969-1.8281-0.11328-0.35938-0.17969-0.6875-0.16016-0.99219 0.066406-0.51562 0.38281-1.0195 0.78125-1.5234 1.1797-0.19141 0.14844-0.36719 0.32422-0.57031 0.46094-0.26562 0.17578-0.46875 0.14844-0.69141-0.046875-0.23828-0.21484-0.28516-0.42188-0.14844-0.71484 0.070312-0.14844 0.15234-0.29688 0.24219-0.43359 0.63672-0.97656 1.4492-1.7969 2.3125-2.5664 0.20312-0.17969 0.44531-0.32031 0.6875-0.44531 0.48828-0.26172 1.0195-0.38281 1.543-0.14844 0.50781 0.22656 0.96094 0.15625 1.4258-0.085937 0.25-0.12891 0.51172-0.23438 0.75781-0.37109 0.48828-0.27344 0.96484-0.56641 1.2734-1.0469 0.24219-0.37109 0.44922-0.76953 0.67969-1.1641-0.042968-0.054687-0.097656-0.12109-0.15234-0.1875-0.85938-1.0391-1.3984-2.2188-1.5703-3.5586-0.16406-1.2773-0.19531-2.5625-0.16406-3.8477 0.023437-0.94531 0.039062-1.8906-0.15234-2.8242-0.17188-0.82031-0.3125-1.6445-0.45312-2.4688-0.14453-0.85156-0.33594-1.6836-0.6875-2.4766-0.074219-0.16797-0.14844-0.20703-0.32422-0.15234-0.67578 0.20312-1.2539 0.59375-1.8203 0.98437-1.2461 0.85938-2.3867 1.8477-3.4375 2.9375-0.87891 0.91797-1.8008 1.8008-2.6211 2.7695-1.5508 1.8203-2.8047 3.8477-3.9219 5.9609-0.26562 0.50391-0.5625 0.98828-0.80859 1.5-0.52344 1.0859-1.2852 1.9805-2.2383 2.6836-0.73438 0.53906-1.5664 0.94922-2.3555 1.4141-0.87109 0.51172-1.7422 1.0195-2.6094 1.5352-0.13281 0.078125-0.25 0.1875-0.37109 0.27734 0.16406 0.40234 0.19531 0.67578 0.058594 0.9375-0.125 0.23828-0.26953 0.48437-0.45312 0.67969-0.50781 0.54297-1.0391 1.0664-1.5664 1.5898-0.12109 0.12109-0.12891 0.23438-0.066406 0.38672 0.11328 0.28125 0.30859 0.49609 0.55859 0.64453 0.43359 0.26172 0.87891 0.49219 1.3242 0.73438 0.54297 0.29297 1.082 0.58594 1.4141 1.1406 0.03125 0.054687 0.089844 0.089843 0.14062 0.13281 0.35547 0.28516 0.72656 0.55469 1.0586 0.85938 0.40234 0.37109 0.77734 0.76953 1.1484 1.1719 0.15234 0.16797 0.15625 0.38672 0.023438 0.58594-0.11328 0.17188-0.32422 0.24609-0.55859 0.17578-0.17578-0.054688-0.35156-0.13672-0.51172-0.23047-0.83203-0.48438-1.6914-0.90625-2.6172-1.1797-0.64063-0.1875-1.1836-0.51953-1.5859-1.0664-0.34766-0.46875-0.85547-0.71484-1.3828-0.96484-0.11719 0.60156-0.42188 1.1016-0.69922 1.6172-0.125 0.22656-0.23438 0.46484-0.35156 0.69531-0.10156 0.19922-0.11328 0.39062-0.007812 0.59766 0.097656 0.19141 0.16797 0.39844 0.23438 0.60547 0.039062 0.125 0.10938 0.16406 0.23438 0.17188 0.46875 0.023437 0.9375 0.050781 1.4062 0.09375 0.90234 0.078125 1.793 0.21094 2.6367 0.55859 0.625 0.25781 1.1914 0.61328 1.7227 1.0352 0.17188 0.13672 0.26172 0.30859 0.20312 0.53125-0.0625 0.23438-0.23047 0.34766-0.46094 0.35547-0.13281 0.003907-0.27344-0.011718-0.40234-0.039062-0.36719-0.078125-0.72656-0.1875-1.0977-0.24219-0.55859-0.085937-1.1172-0.14844-1.6641 0.078126-0.13281 0.054687-0.30078 0.046874-0.44922 0.039062-0.72266-0.03125-1.4414-0.070312-2.1602-0.11719-0.16016-0.011718-0.23828 0.03125-0.29297 0.19531-0.12891 0.39453-0.49219 0.63672-0.89453 0.62891-0.40234-0.007812-0.73438-0.26172-0.875-0.66016-0.21875-0.62891-0.16016-1.2539 0.039062-1.8672 0.058594-0.17969 0.054688-0.32422-0.027343-0.49219-0.22656-0.47656-0.39453-0.97266-0.26563-1.5078 0.082032-0.33984 0.20313-0.67578 0.35156-0.99609 0.18359-0.39844 0.41016-0.77734 0.60938-1.1719 0.035156-0.070313 0.070312-0.17969 0.042969-0.23828-0.24219-0.48828-0.09375-0.94141 0.13281-1.3672 0.62891-1.1836 1.4492-2.2266 2.4258-3.1406 0.22656-0.21484 0.28125-0.39453 0.17578-0.68359-0.16797-0.45312-0.054688-0.86719 0.32031-1.1719 0.56641-0.45703 1.1211-0.94141 1.7383-1.3242 1.0352-0.64063 2.125-1.1953 3.1758-1.8125 0.54688-0.32031 1.1133-0.62891 1.5859-1.0469 0.70312-0.62109 1.3164-1.332 1.7422-2.1914 0.24219-0.48828 0.58984-0.92969 0.82812-1.418 0.70703-1.4492 1.4375-2.8828 2.3945-4.1875 0.039062-0.054688 0.070312-0.11328 0.10547-0.17188-0.70312-0.30469-1.3906-0.50391-2.1484-0.39453-0.55469 0.078125-1.1055 0-1.6562-0.10156-0.44141-0.082031-0.90234-0.10938-1.3555-0.10156-0.57812 0.011719-1.1523 0.10547-1.7266 0.125-1.6016 0.0625-3.1211 0.47266-4.6016 1.043-1.0977 0.42188-2.1758 0.89453-3.2422 1.3828-0.77344 0.35547-1.543 0.72656-2.2617 1.1758-1.2188 0.76172-2.1953 1.8125-3.1406 2.8711-1.2812 1.4375-2.4297 2.9727-3.2969 4.707-0.46094 0.91797-0.89844 1.8359-1.0781 2.8633-0.15625 0.89453-0.36328 1.7812-0.57422 2.6641-0.17969 0.75781-0.42969 1.5-0.59375 2.2578-0.30859 1.418-0.57813 2.8438-0.86328 4.2656-0.011718 0.050781-0.007812 0.11719 0.011719 0.16016 0.078125 0.17578 0.16797 0.34375 0.25781 0.51562 0.074218 0.14453 0.12891 0.31641 0.24219 0.42969 0.41797 0.43359 0.89844 0.76172 1.5 0.89844 0.30078 0.070313 0.59766 0.17578 0.87891 0.29688 0.41797 0.17969 0.84766 0.26172 1.2969 0.30469 0.39844 0.039062 0.80859 0.10547 1.1797 0.25 0.91016 0.34766 1.6836 0.90625 2.293 1.6836 0.69531 0.88672 1.4023 1.7617 2.1055 2.6406 0.023438 0.027344 0.042969 0.058594 0.0625 0.089844 0.13281 0.21875 0.11328 0.5625-0.039062 0.73438-0.16016 0.18359-0.37891 0.20312-0.67188 0.0625-0.12891-0.0625-0.26172-0.125-0.38672-0.19141-0.70703-0.36719-1.2891-0.90625-1.8555-1.4492-0.98438-0.94922-2.1836-1.4258-3.5039-1.5195-1.5547-0.10938-3.1172-0.097656-4.6758-0.13281-0.066407 0-0.16797 0.078126-0.19141 0.14453-0.48047 1.2812-0.95312 2.5664-1.4375 3.8711 0.0625 0.023437 0.13672 0.0625 0.21875 0.082031 0.57422 0.14844 1.1445 0.30469 1.7227 0.42969 0.22266 0.050782 0.46094 0.050782 0.6875 0.039063 0.35156-0.015625 0.70312-0.0625 1.0586-0.09375 0.95313-0.078125 1.9023-0.09375 2.8281 0.23438 0.19531 0.070312 0.4375 0.027344 0.65625 0.011718 0.42969-0.03125 0.85937-0.10937 1.2891-0.10937 0.6875 0.003906 1.3633 0.10547 1.9141 0.57031 0.49609 0.41797 0.98828 0.84375 1.4414 1.3086 0.81641 0.83203 1.2852 1.9102 1.9453 2.8555 0.027344 0.039063 0.050781 0.089844 0.074219 0.13281 0.14453 0.3125 0.11328 0.51562-0.10938 0.73047s-0.44531 0.26562-0.72656 0.078125c-0.28906-0.19141-0.56641-0.42188-0.80469-0.67969-0.63281-0.6875-1.3164-1.2969-2.1953-1.6484-0.30078-0.12109-0.60937-0.21875-0.91406-0.33594-1.5078-0.58203-3.0664-0.64453-4.6484-0.44922-0.47266 0.058593-0.94531 0.21094-1.4141 0.066406-0.44531-0.13672-0.875-0.09375-1.3008 0.03125-0.64453 0.1875-1.2891 0.38281-1.9141 0.61328-0.78516 0.29297-1.5938 0.45312-2.4258 0.51172-0.26953 0.019531-0.47656 0.11719-0.60938 0.37109-0.097656 0.19141-0.23828 0.36328-0.34375 0.55078-0.49219 0.875-0.99609 1.7422-1.4688 2.6289-0.77734 1.4492-1.8242 2.6328-3.3125 3.3789-1.0781 0.54297-2.0117 1.2617-2.8398 2.1367-0.66406 0.70703-1.0703 1.5078-1.1523 2.4805-0.074218 0.82812-0.16016 1.6523-0.26562 2.4766-0.11328 0.92578-0.085938 1.8438 0.14062 2.7539 0.25391 1.0273 0.8125 1.8398 1.6836 2.4336 0.089844 0.0625 0.19141 0.097657 0.33594 0.16797-0.03125-0.14062-0.046875-0.21484-0.066406-0.28906-0.18359-0.72656-0.26563-1.4648-0.24609-2.2109 0.019531-0.82422 0.042968-1.6445 0.082031-2.4688 0.011719-0.25 0.058594-0.50391 0.125-0.74219 0.12891-0.47266 0.60156-0.74609 1.0547-0.64453 0.47266 0.10547 0.77344 0.55078 0.71484 1.0391-0.023437 0.17969-0.035156 0.35938-0.03125 0.53906 0.007813 0.39844 0.011719 0.79688 0.042969 1.1914 0.0625 0.88672 0.10156 1.7734 0.22266 2.6523 0.12891 0.92969 0.57422 1.6602 1.5312 1.9688 0.35156 0.11328 0.67578 0.070313 0.96094-0.15625 0.22656-0.18359 0.42578-0.39844 0.64453-0.60547-0.28125-0.95313-0.5-1.9414-0.51562-2.957-0.011719-0.80078 0.035156-1.6016 0.09375-2.4023 0.023437-0.35547 0.10547-0.71484 0.21875-1.0547 0.17188-0.51562 0.64453-0.74219 1.1367-0.59375 0.46875 0.14062 0.70703 0.60938 0.59766 1.125-0.039062 0.1875-0.074219 0.38281-0.074219 0.57812-0.015625 1.3164 0.019531 2.6289 0.30859 3.9219 0.19531 0.88281 0.50781 1.7031 1.1914 2.332 0.33594 0.3125 0.4375 0.34375 0.76953 0.027344 0.4375-0.41406 0.87109-0.85156 1.2109-1.3477 0.60938-0.89453 0.78516-1.9453 0.89062-3 0.0625-0.60938 0.0625-1.2266 0.12109-1.8359 0.058593-0.58203 0.54688-0.96094 1.1133-0.91016 0.55469 0.050781 0.95312 0.53906 0.91406 1.1172-0.023437 0.35547-0.050781 0.70703-0.058593 1.0625-0.03125 1.0898-0.20703 2.1562-0.54688 3.1875-0.125 0.37891-0.29297 0.74609-0.44922 1.1445 0.09375-0.027344 0.17969-0.035157 0.25-0.074219 0.23047-0.12109 0.46094-0.24219 0.68359-0.37891 0.52734-0.31641 0.94531-0.72656 1.1797-1.3125 0.074219-0.19141 0.22266-0.35156 0.32812-0.53125 0.039063-0.0625 0.058594-0.14453 0.074219-0.21875 0.066406-0.37891 0.15625-0.75391 0.44922-1.0312 0.09375-0.089844 0.10547-0.16797 0.050781-0.28516-0.23047-0.47656-0.32422-0.98047-0.29297-1.5117 0.058594-1 0.35547-1.9062 1.0117-2.6875 0.51953-0.61719 1.1523-1.0938 1.8281-1.5117 0.30078-0.1875 0.43359-0.41406 0.50781-0.74609 0.16016-0.73438 0.48437-1.4062 1.0938-1.8711 0.40234-0.30859 0.875-0.52344 1.3164-0.77734 0.10938-0.0625 0.24219-0.10938 0.32422-0.20312 0.54688-0.58984 1.2109-1.0195 1.9141-1.3984 0.53125-0.28906 1.0938-0.48047 1.6641-0.66016 0.73047-0.23047 1.4375-0.51172 2.0195-1.0352 0.0625-0.058594 0.14844-0.089844 0.22266-0.13281 0.44922-0.26172 0.9375-0.19531 1.2617 0.16406 0.32812 0.37109 0.34766 0.89062-0.003906 1.2812-0.24219 0.26953-0.53516 0.5-0.81641 0.73438-0.39453 0.32812-0.83984 0.55859-1.3398 0.68359-0.085938 0.023438-0.17188 0.050782-0.25781 0.074219 0.52344 0.035157 1.0391 0.050781 1.5547 0.03125 0.77344-0.027343 1.543-0.058593 2.3125-0.11719 0.70313-0.050782 1.3438-0.32812 1.9492-0.67578 0.51562-0.29687 1.2812-0.26953 1.7461 0.28906 0.27734 0.33594 0.35156 0.75391 0.13672 1.1211-0.19922 0.34375-0.60156 0.49219-1.0117 0.41016-0.11328-0.023437-0.26172-0.007813-0.35938 0.050781-0.76562 0.4375-1.5703 0.79688-2.457 0.85156-1.2734 0.078125-2.5547 0.13672-3.8281 0.125-1-0.007813-1.9961-0.15625-3 0.007812-0.66406 0.10938-1.3086 0.23828-1.8711 0.62109-0.10547 0.074219-0.19922 0.16797-0.30078 0.25391 0.011719 0.019531 0.019531 0.039063 0.03125 0.058594 0.33203-0.054687 0.66406-0.10938 1-0.16797 0.51953-0.089844 1.043-0.17188 1.5703-0.074218 0.46094 0.085937 0.78906 0.50391 0.75391 0.94531-0.039063 0.5-0.4375 0.85938-0.92969 0.88281-0.33594 0.015626-0.67188 0.058594-1.0039 0.11719-0.43359 0.078125-0.85547 0.21875-1.2891 0.27344-1.1523 0.14453-2.0977 0.68359-2.9336 1.4609-0.52734 0.48828-0.75 1.1016-0.76563 1.8008-0.003906 0.13672 0.039063 0.27344 0.0625 0.40234 0.91406-0.26562 1.7812-0.53516 2.6602-0.76562 0.63281-0.16797 1.2773-0.30859 1.9219-0.41797 0.49609-0.085937 0.93359 0.25391 1.0234 0.72656 0.089844 0.47656-0.20312 0.91797-0.6875 1.0508-0.17578 0.046875-0.35156 0.089844-0.51953 0.14453-1.2617 0.41406-2.5234 0.82422-3.7812 1.25-0.22266 0.074219-0.42578 0.20703-0.63672 0.3125-0.10156 0.054688-0.12109 0.12109-0.054687 0.22656 0.19922 0.30078 0.39062 0.60938 0.58594 0.91016 0.13672 0.21094 0.32422 0.33594 0.56641 0.40625 0.64844 0.1875 1.3047 0.25781 1.9688 0.13281 0.91406-0.17187 1.7812-0.48437 2.6328-0.84766 0.57812-0.24609 1.1758-0.03125 1.4062 0.50391 0.23438 0.54297-0.003906 1.1367-0.58594 1.3672-0.66797 0.26562-1.3555 0.49609-2.0312 0.73828-0.13672 0.046875-0.27734 0.082031-0.41406 0.11719-0.13281 0.035156-0.26172 0.070312-0.39453 0.10547 0.56641 0.28906 1.1562 0.42969 1.7695 0.35547 0.79297-0.097656 1.582-0.26562 2.375-0.35938 0.95312-0.11328 1.9102-0.20312 2.8672-0.26172 0.67578-0.039062 1.3555-0.023437 2.0312-0.007812 0.67578 0.019531 1.3555 0.13281 2.0273 0.10156 0.93359-0.046874 1.8633-0.066406 2.7891 0.019532 1.1562 0.10938 2.3047 0.035156 3.457-0.089844 0.66406-0.074219 1.3398-0.09375 2.0117-0.11719 0.40234-0.015624 0.8125 0.0625 1.2109 0.015626 1.2109-0.14844 2.4102-0.35938 3.6211-0.50391 1.2148-0.14062 2.4297-0.22656 3.6523-0.070312 0.60156 0.078125 1.2148 0.14062 1.8125 0.10156 0.87109-0.050781 1.75-0.12891 2.5977-0.32031 1.1914-0.27344 2.3711-0.62891 3.5352-1.0117 1.5625-0.51562 2.7695-1.582 3.9336-2.6914 0.88672-0.84375 1.6328-1.8125 2.3711-2.7852 0.76953-1.0195 1.5703-2.0195 2.2773-3.082 0.56641-0.85156 0.99219-1.793 1.5117-2.6758 0.69531-1.1758 1.0078-2.4648 1.1992-3.793 0.046875-0.3125 0.039062-0.63672 0.0625-0.98047-0.39453 0.20312-0.39453 0.20312-0.48047 0.58594-0.011719 0.042969-0.019531 0.085937-0.027343 0.12891-0.09375 0.48828-0.30469 0.89453-0.78125 1.1289-0.13672 0.066406-0.25781 0.19141-0.34766 0.31641-0.33594 0.45312-0.65625 0.91406-0.97656 1.3789-0.37109 0.53906-0.83594 0.91016-1.5195 0.94141-0.054688 0.003906-0.125 0.082032-0.15234 0.14453-0.13672 0.30078-0.25 0.61328-0.39453 0.91406-0.4375 0.88672-1.0625 1.5273-2.1211 1.5781-0.27344 0.015625-0.54688 0.023437-0.82031 0.027344-0.19531 0.003906-0.34766 0.066406-0.45703 0.23438-0.12109 0.17969-0.25781 0.34766-0.38672 0.51953-0.32031 0.42969-0.65234 0.83984-1.2109 1.0039-0.45703 0.13281-0.89844 0.078125-1.3477-0.011719-0.12109-0.023437-0.17969-0.003906-0.23047 0.11328-0.27734 0.59375-0.91016 0.92578-1.5508 0.78906-1.2695-0.27344-2.5547-0.48047-3.7969-0.87891-0.88281-0.28516-1.7461-0.60156-2.5234-1.1211-0.43359-0.28906-0.53516-0.81641-0.27344-1.2383 0.25391-0.41016 0.76953-0.53125 1.2227-0.3125 0.35547 0.17188 0.71875 0.34375 1.0938 0.46094 0.57812 0.17969 1.168 0.31641 1.7578 0.45313 0.78516 0.18359 1.5742 0.34766 2.3555 0.51562 0.33984-0.52344 0.73047-0.93359 1.4648-0.91016-0.36719-0.71484-0.67578-1.4023-1.0625-2.0391-0.40625-0.67188-0.91016-1.2812-1.3438-1.9375-0.36328-0.55078-0.60156-1.1836-1.0781-1.668-0.15234-0.15625-0.12891-0.41406 0.011719-0.57812 0.14844-0.17578 0.38281-0.23047 0.58594-0.12109 0.09375 0.050782 0.17969 0.12109 0.26562 0.1875 0.26953 0.20703 0.52734 0.42969 0.80859 0.61719 0.96484 0.64062 1.7812 1.418 2.332 2.4531 0.41406 0.78125 1.0898 1.3516 1.6875 1.9805 0.32422-0.27734 0.67969-0.45313 1.082-0.5 0.40625-0.046876 0.82031-0.0625 1.2305-0.089844 0.22656-0.015625 0.66016-0.58984 0.60547-0.80078-0.011719-0.039062-0.042969-0.074218-0.066406-0.10937-0.21875-0.33203-0.4375-0.66016-0.66016-0.99219-0.375-0.5625-0.82422-1.0508-1.3359-1.5-0.60938-0.53906-1.168-1.1367-1.7383-1.7188-0.40234-0.41016-0.78906-0.83984-1.1875-1.2578-0.16406-0.17188-0.33984-0.33594-0.5-0.51172-0.14844-0.16016-0.19922-0.35156-0.09375-0.55859 0.10547-0.20312 0.29297-0.30078 0.50391-0.25781 0.20703 0.039063 0.41406 0.11719 0.60156 0.21875 0.71484 0.37891 1.4258 0.76172 2.125 1.1719 0.37891 0.21875 0.73828 0.47266 1.0898 0.74219 0.37109 0.28516 0.69141 0.64453 1.0781 0.89844 0.83203 0.54688 1.6992 1.0352 2.4219 1.7852 0.15234-0.21484 0.28516-0.42969 0.44141-0.625 0.3125-0.40234 0.61328-0.81641 0.96484-1.1875 0.14844-0.15625 0.30078-0.27734 0.32422-0.5 0.007812-0.070313 0.03125-0.14062 0.054687-0.21094 0.17969-0.52734 0.40625-1.0195 0.9375-1.3008 0.054688-0.03125 0.10156-0.12109 0.11328-0.1875 0.074219-0.42578 0.15234-0.85156 0.19922-1.2812 0.046875-0.4375 0.046875-0.87891 0.089844-1.3164 0.0625-0.62109 0.15625-1.2305 0.51562-1.7695 0.035156-0.054687 0.03125-0.13672 0.046875-0.20703 0.09375-0.53906 0.14062-1.0938 0.28516-1.6172 0.14844-0.52734 0.38672-1.0273 0.59766-1.5352 0.046874-0.10938 0.14062-0.19922 0.21875-0.29297 0.22266-0.26562 0.47266-0.50781 0.66797-0.78906 0.83984-1.207 1.7422-2.3594 2.7891-3.3945 1.4375-1.4297 2.7422-2.9805 3.8906-4.6445 1.3438-2.0586 2.1562-4.3867 2.9883-6.7539zm-50.84-14.961c0-0.015625-0.003906-0.03125-0.003906-0.050781-0.070313-0.019531-0.14062-0.035157-0.21094-0.050781-1.1836-0.25781-2.3789-0.37891-3.5859-0.42969-1.9766-0.082031-3.9023 0.14844-5.7656 0.84766-1.375 0.51953-2.6992 1.1445-3.9961 1.8281-1.3906 0.73047-2.8203 1.3281-4.4062 1.4609-0.95703 0.082031-1.8867 0.003906-2.7852-0.35938-0.55469-0.22656-1.0156-0.57031-1.375-1.0469-0.19922 0.16797-0.26172 0.28516-0.39844 0.71484-0.20703 0.64844-0.57031 0.92969-1.25 0.96484-0.16016 0.007813-0.31641 0.007813-0.47656 0.015625-0.40234 0.027344-0.57031 0.32422-0.36719 0.67969 0.12109 0.21094 0.28125 0.40234 0.39453 0.62109 0.0625 0.12891 0.10156 0.28906 0.085937 0.43359-0.050781 0.5625-0.45703 0.95312-1.0234 1.0312-0.17969 0.023438-0.35156 0.082032-0.5625 0.13281 0.058593 0.074219 0.074219 0.10156 0.09375 0.11719 0.11719 0.09375 0.23438 0.19531 0.35547 0.28125 0.89453 0.63672 1.8828 1.0938 2.918 1.4531 1.2305 0.42969 2.5039 0.44922 3.7891 0.375 0.67969-0.039062 1.3203-0.21484 1.9414-0.48047 1.1992-0.51172 2.4023-1.0195 3.6055-1.5273 0.97656-0.41406 1.9805-0.66406 3.0508-0.60938 0.078125 0.003906 0.17578-0.050782 0.23438-0.10938 0.28125-0.28906 0.53906-0.60156 0.82422-0.89062 0.84375-0.85938 1.6875-1.7227 2.6797-2.4258 1.4258-1.0117 3.0586-1.6133 4.625-2.3477 0.51953-0.24609 1.0703-0.42578 1.6094-0.62891zm-26.402 6.1289c0.18359-0.10547 0.35156-0.23047 0.53516-0.30078 0.1875-0.070313 0.39062-0.089844 0.58984-0.13281 0.14062-0.027343 0.18359-0.09375 0.09375-0.22656-0.125-0.1875-0.25781-0.37109-0.35156-0.57031-0.43359-0.92578 0.18359-1.9297 1.2031-1.9688 0.13672-0.003907 0.27344-0.007813 0.41016-0.011719 0.41406-0.011719 0.42578-0.015625 0.55859-0.39844 0.14062-0.40234 0.33203-0.77344 0.68359-1.0273 0.11719-0.085938 0.13672-0.15234 0.085937-0.28125-0.39844-1.0117-0.79688-2.0273-1.1836-3.0469-0.19531-0.50781-0.37891-1.0195-0.75391-1.4258-0.28125-0.30859-0.625-0.51172-1.0547-0.42969-0.70703 0.13672-1.3281 0.46094-1.7617 1.0508-0.71875 0.97656-0.92578 2.1016-0.79297 3.2695 0.14453 1.2539 0.375 2.4961 0.61328 3.7344 0.13672 0.72656 0.58203 1.2891 1.125 1.7656zm20.73 30.488c-0.57812-0.75-1.2422-1.3711-1.9922-1.8672-0.63672-0.42188-1.4023-0.35547-2.1211-0.20703-0.47656 0.097656-0.92188 0.097656-1.3867-0.035157-0.34375-0.097656-0.70312-0.20703-1.0547-0.20703-0.75 0.003907-1.4961 0.074219-2.2461 0.10938-0.25781 0.011719-0.52734 0.046875-0.77344-0.007812-0.76563-0.16406-1.5273-0.36719-2.2891-0.55469-0.074219-0.019531-0.14844-0.039062-0.16797-0.046875-0.58984 0.85547-1.1562 1.6758-1.7422 2.5273 0.3125-0.078125 0.63672-0.13672 0.94531-0.23438 0.87891-0.27734 1.75-0.58594 2.6367-0.85156 0.53125-0.15625 1.082-0.23438 1.6445-0.097657 0.23828 0.058594 0.50391 0.070313 0.74609 0.03125 2.7656-0.47266 5.3516-0.003906 7.8008 1.4414zm-1.8281-7.4023c0 0.011718 0.003907-0.003906-0.003906-0.011719-0.74219-0.87891-1.6523-1.457-2.832-1.5195-0.51953-0.027344-1.0078-0.15625-1.4844-0.35547-0.24609-0.10547-0.5-0.19141-0.75781-0.25391-0.5625-0.14062-1.0742-0.38281-1.5117-0.76172-0.25391-0.21875-0.48828-0.46094-0.76172-0.71875-0.23828 0.79688-0.47266 1.5859-0.72266 2.4141h0.30859c1.0312-0.007812 2.0625-0.019531 3.0977-0.023437 1.1797-0.003906 2.3359 0.14844 3.4297 0.60547 0.43359 0.17969 0.83594 0.41797 1.2383 0.625zm27.855-15.031c0.054688 0 0.074219 0.007812 0.09375 0 0.46094-0.16406 0.90234-0.10938 1.3438 0.09375 0.18359 0.085937 0.40234 0.12891 0.60547 0.12891 0.74609 0.007812 1.4531-0.18359 2.1289-0.50781 1.2617-0.60938 2.3398-1.4766 3.3945-2.3789 0.046875-0.039062 0.085938-0.09375 0.13281-0.14453-0.30859-0.26172-0.60156-0.51562-0.89844-0.76953-0.03125 0.035156-0.058593 0.0625-0.074219 0.09375-0.042968 0.074219-0.085937 0.14844-0.125 0.22656-0.3125 0.66016-0.73828 1.2344-1.3711 1.6055-0.60156 0.35547-1.2266 0.66406-1.8594 0.96094-0.47266 0.21875-0.96484 0.25-1.4688 0.027343-0.19531-0.085937-0.44141-0.14062-0.64844-0.10938-0.50781 0.082032-0.88672 0.40234-1.2539 0.77344zm11.219 7.4375c0.035156-0.015625 0.054688-0.019532 0.058594-0.027344 0.019531-0.023438 0.03125-0.046875 0.042968-0.074219 0.30469-0.58594 0.44141-1.2031 0.35938-1.8633-0.046876-0.36328-0.13281-0.73047-0.14063-1.0938-0.007812-0.69922-0.003906-1.4023 0.0625-2.0977 0.039063-0.40234 0.17578-0.80078 0.32031-1.1797 0.097656-0.25781 0.28906-0.47656 0.44531-0.72266-0.20313-0.09375-0.40234-0.1875-0.61328-0.28516-0.18359 0.29688-0.40234 0.56641-0.53125 0.87109-0.19141 0.46094-0.37891 0.94141-0.47266 1.4297-0.19922 1.0742 0.039062 2.125 0.3125 3.1602 0.12891 0.48047 0.26172 0.96484 0.19531 1.4727-0.003906 0.13281-0.019531 0.26562-0.039062 0.41016zm-4.2773-14.348c-0.027344 0.023437-0.054687 0.042968-0.082031 0.066406 0.066406 0.125 0.13281 0.25391 0.20703 0.37109 0.44922 0.72656 1.0195 1.3516 1.6953 1.8672 1.0703 0.82031 2.1602 1.6211 3.2539 2.4102 0.34766 0.25 0.73828 0.44922 1.1172 0.65234 0.15234 0.082031 0.33984 0.10547 0.51563 0.15625-0.61719-0.52734-1.2227-1.043-1.8281-1.5508-0.070312-0.058594-0.16016-0.097656-0.25-0.125-0.60156-0.20703-1.0664-0.59766-1.4453-1.0977-0.42969-0.5625-0.96094-0.99219-1.582-1.3242-0.45703-0.24219-0.85938-0.55859-1.1953-0.95312-0.13281-0.16016-0.26953-0.31641-0.40625-0.47266zm7.3281 35.613c-0.13672-0.10547-0.27734-0.23047-0.43359-0.33594-0.99609-0.67188-2.0391-1.2852-2.8945-2.1523-0.023437-0.023438-0.054687-0.046876-0.085937-0.066407-0.18359-0.11328-0.36719-0.22656-0.55469-0.34375-0.015625 0.019531-0.027343 0.039063-0.042969 0.058594 0.30859 0.28906 0.60938 0.58594 0.92188 0.87109 0.55078 0.50781 1.1641 0.94922 1.5742 1.5977 0.20703 0.32812 0.42188 0.65234 0.63672 0.98047 0.03125 0.050781 0.070313 0.097656 0.078125 0.10938 0.26953-0.23828 0.52734-0.47266 0.80078-0.71875zm-35.828-17.879c0.11719 0.003907 0.22266 0.011719 0.32812 0.015626 0.53906 0.023437 1.0859 0.011718 1.6172 0.082031 0.38281 0.050781 0.71094-0.054688 1.1094-0.16016-0.085938-0.023437-0.11328-0.039062-0.14844-0.042968-0.78516-0.10547-1.5664-0.21484-2.3516-0.3125-0.41406-0.054688-0.41406-0.046875-0.55078 0.35938-0.003906 0.003906 0 0.011719-0.003906 0.058593zm29.715 20.344c0.25 0.63672 0.48438 1.2305 0.72266 1.8242 0.0625 0.15625 0.23047 0.17969 0.33984 0.042969 0.10547-0.12891 0.19531-0.26562 0.30859-0.42578-0.45312-0.47266-0.89844-0.94141-1.3711-1.4414zm-25.223-24.152c-0.29688-0.51953-1.1836-1.1445-1.8906-1.3633 0.18359 0.20312 0.39453 0.41016 0.57422 0.64062 0.32422 0.42578 0.79687 0.5625 1.3164 0.72266zm-3.4766-2.2344c0.31641 0.15234 0.60547 0.28906 0.90625 0.4375-0.23828-0.26172-0.46484-0.51172-0.69922-0.76953-0.066406 0.097657-0.13281 0.20703-0.20703 0.33203z"/>
  <path d="m42.613 58.141c-0.011719 0.11719 0 0.20312-0.03125 0.26172-0.13672 0.24219-0.003906 0.40625 0.125 0.59766 0.67969 0.98828 1.3477 1.9844 2.0117 2.9805 0.55859 0.83984 1.2617 1.5469 2.0703 2.1367 0.32813 0.23828 0.72266 0.38281 1.0859 0.57422 0.20312 0.10938 0.42578 0.19922 0.58984 0.35547 0.17188 0.16406 0.29688 0.38672 0.41406 0.59375 0.070313 0.12109 0.14062 0.17578 0.28125 0.18359 0.46094 0.027343 0.92188 0.035156 1.3594 0.21094 0.43359 0.17578 0.72656 0.48438 0.92188 0.89453 0.042969 0.089843 0.070313 0.16016 0.19531 0.15234 0.73438-0.050781 1.4023 0.21484 2.0742 0.46094 0.14453 0.050781 0.28906 0.09375 0.42969 0.15234 0.22266 0.089844 0.43359 0.082032 0.64844-0.019531 0.44531-0.20312 0.85156-0.019531 1.2383 0.17969 0.23047 0.11719 0.44141 0.27344 0.64453 0.43359 0.46094 0.35547 0.54688 0.98047 0.20703 1.4258-0.34375 0.45312-0.95703 0.55859-1.4258 0.21094-0.21094-0.15625-0.39453-0.1875-0.65234-0.13281-0.4375 0.097656-0.875-0.011719-1.2969-0.14844-0.34375-0.11328-0.67578-0.26172-1.0234-0.35156-0.31641-0.082031-0.64453-0.14062-0.97266-0.15234-0.45703-0.019531-0.87891-0.09375-1.2656-0.36719-0.26172-0.1875-0.41016-0.44141-0.55078-0.71094-0.0625-0.11719-0.13672-0.16016-0.26562-0.16797-0.48047-0.027343-0.96484-0.066406-1.4453-0.10547-0.69531-0.054687-0.98047-0.53906-1.1328-1.1328-0.039062-0.15234-0.10938-0.22266-0.24609-0.28906-0.30469-0.14844-0.61328-0.29688-0.88672-0.49219-1.0977-0.78125-2.0273-1.7305-2.7734-2.8594-0.55859-0.84375-1.1133-1.6875-1.6836-2.5234-0.27734-0.40234-0.58984-0.78516-0.86719-1.1875-0.23828-0.33984-0.26562-0.71484-0.066406-1.0859 0.0625-0.11328 0.015625-0.17578-0.066407-0.23438-0.39844-0.28125-0.80078-0.5625-1.2031-0.84375-0.54688-0.37891-0.5625-1.168-0.019532-1.543 0.32422-0.22656 0.68359-0.25391 1.0195-0.042968 0.53516 0.33984 1.0664 0.6875 1.5781 1.0625 0.40625 0.29687 0.74219 0.66797 0.89453 1.168 0.03125 0.12891 0.0625 0.26562 0.085937 0.35547z"/>
  <path d="m69.863 52.352c0 0.32422 0.027344 0.67578-0.007812 1.0195-0.10547 1.0508-0.5625 1.9219-1.4453 2.5273-1.4141 0.97266-3.207 0.40234-3.7969-1.2148-0.42969-1.1719-0.24219-2.2695 0.44922-3.2969 0.0625-0.09375 0.13672-0.18359 0.21094-0.28125-0.48438 0.023437-0.76172 0.32031-0.96875 0.69531-0.35547 0.65234-0.38281 1.3555-0.28516 2.0664 0.10156 0.76562 0.41797 1.4375 0.91406 2.0234 0.058594 0.070313 0.14844 0.11328 0.22656 0.16406 0.125 0.085937 0.26172 0.15625 0.37891 0.25 0.17188 0.14062 0.20703 0.36719 0.097657 0.54687-0.10938 0.1875-0.34766 0.26953-0.55078 0.16016-0.71875-0.38672-1.4336-0.77734-2.043-1.3359-0.36328-0.33203-0.29688-0.67969 0.19141-0.89844-0.26172-0.91797-0.31641-1.8516-0.054687-2.7891-0.03125-0.007812-0.054688-0.019531-0.070313-0.019531-0.28906 0.019531-0.46094-0.066406-0.52344-0.27344-0.066407-0.21094-0.003907-0.42187 0.24609-0.54297 0.61719-0.30859 1.2422-0.60938 1.8867-0.86328 0.44531-0.17578 0.92188-0.30859 1.3945-0.38281 0.8125-0.12891 1.5742 0.13281 2.3125 0.42578 1.7188 0.67969 3.0078 1.8516 3.8984 3.4648 0.20703 0.375 0.17188 0.74219-0.11719 1.0625-0.44141 0.49609-0.89062 0.98438-1.3477 1.4688-0.60938 0.64453-1.418 0.85547-2.2461 1.0273-0.14062 0.03125-0.28516 0.046875-0.42578 0.066406-0.24219 0.035156-0.47656-0.10156-0.54297-0.32812-0.070312-0.23828 0.039063-0.49609 0.28516-0.58203 1.3672-0.46875 1.9102-1.5664 2.1719-2.8594 0.097657-0.45703 0.03125-0.91797-0.23828-1.3008zm1.2656 1.293c-0.13281 0.49219-0.25 0.9375-0.38281 1.4297 0.23828-0.26562 0.45312-0.5 0.66016-0.73828 0.027344-0.035157 0.046875-0.11328 0.027344-0.14844-0.089844-0.17969-0.19531-0.35156-0.30469-0.54297z"/>
  <path d="m52.793 39.68c-0.32812-0.51563-0.59375-0.63281-1.1641-0.49219-1.0195 0.25-1.8242 0.82031-2.3945 1.6992-0.15234 0.23438-0.22656 0.52734-0.28906 0.80469-0.074218 0.31641-0.25781 0.51953-0.52344 0.5-0.28125-0.023437-0.45703-0.25391-0.44922-0.58594 0.003906-0.23438 0.007813-0.47266 0-0.70703-0.023437-0.67969 0.20312-1.293 0.50781-1.8789 0.28125-0.53516 0.57031-1.0703 0.88672-1.5859 0.27344-0.44531 0.47656-0.51562 0.98828-0.37891 0.41797 0.10937 0.84375 0.21094 1.2422 0.37891 0.32031 0.13672 0.625 0.33594 0.89062 0.55859 1.3203 1.1094 2.1875 2.5352 2.7969 4.1328 0.33594 0.88281 0.20703 1.7617-0.046875 2.6367-0.039062 0.13672-0.085937 0.27734-0.10938 0.41797-0.054687 0.31641-0.15234 0.45703-0.37109 0.49219-0.21484 0.03125-0.35547-0.058594-0.51172-0.35156-0.63672 0.42969-1.3203 0.75-2.1133 0.91016 0.074219 0.058593 0.11719 0.089843 0.15625 0.125 0.18359 0.14844 0.23828 0.37109 0.13281 0.55859-0.10938 0.19531-0.33594 0.26953-0.5625 0.16797-0.29688-0.13281-0.59766-0.25781-0.88281-0.41406-1.0781-0.59766-1.9648-1.3867-2.4727-2.5391-0.066406-0.14844-0.082031-0.33594-0.066406-0.5 0.019531-0.19922 0.17188-0.3125 0.375-0.32422 0.20312-0.011719 0.35156 0.082031 0.41797 0.27734 0.17969 0.53125 0.54297 0.94531 0.89844 1.3633 0.26953 0.31641 0.66016 0.37109 1.0234 0.38281 1.2344 0.042969 2.2695-0.42188 3.0898-1.3398 0.14453-0.16016 0.19922-0.39453 0.30078-0.59766-0.019531-0.011719-0.039063-0.019531-0.0625-0.03125-0.18359 0.1875-0.35156 0.39453-0.54688 0.56641-0.75781 0.65234-1.6289 0.99219-2.6328 0.85938-1.5391-0.20703-2.3477-1.6406-1.7031-3.0586 0.57422-1.2578 1.5977-1.9102 2.9727-2.0273 0.066407-0.023438 0.12891-0.019531 0.22266-0.019531zm-1.6914-1.4141c-0.26953-0.082031-0.53516-0.16797-0.80859-0.23828-0.058594-0.015625-0.16406-0.003906-0.1875 0.03125-0.20703 0.34375-0.40234 0.69531-0.60547 1.0508 0.55078-0.28906 1.0664-0.5625 1.6016-0.84375z"/>
  <path d="m51.547 56.512c-0.0625-0.039063-0.09375-0.066407-0.13281-0.082031-0.050781-0.023438-0.10937-0.039063-0.16016-0.0625-0.58594-0.23828-1.1055-0.55469-1.1875-1.25-0.082031-0.73438 0.14844-1.3711 0.73828-1.8477 0.49219-0.39844 1.043-0.53516 1.6641-0.33594 0.62891 0.20312 1.2422 0.41406 1.7695 0.83594 0.25 0.19531 0.55859 0.32031 0.80859 0.51562 0.33984 0.26562 0.66016 0.55859 0.96094 0.86328 0.60547 0.61719 0.72656 1.3555 0.55469 2.1836-0.17188 0.84375-0.70312 1.4141-1.5508 1.5664-0.44141 0.082031-0.72656-0.09375-0.91406-0.50391-0.089844-0.19141-0.24609-0.36328-0.40234-0.51562-0.12891-0.12891-0.26953-0.09375-0.39453 0.046875-0.10938 0.125-0.23047 0.24219-0.36328 0.33984-0.28906 0.21484-0.61719 0.32422-0.98047 0.23047-0.16406-0.042969-0.27344-0.003906-0.37109 0.125-0.30859 0.39844-0.61719 0.79688-0.92188 1.1992-0.039062 0.050782-0.058593 0.13672-0.050781 0.19922 0.10156 0.74219 0.19531 1.4883 0.32031 2.2266 0.074218 0.44922 0.22656 0.87891 0.52734 1.2422 0.16406 0.19922 0.13672 0.44922-0.039063 0.60156-0.17969 0.15234-0.41406 0.14062-0.60547-0.042969-0.40234-0.39453-0.60156-0.90234-0.72266-1.4297-0.14844-0.64453-0.24219-1.3047-0.34375-1.9609-0.027344-0.16797-0.066406-0.23047-0.25-0.22656-0.54688 0.007812-1.1055 0.035156-1.6445-0.039063-0.45703-0.0625-0.90234-0.24219-1.3398-0.40625-0.13281-0.050781-0.24609-0.19922-0.32422-0.33203-0.097656-0.15625-0.074218-0.33594 0.054688-0.48438 0.14062-0.16016 0.31641-0.1875 0.51172-0.12109 0.23047 0.078125 0.46875 0.14844 0.69141 0.24219 0.375 0.15625 0.76562 0.19531 1.1641 0.1875 0.33984-0.007812 0.67969-0.007812 1.0156-0.03125 0.085938-0.007812 0.1875-0.0625 0.24609-0.13281 0.375-0.4375 0.73828-0.88281 1.1055-1.3281 0.039062-0.050781 0.078125-0.13281 0.0625-0.18359-0.11328-0.38281 0.011719-0.69141 0.25781-0.98047 0.089844-0.085937 0.15625-0.1875 0.24609-0.30859zm3.4258 1.4062c0.32422-0.089844 0.51953-0.29297 0.60156-0.59375 0.16016-0.58594 0.16016-1.1484-0.33594-1.5977-0.33203-0.30078-0.68359-0.57422-1.0195-0.86719-0.55859-0.48828-1.1836-0.83984-1.9102-1.0156-0.46875-0.10938-0.81641-0.035156-1.0781 0.36328-0.35547 0.55078-0.34375 0.99219 0.30078 1.2305 0.22266 0.082031 0.44141 0.1875 0.63672 0.31641 0.30078 0.19922 0.41406 0.50781 0.32812 0.85156-0.054688 0.21875-0.17969 0.42188-0.28516 0.62109-0.046876 0.09375-0.125 0.17188-0.1875 0.25781 0.007812 0.019531 0.019531 0.042969 0.027343 0.066406 0.10938-0.023437 0.22656-0.023437 0.32031-0.074219 0.09375-0.046874 0.16406-0.14062 0.23828-0.21875 0.46484-0.48828 0.98047-0.5625 1.5625-0.22656 0.35547 0.21094 0.60547 0.51562 0.80078 0.88672z"/>
  <path d="m81.316 49.391c-0.19922 0.027344-0.35938 0.050781-0.52344 0.070313-0.30469 0.042968-0.54297-0.074219-0.71094-0.32031-0.15625-0.23047-0.074219-0.46875 0.070313-0.66797 0.19922-0.27344 0.42188-0.53125 0.64062-0.78906 0.070312-0.085938 0.15234-0.16797 0.20703-0.28906-0.40625 0.12109-0.80859 0.24609-1.2188 0.35938-0.29297 0.082032-0.58594 0.15625-0.88281 0.21484-0.26953 0.050781-0.53906-0.089844-0.67188-0.33203-0.125-0.23047-0.0625-0.44141 0.097657-0.62109 0.44922-0.5 0.88281-1.0156 1.3633-1.4805 0.78516-0.76172 1.5703-1.5352 2.4219-2.2266 1.4375-1.168 2.9883-2.1719 4.6523-2.9961 0.22656-0.11328 0.46094-0.20703 0.69531-0.30078 0.28516-0.11328 0.52344-0.035157 0.62891 0.19141 0.10547 0.23047 0 0.45703-0.28125 0.59375-1.9961 0.95703-3.8086 2.207-5.5117 3.6094-0.80078 0.65625-1.5117 1.4258-2.2656 2.1445-0.035156 0.03125-0.058594 0.074219-0.10547 0.13281 0.48828-0.12109 0.94531-0.25 1.4062-0.34766 0.23047-0.046876 0.47656-0.074219 0.70703-0.046876 0.57031 0.066407 0.78906 0.60938 0.41797 1.0469-0.23828 0.28125-0.51172 0.52734-0.76953 0.79297-0.066406 0.070313-0.13281 0.14453-0.1875 0.20312 0.23047 0.039063 0.46094 0.039063 0.66016 0.11719 0.33203 0.12891 0.46484 0.375 0.32812 0.69531-0.20312 0.48047-0.46875 0.94141-0.73438 1.3945-0.11719 0.19922-0.41016 0.21875-0.60156 0.097657-0.20313-0.13281-0.28125-0.38281-0.17578-0.60938 0.10547-0.20703 0.21875-0.40625 0.34375-0.63672z"/>
  <path d="m53.48 29.434c-0.089844 0.082031-0.17578 0.16797-0.26562 0.24609-0.20703 0.17187-0.45312 0.18359-0.63281 0.027343-0.19141-0.16797-0.24219-0.43359-0.0625-0.63672 0.32031-0.35937 0.64844-0.72656 1.0234-1.0195 0.4375-0.34375 0.90234-0.089843 0.95703 0.48828 0.019531 0.23047 0 0.46094-0.003906 0.69141v0.19922c0.11719-0.15234 0.20703-0.26563 0.29297-0.375 0.23438-0.3125 0.45703-0.63281 0.70703-0.93359 0.16016-0.19531 0.35547-0.37109 0.64453-0.33594 0.29688 0.039063 0.51953 0.19531 0.58984 0.49609 0.0625 0.28125 0.10156 0.56641 0.125 0.85156 0.019531 0.27734 0.003906 0.5625 0.039062 0.86328 0.050781-0.070313 0.097657-0.14453 0.14844-0.21484 0.92578-1.3672 1.5352-2.8906 2.1055-4.4297 0.27734-0.74219 0.57812-1.4805 0.83984-2.2266 0.20312-0.58594 0.36719-1.1836 0.55078-1.7773 0.023438-0.082031 0.046876-0.16797 0.078126-0.24609 0.097656-0.25 0.30078-0.35547 0.52734-0.28906 0.22656 0.066406 0.35156 0.27344 0.28516 0.53125-0.15625 0.62891-0.28125 1.2734-0.50391 1.8828-0.59375 1.6406-1.1953 3.2812-1.8633 4.8945-0.51172 1.2305-1.2656 2.332-2.0547 3.4062-0.14453 0.19531-0.32812 0.27734-0.56641 0.21484-0.28516-0.074219-0.46875-0.26563-0.48438-0.54297-0.03125-0.51953-0.046875-1.0391-0.066406-1.5586-0.003906-0.12891 0-0.25781 0-0.44922-0.082031 0.10547-0.12891 0.16797-0.17969 0.23047-0.23828 0.30078-0.46094 0.61328-0.71875 0.89453-0.16797 0.18359-0.37109 0.34766-0.58984 0.46484-0.43359 0.23438-0.90234-0.058594-0.92188-0.55078-0.007813-0.25781 0-0.51562 0-0.79688z"/>
  <path d="m68.668 39.559c0.027343 0.49609 0.085937 1.0312 0.085937 1.5625 0.003906 1.4531-0.48438 2.7695-1.2812 3.9531-0.48047 0.71484-1.0781 1.3516-1.6289 2.0195-0.070312 0.089844-0.16406 0.16016-0.26172 0.22656-0.17969 0.12109-0.37109 0.12109-0.54688-0.003906-0.17578-0.125-0.23828-0.30859-0.17578-0.51562 0.035156-0.125 0.09375-0.24219 0.14453-0.35938 0.35156-0.78906 0.46094-1.6367 0.55859-2.4805 0.23438-1.9727 0.89062-3.7695 2.1875-5.3008 0.042969-0.050781 0.085938-0.10156 0.12891-0.14453 0.28516-0.28516 0.66406-0.19141 0.76953 0.19141 0.035156 0.12891 0.039062 0.26953 0.042968 0.40625 0.003906 0.13281-0.011718 0.27344-0.023437 0.44531zm-2.1953 5.2578c0.9375-1.3594 1.5-2.8242 1.2461-4.5234-0.78516 1.4023-1.1562 2.9219-1.2461 4.5234z"/>
  <path d="m67.34 38.207c-0.046875 0.10938-0.078125 0.23047-0.14062 0.33203-0.25781 0.39844-0.53125 0.78906-0.78906 1.1914-0.61719 0.96875-1.4258 1.7422-2.4062 2.3242-0.55859 0.33203-1.1406 0.625-1.6992 0.94922-0.42969 0.25-0.84375 0.52734-1.2656 0.79297-0.054687 0.035156-0.10547 0.078125-0.16016 0.10938-0.20312 0.11328-0.42578 0.089844-0.58203-0.054688-0.15625-0.14453-0.20312-0.37109-0.09375-0.57812 0.78906-1.4453 1.6953-2.8008 3.1133-3.707 0.76562-0.48828 1.5742-0.90234 2.3672-1.3477 0.29688-0.16797 0.58984-0.33594 0.89062-0.48828 0.40625-0.21094 0.73828 0.007812 0.76562 0.47656zm-1.8555 1.1602c-1.1914 0.51953-2.8945 1.8594-3.2734 2.582 1.2656-0.64844 2.4531-1.3398 3.2734-2.582z"/>
 </g>
<text x="0.0" y="117.5" font-size="5.0" font-weight="bold" font-family="Arbeit Regular, Helvetica, Arial-Unicode, Arial, Sans-serif" fill="#000000"></text><text x="0.0" y="122.5" font-size="5.0" font-weight="bold" font-family="Arbeit Regular, Helvetica, Arial-Unicode, Arial, Sans-serif" fill="#000000"></text></svg>