<svg xmlns="http://www.w3.org/2000/svg" xmlns:xlink="http://www.w3.org/1999/xlink" version="1.0" x="0px" y="0px" viewBox="0 0 100 125" style="enable-background:new 0 0 100 100;" xml:space="preserve"><g><path d="M55.4,83.3c-0.5,0-1.3-0.1-1.8-0.1   c-1.6-0.1-2.8-0.4-3.4-1L50,81.9l-0.4,0.2c-0.4,0.2-1.2,0.2-7.1,0.1c-0.1,0-0.5,0-1,0.1c-0.5,0-1.5,0.1-2.3,0.1   c-1.4,0.1-1.5,0.1-2,0.3c-0.9,0.4-1.3,0.5-2.5,0.5c-0.6,0-1.7-0.1-2.4,0c-1.4,0-2-0.1-2.7-0.6c-0.3-0.2-0.5-0.3-1-0.3   c-3,0-3.6-4.5-0.9-7.2l0.8-0.8l0-1.5c0-2.2,0.7-4.8,2-7.8c0.5-1.1,0.5-1.1,0.3-1.2c-0.1-0.1-0.7-0.5-1.3-0.9   c-1.4-0.9-2.3-1.6-3-2.3L26,60.2l-0.6,0.1c-1.2,0.2-3.2,0.6-4.7,1.1c-0.3,0.1-1.2,0.4-2.1,0.8c-1.6,0.7-2,0.7-0.7,0.1   c1.9-0.9,4.1-1.6,6.4-2c1.6-0.3,1.5-0.3,1.1-0.7c-0.5-0.6-1.2-1.7-1.8-3c-0.3-0.7-0.6-1.2-0.7-1.3c-0.2-0.1-1.3,0-1.5,0.1   c-0.1,0-0.5,0.1-1,0.2s-1.6,0.2-2.5,0.4c-0.9,0.1-1.7,0.2-1.8,0.2c-0.1-0.1,0.1-0.2,0.7-0.3c0.3,0,1.5-0.2,2.5-0.4   c1.1-0.2,2.2-0.4,2.6-0.5c0.8-0.1,0.8-0.1,0.5-1.2c-1-3.5-0.7-7.3,1-12.9c0.4-1.4,0.4-1.5-0.2-2.4c-3.1-4.5-4.2-16.8-2-21.2   c0.5-0.9,4.1-0.2,7.9,1.6c0.7,0.3,1.2,0.6,3.5,1.9c1,0.6,3,1.8,3.5,2.2c0.3,0.2,1,0.6,1.6,1c0.6,0.4,1.3,0.8,1.5,0.9   c0.5,0.3,0.8,0.3,2.1-0.1c5.1-1.8,12.5-1.9,17.6-0.3c0.4,0.1,0.9,0.3,1.2,0.4l0.5,0.1l0.5-0.2c0.3-0.1,1.1-0.7,1.9-1.1   c3.6-2.3,7.9-4.7,10.3-5.6c1.2-0.5,3.2-1,4.3-1.1c0.5-0.1,1.1-0.1,1.2-0.1c0.6-0.1,0.7,0.1,1.1,1c1,3,1.3,7.9,0.5,11.9   c-0.1,0.5-0.2,1.3-0.3,1.6c-0.4,2.2-1.3,5-2,6.2c-0.2,0.3-0.4,0.8-0.6,1.1L77,39.2l0.1,0.4c0.3,0.8,1,3.5,1.3,4.8   c0.9,3.8,0.9,7.4,0,10.2c-0.2,0.5-0.2,0.5,1.3,0.7c1.1,0.1,3.4,0.7,3.6,0.8c0.1,0.1-0.1,0.1-1-0.1c-0.9-0.2-3.6-0.6-4-0.6   c-0.2,0-0.3,0.1-0.8,1.2c-0.3,0.7-0.8,1.6-1.2,2.2c-0.4,0.6-0.7,1.1-0.7,1.1c0,0,0.8,0.3,1.7,0.5c1.8,0.4,2.6,0.7,4.2,1.3   c1.1,0.4,1,0.4-0.2,0.1c-2.6-0.8-5.4-1.5-5.8-1.5c-0.2,0-0.4,0.1-0.7,0.5c-0.3,0.3-0.7,0.7-1,1c-0.7,0.6-0.7,0.5,0.2,1.6   c3.3,3.8,4.5,7.9,3.6,12.2c-0.3,1.2-0.3,1.3-0.1,1.2c0.1-0.1,1.4-2.8,1.4-2.9c0-0.2,0.1-0.4,0.3-0.3c0.2,0.1,0.2,0.3,0.1,0.7   c-0.1,0.4,0.8,0.3,2.8-0.2c4.4-1.3,6.6-7,4.9-13.1c-0.3-1.1-0.3-1.2-0.1-0.8c1.7,2.7,1.4,8.5-0.7,11.6c-0.9,1.4-1,1.5-0.4,1.1   c3-1.9,4.3-6.2,3.2-10.5c-0.9-3.3-1.2-4.5-3-5.4c-0.4-0.2-2.1-1.1-2.2-1.3c-6.1-9.1,5.2-8.9,8.2-5.4c1.7,2,4.7,7.6,5.4,10.3   c1.7,6.8,0.7,13.5-2.6,16.7c-3.2,3-10.1,4.5-17.4,3.7c-0.7-0.1-1.5-0.2-1.7-0.2c-0.3,0-0.4,0-0.6,0.1c-1,0.7-3.6,1.3-6.8,1.6   c-1.6,0.1-5.6,0.2-6.2,0.1l-0.7-0.1l-0.7,0.3C59.4,83.2,57.4,83.4,55.4,83.3L55.4,83.3z M58.4,82.5c1.4-0.2,2.1-0.5,2.9-1.3   c0.5-0.5,0.8-0.4,0.6,0.2c-0.1,0.3,0.4,0.3,3.6,0.2c7.4-0.2,9.4-1,10.6-3.8c1.5-3.5,1.2-7.5-0.6-10.8c-0.6-1.1-0.8-1.5-1.7-2.5   c-1.1-1.4-1.2-1.4-2.3-0.9c-1.8,1.1-3.9,1.8-5.3,2.1c-0.9,0.2-1.4,0.3-3,0.5c-1.2,0.2-1.5,0-0.4-0.2c0.7-0.1,2.7-0.7,3.3-1   c0.3-0.1,0.9-0.3,1.3-0.5c0.6-0.2,2.8-1.3,3.3-1.6c0.1-0.1,0.5-0.3,0.9-0.6c0.7-0.5,1.8-1.3,2.1-1.6l0.2-0.2l-0.6-0.1   c-0.8-0.1-2.1-0.7-4-1.6c-2.7-1.3-4-1.7-6.7-1.9c-0.7,0-0.4-0.3,0.4-0.4c1.6-0.3,3.8-0.1,4.6,0.3c0.2,0.1,0.7,0.3,1.1,0.4   c0.5,0.1,0.8,0.3,1.1,0.4c0.4,0.3,0.4,0.4,0.1,0.2c-0.1-0.1-0.4-0.2-0.7-0.2c-0.3-0.1-0.7-0.2-1-0.3c-0.9-0.3-1-0.1-0.1,0.2   c0.4,0.2,1.1,0.5,1.6,0.8c2,1.1,3.7,1.7,4.5,1.6c0.5,0.2,1-1.1,1.3-1.4c0.9-1,1.2-2.7,1.5-2.9l-0.2-0.1c-0.5-0.1-0.9,1.3-1.2,1.3   c-0.1,0-0.2-0.3-0.1-0.4c0.6-1,0.5-1-2.8-1.2c-4.4-0.2-6.4-0.7-7.3-1.7l-0.2-0.2l0.4,0.2c1.3,0.7,2.3,0.9,6.1,1.2   c0.9,0.1,2.2,0.2,2.8,0.2c1.1,0.2,2.6,0.3,3-0.4c0.2-0.4,0.3-0.7,0.5-2c0.1-0.7,0.3-1.5,0.3-1.8c0.3-1.6-0.1-5-0.9-7.9   c-0.3-1.2-0.9-3.2-1.1-3.5c-0.1-0.2-0.1-0.3,0.3-1.1c1.6-3.3,3.2-6.5,2.9-12.3c0.1-2.7,0-3.1-0.4-5.5c-0.5-2.7-0.9-2.8-4.6-1.9   c-0.7,0.2-0.9,0.2-0.4,0c2-0.9,4.7-1,5-0.4c0.3,0.5,0.8,3.7,0.8,4.7c0,1.6,0.1,4.6,0.1,3.9c0.1-1.7,0.1-4.9-0.1-5.9   c-0.1-0.5-0.2-1.2-0.2-1.5c0-0.3-0.1-0.8-0.2-1c-0.1-0.3-0.2-0.6-0.3-0.8L79,17.4l-0.8,0.1c-3.1,0.2-7.5,2.1-13,5.5   c-0.7,0.4-1.5,1-1.8,1.1c-0.3,0.2-0.8,0.5-1.2,0.8c-1.4,0.9-1.6,0.9-3.4,0.4c-0.8-0.2-1.4-0.4-1.4-0.4c0,0-0.1,0.5-0.2,1.1   c-0.5,3.9-0.9,5.7-1.5,5.7c-0.3,0-0.4-1.1-0.5-4.6c0-1.5,0-2.7-0.1-2.7c-0.1-0.1-1.3-0.2-1.7-0.2c-0.3,0-0.3-0.1-0.5,2   c-0.1,0.8-0.2,1.8-0.2,2.1c-0.1,0.3-0.1,0.9-0.2,1.1c-0.2,1.4-0.7,3.3-1.2,3.9c-1.2,1.7-2.3-1.1-3.1-7.6c-0.2-1.6-0.2-1.6-0.6-1.5   c-0.2,0-0.7,0.1-1,0.1L46,24.4c-0.1,0.3,0,0.6-0.1,0.8c0.2,0.3,0,6.1-0.2,6.5c-0.6,1.2-0.9,0.1-1.7-5.1c-0.2-1.2-0.3-1.6-0.4-1.7   c-0.1-0.1-2.1,0.4-2.8,0.7c-1,0.4-1.2,0.4-1.6,0.2c-0.6-0.4-3.4-2.2-4-2.6c-0.4-0.2-1.2-0.7-1.8-1.1c-4.5-2.9-7-3.9-10.5-4.5   c-1.2-0.2-1.3-0.1-1.6,2.3c0,0.4-0.1,0.9-0.2,1.2c-0.5,3.1,0,9,0.9,12.3c0.6,2.4,1.5,3.7,2.5,5.5c0.3,0.4,0.3,0.6-0.2,2.2   c-1.9,6.1-2.1,10.4-0.6,13.7c0.2,0.5,0.9,0.2,1.2-0.4l0.1-0.3l0,0.3c0,0.2,0,0.4,0,0.5c0,0.2,0.4,0.4,0.7,0.4   c0.3,0,0.2,0.2-0.1,0.3c-0.2,0.1-0.4,0.2-0.5,0.3c-0.1,0.2-0.1,0.2-0.2,0c-0.3-0.4-0.8,0.2-0.5,0.7c0.1,0.2,0.5,0.8,0.6,0.9   c0.8,1.4,1,2.3,2.7,2.7c1.3,0,2.7-0.3,3.7-0.8c2.7-1.6,5.5-2.6,8.7-2.5c0.8,0.1,0.6,0.3-0.5,0.3c-1.8,0.1-3.9,0.8-6.6,2   c-1.5,0.7-3.2,1.2-4.4,1.3c-0.7,0.1-0.8,0.1-0.5,0.3c0.1,0.1,0.6,0.5,1.2,0.9c1.4,1.1,2.7,1.8,4.1,2.4c1.3,0.5,3,1.1,4.4,1.4   c1.6,0.4,1.5,0.4,1.4,0.5c-0.2,0.2-3-0.2-4.4-0.6c-1.3-0.4-1.2-0.4-1.4,0.4c-0.5,2.6,0.9,4.6,3.4,4.9c6,0.8,10.2,7.1,7,10.4   c-0.1,0.1-0.2,0.3-0.2,0.3c0.1,0.1,5.7,0.1,5.7,0.1c0,0-0.1-0.2-0.2-0.5c-1.8-4.6,2.5-8.4,11.3-9.9c2.8-0.5,6.1-0.4,6.1,0.2   c0,0.2-0.2,0.2-1.5,0.2c-1.2,0-3.5,0.2-4.4,0.3c-3.3,0.6-5.8,1.4-7.5,2.4c-1.7,1-2.2,1.4-2.6,2c-0.6,0.9-1,2-0.9,2.7   c0.1,0.4,0.3,1.5,0.3,1.9c0,0.1,0.2,0.3,0.4,0.4c0.2,0.1,0.5,0.3,0.6,0.5c0.5,0.6,3.4,1.3,3.1,0.7c-0.8-2-0.4-4.5,1-5.5   c0.8-0.6,1.1-0.6,0.6,0c-1.2,1.4-1.3,1.7-1.4,3C54,82.4,55,83,58.4,82.5L58.4,82.5z M46.5,58.8c-1.2-0.4-2-1.1-2.2-2.3   c-0.2-0.8,0.1-1,0.3-0.3c0.3,1.1,1.3,2,2.4,2.1c1.6,0.2,3.6-1.8,3.1-2.9c-0.1-0.2-0.2-0.5-0.3-0.8c-0.2-0.5-0.3-0.6-0.8-0.6   c-0.8,0-1.4-0.9-1-1.5c0.5-0.8,3.8-0.8,4.8-0.1c0.6,0.5-0.4,1.8-1.3,1.6c-0.6-0.1-1,1.9-0.6,2.6c1.6,2.5,5.2,2.2,6-0.3   c0.2-0.6,0.4-0.6,0.4,0c0,1.9-2.8,3.3-4.6,2.4c-0.6-0.3-1.7-1.2-2-1.6l-0.2-0.3L50,57.3C48.9,58.7,47.8,59.2,46.5,58.8L46.5,58.8z    M50.7,54.3c0.3-0.5,0.4-0.7,0.7-0.7c0.7,0,1.3-0.4,1.1-0.8c-0.3-0.6-3.6-0.7-4.1,0c-0.3,0.4,0,0.7,0.6,0.7c0.5,0,0.7,0.2,1,0.7   C50.3,54.8,50.5,54.8,50.7,54.3L50.7,54.3z M26,55.3c0,0,0.9-0.1,1.9-0.2c1.4-0.1,2-0.1,2.5-0.3c0.4-0.1,1.2-0.2,1.8-0.3   c2.2-0.2,5.2-1.3,5.2-2c0-0.2,0.2-0.2,0.3-0.1c0.1,0.1-0.3,0.7-0.4,0.7c0,0-0.2,0.1-0.4,0.3c-0.7,0.5-2.3,1.2-3.4,1.4   C31.8,55.2,25.7,55.6,26,55.3L26,55.3z M36.3,52.1c-1.5-0.5-2.7-1.7-3.8-3.8c-0.3-0.5-0.6-1.1-0.7-1.3c-0.3-0.4-0.7-1.3-0.7-1.6   c0-0.1-0.1-0.2-0.4-0.4c-1.1-0.6-1.2-0.9-0.2-1c0.9,0,1.9-0.5,3.3-1.6c5.7-4.2,11-1,11.1,6.8l0,1.1l0.3,0.4c0.5,0.7,0.2,1-0.4,0.5   c-0.9-0.7-2.1-0.7-3.3-0.1C39.6,52.3,37.7,52.6,36.3,52.1L36.3,52.1z M39.4,51.5c2.4-0.7,3.7-1.8,4-3.5c0.1-0.5,0.1-1.4,0-1.2   c0,0.1-0.3,0.4-0.6,0.8c-0.3,0.3-0.7,0.8-0.8,1c-1.8,2.6-5,2.9-6.8,0.5c-0.6-0.8-0.8-1.5-1-2.8l0-0.4l-0.4,0.2   c-0.2,0.1-0.4,0.2-0.5,0.2c-0.5-0.1-0.3,1.5,0.3,2.6C34.7,51.1,37.1,52.2,39.4,51.5L39.4,51.5z M44,49.9c0-0.5-0.2-2-0.2-2.1   c0,0-0.1,0.2-0.2,0.5c-0.1,0.5-0.4,1-0.7,1.8c0,0,0.2,0.1,0.4,0.1c0.2,0,0.5,0,0.6,0C44,50.3,44,50.3,44,49.9L44,49.9z M41.7,47.8   c0-0.2-0.5-0.5-0.7-0.4c-0.1,0.1,0.1,0.4,0.3,0.4C41.7,47.9,41.7,47.9,41.7,47.8z M38,45.8c0.9-0.2,1.4-0.8,1.3-1.6   c-0.1-1.5-2-2-3.1-0.8C34.9,44.6,36.1,46.2,38,45.8z M62.5,52.2c-0.5-0.1-1.2-0.4-2.3-0.8c-1.9-0.8-2.7-0.8-3.9,0.2   c-0.5,0.4-0.7-0.1-0.4-0.6c0.2-0.3,0.2-0.4,0.3-1.9c0.1-5.9,3.3-9.2,7.9-8.4c1.1,0.2,2,0.7,3.9,2.1c1.2,0.9,2.4,1.4,3.3,1.3   c0.8-0.1,0.5,0.4-0.6,0.9c-0.4,0.2-0.5,0.3-0.5,0.5c0,0.1-0.2,0.5-0.4,0.9c-0.2,0.4-0.6,1.2-0.9,1.8C67.4,51.2,64.9,52.7,62.5,52.2   L62.5,52.2z M64.8,51.4c2-0.6,3.6-2.7,3.5-4.6l0-0.6l-0.7-0.1c-0.8-0.2-0.8-0.2-0.8,0.6c-0.3,4.5-6,5.3-7.9,1.1   c-0.2-0.4-0.2-0.4-0.5-0.4c-0.1,0-0.4,0.1-0.5,0.1c-0.3,0-0.3-0.1-0.3-0.5c0-0.1,0-0.2-0.1-0.2c-0.3,0,0.2,1.7,0.7,2.7   c0.2,0.5,0.3,0.5,0.8,0.7c0.3,0.1,0.9,0.4,1.3,0.6C62.1,51.7,63.4,51.8,64.8,51.4L64.8,51.4z M57.8,50.2c0.4-0.1,0.4-0.1,0.1-0.7   c-0.3-0.6-0.5-1-0.6-1.7l-0.1-0.5L57,47.8c-0.1,0.3-0.1,1-0.1,1.4c0,1.2,0,1.1,0.3,1C57.3,50.2,57.6,50.2,57.8,50.2L57.8,50.2z    M65.7,47.6c0.1-0.2,0-0.3-0.3-0.4c-0.2-0.1-0.5,0.2-0.4,0.4C65.1,47.9,65.7,47.8,65.7,47.6L65.7,47.6z M61.8,45.6   c1.6-0.6,1.2-3-0.5-3c-0.9,0-1.8,0.7-1.9,1.6C59.2,45.3,60.5,46.1,61.8,45.6z M23,51.6c0-0.1-0.1-0.2-0.1-0.4   c-0.1-0.3-0.1-0.3,0.3-0.4c0.5-0.2,0.7-0.4,1.3-1.2c1.9-2.7,4.6-3.3,6.6-1.4l0.4,0.4l-0.7,0.1c-1.1,0.1-2.4,0.7-3.9,1.8   c-0.6,0.4-1.5,0.8-2.6,1c-0.5,0.1-0.9,0.2-1,0.2C23.1,51.7,23.1,51.7,23,51.6z M77.2,51.3c-0.5-0.1-1.8-0.7-2.2-1   c-1.3-0.9-4-1.8-5.1-1.7l-0.5,0l0.7-0.5c2.5-2,5.7-1.2,7.1,1.7c0.1,0.3,0.3,0.5,0.4,0.6c0.2,0.1,0.3,1.2,0.2,1.2   C77.7,51.5,77.5,51.4,77.2,51.3L77.2,51.3z M42.4,39.4c-1.3-1.3-2.1-2.7-2.2-4l0-0.4l0.3,0c1.6,0.1,3,2.4,3,4.9   C43.5,40.5,43.5,40.6,42.4,39.4L42.4,39.4z M57.3,39.9c0-2.3,1.1-4.3,2.6-4.8c0.7-0.3,0.8,0,0.2,1.5C59.6,38.1,57.3,40.7,57.3,39.9   z M35.5,29.3c-0.4-0.6-1-1.4-1.3-1.9l-0.6-0.8l-1.1-0.4c-2-0.7-4.3-0.5-2.8,0.3c0.5,0.2,1.3,0.9,1.2,1c-0.1,0.1-1.2,0.5-1.1,0.4   c0,0,0.2-0.1,0.5-0.3c0.2-0.1,0.4-0.2,0.4-0.3c0-0.1-1.2-0.6-1.5-0.6c-0.7-0.3-0.6-0.6-0.4-0.9c0.4-0.7,2-0.7,3.5-0.2   c0.3,0.1,0.7,0.2,0.7,0.2c0.2-0.1-1.6-2.1-3.4-3.7c-0.3-0.3-0.7-0.7-0.8-0.9L28.7,21l0.2,0.1c1.1,1,1.5,1.3,2.7,2.4   c1.4,1.3,2.7,2.9,3.6,4.4c0.1,0.1,0.2,0.4,0.4,0.7c0.3,0.4,0.9,1.7,0.9,1.8C36.5,30.5,36.1,30.2,35.5,29.3z M64,30.3   c0-0.3,1.7-3.2,2.7-4.4c0.9-1.1,3-3.1,3.8-3.6c0.2-0.1,0.5-0.3,0.7-0.5c0.3-0.3,0.7-0.5,0.7-0.4c0,0-0.2,0.2-0.4,0.4   c-1.5,1.3-3.9,3.8-3.8,3.9c0,0,0.2,0,0.3,0c1.4-0.5,2.7-0.4,3.3,0.3c0.3,0.4,0.2,0.6-0.3,0.8c-0.2,0.1-0.7,0.3-1,0.4   c-0.3,0.1-0.6,0.3-0.6,0.3c-0.3,0,0.5-0.6,1.3-1c0.6-0.3,0-0.6-1.2-0.6c-1.6,0-2.5,0.5-3.4,1.8c-0.1,0.1-0.3,0.4-0.5,0.7   c-0.2,0.3-0.4,0.5-0.4,0.6C65.2,29,64.2,30.4,64,30.3C64,30.4,64,30.3,64,30.3L64,30.3z M21.4,28.4c-0.4-2.1-0.2-8.5,0.4-9.9   c0.4-0.6,0.7-0.4,1.1-0.5c1.3,0,3.4,0.5,4,1l0.2,0.2L27,19.2c-0.1,0-0.5-0.1-0.8-0.2c-0.6-0.2-1.5-0.4-2.6-0.5   c-2.3-0.6-1.7,4.3-1.9,6.8c0,1.7,0,3.2,0,3.2C21.6,28.7,21.5,28.6,21.4,28.4L21.4,28.4z M35.4,82.4c0.4-0.1,0.8-0.2,1.1-0.3   c0.3-0.1,0.6-0.3,0.7-0.4c0.1-0.1,0.5-0.1,0.8-0.2c4.1-0.2,4.3-0.2,5-0.9c2-2.2,0.3-6.6-3.2-8.3c-3.3-1.6-6.5-0.9-9.9,1.9   c-0.4,0.3-1,0.8-1.4,1.1c-2.3,1.7-2.6,6.1-0.4,6.1c0.3,0,0.3,0,0.1-0.7c-0.5-1.7-0.2-3.2,0.8-4.2c0.9-1,1.6-1,0.7,0   c-1.6,1.8-1.3,4.7,0.6,5.5c0.6,0.3,0.8,0.3,1.8,0.3l0.6,0l-0.1-0.2c-1-2-0.3-5.5,1-5.5c0.3,0,0.3,0-0.1,0.5c-0.9,1-1.1,2.5-0.6,3.9   c0.3,1,0.7,1.3,1.8,1.4C34.8,82.5,35.1,82.5,35.4,82.4L35.4,82.4z M85.8,80c2.7-0.3,2.7-0.3,2.7-1.4c0-1.4-0.5-2.7-1.5-4.5   c-0.7-1.1-0.6-1-1-0.8c-0.5,0.3-1.4,0.7-2.3,1c-0.9,0.3-0.8,0.3-0.6,0.6c0.7,1.1,0.2,4-0.7,4.9C81.6,80.2,82.6,80.3,85.8,80z    M29.8,72.2c0-1.1,0.2-3,0.5-3.9c0.1-0.4,0.1-0.7,0-0.4c-0.5,1.5-0.9,3.5-0.9,4.8l0,1l0.2-0.2l0.2-0.2L29.8,72.2z M95.9,71.9   c0.4-0.1,0.8-0.1,0.8-0.1c0.1,0,0.2-0.3,0.3-1.2c0.4-2,0.3-5.9-0.1-8c-0.3-1.5-0.4-1.9-0.4-1.2c0,3.2-4.3,3.7-4.5,3.7   c-0.9,0-1.2,0-1.8-0.2c-0.2-0.1-0.2,0-0.2,1.1c-0.1,1.9-0.3,3-1,4.3c-0.5,0.8-0.5,0.7,0.2,1C91.3,71.9,93.9,72.2,95.9,71.9   L95.9,71.9z M90.1,61.6c0.9-0.4,1.2-0.5,1.8-0.9c1.4-0.8,2.1-1.8,2.5-3.7l0.1-1.2c-2.8-6-5.4-7.4-9.2-7.1c-3.4,0.3-3.1,5.4,0.1,7   c1.4,0.7,2.4,1.6,3.1,3c0.4,0.8,1.2,2.7,1.2,2.9C89.6,61.8,89.6,61.8,90.1,61.6L90.1,61.6z M8.2,81.2c-4-0.6-6.6-4-6.4-8.2   c0.3-5.9,6.2-8.5,10.2-4.4c0.7,0.7,0.7,0.7,1.1,0.7c3.6,0,6.6,4.2,5.3,7.6c-0.1,0.4-0.3,0.7-0.3,0.7c0,0.2,2.5,0.5,4.5,0.5   c1.4,0,1.9,0.1,1.9,0.1c-0.2,0.2-3.6,0.1-5.2-0.1l-1.4-0.2l-0.6,0.5C14.8,80.7,11.2,81.7,8.2,81.2z M12.2,80.6   c1.9-0.5,3.3-1.2,4.7-2.4c3.1-2.7,0.4-8.4-3.9-8.4l-0.5,0l-0.4-0.5c-3.1-3.9-8.8-2.3-9.7,2.8C1.3,77.9,6.3,82.2,12.2,80.6z"/></g><text x="0" y="115" fill="#000000" font-size="5px" font-weight="bold" font-family="'Helvetica Neue', Helvetica, Arial-Unicode, Arial, Sans-serif"></text><text x="0" y="120" fill="#000000" font-size="5px" font-weight="bold" font-family="'Helvetica Neue', Helvetica, Arial-Unicode, Arial, Sans-serif"></text></svg>