<svg xmlns="http://www.w3.org/2000/svg" xmlns:xlink="http://www.w3.org/1999/xlink" version="1.1" x="0px" y="0px" viewBox="0 0 100 125" enable-background="new 0 0 100 100" xml:space="preserve"><g><path d="M53.875,36.553c0.362-0.121,0.502-0.363,0.688-0.536c1.309-1.214,3.544-1.062,4.607,0.172   c1.042,1.211,1.437,2.943,0.871,4.641c-0.346,1.038-0.779,2.01-1.604,2.7c-0.536,0.449-0.998,1.011-1.526,1.473   c-0.854,0.748-1.546,1.65-2.128,2.675c-0.18,0.317-0.403,0.607-0.633,0.881c-0.462,0.553-0.739,0.583-1.225,0.067   c-0.329-0.35-0.654-0.739-0.876-1.179c-0.64-1.265-1.592-2.163-2.666-2.856c-1.021-0.659-1.851-1.542-2.659-2.466   c-0.582-0.666-0.48-1.562-0.353-2.352c0.372-2.31,2.174-3.495,3.635-3.293c0.686,0.095,1.379-0.116,2.074,0.137   c0.405,0.147,0.654-0.192,0.665-0.841c0.021-1.208,0.005-2.416,0.002-3.624c-0.001-0.207-0.022-0.414-0.02-0.621   c0.01-0.843,0.016-0.864-0.657-1.038c-0.827-0.213-1.653-0.422-2.516-0.385c-0.513,0.022-1.032-0.04-1.544-0.109   c-1.7-0.229-3.393-0.072-5.088,0.076c-0.393,0.034-0.785,0.095-1.178,0.104c-2.636,0.056-5.161,0.753-7.639,1.709   c-1.503,0.58-2.813,1.614-4.214,2.434c-1.107,0.648-2.156,1.415-3.154,2.267c-0.193,0.165-0.421,0.307-0.559,0.521   c-0.793,1.23-1.753,2.293-2.649,3.416c-1.037,1.299-1.408,2.876-1.622,4.523c-0.272,2.089-0.402,4.176,0.074,6.27   c0.18,0.792,0.451,1.534,0.871,2.139c0.804,1.158,1.516,2.407,2.508,3.396c1.565,1.559,3.269,2.766,5.261,3.559   c2.969,1.183,6.042,1.39,9.121,1.614c0.806,0.059,1.64-0.062,2.436-0.245c1.39-0.319,2.809-0.416,4.177-0.953   c0.839-0.329,1.814-0.544,2.725-0.036c0.027,0.015,0.062,0.018,0.084,0.039c0.305,0.296,0.949-0.176,1.027,0.397   c0.116,0.843,0.473,1.703-0.087,2.584c-1.552,2.445-3.249,4.749-5.323,6.622c-1.523,1.376-3.302,2.308-5.11,3.143   c-2.353,1.087-4.805,1.673-7.323,1.946c-1.414,0.153-2.828,0.327-4.251,0.349c-0.549,0.009-1.082-0.097-1.618-0.251   c-1.47-0.422-2.952-0.784-4.422-1.204c-3.556-1.018-6.738-2.885-9.51-5.61c-1.397-1.374-2.699-2.875-3.676-4.683   c-0.385-0.711-0.985-1.232-1.353-1.913c-0.727-1.347-1.305-2.795-1.845-4.261c-1.034-2.808-1.172-5.819-1.605-8.764   c-0.025-0.168-0.033-0.349-0.007-0.516c0.433-2.776,0.461-5.637,1.366-8.316c0.184-0.544,0.27-1.133,0.38-1.706   c0.683-3.55,1.889-6.831,3.837-9.737c0.809-1.208,1.588-2.443,2.402-3.646c0.653-0.966,1.511-1.69,2.374-2.383   c0.567-0.455,1.147-0.895,1.722-1.338c1.246-0.96,2.411-2.078,3.831-2.729c0.785-0.36,1.514-0.853,2.318-1.184   c2.464-1.017,4.984-1.718,7.601-1.948c2.103-0.185,4.18,0.082,6.252,0.442c1.68,0.292,3.326,0.783,4.952,1.304   c1.327,0.425,2.64,1.027,3.826,1.867c2.282,1.617,4.608,3.172,6.661,5.167c1.089,1.058,1.938,2.368,2.553,3.837   c0.305,0.728,0.156,1.561,0.1,2.342c-0.115,1.584-0.279,3.163-0.419,4.744C53.786,35.757,53.756,36.129,53.875,36.553z    M38.741,62.978c0,0.01,0,0.02,0,0.03c-0.607,0-1.234,0.114-1.817-0.02c-2.252-0.52-4.585-0.482-6.78-1.454   c-1.423-0.63-2.771-1.353-4.011-2.353c-0.422-0.34-0.736-0.811-1.159-1.158c-2.009-1.641-3.327-3.856-4.091-6.517   c-0.15-0.524-0.293-1.047-0.407-1.586c-0.462-2.187-0.031-4.324,0.209-6.475c0.101-0.899,0.324-1.751,0.721-2.545   c0.838-1.678,1.931-3.086,3.321-4.2c0.719-0.576,1.425-1.174,2.116-1.792c2.194-1.962,4.614-3.434,7.295-4.315   c2.073-0.681,4.226-0.935,6.333-1.434c1.252-0.297,2.513-0.46,3.797-0.432c2.456,0.054,4.903,0.272,7.351,0.489   c0.396,0.035,0.833,0.13,1.063-0.347c0.218-0.453-0.141-0.844-0.226-1.268c-0.012-0.06-0.067-0.117-0.113-0.159   c-0.571-0.526-0.954-1.248-1.465-1.834c-1.554-1.78-3.497-2.939-5.324-4.283c-1.105-0.813-2.385-1.17-3.58-1.746   c-1.869-0.903-3.82-1.594-5.829-1.945c-1.705-0.298-3.412-0.599-5.153-0.639c-2.403-0.055-4.753,0.321-6.959,1.31   c-3.217,1.443-6.304,3.222-8.923,5.875c-0.77,0.78-1.651,1.428-2.305,2.34c-1.366,1.906-2.484,4-3.499,6.168   c-0.688,1.47-1.042,3.093-1.654,4.599c-1.37,3.372-1.894,6.955-1.905,10.64c-0.005,1.632-0.222,3.274,0.194,4.899   c0.243,0.951,0.195,1.962,0.474,2.935C6.905,57.471,7.8,58.948,8.38,60.6c0.235,0.67,0.629,1.255,1.022,1.83   c0.78,1.141,1.543,2.296,2.309,3.448c0.338,0.508,0.531,1.181,1.22,1.274c0.121,0.016,0.254,0.198,0.328,0.34   c0.225,0.433,0.563,0.72,0.917,0.99c1.933,1.469,3.757,3.139,6.045,3.923c1.213,0.415,2.351,1.11,3.633,1.282   c0.329,0.044,0.674,0.051,0.982,0.172c1.577,0.617,3.231,0.565,4.855,0.701c2.297,0.192,4.502-0.547,6.718-1.102   c0.533-0.133,1.042-0.355,1.557-0.565c1.172-0.478,2.279-1.124,3.43-1.656c1.09-0.504,2.171-1.137,2.994-2.127   c0.482-0.58,0.968-1.146,1.523-1.621c1.374-1.176,2.252-2.775,3.022-4.47c0.382-0.841,0.241-1.11-0.578-1.203   c-0.121-0.014-0.246-0.036-0.363-0.015c-0.898,0.16-1.815,0.245-2.687,0.515c-1.681,0.522-3.363,0.872-5.114,0.671   C39.714,62.932,39.226,62.978,38.741,62.978z M59.281,39.243c0.032-1.198-0.385-1.969-1.338-2.449   c-0.193-0.097-0.403-0.154-0.598-0.246c-0.655-0.31-1.228-0.162-1.773,0.336c-0.694,0.635-1.282,1.361-1.69,2.268   c-0.082,0.183-0.168,0.372-0.288,0.522c-0.233,0.291-0.493,0.255-0.66-0.081c-0.073-0.148-0.109-0.32-0.152-0.485   c-0.32-1.244-1.28-1.965-2.398-1.799c-1.663,0.247-2.654,1.462-2.765,3.364c-0.033,0.558,0.103,0.998,0.505,1.35   c0.949,0.83,1.742,1.878,2.841,2.507c0.447,0.256,0.842,0.66,1.188,1.107c0.237,0.306,0.55,0.534,0.821,0.807   c0.282,0.284,0.538,0.253,0.794-0.044c0.361-0.419,0.753-0.791,1.165-1.148c0.916-0.793,1.838-1.586,2.685-2.47   C58.52,41.84,59.254,40.742,59.281,39.243z"/><path d="M78.896,77.622c0.618-0.465,1.117-0.853,1.627-1.22c0.836-0.601,1.74-0.966,2.739-1c1.452-0.051,2.075,0.532,2.446,2.152   c0.286,1.25,0.068,2.252-0.72,3.22c-1.112,1.366-2.395,2.44-3.817,3.315c-0.858,0.528-1.679,1.112-2.452,1.785   c-0.218,0.19-0.434,0.383-0.697,0.483c-0.634,0.24-1.233,0.518-1.755-0.35c-0.202-0.337-0.533-0.647-0.827-0.942   c-0.158-0.158-0.264-0.382-0.476-0.471c-1.141-0.481-1.785-1.551-2.467-2.607c-0.249-0.385-0.512-0.764-0.714-1.178   c-0.687-1.409-0.51-3.424,0.373-4.55c0.646-0.824,1.454-1.124,2.377-0.809c1.037,0.354,2.153,0.394,3.109,1.088   c0.427,0.31,0.61-0.171,0.69-0.526c0.302-1.339,0.531-2.695,0.525-4.088c-0.002-0.379-0.003-0.758,0.003-1.136   c0.01-0.686-0.195-1.174-0.679-1.68c-1.579-1.649-3.526-2.661-5.23-4.088c-0.655-0.549-1.364-0.638-2.186-0.144   c-2.333,1.401-4.718,2.692-7.083,4.025c-0.88,0.496-1.791,0.839-2.793,0.799c-0.793-0.032-1.02-0.358-0.602-1.142   c0.725-1.359,1.227-2.855,2.031-4.16c0.628-1.02,1.196-2.081,1.689-3.194c0.261-0.59,0.62-1.105,0.972-1.626   c0.521-0.772,0.506-0.88-0.2-1.464c-0.269-0.222-0.564-0.403-0.835-0.621c-0.396-0.319-0.834-0.598-1.157-0.997   c-0.391-0.483-0.85-0.791-1.38-0.941c-0.335-0.094-0.534-0.303-0.688-0.605c-0.189-0.37-0.441-0.656-0.785-0.824   c-1.138-0.555-1.899-1.687-2.898-2.457c-0.349-0.269-0.529-0.733-0.422-1.18c0.122-0.509,0.564-0.474,0.967-0.554   c1.231-0.244,2.486-0.106,3.711-0.376c0.581-0.128,1.143,0.196,1.717,0.15c1.163-0.093,2.295,0.149,3.436,0.328   c0.906,0.142,1.827-0.095,2.725,0.005c1.131,0.126,1.744-0.449,2.356-1.452c0.841-1.378,1.367-2.924,2.091-4.358   c0.846-1.678,1.775-3.297,2.832-4.818c0.396-0.57,0.937-0.858,1.529-1.059c0.35-0.119,0.588-0.044,0.668,0.416   c0.398,2.297,1.044,4.552,0.985,6.928c-0.023,0.946,0.287,1.829,0.287,2.769c0,0.401,0.388,0.586,0.69,0.739   c0.162,0.082,0.358,0.131,0.534,0.115c1.068-0.1,2.105,0.164,3.144,0.358c1.519,0.284,3.051,0.482,4.543,0.944   c0.551,0.171,1.135,0.287,1.703,0.282c0.618-0.005,1.12,0.152,1.543,0.669c0.118,0.145,0.295,0.227,0.476,0.361   c-0.224,0.871-0.777,1.462-1.401,1.952c-1.947,1.529-3.896,3.061-6.094,4.113c-0.93,0.445-1.705,1.192-2.573,1.759   c-0.375,0.245-0.409,0.584-0.352,1.123c0.171,1.627,0.783,3.118,1.001,4.722c0.19,1.397,0.467,2.785,0.572,4.189   c0.078,1.039-0.366,2.133-1.675,1.512c-0.419-0.199-0.863-0.32-1.237-0.636c-0.197-0.167-0.434-0.268-0.678-0.28   c-0.366-0.018-0.641,0.088-0.668,0.616c-0.085,1.691-0.335,3.359-0.581,5.028C78.796,76.508,78.805,76.983,78.896,77.622z    M62.116,68.498c0.18,0.079,0.292,0.051,0.403-0.019c2.034-1.297,4.284-2.106,6.233-3.603c0.6-0.461,1.263-0.835,1.933-1.151   c1.088-0.513,2.062,0.059,2.994,0.605c0.724,0.424,1.363,1.039,2.095,1.437c0.686,0.373,1.388,0.765,1.954,1.283   c1.149,1.053,2.493,1.69,3.719,2.568c0.588,0.421,0.891,0.197,0.903-0.601c0.003-0.204-0.033-0.413-0.075-0.613   c-0.165-0.792-0.304-1.602-0.401-2.397c-0.213-1.737-0.577-3.429-0.908-5.134c-0.139-0.717-0.111-1.395,0.57-1.891   c1.046-0.761,2.066-1.568,3.222-2.103c1.553-0.719,2.972-1.713,4.368-2.75c0.48-0.357,0.948-0.756,1.319-1.264   c0.289-0.396,0.253-0.7-0.131-0.787c-0.847-0.193-1.695-0.609-2.578-0.191c-0.24,0.113-0.462,0.162-0.677-0.055   c-0.172-0.173-0.38-0.2-0.598-0.177c-0.922,0.098-1.794-0.224-2.682-0.414c-1.07-0.228-2.1-0.663-3.191-0.776   c-0.302-0.031-0.61-0.046-0.903-0.124c-0.708-0.19-0.983-0.622-0.925-1.443c0.072-1.003-0.022-2.003-0.078-2.997   c-0.091-1.614-0.362-3.204-0.819-4.742c-0.172-0.58-0.374-0.615-0.768-0.163c-0.106,0.122-0.188,0.27-0.282,0.405   c-1.897,2.707-3.422,5.686-4.89,8.704c-0.279,0.574-0.623,0.927-1.181,0.976c-1.479,0.131-2.947,0.323-4.445,0.219   c-1.784-0.124-3.555-0.257-5.319-0.618c-0.568-0.116-1.208,0.102-1.795,0.261c-0.574,0.155-0.625,0.503-0.217,0.997   c0.083,0.101,0.17,0.197,0.253,0.298c1.65,2.002,3.801,3.283,5.619,5.044c0.271,0.263,0.636,0.396,0.942,0.616   c0.379,0.273,0.531,0.757,0.702,1.183c0.143,0.359-0.252,0.58-0.385,0.876c-0.152,0.337-0.35,0.648-0.491,0.989   c-0.468,1.126-0.956,2.25-1.631,3.226c-0.702,1.015-0.915,2.325-1.659,3.302C62.091,67.77,62.066,68.147,62.116,68.498z    M73.244,78.782c-0.116,0.978,0.217,1.804,1,2.391c0.311,0.233,0.541,0.538,0.71,0.92c0.18,0.405,0.446,0.762,0.778,0.997   c0.571,0.404,1.06,0.912,1.52,1.45c0.364,0.426,0.679,0.451,1.1,0.115c1.388-1.109,2.813-2.147,4.295-3.096   c0.786-0.503,1.45-1.266,1.863-2.221c0.515-1.191-0.043-2.238-1.184-2.263c-0.802-0.017-1.551,0.164-2.255,0.655   c-0.617,0.43-1.234,0.879-1.936,1.13c-0.871,0.312-0.982,0.27-1.36-0.69c-0.307-0.781-0.722-1.341-1.563-1.243   c-0.216,0.025-0.42-0.066-0.61-0.178C74.481,76.091,73.077,77.249,73.244,78.782z"/><path d="M5.378,16.213c-0.421,0.319-0.6,0.789-0.767,1.276c-0.078,0.229-0.219,0.479-0.464,0.391   c-0.228-0.081-0.23-0.393-0.24-0.621c-0.016-0.404,0.217-0.706,0.405-1.018c0.21-0.349,0.362-0.663-0.138-0.881   c-0.419-0.183-0.599-0.474-0.229-0.931c0.244-0.3,0.095-0.476-0.156-0.637c-0.236-0.151-0.48-0.296-0.616-0.593   c-0.117-0.257-0.066-0.465,0.106-0.651c0.179-0.193,0.332-0.083,0.473,0.065c0.358,0.374,0.71,0.759,1.264,0.682   c0.13-0.49,0.024-0.971,0.032-1.448c0.005-0.299-0.043-0.664,0.308-0.771c0.233-0.071,0.615,0.366,0.63,0.746   c0.017,0.446-0.02,0.895-0.042,1.343c-0.008,0.164-0.098,0.336,0.139,0.53c0.462-0.316,0.748-0.775,0.741-1.445   c-0.003-0.267,0.021-0.501,0.303-0.528c0.276-0.027,0.364,0.216,0.407,0.459c0.066,0.378,0.064,0.75-0.129,1.101   c-0.126,0.228-0.323,0.422-0.314,0.831c0.813,0.23,1.704-0.259,2.507,0.197c-0.001,0.348-0.225,0.364-0.438,0.395   c-0.331,0.049-0.664,0.089-0.993,0.149c-0.401,0.073-0.806,0.108-0.498,0.811c0.137,0.312-0.102,0.536-0.397,0.433   c-0.141-0.05-0.262-0.169-0.399-0.241c-0.174-0.091-0.362-0.107-0.513,0.042c-0.165,0.164-0.101,0.389-0.04,0.577   c0.062,0.191,0.177,0.358,0.257,0.542c0.078,0.179,0.201,0.379-0.021,0.534c-0.171,0.119-0.355,0.089-0.514-0.039   c-0.236-0.191-0.311-0.5-0.409-0.788C5.58,16.564,5.569,16.384,5.378,16.213z"/><path d="M72.048,25.461c0.543-0.155,0.768-0.932,1.415-0.713c-0.068,0.625-0.469,0.956-0.784,1.354   c-0.494,0.625-0.434,0.859,0.273,1.146c0.322,0.131,0.728,0.14,0.842,0.764c-0.605-0.142-1.174,0.362-1.729-0.2   c-0.242-0.244-0.457-0.025-0.553,0.268c-0.107,0.328,0.064,0.921-0.357,0.927c-0.416,0.006-0.185-0.647-0.435-0.986   c-0.307,0.012-0.46,0.351-0.692,0.532c-0.146,0.114-0.304,0.32-0.477,0.165c-0.213-0.19-0.062-0.441,0.02-0.657   c0.096-0.253,0.341-0.399,0.397-0.765c-0.59-0.405-1.342-0.399-2.04-0.83c0.29-0.265,0.544-0.219,0.798-0.139   c0.425,0.135,0.834,0.089,1.242-0.094c0.466-0.209,0.49-0.305,0.197-0.811c-0.153-0.264-0.342-0.466-0.573-0.647   c-0.351-0.273-0.651-0.625-0.836-1.069c-0.095-0.229-0.089-0.477,0.146-0.629c0.185-0.12,0.342-0.075,0.483,0.103   c0.264,0.332,0.523,0.672,0.806,0.982c0.359,0.392,0.773,0.372,1.093-0.061c0.21-0.284,0.388-0.798,0.731-0.608   c0.393,0.217,0.162,0.714,0.061,1.101C72.01,24.849,71.886,25.107,72.048,25.461z"/><path d="M42.231,80.886c0.184,0.444-0.166,0.762-0.234,1.148c-0.036,0.204-0.109,0.415,0.055,0.575   c0.161,0.157,0.338,0.079,0.506-0.019c0.539-0.315,1.076-0.632,1.619-0.937c0.155-0.087,0.321-0.191,0.549-0.082   c-0.13,0.727-0.961,0.605-1.107,1.235c0.114,0.471,0.861,0.037,0.771,0.636c-0.057,0.384-0.523,0.097-0.799,0.228   c-0.361,0.172-0.505,0.348-0.289,0.76c0.046,0.088,0.078,0.187,0.112,0.283c0.062,0.174,0.077,0.341-0.112,0.422   c-0.13,0.056-0.241-0.017-0.315-0.134c-0.123-0.195-0.217-0.415-0.348-0.601c-0.486-0.689-0.778-0.651-1.103,0.127   c-0.103,0.248-0.182,0.519-0.327,0.731c-0.17,0.25-0.461,0.372-0.503-0.073c-0.062-0.654-0.371-0.508-0.688-0.358   c-0.278,0.132-0.534,0.324-0.803,0.483c-0.345,0.203-0.692,0.406-1.109,0.347c-0.09-0.423,0.206-0.495,0.385-0.614   c0.522-0.348,1.065-0.656,1.593-0.992c0.154-0.098,0.337-0.22,0.286-0.467c-0.039-0.191-0.213-0.221-0.365-0.251   c-0.03-0.006-0.061-0.008-0.089-0.021c-0.205-0.097-0.58-0.069-0.491-0.441c0.084-0.351,0.405-0.137,0.626-0.113   c0.12,0.013,0.235,0.072,0.355,0.088c0.409,0.055,0.576-0.156,0.442-0.588c-0.079-0.255-0.254-0.474-0.315-0.732   c-0.051-0.219,0.135-0.496,0.294-0.329c0.448,0.471,0.685,0.106,0.972-0.2C41.915,80.877,42.057,80.819,42.231,80.886z"/><path d="M97.91,70.547c0.342,0,0.613-0.006,0.883,0.006c0.046,0.002,0.09,0.077,0.168,0.148c-0.064,0.327-0.299,0.461-0.548,0.58   c-0.223,0.106-0.464,0.182-0.665,0.33c-0.213,0.157-0.374,0.368-0.087,0.657c0.2,0.201,0.408,0.411,0.512,0.829   c-0.568-0.083-1.014,0.013-1.435,0.533c-0.311,0.384-0.899,0.498-1.379,0.675c-0.185,0.068-0.247-0.168-0.192-0.345   c0.091-0.291,0.238-0.561,0.319-0.854c0.069-0.252-0.057-0.42-0.288-0.346c-0.317,0.102-0.617,0.294-1.055,0.092   c0.591-0.496,0.375-1.448,1.007-1.923c0.281-0.212,0.153-0.547,0.009-0.836c-0.178-0.359-0.044-0.608,0.265-0.724   c0.343-0.129,0.344,0.166,0.441,0.441c0.276,0.783,0.565,0.839,1.164,0.315c0.048-0.042,0.094-0.088,0.139-0.134   c0.242-0.25,0.45-0.59,0.835-0.51C98.152,69.51,98.133,69.703,97.91,70.547z"/></g><text x="0" y="115" fill="#000000" font-size="5px" font-weight="bold" font-family="'Helvetica Neue', Helvetica, Arial-Unicode, Arial, Sans-serif"></text><text x="0" y="120" fill="#000000" font-size="5px" font-weight="bold" font-family="'Helvetica Neue', Helvetica, Arial-Unicode, Arial, Sans-serif"></text></svg>