<svg xmlns="http://www.w3.org/2000/svg" data-name="Слой 1" viewBox="0 0 100 125" x="0px" y="0px"><title>Безымянный-6</title><path d="M65.20206,15.57518c.41934.07574.58211-.17085.776-.33332a2.8751,2.8751,0,0,1,1.70679-.63128,1.88217,1.88217,0,0,1,2.12022,2.36285,8.041,8.041,0,0,1-1.60848,3.22192c-1.08286,1.419-2.20137,2.81209-3.22557,4.273a2.42861,2.42861,0,0,1-.28362.35479c-.26685.25923-.535.30833-.75-.05771-.11472-.19536-.20353-.405-.30534-.60759a10.20039,10.20039,0,0,0-1.62443-2.45056,11.76241,11.76241,0,0,1-2.0917-3.49607,2.48187,2.48187,0,0,1,.62782-2.81266,1.92529,1.92529,0,0,1,2.13016-.47016,1.84,1.84,0,0,0,1.18443.21438,5.047,5.047,0,0,0-.41456-2.03894c-.1282-.45076-.50155-.38351-.84911-.37963a15.73779,15.73779,0,0,0-4.87441.93786,51.27474,51.27474,0,0,0-5.47049,2.13738,21.04756,21.04756,0,0,0-7.79473,6.24089,26.33449,26.33449,0,0,0-4.45722,9.46139,8.45893,8.45893,0,0,0-.01737,4.02029c.45433,2.1332.81106,4.286,1.21128,6.4301A1.94211,1.94211,0,0,1,40.094,44.31174c-.17238.08332-.32823.19859-.49327.29663a1.67558,1.67558,0,0,0-.05968,2.99626c.86524.58813.923.72.46467,1.66053-.24522.50321-.33906.84567.26781,1.20913.70546.4225.75255.75262.515,1.53893a1.86955,1.86955,0,0,1-.11368.31955c-1.09667,2.12534-.46352,4.04275.87988,5.77756a11.84989,11.84989,0,0,0,4.01584,3.68559.94179.94179,0,0,0,1.13219-.045,1.24834,1.24834,0,0,1,2.07548.71272c.18163.997.8429,1.22151,1.62285,1.496A42.785,42.785,0,0,0,55.616,64.98229a1.05141,1.05141,0,0,0,1.01519-.37382c.96351-.906,1.64354-.89821,2.55711.03345a1.24688,1.24688,0,0,0,1.10961.45066,43.55124,43.55124,0,0,0,5.75985-1.29887c.39673-.09712.49446-.43766.65264-.73674a1.91521,1.91521,0,0,1,2.67177-1.00777,1.26377,1.26377,0,0,0,1.28429-.12878,48.37909,48.37909,0,0,0,11.01715-9.24383c.16565-.188.27129-.5068.613-.42069.33379.08411.30578.41166.3491.65491a7.89987,7.89987,0,0,1-.269,3.56671,23.94057,23.94057,0,0,1-5.60946,9.62223,13.65781,13.65781,0,0,1-1.89348,1.66c-1.069.80228-2.17215,1.56382-3.28912,2.30225a1.20946,1.20946,0,0,0-.6249,1.00574q-.20555,3.88636-.412,7.77269a2.05683,2.05683,0,0,0,.09048.42191,3.99593,3.99593,0,0,0,1.02652-.87891,3.97051,3.97051,0,0,1,1.58384-1.11107,2.49166,2.49166,0,0,1,2.50727.45871,3.53983,3.53983,0,0,1,1.27092,3.64657,10.98531,10.98531,0,0,1-2.34944,4.35707,38.37515,38.37515,0,0,0-4.3217,6.26574c-.327.653-.50708.61892-.91489.01279q-1.71288-2.54575-3.451-5.07546a15.744,15.744,0,0,1-2.44448-5.07685,3.01413,3.01413,0,0,1,.91535-3.38682,3.804,3.804,0,0,1,3.84744-.36595c.24824.087.4512.28987.72286.29679.21438-.06122.211-.23047.18109-.36468a42.74253,42.74253,0,0,0-1.08718-4.84065c-.334-.95929-.35112-1.00249-1.25139-.59877a46.05127,46.05127,0,0,1-7.404,2.2321c-1.17932.30609-1.1899.27626-1.30813,1.47864-.12874,1.30941-.2875,2.61722-.37,3.92948a47.71742,47.71742,0,0,0-.34046,5.96183c.0115.18527.02087.37065.03233.576.43645-.00068.58107-.3709.85331-.54882a2.83389,2.83389,0,0,1,2.76414-.20323,1.329,1.329,0,0,1,.78432,1.17632,4.39478,4.39478,0,0,1-.36474,2.4215,17.29106,17.29106,0,0,1-3.514,4.73045c-.4398.43487-.7647.46458-1.18177.00466A48.89748,48.89748,0,0,1,53.558,90.55823a4.01248,4.01248,0,0,1-.5385-3.57119c.49911-1.74422,2.02412-2.10762,3.30634-.808a.3102.3102,0,0,0,.33376.13785,19.85,19.85,0,0,0-.0077-3.99406,48.655,48.655,0,0,0-.43264-5.05737c-.05057-.29615-.10165-.59332-.17626-.88427-.2089-.81461-.24262-.875-1.09454-.77356-1.22936.14637-2.459.27688-3.69588.31619a14.37431,14.37431,0,0,1-3.35446-.03609c-.43862-.08872-.84357-.04919-.91721.55074-.25165,2.05-.60337,4.08916-.68212,6.157-.00248.065.05226.13215.0991.24255.4622-.03356.71192-.37724,1.01286-.65561a11.72965,11.72965,0,0,1,2.00136-1.52559,2.41137,2.41137,0,0,1,3.6096,1.708,4.81965,4.81965,0,0,1-.13668,2.22939,18.96823,18.96823,0,0,1-2.81259,5.15805c-1.34227,2.01934-2.64011,4.0667-3.9407,6.11181-.14277.2245-.19548.50885-.53814.4946-.27-.01124-.3881-.22259-.483-.4301-1.218-2.6627-3.11389-4.92391-4.651-7.39771a25.07422,25.07422,0,0,1-1.79082-4.144,2.93662,2.93662,0,0,1-.0727-1.56559,2.56812,2.56812,0,0,1,2.92459-2.05786,4.58549,4.58549,0,0,1,2.56306,1.21391c.35515.33347.72785.6493,1.16834,1.04032a20.18808,20.18808,0,0,0-.00281-3.01883c-.07339-1.31249-.17185-2.62374-.23427-3.93667a1.18631,1.18631,0,0,0-.88513-1.1617c-1.15546-.4544-2.37917-.661-3.55607-1.03349a23.35007,23.35007,0,0,1-3.6134-1.51876,11.84716,11.84716,0,0,0-1.88741-.86314,2.99564,2.99564,0,0,1-.93851-.43529c-1.66712-1.28519-3.58208-2.2274-5.18951-3.59932-1.07323-.916-2.27827-1.67514-3.34587-2.6094a20.23317,20.23317,0,0,1-4.2533-5.43518,22.39016,22.39016,0,0,1-2.34579-5.94709,44.52776,44.52776,0,0,1-1.46773-6.948c-.021-.3-.07867-.59827-.08844-.89828-.06969-2.14136-.1674-4.28266-.18757-6.42458a31.59569,31.59569,0,0,1,1.83013-10.741,38.83457,38.83457,0,0,1,3.6821-8.25675,37.75783,37.75783,0,0,1,8.12028-9.17625C34.29384,8.25472,38.25113,6.661,42.33734,5.265a41.54578,41.54578,0,0,1,8.30473-1.56134,18.88619,18.88619,0,0,1,4.62241.29841A33.80637,33.80637,0,0,1,63.66254,6.126a1.49627,1.49627,0,0,0,1.21016.14419c.79688-.31193,1.25357-.17,1.56491.58567a1.96934,1.96934,0,0,0,1.128,1.029,46.45266,46.45266,0,0,1,12.45066,8.73649,4.12511,4.12511,0,0,1,1.05552,1.46858c.09177.25439.12639.54529-.17137.69678a.60553.60553,0,0,1-.72947-.18794c-.12875-.13481-.19077-.3277-.30979-.47372a6.02926,6.02926,0,0,0-2.53078-1.89872c-2.29493-.89662-4.56943-1.83716-6.91185-2.61956a22.80118,22.80118,0,0,0-4.08472-.79612c-.328-.04652-.51683.05781-.58787.37519C65.56786,13.98168,65.38429,14.77637,65.20206,15.57518ZM46.36441,75.10361a2.70928,2.70928,0,0,0,.193-.46435c.44121-2.28972.89662-4.5772,1.301-6.87312a24.27167,24.27167,0,0,0,.31942-3.14193,1.22768,1.22768,0,0,0-.92422-1.35287,13.77027,13.77027,0,0,1-6.29176-4.81315c-1.44531-1.96037-2.19936-4.03913-.98236-6.41174.3296-.64257.23016-.77443-.42713-1.14337-.62306-.34971-.73878-.62715-.52342-1.27319a2.827,2.827,0,0,1,.13838-.309c.3478-.734.34524-.73061-.35708-1.29264a2.11806,2.11806,0,0,1-.73669-.98922c-.39-1.175-.29866-2.40446,1.13254-3.02089,1.30253-.561,1.4231-.903,1.226-2.089-.3081-1.8539-.521-3.73326-.99263-5.54827a11.11723,11.11723,0,0,1,.26044-6.32816,27.00022,27.00022,0,0,1,4.53849-8.81523,18.80984,18.80984,0,0,1,5.75049-4.98347A32.15,32.15,0,0,1,60.478,12.47054c1.37751-.20588,2.76085-.733,4.20863-.33944a.43894.43894,0,0,0,.58845-.38622,17.67193,17.67193,0,0,0,.43946-3.34971,1.14587,1.14587,0,0,0-.79627-1.10432,42.17986,42.17986,0,0,0-6.78117-2.27758A28.05771,28.05771,0,0,0,45.948,4.87237a35.2852,35.2852,0,0,0-9.42519,3.40976,23.43441,23.43441,0,0,0-4.3578,2.562A34.85915,34.85915,0,0,0,24.43842,18.87a28.31926,28.31926,0,0,0-2.6836,4.47015c-.66851,1.6415-1.36237,3.275-1.96906,4.93813a32.69375,32.69375,0,0,0-1.878,8.46188c-.15765,1.84826.12614,3.68787.034,5.5226-.188,3.74317.71,7.33616,1.63263,10.89111.92868,3.57826,2.3558,7.00682,5.24008,9.63262.13993.1274.24261.29254.37142.43249a14.76287,14.76287,0,0,0,1.97024,2.06371c1.69454,1.24591,3.29069,2.61641,5.09438,3.7253a45.08391,45.08391,0,0,0,10.14437,4.92A39.2234,39.2234,0,0,1,46.36441,75.10361Zm2.98586.4503.00451.10276c2.15457-.18442,4.31722-.30709,6.46122-.5722,1.82047-.22508,1.8114-.29773,2.16784-2.073.05177-.25785.10956-.51546.14248-.77581a33.38254,33.38254,0,0,0,.68631-5.35042c-.039-1.12485-.02626-1.20849-1.13923-1.16871-2.75627.09852-5.32058-.762-7.93167-1.3922-.75337-.18182-.7648-.22165-.82375.53693a42.92206,42.92206,0,0,1-.91863,6.00631c-.26928,1.20982-.4885,2.43069-.706,3.65066-.13871.77789-.01529.94035.78394,1.02757A11.80271,11.80271,0,0,0,49.35027,75.55391Zm-3.757,19.40672a5.56287,5.56287,0,0,0,1.17721-1.54631c1.48732-2.14977,2.96173-4.30906,4.38434-6.49952a6.47971,6.47971,0,0,0,1.23306-3.58752,1.83009,1.83009,0,0,0-.91568-1.82557,2.00618,2.00618,0,0,0-2.271.23276,19.29011,19.29011,0,0,0-2.96756,2.50771c-.57059.65674-.81626.62006-1.35759-.04936a12.697,12.697,0,0,1-.79366-1.10831,3.5631,3.5631,0,0,0-2.564-1.57616,1.90472,1.90472,0,0,0-2.238,1.85915,4.19425,4.19425,0,0,0,.17334,1.2221,14.94591,14.94591,0,0,0,1.533,3.51823C42.43674,90.40911,44.14671,92.542,45.59322,94.96063Zm24.44394-3.68571a20.87418,20.87418,0,0,1,1.82991-2.92853C73.025,86.842,74.1712,85.3281,75.28181,83.79057a4.83083,4.83083,0,0,0,.91386-4.0651,2.08636,2.08636,0,0,0-3.58681-1.17659,8.07679,8.07679,0,0,0-1.623,1.89574c-.60357.902-1.02472.89231-1.5588-.01037-.17347-.29319-.36035-.57889-.534-.872a2.511,2.511,0,0,0-2.36487-1.16524,1.87163,1.87163,0,0,0-1.80912,1.02,3.20619,3.20619,0,0,0-.159,2.42507,15.16337,15.16337,0,0,0,1.29808,2.88879c.81954,1.36281,1.59048,2.75416,2.44237,4.0973A10.19645,10.19645,0,0,0,70.03716,91.27492Zm.49746-23.52677a13.05965,13.05965,0,0,0-.49061-3.17229c-.34464-1.27867-.47133-1.344-1.74188-.87777a27.83817,27.83817,0,0,1-4.8816,1.41073c-.94769.16271-1.88821.37736-2.84842.48158-.47525.05158-.71936.21975-.76791.76883a61.48358,61.48358,0,0,1-1.15305,6.771c-.29779,1.46954-.32768,1.46827,1.20676,1.157a33.90448,33.90448,0,0,0,9.99055-3.80106c.30818-.17427.56658-.3541.5724-.76866C70.43033,69.0417,70.49614,68.36656,70.53462,67.74815ZM81.98372,53.5486c-.41238.01677-.49566.30858-.66943.4913a35.81031,35.81031,0,0,1-2.98286,3.138,54.47061,54.47061,0,0,1-7.34677,5.2881A.71734.71734,0,0,0,70.61,63.47577a12.07737,12.07737,0,0,1,.51122,4.6742,2.19967,2.19967,0,0,0,.0654,1.30934.75752.75752,0,0,0,.75214-.22407c1.07041-.80165,2.1892-1.55591,3.17559-2.44735a22.90257,22.90257,0,0,0,6.35439-9.53465A8.18957,8.18957,0,0,0,81.98372,53.5486ZM64.29557,23.90115c1.38748-1.81917,2.69376-3.48766,3.943-5.19554a4.68629,4.68629,0,0,0,.81106-1.85046c.21522-1.08609-.20757-1.55983-1.3452-1.52225a1.96716,1.96716,0,0,0-.97944.30582,6.03862,6.03862,0,0,0-1.305,1.09912c-.59333.64806-.894.64945-1.30868-.07274a2.63783,2.63783,0,0,0-1.52914-1.11065,1.43442,1.43442,0,0,0-1.966.82694,2.06957,2.06957,0,0,0,.04616,1.74287,16.155,16.155,0,0,0,1.96443,3.17547A11.03327,11.03327,0,0,1,64.29557,23.90115Zm-10.76,64.09443a3.64893,3.64893,0,0,0,.76772,2.56495c.8553,1.01269,1.79127,1.961,2.69,2.93916a.5086.5086,0,0,0,.86529.01495,16.43525,16.43525,0,0,0,2.90958-3.75713,3.266,3.266,0,0,0,.30356-2.19216,1.21478,1.21478,0,0,0-2.08-.75889,6.85173,6.85173,0,0,0-1.5397,1.51676c-.14959.20374-.33641.45624-.65761.3398-.24706-.08957-.29359-.33878-.30085-.56561a2.55653,2.55653,0,0,0-.58278-1.32543,1.24961,1.24961,0,0,0-1.38041-.59764,1.17342,1.17342,0,0,0-.88433,1.0702C53.58506,87.53717,53.55819,87.83652,53.53554,87.99558ZM66.57275,8.26579q-.25893,1.6014-.51833,3.20357c-.0887.5449.08312.86344.71406.87986a5.55526,5.55526,0,0,1,1.14372.16061,41.89317,41.89317,0,0,1,7.04522,2.187,19.33727,19.33727,0,0,0,2.969,1.03114C76.4224,13.61137,68.78869,8.62067,66.57275,8.26579ZM69.96537,77.689c.11708-2.37061.42877-4.49841.34156-6.785-.51415.23649-.88327.41133-1.25678.57679-.475.21041-.68206.46451-.50575,1.0434.32678,1.07288.51269,2.18547.7945,3.27242A5.27281,5.27281,0,0,0,69.96537,77.689ZM57.01266,78.84507c.5503-1.01739.30752-2.15588.54557-3.23471.04885-.22138-.16986-.307-.38179-.30007-.44186.01441-.59238.2323-.53088.65872C56.78353,76.92557,56.89211,77.88614,57.01266,78.84507Zm7.57292-64.30349a3.94592,3.94592,0,0,0,.42639-1.32649c.07648-.21307.08369-.45694-.20458-.543a.644.644,0,0,0-.43789.00186c-.19034.10321-.14846.31618-.1071.49771C64.35194,13.56465,64.44709,13.95646,64.58558,14.54158Z"/><path d="M31.796,31.47263a2.07019,2.07019,0,0,1,.09737-.28913c.13993-.28782.26763-.58671-.13093-.76224-.35807-.1577-.69381-.56548-1.14641-.17072a3.54247,3.54247,0,0,1-.44293.35964.35623.35623,0,0,1-.51072-.082.31913.31913,0,0,1,.04793-.41382c.10469-.10867.2329-.19571.34875-.29449.20348-.17351.456-.3416.25-.65073a.771.771,0,0,0-.7609-.422c-.344.048-.68149.1387-1.0249.19209-.1954.03037-.39758.00752-.48238-.20806-.09288-.23613.08383-.33388.26062-.4226a1.89288,1.89288,0,0,1,2.71918.50888,4.22519,4.22519,0,0,0,4.49607,1.32016c.32607-.07788.69436-.30155.98584-.00874a3.93312,3.93312,0,0,1,.92451,1.14214.36891.36891,0,0,1-.076.30555.28922.28922,0,0,1-.415.01763,8.25414,8.25414,0,0,0-.69093-.59321c-.63171-.37461-1.14711-.07368-1.14638.65.00023.22841.05071.49188-.24882.5457-.28411.051-.37447-.19564-.45733-.40964-.11833-.30559-.14106-.65229-.57881-.76263-.7336-.18491-.93926-.11306-1.32366.61837-.10338.19671-.14443.45018-.45476.4175C31.83918,32.03958,31.74841,31.81705,31.796,31.47263Z"/><text x="0" y="115" fill="#000000" font-size="5px" font-weight="bold" font-family="'Helvetica Neue', Helvetica, Arial-Unicode, Arial, Sans-serif"></text><text x="0" y="120" fill="#000000" font-size="5px" font-weight="bold" font-family="'Helvetica Neue', Helvetica, Arial-Unicode, Arial, Sans-serif"></text></svg>