<svg xmlns="http://www.w3.org/2000/svg" version="1.1" viewBox="-5.0 -10.0 110.0 135.0">
 <path d="m62.293 93.875h-38.98c-1.1562 0-4.2266 0-4.8906-2.2031-0.6875-2.2891 2.2812-4.8828 4.5352-6.4727v-20.176c0-3.7188 1.5781-8.8047 2.6797-11.457-3.5469-2.1328-6.3438-4.9219-8.2227-8.1055l-3.7461 2.5664c-0.68359 0.46875-1.6172 0.29297-2.0859-0.39062-0.46875-0.68359-0.29297-1.6172 0.39062-2.0859l4.1016-2.8086c-0.4375-1.0938-0.77344-2.2188-1.0078-3.3672l-3.7773 1.2969c-0.78125 0.26953-1.6367-0.14844-1.9062-0.93359-0.26953-0.78516 0.14844-1.6367 0.93359-1.9062l4.3945-1.5078c-0.007813-0.21094-0.011719-0.42578-0.011719-0.63672 0-3.9062 1.2188-7.5781 3.3555-10.758-0.38281-3.2031-1.4336-16.902 8.25-19.898 0.33594-0.10156 0.69922-0.085938 1.0234 0.050781 0.29688 0.125 6.9375 2.9727 9.957 8.8125 1.2031-0.14062 2.4297-0.21484 3.6758-0.21484 3.0195 0 5.9258 0.42969 8.6289 1.2188 0.63672-1.7422 2.0234-4.4961 4.7812-6.25 2.6445-1.6797 5.8906-2.0547 9.6562-1.1172 0.39844 0.097656 0.73438 0.35547 0.9375 0.71094 0.19531 0.34766 4.8203 8.668 2.2422 24.375-0.027343 0.17187-0.085937 0.32812-0.16406 0.47266 0.12109 0.85156 0.17969 1.7188 0.17969 2.5977 0 0.78125-0.046875 1.5586-0.14453 2.3242l2.1719 0.64062c0.79297 0.23438 1.25 1.0703 1.0117 1.8633-0.23438 0.79688-1.0703 1.2461-1.8633 1.0117l-1.9336-0.57031c-0.39453 1.3477-0.9375 2.6562-1.625 3.9102l3.0195 2.1211c0.67969 0.47656 0.83984 1.4141 0.36328 2.0898-0.47656 0.67969-1.4141 0.83984-2.0898 0.36328l-2.9219-2.0547c-1.3359 1.7812-2.9805 3.4102-4.9102 4.8281v2.6094c3.7422 1.5078 16.16 7.5625 15.219 21.07-0.17188 2.5-0.54297 4.6562-1.0469 6.5156 0.90625-0.40625 1.6367-1.0312 2.2188-1.8906 2.9766-4.4219 0.92188-13.141 0.89844-13.23-7.4609-24.328 2.5469-29.625 4.2617-30.336 0.35547-0.23438 1.2539-0.78906 2.4375-1.2812 2.4023-1 5.1172-0.85547 7.4453 0.39844 2.3398 1.2617 3.9648 3.4805 4.4531 6.0859 0.52344 2.7578-0.54688 4.8672-3.0117 5.9375-2.0625 0.89453-3.4453 2.9062-3.6094 5.2422-0.0625 0.89453-0.12109 1.8516-0.17969 2.8633-0.71875 11.977-1.9141 31.902-17.191 31.902h-0.12891c-3.1602 5.0508-7.3164 5.7188-7.582 5.7539-0.070313 0.007812-0.14062 0.015625-0.21094 0.015625zm-12.699-3h12.562c0.83203-0.17578 7.4609-1.9844 8.3828-15.18 0.9375-13.477-14.023-18.344-14.176-18.391-0.625-0.19531-1.0508-0.77344-1.0508-1.4297v-4.4219c0-0.49219 0.24219-0.95312 0.64844-1.2344 1.9102-1.3203 3.5234-2.8594 4.8047-4.5508l-1.875-1.3164c-0.67969-0.47656-0.83984-1.4141-0.36328-2.0898 0.47656-0.67969 1.4141-0.83984 2.0898-0.36328l1.7578 1.2344c0.50781-0.97656 0.91797-1.9844 1.2188-3.0195l-3.9531-1.168c-0.79297-0.23437-1.25-1.0703-1.0117-1.8633 0.23438-0.79688 1.0703-1.2461 1.8633-1.0117l3.6719 1.0859c0.046876-0.48438 0.070313-0.97266 0.070313-1.4609 0-7.8008-5.7812-14.52-14.02-17.445-0.078125-0.019531-0.15234-0.046875-0.22656-0.078125-2.7734-0.95703-5.8203-1.4844-9.0195-1.4844-1.4336 0-2.832 0.10547-4.1953 0.30859-0.097657 0.023437-0.19531 0.039062-0.29297 0.046875-6.5586 1.0508-12.137 4.3594-15.469 8.8945-0.085938 0.20312-0.21484 0.38281-0.375 0.53125-1.7969 2.6289-2.8477 5.6406-2.9297 8.8438l1.1406-0.39062c0.78516-0.26953 1.6367 0.14844 1.9062 0.93359 0.26953 0.78516-0.14844 1.6367-0.93359 1.9062l-1.8828 0.64453c0.15625 0.88672 0.38672 1.7578 0.6875 2.6055l1.6797-1.1484c0.68359-0.46875 1.6172-0.29297 2.0859 0.39062s0.29297 1.6172-0.39062 2.0859l-2.0977 1.4375c1.8125 3.1523 4.6797 5.8867 8.3867 7.8633 0.35547 0.19141 0.62109 0.51562 0.73438 0.90625 0.11328 0.39062 0.0625 0.80469-0.13672 1.1602-0.84375 1.4805-2.9258 7.6094-2.9258 11.336v20.969c0 0.50391-0.25391 0.97266-0.67188 1.25-1.7148 1.1367-3.375 2.6445-3.8477 3.4453 0.29688 0.085938 0.86328 0.1875 1.8711 0.1875h4.6016c-0.21875-2.3242 3.3438-4.5547 6.7656-6.1445v-13.273c0-0.82812 0.67187-1.5 1.5-1.5 0.82812 0 1.5 0.67188 1.5 1.5v14.242c0 0.59375-0.35156 1.1328-0.89844 1.375-2.3672 1.0391-4.7539 2.4766-5.6016 3.3281 0.61328 0.19922 2.0039 0.47266 5 0.47266h10.418v-1.2109c0-2.3008 1.543-4.3359 4.0234-5.7109v-8.5469c0-0.82812 0.67188-1.5 1.5-1.5s1.5 0.67188 1.5 1.5v7.3359c1.4922-0.41797 3.1562-0.64844 4.9219-0.64844 0.82812 0 1.5 0.67188 1.5 1.5s-0.67188 1.5-1.5 1.5c-2.2344 0-4.1836 0.43359-5.6875 1.0977-0.074219 0.042968-0.15234 0.078124-0.23438 0.10547-1.8984 0.89844-3.0273 2.1719-3.0273 3.3672v1.2109zm36.004-52.852c-0.72656 0-1.4492 0.14062-2.1328 0.42578-1.1953 0.49609-2.0234 1.0742-2.0312 1.0781-0.11719 0.082031-0.25 0.14844-0.39062 0.19531-0.078125 0.027344-9.5938 3.7812-2.5391 26.781 0.12109 0.49609 2.4102 10.168-1.3008 15.691-0.24609 0.36719-0.51172 0.70703-0.79688 1.0195 6.0391-4.3633 7.3164-15.66 8.0078-27.191 0.0625-1.0195 0.11719-1.9883 0.18359-2.8906 0.24219-3.457 2.3125-6.4414 5.4062-7.7852 0.84375-0.36719 1.5781-0.9375 1.2617-2.6289-0.32422-1.7109-1.3906-3.168-2.9336-4-0.85938-0.46484-1.7969-0.69531-2.7305-0.69531zm-33.168-22.137c5.4922 2.2422 9.9219 6.043 12.457 10.715 0.58203-9.1133-1.4844-14.617-2.25-16.312-2.6328-0.53516-4.8594-0.24219-6.6328 0.875-2.0273 1.2812-3.0859 3.3945-3.5781 4.7188zm-25.762-7.8047c-5.2031 2.0391-5.9102 9.1133-5.8242 13.477 3.4141-3.4062 8.0312-5.9375 13.297-7.125-2.2188-3.5234-6.0977-5.6719-7.4766-6.3516zm10.656 36.109c-1.1016 0-2.2188-0.64062-3.4102-1.957-0.55469-0.61328-0.50781-1.5625 0.10156-2.1172 0.61719-0.55469 1.5625-0.51172 2.1172 0.10156 0.71484 0.78906 1.0938 0.94141 1.1836 0.96484 0-0.03125 0.17969-0.1875 0.47656-0.70312 0.14062-0.24609 0.34375-0.4375 0.57812-0.57031h-0.13672c-0.82812 0-1.5-0.67188-1.5-1.5s0.67188-1.5 1.5-1.5h1.7188c0.82812 0 1.5 0.67188 1.5 1.5s-0.67188 1.5-1.5 1.5h-0.13672c0.44531 0.24609 0.74609 0.71094 0.77344 1.2305 0.10938 0.035156 0.28125 0.035156 0.38672 0 0.046876-0.78906 0.69922-1.4141 1.4961-1.4141 0.82812 0 1.5 0.66797 1.5 1.4961 0 1.6797-1.3711 2.9414-3.1914 2.9414-0.6875 0-1.3164-0.17969-1.8242-0.5-0.37109 0.25781-0.8125 0.44531-1.3281 0.50391-0.10156 0.011719-0.20312 0.015625-0.30469 0.015625zm12.09-6.6211c-1.3438 0-2.2461-1.3438-2.2461-3.3477 0-2 0.90234-3.3477 2.2461-3.3477s2.2461 1.3438 2.2461 3.3477-0.90234 3.3477-2.2461 3.3477zm-17.371-0.69922c-1.3438 0-2.2461-1.3438-2.2461-3.3477 0-0.69141 0.11328-1.3359 0.32812-1.8672 0.53906-1.3359 1.5195-1.4805 1.918-1.4805 1.3438 0 2.2461 1.3438 2.2461 3.3477 0 0.66406-0.10547 1.293-0.30469 1.8125-0.54688 1.4258-1.625 1.5352-1.9414 1.5352z"/>
<text x="0.0" y="117.5" font-size="5.0" font-weight="bold" font-family="Arbeit Regular, Helvetica, Arial-Unicode, Arial, Sans-serif" fill="#000000"></text><text x="0.0" y="122.5" font-size="5.0" font-weight="bold" font-family="Arbeit Regular, Helvetica, Arial-Unicode, Arial, Sans-serif" fill="#000000"></text></svg>