<svg xmlns="http://www.w3.org/2000/svg" version="1.1" viewBox="-5.0 -10.0 110.0 135.0">
 <defs>
  <clipPath id="a">
   <path d="m13.16 5.7773h74.84v87h-74.84z"/>
  </clipPath>
 </defs>
 <g clip-path="url(#a)">
  <path d="m22.828 6.0273c0.71875-0.25 1.4492 0.015625 2.1211 0.25 3.8008 1.4062 7.4922 3.1602 10.797 5.5312 1.25 0.89844 2.3984 1.9219 3.5234 2.9609 1.7148-0.5625 3.5234-0.78906 5.3125-0.94531 3.2422-0.28125 6.5117 0.046875 9.6328 0.94531 4.0664-3.9844 9.2227-6.6641 14.535-8.6016 0.57812-0.20312 1.1992-0.34375 1.793-0.15625 1.0156 0.26562 1.7578 1.1445 2.0391 2.125 1.1211 3.8281 1.8242 7.7812 1.8555 11.781-0.03125 3.25-0.5 6.5664-1.793 9.5781 0.46875 1.5312 0.92188 3.0977 1.1055 4.707 1.4375-0.33984 2.8867-0.60547 4.3164-0.91016 0.5-0.09375 1.0469-0.28125 1.543-0.046875 0.60938 0.22656 0.875 1.0508 0.54688 1.5938-0.1875 0.39062-0.5625 0.61719-0.96484 0.69531-1.7656 0.375-3.5078 0.80859-5.2695 1.1367 0.015625 0.27734 0.046875 0.54297 0.046875 0.81641 1.5898 0.125 3.168 0.40625 4.7539 0.60547 0.55859 0.078125 1.2773 0.17188 1.4805 0.79297 0.32812 0.66406-0.14062 1.4883-0.85938 1.6289-0.63672 0.042969-1.2617-0.046875-1.8867-0.125-1.2266-0.17188-2.457-0.29688-3.6914-0.48438-0.69922 6.0625-4.3281 11.625-9.3789 15.02 0.4375 0.42188 0.5625 1.0273 0.73438 1.5703 0.39062 1.5625 0.70312 3.1445 0.89844 4.7539 3.6367 3.0117 6.7656 6.7461 8.5742 11.113 0.59375 1.5078 1.0742 3.0703 1.2461 4.668 0.76562-0.125 1.4688-0.57422 1.8359-1.2539 0.32812-0.52734 0.32812-1.1641 0.40625-1.75 0.60938-4.4531 1.8086-8.9023 4.1641-12.777 0.35938-0.55859 0.625-1.3008 1.3359-1.4844 0.79688-0.25 1.6055 0.29297 1.8867 1.0195 1.1719 2.6836 1.9648 5.5234 2.3242 8.4336 0.35938 2.6367 0.21875 5.3477-0.59375 7.8906-0.85547 2.668-2.5234 5.082-4.7656 6.7852-2.0898 1.6172-4.6484 2.6055-7.2773 2.9023-0.45312 0.046875-0.92188 0.03125-1.375 0.015625-1.3398 1.8906-3.2539 3.4062-5.5156 4.043-1.1523 0.3125-2.3633 0.54688-3.5664 0.42188-0.96484-0.10938-1.6211-1.1953-1.2305-2.0938 0.23438-0.68359 1.0586-0.85547 1.6992-0.82422 1.7266 0.015625 3.4727-0.54297 4.7812-1.6875 2.0078-1.7031 3.0547-4.3398 3.1328-6.9258 0.15625-2.9336-0.78125-5.8125-2.1328-8.3867-1.2148-2.2344-2.8086-4.2344-4.5703-6.0469 0.046875 3.4258-0.17188 6.8633-0.66406 10.262-0.5625 3.8438-1.0938 7.7031-2.1211 11.453-0.4375 1.5977-1.2656 3.1602-2.6211 4.1719-1.7734 1.3477-4.1758 1.5781-6.3125 1.1914-2.2852-0.41797-4.2656-2.3711-4.3906-4.7305-0.20312-3.0195 0.17188-6.0391 0.5-9.0352 0.26172-2.1992 0.57422-4.3867 0.98047-6.5508 0.14062-0.82422 1.1367-1.3359 1.9023-0.98047 0.73438 0.26562 1.0391 1.1289 0.89062 1.8438-0.64062 4.0625-1.2031 8.1406-1.4062 12.23-0.015625 1.1445-0.21875 2.4297 0.51562 3.4102 0.625 0.88672 1.7891 1.082 2.8047 1.0664 0.99609-0.03125 2.0547-0.22656 2.8359-0.87891 0.79688-0.62109 1.2578-1.5664 1.4922-2.5273 0.89062-3.2539 1.4023-6.6016 1.8867-9.9375 0.90625-6.6328 1.2812-13.531-0.58984-20.039-0.875 0.55469-1.8359 0.94531-2.8047 1.332-3.8672 1.5508-8.043 2.2031-12.188 2.2344-2.8828 0.015625-5.7812-0.3125-8.5703-1.0273-1.9922-0.49219-3.9727-1.1602-5.7969-2.125-1.0859 4.0781-1.2734 8.3281-1.0703 12.527 0.35156 5.3789 1.2266 10.707 2.4727 15.949 0.34375 1.2539 0.64062 2.6328 1.6523 3.5508 1.2656 1.1445 3.1641 1.1133 4.7227 0.69922 1.1055-0.28125 1.6836-1.4609 1.668-2.5273-0.0625-4.6836-0.71875-9.332-1.543-13.922-0.21875-0.79297 0.1875-1.75 1.043-1.9219 0.84375-0.24609 1.6797 0.45312 1.7891 1.2539 0.67188 3.4453 1.2031 6.918 1.4531 10.418 0.125 1.75 0.27734 3.5195 0.09375 5.2695-0.15625 1.2578-0.79688 2.4492-1.7969 3.2422-1.2891 1.0508-3.0352 1.3945-4.6719 1.332-1.5391 0.015625-3.1133-0.42188-4.332-1.3789-1.2617-0.99609-2.0898-2.4492-2.5195-3.9688-0.8125-2.7461-1.3281-5.5469-1.8125-8.3555-0.74609-4.4961-1.3398-9.0508-1.2461-13.609-1.9492 2.1094-3.7852 4.3555-5 6.957-1.3438 2.7148-1.9805 5.7969-1.6211 8.8086 0.32422 2.5586 1.7461 5.0664 4.0234 6.3867 1.1328 0.67969 2.457 0.95703 3.7852 0.95703 0.51172 0.015625 1.0742-0.015625 1.4961 0.32812 0.66406 0.52734 0.64844 1.6406 0 2.168-0.5625 0.53125-1.3906 0.48438-2.1055 0.4375-2.1836-0.125-4.3477-0.90234-6-2.3281-2.3555-1.9844-3.9258-4.8984-4.1758-7.9648-0.3125-3.1914 0.35938-6.4492 1.6641-9.3789 1.8242-4.043 4.7734-7.4844 8.1211-10.355 0.40625-2.0117 0.57812-4.1055 1.3242-6.043-5.4219-3.2695-9.3672-9.0039-10.125-15.301-1.6055 0.20312-3.2148 0.40625-4.8359 0.60938-0.48438 0.042969-1.0391 0.10547-1.4297-0.23438-0.54688-0.38672-0.57812-1.2539-0.10938-1.7188 0.28125-0.28125 0.6875-0.34375 1.0547-0.40625 1.7188-0.23047 3.418-0.48047 5.1328-0.68359v-0.77344c-1.8398-0.37109-3.6797-0.74219-5.5-1.1641-0.625-0.10938-1.1094-0.69531-1.0156-1.332 0.046875-0.65234 0.75-1.1445 1.3828-1.0352 1.7656 0.29688 3.4961 0.69531 5.2422 1.0664 0.20312-1.5781 0.53906-3.1445 1.0234-4.6758-1.2891-2.7148-1.7266-5.7656-1.8516-8.7461-0.125-4.2617 0.60938-8.4961 1.7422-12.582 0.26562-1.0273 0.96875-1.9219 1.9805-2.2031m33.332 10.832c-0.39062 0.375-0.71875 0.93359-1.3125 0.96484-0.47656-0.03125-0.92969-0.21875-1.3984-0.34375-4.6719-1.2422-9.7109-1.1172-14.32 0.29688-0.8125 0.32031-1.3125-0.55859-1.8203-1.0117-2.9648-2.8633-6.5938-4.957-10.367-6.5977-1.0703-0.4375-2.1172-0.96484-3.2539-1.2422-0.64062 2.1211-1.0938 4.293-1.375 6.4922-0.55859 4.2344-0.49609 8.6953 1.1562 12.711 0.17188 0.44922 0.42188 0.88281 0.45312 1.3828-0.4375 1.5312-0.89062 3.082-1.0781 4.6602-0.39062 2.9023-0.1875 5.9062 0.78125 8.6836 1.0742 3.2695 3.1445 6.1797 5.8281 8.3672 4.4062 3.6094 10.109 5.3828 15.75 5.6875 6.4062 0.3125 13.141-1.0664 18.344-4.9727 4.5312-3.332 7.418-8.7773 7.4961-14.387 0.078125-2.5859-0.45312-5.1602-1.293-7.6094-0.3125-0.74219 0.23047-1.4414 0.44922-2.125 1.6641-4.5234 1.4922-9.4688 0.73438-14.148-0.3125-1.6406-0.60938-3.2891-1.1836-4.8516-4.8945 1.9688-9.8164 4.2617-13.59 8.043m25.039 56.203c-0.15234 0.99609-0.19922 2-0.44922 2.957-0.625 2.0938-2.6055 3.6797-4.7852 3.8906-0.046875 1.3516-0.3125 2.6836-0.77734 3.9531 2.1523-0.38281 4.2656-1.2383 5.9219-2.6953 2.0195-1.75 3.332-4.2617 3.7227-6.8984 0.51172-3.3008-0.14062-6.6484-1.0938-9.8125-1.2422 2.7305-2.1172 5.6484-2.5391 8.6055z"/>
 </g>
 <path d="m65.48 14.629c0.25-0.29688 0.52344-0.63281 0.92969-0.71094 0.76562-0.1875 1.5898 0.66406 1.2812 1.4102-0.21875 0.41797-0.57812 0.75391-0.85938 1.1289-0.86719 1.0234-1.6641 2.125-2.5703 3.1328 0.875 0.52344 1.6406 1.2539 2.1328 2.1406 0.25 0.39844 0.3125 1.0039-0.0625 1.3633-0.36719 0.37109-1.0391 0.37109-1.3828-0.03125-0.91797-0.91797-1.9648-1.7227-3.1172-2.3438-0.25-0.125-0.46875-0.30859-0.6875-0.49609 0.10938-0.44531 0.4375-0.78906 0.70312-1.1289 1.1836-1.5039 2.3984-2.9961 3.6328-4.4648z"/>
 <path d="m25.746 15.559c-0.46875-0.55859-0.10938-1.5 0.60156-1.6094 0.48438-0.125 0.96875 0.14062 1.2656 0.50781 1.4648 1.6406 2.8828 3.3203 4.3281 4.9922 0.17188 0.23438 0.39062 0.45312 0.45312 0.74219-0.015625 0.23438-0.26562 0.35938-0.4375 0.48047-1.0859 0.69922-2.207 1.3789-3.1133 2.3281-0.42188 0.49609-1.3242 0.54297-1.668-0.046875-0.29688-0.52734-0.015625-1.1602 0.29688-1.5977 0.5-0.60547 1.0273-1.2109 1.7305-1.6094-1.1406-1.3984-2.3086-2.793-3.457-4.1875z"/>
 <path d="m33.129 35.988c2.3555-0.67969 4.9531 1.2109 5.1562 3.5938 0.25 2-1.1953 4.0312-3.1758 4.4492-2.3555 0.65234-4.9258-1.2852-5.0664-3.6875-0.23047-1.9375 1.1719-3.8906 3.0859-4.3555z"/>
 <path d="m58.934 35.895c2.3984-0.39062 4.832 1.7344 4.7227 4.1523 0 2.0625-1.7461 3.9375-3.8164 4.0625-2.293 0.26562-4.4766-1.7969-4.4297-4.0625-0.0625-1.9844 1.5273-3.9062 3.5234-4.1523z"/>
 <path d="m45.734 40.918c0.82812-0.1875 1.7305-0.17188 2.5273 0.14062 0.34375 0.125 0.63281 0.47656 0.5625 0.86328-0.26562 0.91797-0.92188 1.707-1.7969 2.1094-0.48047 0.23438-0.94922-0.1875-1.2773-0.49609-0.45312-0.50781-0.93359-1.082-1.0273-1.7812 0.015625-0.51562 0.58984-0.72656 1.0117-0.83594z"/>
 <path d="m40.719 44.887c0.34375-0.46875 1.1211-0.42188 1.4023 0.09375 0.29688 0.57031 0.45312 1.2539 1.0156 1.6406 0.66406 0.53906 1.7109 0.47656 2.2852-0.14062 0.4375-0.33984 0.46875-0.91406 0.625-1.3984 0.125-0.64844 1.1836-0.75391 1.4961-0.19531 0.32812 0.52344 0.26562 1.2695 0.78125 1.6719 0.85156 0.83594 2.4297 0.39062 2.8945-0.66797 0.23438-0.44922 0.28125-1.1133 0.84375-1.2852 0.69922-0.24609 1.3398 0.52344 1.1367 1.1758-0.26562 0.76172-0.69922 1.4883-1.3086 2.0312-1.4023 1.3164-3.8945 1.2227-5.0469-0.35547-0.8125 1.1484-2.3867 1.5312-3.6914 1.1484-1.0781-0.29688-1.8594-1.1641-2.3555-2.125-0.26562-0.48047-0.46875-1.1328-0.078125-1.5938z"/><text x="0.0" y="117.5" font-size="5.0" font-weight="bold" font-family="Arbeit Regular, Helvetica, Arial-Unicode, Arial, Sans-serif" fill="#000000"></text><text x="0.0" y="122.5" font-size="5.0" font-weight="bold" font-family="Arbeit Regular, Helvetica, Arial-Unicode, Arial, Sans-serif" fill="#000000"></text></svg>