<?xml version="1.0" encoding="UTF-8"?>
<svg width="1200pt" height="1200pt" version="1.1" viewBox="0 0 1200 1200" xmlns="http://www.w3.org/2000/svg">
 <path d="m735.9 577.92c-7.8008 0.23828-16.68 2.8789-23.52 7.6797-4.3203-2.2812-9.3594-5.6406-12.602-9.1211l-20.039-21.359-0.71875 29.281c-0.12109 2.1602-0.12109 21.602 13.922 40.078 0.35938 0.48047 3.2383 4.5586 1.8008 9.9609-0.71875 0.23828-2.1602 0.60156-4.5586 0.60156-4.1992 0-11.879-1.0781-24.719-6-6-2.2812-27.961-9.8398-58.922-9.8398-36.238 0-101.88 11.16-135.96 85.68l-13.32 29.398 29.281-13.441c0.23828-0.12109 18.602-8.3984 40.32-8.3984 18.602 0 33.48 6.2383 44.281 18.719l6.7188 7.6797 8.6406-5.2812c0.12109-0.12109 10.441-6.3594 22.801-6.3594 12.602 0 22.801 6.4805 31.078 19.68l6.6016 10.559 10.32-6.9609c0.12109-0.12109 8.7617-5.6406 19.559-5.6406 5.3984 0 10.441 1.3203 15.238 4.0781-48.359 72.961-131.16 121.08-225.24 121.08-149.16 0-270-120.96-270-270 0-149.16 120.84-270 270-270 141.71 0.007812 257.88 109.09 269.04 247.93zm267.24-7.7539s-68.363 6.3945-78.758 60.938c0 0-50.52-1.8711-52.297 50.062 0 0-48.098-3.6836-50.137 52.691 0 0-36.73 7.2227-42.684 44.004-23.531-28.871-58.969-16.766-58.969-16.766-29.965-47.797-69.77-20.555-69.77-20.555-27.516-44.09-70.32-17.207-70.32-17.207-36.277-42.035-98.676-13.391-98.676-13.391 43.957-96.395 146.46-82.414 179.64-69.648 38.82 14.93 44.074 0.40625 44.074 0.40625 5.9766-12.648-2.7852-23.566-2.7852-23.566-11.867-15.59-11.473-32.387-11.473-32.387 8.6172 9.1797 23.699 15.492 23.699 15.492 4.8711-8.4492 23.207-13.355 31.656-8.4844 0 0 9.9102-12.996 12.781-25.262 0 0 8.7461 14.352 6.2656 33.793 0 0-2.125 13.836 9.3828 21.805 0 0 11.809 9.9609 37.969-22.379 22.352-27.699 104.14-91.047 190.4-29.547zm-272.11 51.504c-0.74219-2.7734-3.5898-4.4141-6.3594-3.6719-2.7734 0.74219-4.4141 3.5898-3.6719 6.3594 0.74219 2.7734 3.5898 4.4141 6.3594 3.6719 2.7734-0.74219 4.418-3.5977 3.6719-6.3594zm20.918-5.6055c-0.74219-2.7734-3.5898-4.4141-6.3594-3.6719-2.7734 0.74219-4.4141 3.5898-3.6719 6.3594 0.74219 2.7734 3.5898 4.4141 6.3594 3.6719 2.7695-0.74219 4.4141-3.5977 3.6719-6.3594z"/>
</svg>
