<svg xmlns="http://www.w3.org/2000/svg" xmlns:xlink="http://www.w3.org/1999/xlink" xmlns:serif="http://www.serif.com/" viewBox="0 0 56 70" version="1.1" xml:space="preserve" style="" x="0px" y="0px" fill-rule="evenodd" clip-rule="evenodd" stroke-linejoin="round" stroke-miterlimit="2"><g transform="matrix(1,0,0,1,-84,-156)"><g transform="matrix(0.433477,0,0,1.62777,63.3779,-37.0769)"><path d="M117.338,133.891C115.763,134.394 113.977,134.633 112.06,134.633C110.143,134.633 108.358,134.394 106.783,133.891C106.375,133.761 105.647,133.743 105.158,133.852C104.669,133.96 104.603,134.154 105.011,134.284C107.102,134.952 109.516,135.247 112.06,135.247C114.605,135.247 117.019,134.952 119.109,134.284C119.517,134.154 119.451,133.96 118.963,133.852C118.474,133.743 117.746,133.761 117.338,133.891Z"/></g><g transform="matrix(4.26568e-17,-0.696639,0.696639,4.26568e-17,25.7444,249.727)"><path d="M106,118.718L107,118.718C107.396,118.718 107.718,118.396 107.718,118C107.718,117.604 107.396,117.282 107,117.282L106,117.282C105.604,117.282 105.282,117.604 105.282,118C105.282,118.396 105.604,118.718 106,118.718Z"/></g><g transform="matrix(-1.2797e-16,0.696639,-0.696639,-1.2797e-16,198.162,101.343)"><path d="M106,118.718L107,118.718C107.396,118.718 107.718,118.396 107.718,118C107.718,117.604 107.396,117.282 107,117.282L106,117.282C105.604,117.282 105.282,117.604 105.282,118C105.282,118.396 105.604,118.718 106,118.718Z"/></g><path d="M101.704,177.545C102.126,179.623 103.072,181.697 104.384,183.419C103.77,184.059 103.236,184.776 102.799,185.553C101.364,185.338 100.01,184.593 98.752,183.612C96.636,181.963 94.796,179.643 93.327,177.861C93.325,177.858 93.323,177.855 93.32,177.853C93.009,177.491 92.544,177.299 92.068,177.336C91.592,177.373 91.163,177.635 90.911,178.041C90.906,178.05 90.901,178.058 90.897,178.067C89.438,180.775 88.221,185.013 88.033,188.045C87.947,189.437 88.091,190.589 88.477,191.275C88.595,191.484 88.843,191.58 89.07,191.505L92.991,190.212C93.254,190.125 93.543,190.209 93.72,190.422C94.278,191.096 95.092,192.08 95.092,192.08C95.18,192.186 95.307,192.251 95.444,192.26C95.581,192.269 95.716,192.221 95.817,192.128L97.98,190.128C98.18,189.943 98.471,189.897 98.718,190.01L101.475,191.273C101.629,193.952 102.852,195.558 104.745,196.493L104.291,198.189C104.247,198.354 104.139,198.494 103.992,198.579C103.844,198.664 103.669,198.687 103.505,198.643L103.499,198.641C103.079,198.529 102.633,198.588 102.257,198.805C101.881,199.022 101.607,199.379 101.495,199.798L101.494,199.8C101.261,200.673 101.778,201.57 102.651,201.804L105.764,202.638C106.031,202.709 106.305,202.551 106.377,202.284L107.689,197.387C108.991,197.608 110.435,197.687 111.959,197.687C113.476,197.687 114.913,197.609 116.209,197.391L117.521,202.284C117.592,202.551 117.866,202.709 118.133,202.638L121.246,201.804C122.119,201.57 122.637,200.673 122.403,199.8L122.403,199.798C122.29,199.379 122.016,199.022 121.64,198.805C121.265,198.588 120.818,198.529 120.399,198.641L120.393,198.643C120.228,198.687 120.053,198.664 119.905,198.579C119.758,198.494 119.65,198.354 119.606,198.189L119.154,196.502C121.05,195.573 122.277,193.976 122.44,191.312L125.282,190.01C125.529,189.897 125.82,189.943 126.02,190.127C126.02,190.128 128.183,192.128 128.183,192.128C128.284,192.221 128.419,192.269 128.556,192.26C128.693,192.251 128.82,192.186 128.908,192.08C128.908,192.08 129.722,191.096 130.28,190.422C130.457,190.209 130.746,190.125 131.009,190.212L134.93,191.505C135.157,191.58 135.405,191.484 135.523,191.275C135.909,190.589 136.053,189.437 135.967,188.045C135.779,185.013 134.562,180.775 133.103,178.067C133.099,178.058 133.094,178.05 133.089,178.041C132.837,177.635 132.408,177.373 131.932,177.336C131.456,177.299 130.991,177.491 130.68,177.853C130.677,177.855 130.675,177.858 130.673,177.861C129.204,179.643 127.364,181.963 125.248,183.612C123.968,184.61 122.589,185.364 121.125,185.564C120.687,184.782 120.151,184.061 119.534,183.419C120.838,181.707 121.781,179.648 122.206,177.582C124.583,174.325 126.144,170.839 126.894,167.125C126.894,167.123 126.894,167.122 126.895,167.12C126.988,166.633 126.834,166.132 126.483,165.781C126.132,165.431 125.63,165.278 125.143,165.373C125.143,165.373 125.142,165.373 125.141,165.373C122.727,165.853 120.587,166.791 118.837,168.378C116.997,167.236 114.595,166.687 111.959,166.687C109.328,166.687 106.931,167.234 105.093,168.371C103.344,166.788 101.206,165.853 98.796,165.373C98.795,165.373 98.795,165.373 98.794,165.373C98.307,165.278 97.805,165.431 97.454,165.781C97.103,166.132 96.949,166.633 97.042,167.12C97.043,167.122 97.043,167.123 97.043,167.125C97.79,170.825 99.343,174.299 101.704,177.545ZM118.223,196.889C117.894,197.004 117.549,197.104 117.191,197.191L118.357,201.543C118.357,201.543 120.987,200.838 120.987,200.838C121.327,200.747 121.528,200.398 121.437,200.059C121.437,200.059 121.437,200.057 121.437,200.057C121.393,199.894 121.286,199.755 121.14,199.671C120.994,199.586 120.821,199.564 120.658,199.607L120.651,199.609C120.231,199.722 119.783,199.663 119.405,199.445C119.028,199.227 118.753,198.869 118.64,198.448L118.223,196.889ZM105.676,196.883L105.257,198.448C105.144,198.869 104.869,199.227 104.492,199.445C104.115,199.663 103.667,199.722 103.246,199.609L103.24,199.607C103.077,199.564 102.903,199.586 102.757,199.671C102.611,199.755 102.504,199.894 102.461,200.057C102.461,200.057 102.46,200.059 102.46,200.059C102.369,200.398 102.571,200.747 102.91,200.838C102.91,200.838 105.54,201.543 105.54,201.543L106.708,197.186C106.35,197.099 106.005,196.998 105.676,196.883ZM118.895,184.198C118.675,184.446 118.446,184.685 118.211,184.912C116.46,186.602 114.295,187.687 111.959,187.687C109.624,187.687 107.458,186.602 105.708,184.912C105.472,184.685 105.243,184.446 105.023,184.198C103.433,185.897 102.459,188.179 102.459,190.687C102.459,195.886 106.76,196.687 111.959,196.687C117.159,196.687 121.459,195.886 121.459,190.687C121.459,188.179 120.485,185.897 118.895,184.198ZM102.334,186.487C100.852,186.193 99.444,185.42 98.137,184.401C95.965,182.707 94.069,180.333 92.557,178.498C92.453,178.382 92.301,178.321 92.146,178.333C91.992,178.345 91.853,178.428 91.764,178.565C90.371,181.162 89.211,185.209 89.032,188.106C88.974,189.035 89.008,189.838 89.191,190.412C89.191,190.412 92.677,189.263 92.677,189.263C93.331,189.047 94.051,189.254 94.49,189.785C94.49,189.785 95.526,191.035 95.526,191.035L97.301,189.393C97.797,188.935 98.52,188.819 99.134,189.101L101.472,190.171C101.535,188.867 101.837,187.624 102.334,186.487ZM122.448,190.208L124.866,189.101C125.48,188.819 126.203,188.935 126.699,189.393L128.474,191.035C128.474,191.035 129.51,189.785 129.51,189.785C129.949,189.254 130.669,189.047 131.323,189.263C131.323,189.263 134.809,190.412 134.809,190.412C134.992,189.838 135.026,189.035 134.968,188.106C134.789,185.206 133.626,181.154 132.226,178.549C132.142,178.425 132.005,178.345 131.854,178.333C131.697,178.321 131.543,178.384 131.44,178.502C129.931,180.333 128.035,182.707 125.863,184.401C124.534,185.437 123.1,186.219 121.59,186.501C122.089,187.646 122.389,188.896 122.448,190.208ZM102.638,177.115C102.641,177.13 102.691,177.387 102.692,177.395C103.21,179.91 104.558,182.413 106.402,184.193C107.961,185.698 109.879,186.687 111.959,186.687C114.039,186.687 115.957,185.698 117.516,184.193C119.904,181.888 121.459,178.372 121.459,175.187C121.459,169.971 117.175,167.687 111.959,167.687C106.743,167.687 102.459,169.971 102.459,175.187C102.459,175.821 102.521,176.468 102.638,177.115ZM122.456,175.44C124.157,172.757 125.309,169.921 125.913,166.93C125.943,166.77 125.893,166.605 125.777,166.489C125.661,166.374 125.495,166.323 125.335,166.354C123.182,166.783 121.259,167.596 119.674,168.971C119.89,169.145 120.096,169.33 120.289,169.524C121.339,168.554 122.674,168.056 124.194,167.868C124.349,167.849 124.504,167.904 124.613,168.015C124.722,168.126 124.773,168.282 124.75,168.437C124.454,170.477 123.674,172.383 122.407,174.15C122.441,174.484 122.459,174.83 122.459,175.187C122.459,175.271 122.458,175.356 122.456,175.44ZM104.254,168.963C102.67,167.592 100.751,166.782 98.603,166.354C98.442,166.323 98.276,166.374 98.16,166.489C98.045,166.605 97.994,166.77 98.024,166.93C98.626,169.91 99.772,172.735 101.461,175.409C101.46,175.334 101.459,175.261 101.459,175.187C101.459,174.821 101.478,174.468 101.514,174.127C100.256,172.366 99.482,170.468 99.187,168.437C99.165,168.282 99.215,168.126 99.324,168.015C99.433,167.904 99.588,167.849 99.743,167.868C101.258,168.055 102.59,168.551 103.638,169.515C103.832,169.321 104.038,169.137 104.254,168.963ZM122.144,172.737C122.87,171.545 123.37,170.29 123.642,168.97C122.607,169.18 121.689,169.583 120.945,170.28C121.479,170.99 121.887,171.808 122.144,172.737ZM102.981,170.27C102.239,169.579 101.325,169.179 100.295,168.97C100.566,170.282 101.061,171.53 101.78,172.716C102.039,171.79 102.447,170.975 102.981,170.27Z"/></g><text x="0" y="71" fill="#000000" font-size="5px" font-weight="bold" font-family="'Helvetica Neue', Helvetica, Arial-Unicode, Arial, Sans-serif"></text><text x="0" y="76" fill="#000000" font-size="5px" font-weight="bold" font-family="'Helvetica Neue', Helvetica, Arial-Unicode, Arial, Sans-serif"></text></svg>