<svg xmlns="http://www.w3.org/2000/svg" xmlns:xlink="http://www.w3.org/1999/xlink" xml:space="preserve" version="1.1" style="shape-rendering:geometricPrecision;text-rendering:geometricPrecision;image-rendering:optimizeQuality;" viewBox="0 0 7111 8888.75" x="0px" y="0px" fill-rule="evenodd" clip-rule="evenodd"><defs><style type="text/css">
   
    .fil0 {fill:black}
   
  </style></defs><g><g><g><path class="fil0" d="M3555 3569c-1093,0 -1983,-716 -1983,-1597 0,-880 889,-1596 1983,-1596 1094,0 1982,716 1982,1596 0,881 -890,1597 -1982,1597zm0 -2999c-986,0 -1788,629 -1788,1402 0,774 802,1403 1788,1403 986,0 1788,-629 1788,-1403 0,-773 -802,-1402 -1788,-1402z"/></g><g><path class="fil0" d="M3555 6859c-518,0 -1022,-118 -1455,-340 -33,-16 -53,-50 -53,-87 2,-253 -126,-543 -344,-776 -204,-220 -460,-363 -703,-395 -37,-5 -69,-32 -80,-68 -49,-163 -74,-336 -74,-508 0,-39 2,-78 3,-118 1,-30 17,-58 42,-75 25,-16 57,-22 84,-12l2 0c123,34 254,18 377,-50 164,-90 292,-258 350,-460 71,-241 29,-495 -108,-662 -33,-42 -28,-103 12,-136 142,-117 299,-222 470,-310 36,-19 80,-12 111,16 340,316 838,498 1364,498 527,0 1025,-182 1367,-498 30,-28 75,-34 111,-16 172,91 329,195 469,310 42,35 47,96 12,136 -137,165 -179,419 -109,662 105,364 430,593 724,513 27,-10 57,-9 84,5 27,15 46,45 48,76 3,38 4,75 4,121 0,174 -25,345 -73,508 -11,36 -43,64 -81,68 -241,32 -498,175 -702,395 -218,234 -347,523 -344,774 0,38 -20,71 -53,88 -432,223 -936,341 -1455,341zm-1316 -487c394,192 848,293 1316,293 468,0 922,-101 1316,-293 15,-285 160,-597 394,-848 217,-233 489,-393 756,-444 33,-128 50,-259 50,-392 -21,1 -42,3 -62,3 -343,0 -674,-268 -791,-668 -76,-268 -42,-550 89,-759 -94,-73 -196,-139 -306,-200 -374,320 -896,504 -1445,504 -550,0 -1072,-184 -1445,-504 -108,59 -211,126 -305,200 130,211 165,492 87,759 -72,251 -233,461 -443,576 -130,72 -272,103 -408,89 0,132 17,264 50,392 267,52 537,211 755,444 231,250 375,562 392,848z"/></g><g><path class="fil0" d="M5536 7109c-182,0 -342,-58 -461,-171 -167,-155 -235,-391 -193,-665 40,-261 176,-527 385,-749 207,-224 463,-379 720,-438 271,-61 511,-9 678,146l0 0c166,154 234,390 193,665 -41,261 -177,528 -383,751 -209,224 -464,378 -721,438 -76,15 -149,23 -218,23zm665 -1853c-54,0 -111,7 -171,21 -219,50 -440,184 -620,380 -182,194 -300,425 -335,647 -32,208 15,385 133,494 118,110 296,145 503,97 219,-50 440,-184 622,-379 180,-194 300,-424 333,-647 32,-208 -15,-383 -133,-492 0,0 0,0 0,0 -85,-81 -200,-121 -332,-121z"/></g><g><path class="fil0" d="M1574 7109c-70,0 -142,-8 -217,-25 -257,-58 -512,-214 -720,-436 -209,-223 -345,-490 -384,-751 -41,-275 27,-511 193,-665 167,-155 407,-207 678,-146 257,59 514,214 720,438 207,223 345,488 384,749 41,275 -27,511 -193,667 -120,111 -279,169 -461,169zm-664 -1853c-133,0 -247,40 -330,118 0,0 0,0 0,0 -118,110 -166,284 -134,493 35,222 153,452 335,648 365,392 869,518 1125,282 118,-110 165,-285 133,-494 -35,-223 -153,-453 -333,-647 -182,-196 -403,-331 -622,-381 -63,-12 -120,-19 -174,-19zm-397 47l0 0 0 0z"/></g><g><path class="fil0" d="M1103 4691c-61,0 -122,-9 -180,-25 -198,-57 -354,-202 -443,-406 -86,-198 -99,-431 -34,-656 73,-250 234,-461 443,-575 168,-93 356,-117 528,-67 197,57 354,202 443,406 86,198 98,431 33,655 -72,251 -233,461 -443,576 -111,61 -230,92 -347,92zm131 -1561c-84,0 -170,24 -252,68 -164,91 -291,259 -350,460 -52,182 -44,368 25,525 66,151 180,255 320,297 123,36 254,18 379,-50 164,-90 291,-258 350,-460 52,-180 44,-366 -25,-523 -66,-150 -179,-256 -320,-297l0 0c-41,-13 -83,-20 -127,-20z"/></g><g><path class="fil0" d="M3555 3569c-158,0 -315,-15 -468,-44 -11,-3 -22,-7 -32,-13 -262,-161 -409,-428 -382,-695 39,-414 468,-711 955,-664 232,22 445,119 597,273 157,159 232,359 213,561 -20,202 -131,382 -313,507 -9,7 -20,13 -33,15 -175,39 -355,60 -537,60zm-414 -233c135,25 274,37 414,37 161,0 321,-16 476,-50 125,-90 201,-216 214,-354 14,-146 -42,-290 -158,-407 -121,-122 -291,-198 -478,-216 -379,-38 -714,183 -743,489 -19,190 86,380 275,501z"/></g><g><path class="fil0" d="M3555 2893c-215,0 -446,-75 -446,-238 0,-162 232,-237 446,-237 215,0 447,75 447,237 0,163 -232,238 -447,238zm-232 -239c39,21 121,43 232,43 112,0 193,-23 233,-43 -39,-21 -121,-43 -233,-43 -111,0 -193,24 -232,43zm489 18l0 0 0 0z"/></g><g><path class="fil0" d="M3555 3569c-54,0 -97,-43 -97,-97l0 -676c0,-54 43,-97 97,-97 54,0 97,43 97,97l0 676c0,53 -43,97 -97,97z"/></g><g><path class="fil0" d="M2633 2143c-187,0 -340,-153 -340,-340 0,-187 153,-340 340,-340 187,0 339,153 339,340 1,187 -152,340 -339,340zm0 -486c-81,0 -146,66 -146,146 0,81 65,146 146,146 79,0 144,-65 144,-146 0,-80 -63,-146 -144,-146z"/></g><g><path class="fil0" d="M4477 2143c-188,0 -340,-153 -340,-340 0,-187 152,-340 340,-340 187,0 340,153 340,340 0,187 -151,340 -340,340zm0 -486c-81,0 -146,66 -146,146 0,81 65,146 146,146 80,0 145,-65 145,-146 0,-80 -65,-146 -145,-146z"/></g><g><path class="fil0" d="M1868 1402c-12,0 -25,-3 -37,-7 -161,-67 -303,-194 -402,-360 -101,-169 -147,-361 -126,-538 21,-188 112,-338 255,-424 285,-171 693,-18 908,340 59,98 98,202 117,307 7,42 -12,83 -49,103 -248,136 -449,319 -583,533 -19,29 -51,46 -83,46zm-47 -1207c-58,0 -114,14 -164,45 0,0 0,0 0,0 -90,54 -147,153 -161,277 -15,135 19,284 100,417 62,104 146,189 239,244 136,-191 320,-358 540,-490 -18,-61 -45,-121 -78,-176 -118,-197 -308,-317 -476,-317zm-214 -38l0 0 0 0z"/></g><g><path class="fil0" d="M5243 1402c-33,0 -64,-17 -82,-46 -133,-214 -334,-397 -583,-533 -37,-20 -57,-61 -49,-103 20,-108 60,-212 118,-308 216,-358 622,-511 908,-340l0 0c286,171 343,602 128,962 -98,165 -241,293 -401,360 -14,5 -26,8 -39,8zm-508 -712c221,130 405,298 540,490 94,-56 178,-141 239,-245 159,-266 132,-579 -61,-695l0 0c-193,-117 -481,7 -642,273 -32,56 -58,114 -76,177z"/></g><g><path class="fil0" d="M6009 4691c-342,0 -674,-268 -791,-668 -136,-469 78,-945 478,-1061 172,-50 359,-26 527,67 210,115 371,325 443,576 136,471 -78,947 -476,1062 -61,15 -121,24 -181,24zm-133 -1561c-43,0 -86,6 -128,18 -295,86 -449,454 -344,821 107,366 435,595 730,511 296,-86 450,-454 343,-821 -58,-201 -186,-369 -350,-459 -81,-46 -166,-70 -251,-70z"/></g><g><path class="fil0" d="M5294 6415c-11,0 -22,-1 -32,-5 -49,-19 -77,-74 -59,-124 66,-187 179,-371 329,-530 193,-209 432,-359 670,-424 52,-14 106,17 120,68 14,52 -17,106 -68,120 -206,55 -411,187 -581,369 -130,140 -230,300 -287,462 -14,39 -51,64 -92,64z"/></g><g><path class="fil0" d="M1826 6415c-40,0 -77,-25 -91,-64 -59,-164 -158,-325 -288,-462 -169,-182 -374,-314 -580,-369 -51,-14 -82,-68 -68,-120 14,-51 68,-82 119,-68 239,65 478,217 671,425 147,157 260,340 328,529 18,50 -9,105 -59,125 -9,3 -20,4 -32,4z"/></g><g><path class="fil0" d="M3555 6558c-439,0 -865,-100 -1233,-289 -47,-25 -67,-83 -42,-130 25,-47 84,-67 131,-42 340,175 736,267 1144,267 408,0 804,-93 1144,-267 47,-25 107,-5 130,42 25,47 6,107 -41,130 -368,189 -794,289 -1233,289z"/></g><g><g><path class="fil0" d="M3448 5893c-171,0 -339,-89 -430,-247 -53,-93 -75,-199 -63,-303 -103,-15 -198,-62 -275,-139 -93,-93 -144,-218 -144,-351 0,-133 51,-257 144,-351 77,-75 172,-124 275,-139 -11,-104 10,-208 63,-301 66,-115 173,-197 301,-231 128,-34 261,-16 376,49 49,28 93,65 131,108 54,-19 109,-29 166,-29 274,0 496,222 496,496 0,107 -35,208 -96,293 82,65 142,155 169,259 35,127 17,260 -50,375 -66,115 -173,197 -299,231 -105,27 -211,20 -309,-17 -41,96 -114,178 -205,230 -81,46 -167,67 -250,67zm-369 -741c30,0 58,14 77,37 21,28 27,64 13,96 -35,86 -28,183 18,264 83,143 268,193 411,109 80,-45 133,-126 147,-219 6,-35 28,-62 60,-76 32,-13 68,-9 96,12 75,57 169,75 259,50 77,-21 142,-69 182,-140 40,-69 51,-151 31,-228 -24,-90 -86,-162 -174,-200 -32,-14 -54,-43 -58,-76 -4,-33 9,-68 36,-89 73,-58 115,-144 115,-236 0,-166 -135,-301 -301,-301 -52,0 -104,14 -150,42 -46,27 -106,11 -133,-37 -27,-47 -64,-83 -110,-109 -70,-40 -151,-52 -228,-31 -78,21 -143,71 -183,140 -46,81 -53,177 -18,263 12,32 8,68 -13,96 -20,27 -54,41 -88,37 -93,-11 -184,20 -250,86 -117,117 -117,308 0,426 65,66 157,96 250,85 2,-1 7,-1 11,-1z"/></g><g><path class="fil0" d="M3555 5209c-195,0 -353,-160 -353,-354 0,-196 158,-354 353,-354 196,0 354,158 354,354 0,194 -158,354 -354,354zm0 -514c-88,0 -158,72 -158,160 0,87 70,159 158,159 87,0 160,-72 160,-159 0,-89 -73,-160 -160,-160z"/></g></g></g></g><text x="0" y="7126" fill="#000000" font-size="5px" font-weight="bold" font-family="'Helvetica Neue', Helvetica, Arial-Unicode, Arial, Sans-serif"></text><text x="0" y="7131" fill="#000000" font-size="5px" font-weight="bold" font-family="'Helvetica Neue', Helvetica, Arial-Unicode, Arial, Sans-serif"></text></svg>