<svg xmlns="http://www.w3.org/2000/svg" xmlns:xlink="http://www.w3.org/1999/xlink" version="1.1" x="0px" y="0px" viewBox="0 0 66 82.5" enable-background="new 0 0 66 66" xml:space="preserve"><g><g><g><g><path d="M27.33,26.668c-0.66-0.358-1.337-0.688-2.015-1.017c-1.795-0.872-3.65-1.774-5.148-3.213      c-5.877-5.638-5.821-14.477,3.168-19.231c2.748-1.451,5.742-2.219,8.659-2.219C44.341,0.989,48.496,13.93,46.203,20      c-0.994,2.632-3.283,4.842-6.444,6.222C36.39,27.694,30.587,28.436,27.33,26.668z M31.995,1.989      c-2.755,0-5.588,0.727-8.192,2.103c-8.359,4.418-8.349,12.437-2.943,17.626c1.384,1.329,3.089,2.157,4.893,3.034      c0.691,0.336,1.382,0.672,2.055,1.037c3.539,1.923,9.73,0.312,11.551-0.483c1.687-0.736,4.697-2.451,5.909-5.659      C47.336,14.172,43.558,1.989,31.995,1.989z"/></g></g><g><g><g><path d="M37.654,55.764c-0.308-3.399,0.83-6.76,3.043-8.988c2.004-2.018,6.326-3.904,9.326-3.022       c7.675,2.255,10.39,13.215,3.563,18.89C47.86,67.4,38.484,64.932,37.654,55.764z M41.407,47.481       c-2.008,2.021-3.039,5.084-2.757,8.193c0.767,8.463,9.282,10.368,14.297,6.199c2.903-2.413,4.239-6.643,3.247-10.286       c-0.854-3.136-3.568-6.026-6.453-6.875C47.177,43.961,43.208,45.667,41.407,47.481z"/></g></g><g><g><path d="M42.438,53.158c-0.25-0.883-0.627-2.216,0.17-3.281c0.491-0.655,1.029-0.794,1.394-0.794       c0.558,0,1.105,0.315,1.541,0.887c0.673,0.884,0.922,2.13,0.635,3.176C45.671,54.98,43.321,56.29,42.438,53.158z        M44.001,50.083c-0.198,0-0.398,0.133-0.593,0.393c-0.462,0.618-0.268,1.492-0.009,2.41c0.308,1.088,0.596,1.196,0.821,1.152       c0.365-0.066,0.868-0.71,0.992-1.159c0.236-0.858-0.064-1.775-0.466-2.304C44.507,50.262,44.236,50.083,44.001,50.083z"/></g></g><g><g><path d="M48.577,53.755c-0.776,0-1.346-0.435-1.564-1.193c-0.34-1.181,0.144-3.411,1.481-3.957       c0.752-0.308,1.669-0.088,2.259,0.536c0.449,0.474,0.677,1.116,0.64,1.81c-0.035,0.656-0.316,1.314-0.791,1.854       C50.102,53.374,49.288,53.755,48.577,53.755z M49.22,49.462c-0.121,0-0.238,0.023-0.349,0.068       c-0.766,0.313-1.125,1.97-0.899,2.754c0.094,0.326,0.28,0.471,0.604,0.471c0.42,0,0.968-0.263,1.275-0.611       c0.327-0.371,0.52-0.814,0.542-1.246c0.022-0.417-0.108-0.796-0.367-1.069C49.806,49.596,49.512,49.462,49.22,49.462z"/></g></g><g><g><path d="M51.985,57.165c-1.073,0-2.064-0.888-2.119-1.899c-0.069-1.264,1.382-2.708,2.18-3.128       c0.696-0.366,1.431-0.282,1.919,0.206c0.355,0.355,0.55,0.893,0.549,1.514c-0.002,1.118-0.682,2.638-1.776,3.145       C52.505,57.11,52.251,57.165,51.985,57.165z M52.915,52.908c-0.123,0-0.259,0.038-0.403,0.114       c-0.647,0.341-1.685,1.505-1.648,2.188c0.033,0.598,0.893,1.139,1.454,0.884c0.683-0.316,1.195-1.443,1.196-2.239       c0-0.348-0.093-0.642-0.256-0.806C53.162,52.954,53.05,52.908,52.915,52.908z"/></g></g><g><g><path d="M45.004,61.925c-0.011-0.018-0.021-0.038-0.029-0.058c-0.525-0.353-0.956-0.736-1.305-1.162       c-0.794-0.971-1.117-2.142-0.887-3.214c0.483-2.248,3.019-3.128,5.365-1.204c1.032,0.848,1.693,1.929,1.862,3.044       c0.204,1.352-0.369,2.703-1.426,3.36C47.416,63.417,45.704,63.114,45.004,61.925z M46.573,61.977       c0.458,0.17,1.045,0.137,1.483-0.135c0.711-0.442,1.108-1.414,0.964-2.362c-0.131-0.869-0.666-1.729-1.507-2.419       c-0.717-0.589-1.877-1.113-2.802-0.656c-0.478,0.238-0.824,0.711-0.951,1.298c-0.168,0.783,0.074,1.625,0.684,2.37       c0.436,0.532,1.044,0.996,1.859,1.416C46.49,61.584,46.59,61.781,46.573,61.977z"/></g></g><g><g><g><path d="M45.168,44.324c0.479-7.294,0.375-14.158-6.083-17.979c-0.238-0.141-0.316-0.447-0.176-0.686        c0.141-0.236,0.449-0.315,0.685-0.176c6.946,4.11,7.072,11.288,6.572,18.906C46.122,45.051,45.125,44.982,45.168,44.324z"/></g></g><g><g><path d="M55.91,49.37c2.972-4.621,1.637-10.753-1.004-14.779c-2.979-4.543-7.774-7.744-12.035-10.388        c-0.234-0.146-0.307-0.454-0.161-0.688c0.145-0.234,0.454-0.306,0.688-0.161c4.351,2.7,9.252,5.976,12.344,10.688        c2.819,4.298,4.224,10.871,1.009,15.869C56.394,50.466,55.551,49.927,55.91,49.37z"/></g></g></g></g><g><g><g><path d="M12.389,62.643C4.5,56.085,9.762,43.537,17.622,43.537c2.093,0,5.412,0.923,7.876,3.523       c4.523,4.775,3.49,13.011-1.349,16.38C20.665,65.866,15.628,65.334,12.389,62.643z M17.622,44.537       c-3.316,0-6.864,3.464-7.841,7.052c-0.992,3.643,0.343,7.872,3.247,10.285c5.357,4.453,13.877,1.841,14.332-6.595       c0.161-2.971-0.734-5.575-2.587-7.53C22.527,45.377,19.517,44.537,17.622,44.537z"/></g></g><g><g><path d="M21.812,55.044c-0.078,0-0.157-0.007-0.239-0.021c-0.865-0.159-1.586-1.193-1.775-1.878       c-0.24-0.874-0.032-2.135,0.496-2.997c0.339-0.555,0.783-0.903,1.282-1.007c0.574-0.118,1.186,0.083,1.622,0.538       c0.447,0.467,0.676,1.147,0.644,1.917C23.805,52.491,23.353,55.044,21.812,55.044z M21.908,50.107       c-0.043,0-0.086,0.004-0.128,0.013c-0.219,0.046-0.443,0.241-0.632,0.55c-0.384,0.628-0.553,1.599-0.385,2.21       c0.124,0.449,0.627,1.093,0.992,1.159l0.058,0.006c0.478,0,0.986-1.402,1.031-2.489c0.021-0.495-0.11-0.916-0.367-1.184       C22.313,50.201,22.111,50.107,21.908,50.107z"/></g></g><g><g><path d="M17.398,53.755L17.398,53.755c-0.711,0-1.525-0.382-2.026-0.951c-1.052-1.195-1.059-2.865-0.015-3.8       c0.392-0.351,0.881-0.544,1.379-0.544c0.824,0,1.546,0.505,1.932,1.351c0.315,0.688,0.507,2.011,0.294,2.751       C18.744,53.321,18.174,53.755,17.398,53.755z M16.736,49.46c-0.251,0-0.505,0.103-0.712,0.289       c-0.552,0.494-0.666,1.525,0.099,2.395c0.307,0.349,0.854,0.611,1.275,0.611l0,0c0.324,0,0.51-0.145,0.604-0.471       c0.139-0.482-0.019-1.568-0.242-2.058C17.537,49.74,17.164,49.46,16.736,49.46z"/></g></g><g><g><path d="M13.99,57.165L13.99,57.165c-0.267,0-0.521-0.056-0.754-0.164c-1.093-0.506-1.773-2.025-1.775-3.144       c-0.001-0.615,0.2-1.17,0.551-1.521c0.688-0.688,1.792-0.513,2.866,0.568c0.451,0.452,1.29,1.295,1.232,2.361       C16.054,56.277,15.064,57.165,13.99,57.165z M13.014,52.919c-0.118,0-0.212,0.039-0.296,0.122       c-0.162,0.163-0.259,0.467-0.258,0.813c0.002,0.796,0.514,1.923,1.196,2.238c0.564,0.259,1.421-0.285,1.455-0.883       c0.031-0.573-0.47-1.127-0.942-1.602C13.572,53.009,13.189,52.919,13.014,52.919z"/></g></g><g><g><path d="M17.391,62.692c-2.35-1.461-1.825-5.353,1.326-6.992c1.064-0.554,2.127-0.62,2.992-0.189       c0.892,0.443,1.502,1.425,1.555,2.501c0.071,1.449-0.742,2.816-2.261,3.85C20.591,62.867,18.77,63.548,17.391,62.692z        M20.487,56.23c-0.521,0-1.009,0.201-1.309,0.356c-1.143,0.595-2.057,1.784-2.224,2.894c-0.143,0.948,0.254,1.92,0.965,2.362       c0.368,0.23,0.858,0.299,1.312,0.187c0.059-0.015,0.116-0.031,0.171-0.052c-0.018-0.196,0.083-0.393,0.269-0.488       c1.006-0.518,2.682-1.651,2.594-3.429c-0.035-0.709-0.438-1.374-1.002-1.655C21.009,56.279,20.744,56.23,20.487,56.23z"/></g></g><g><g><g><path d="M19.809,44.39c-0.5-7.618-0.375-14.796,6.572-18.906c0.237-0.14,0.544-0.06,0.684,0.176        c0.141,0.238,0.062,0.545-0.176,0.686c-6.458,3.82-6.562,10.684-6.083,17.979c0.018,0.276-0.191,0.514-0.466,0.532        C20.079,44.879,19.828,44.674,19.809,44.39z"/></g></g><g><g><path d="M10.233,34.041c3.091-4.713,7.993-7.988,12.344-10.688c0.236-0.145,0.543-0.073,0.688,0.161s0.073,0.543-0.161,0.688        c-4.261,2.644-9.056,5.845-12.035,10.388c-2.641,4.026-3.976,10.158-1.004,14.779c0.15,0.232,0.083,0.542-0.15,0.691        C8.632,50.887,4.801,42.324,10.233,34.041z"/></g></g></g></g><g><g><path d="M39.972,61.587c-0.06,0-0.12-0.011-0.178-0.033c-4.812-1.838-7.79-5.338-7.965-9.362      c-0.24-5.506,5.148-10.537,13.773-9.174c0.653,0.105,0.495,1.09-0.156,0.988c-8.025-1.269-12.829,3.307-12.618,8.143      c0.158,3.613,2.895,6.78,7.322,8.472c0.258,0.099,0.387,0.388,0.289,0.646C40.363,61.465,40.173,61.587,39.972,61.587z"/></g></g><g><g><path d="M25.176,60.626c5.851-2.467,7.377-7.289,6.294-10.974c-1.056-3.588-4.875-6.728-11.043-5.648      c-0.272,0.053-0.531-0.134-0.579-0.406c-0.047-0.271,0.135-0.531,0.407-0.578c13.27-2.334,17.466,13.403,5.31,18.528      C24.948,61.804,24.574,60.881,25.176,60.626z"/></g></g><g><g><path d="M25.255,23.183c-1.461-1.229-2.072-3.232-1.593-5.226c0.603-2.511,2.71-4.415,5.636-5.096      c1.972-0.458,4.199-0.344,6.926,0.37c1.395,0.364,3.127,0.959,4.156,2.335c1.76,2.349,0.975,6.256-2.729,8.158      C34.491,25.35,27.832,25.351,25.255,23.183z M31.783,13.589c-0.795,0-1.555,0.082-2.259,0.246      c-2.55,0.592-4.378,2.22-4.891,4.354c-0.39,1.623,0.095,3.243,1.265,4.227c2.216,1.864,8.426,1.892,11.295,0.418      c3.142-1.617,3.781-4.809,2.386-6.67c-0.839-1.121-2.295-1.624-3.608-1.968C34.403,13.789,33.033,13.589,31.783,13.589z"/></g></g><g><g><path d="M32.458,18.732L32.458,18.732c-0.803-0.001-1.801-0.002-2.666-0.436c-0.861-0.433-1.414-1.26-1.409-2.109      c0.003-0.473,0.192-1.357,1.43-1.96c1.231-0.599,2.778-0.523,3.944,0.189c0.97,0.594,1.466,1.58,1.233,2.455      c-0.133,0.502-0.588,1.285-2.102,1.614C32.802,18.633,32.642,18.732,32.458,18.732z M31.605,14.822      c-0.468,0-0.935,0.101-1.353,0.304c-0.394,0.192-0.865,0.533-0.868,1.067c-0.002,0.457,0.35,0.955,0.857,1.209      c0.329,0.165,0.702,0.247,1.085,0.288c0.064-0.032,0.137-0.052,0.214-0.055c1.397-0.041,2.325-0.423,2.484-1.021      c0.116-0.436-0.208-0.99-0.789-1.345C32.75,14.972,32.177,14.822,31.605,14.822z"/></g></g><g><g><path d="M31.646,22.552c-1.383,0-2.756-0.438-3.884-1.24c-0.225-0.16-0.277-0.472-0.117-0.697      c0.159-0.225,0.471-0.278,0.697-0.117c1.002,0.713,2.227,1.1,3.463,1.052c1.23-0.035,2.437-0.479,3.396-1.248      c0.216-0.173,0.53-0.138,0.703,0.077c0.173,0.215,0.138,0.529-0.077,0.702c-1.129,0.906-2.547,1.428-3.994,1.469      C31.771,22.551,31.708,22.552,31.646,22.552z"/></g></g><g><g><path d="M31.59,22.454c-0.265,0-0.486-0.208-0.499-0.476l-0.179-3.608c-0.014-0.275,0.199-0.51,0.475-0.523      c0.288-0.054,0.51,0.199,0.524,0.475l0.179,3.607c0.014,0.275-0.199,0.51-0.475,0.523C31.606,22.454,31.598,22.454,31.59,22.454      z"/></g></g><g><g><path d="M36.068,10.943c-0.251,0-0.499-0.102-0.687-0.3c-0.338-0.359-0.346-0.951-0.019-1.321      c0.111-0.126,0.245-0.217,0.388-0.271c0.09-0.086,0.211-0.133,0.35-0.109c0.16,0.024,0.311,0.083,0.442,0.169      c0.053,0.029,0.104,0.063,0.152,0.104c0.278,0.231,0.393,0.57,0.328,0.89c-0.033,0.269-0.179,0.514-0.419,0.674      C36.437,10.888,36.251,10.943,36.068,10.943z"/></g></g><g><g><path d="M28.468,10.945c-0.377,0-0.714-0.193-0.878-0.52c-0.119-0.234-0.116-0.521,0.008-0.765      c0.048-0.093,0.11-0.174,0.184-0.239c0.002-0.003,0.003-0.006,0.004-0.008c0.137-0.308,0.419-0.52,0.733-0.555      c0.272-0.032,0.55,0.066,0.762,0.268c0.219,0.209,0.339,0.507,0.321,0.796c-0.031,0.493-0.395,0.894-0.905,0.999      C28.621,10.937,28.544,10.945,28.468,10.945z"/></g></g><g><g><path d="M45.949,14.897c-0.609-0.252-0.233-1.174,0.38-0.926c1.475,0.61,6.609-4.848,3.29-9.169      c-1.766-2.299-5.45-2.951-8.947-0.68c-0.232,0.15-0.541,0.085-0.692-0.147c-0.15-0.231-0.084-0.541,0.147-0.691      c3.876-2.518,8.159-1.86,10.285,0.908C54.226,9.158,48.579,15.976,45.949,14.897z"/></g></g><g><g><path d="M11.939,9.615c-0.893-2.685,0.011-5.162,2.417-6.627c1.664-1.014,6.988-2.855,9.424,0.169      c0.173,0.215,0.14,0.529-0.075,0.703C23.488,4.033,23.173,4,23.001,3.784c-1.883-2.333-6.512-0.923-8.126,0.058      c-2.009,1.224-2.734,3.213-1.987,5.457c0.519,1.563,2.45,4.31,3.806,4.126c0.657-0.087,0.791,0.899,0.138,0.99      C14.675,14.721,12.472,11.217,11.939,9.615z"/></g></g></g><g><g><path d="M28.901,35.223l-2.39-2.391c-0.098-0.098-0.098-0.256,0-0.354c0.098-0.098,0.256-0.098,0.354,0l2.39,2.391     c0.098,0.098,0.098,0.256,0,0.354C29.156,35.321,28.998,35.321,28.901,35.223z"/></g></g><g><g><path d="M29.948,33.981l-2.547-2.547c-0.098-0.098-0.098-0.256,0-0.354c0.098-0.098,0.256-0.098,0.354,0l2.547,2.547     c0.098,0.098,0.098,0.256,0,0.354C30.204,34.079,30.046,34.079,29.948,33.981z"/></g></g><g><g><path d="M26.701,35.186c-0.098-0.098-0.098-0.256,0-0.354l3.627-3.627c0.098-0.098,0.256-0.098,0.354,0     c0.098,0.098,0.098,0.256,0,0.354l-3.627,3.627C26.957,35.284,26.799,35.284,26.701,35.186z"/></g></g><g><g><path d="M47.651,43.92c-0.164,0-1.217-1.113-1.333-1.229c-0.232-0.232,0.119-0.588,0.353-0.354l1.157,1.156     c0.098,0.098,0.098,0.256,0,0.354C47.779,43.896,47.715,43.92,47.651,43.92z"/></g></g><g><g><path d="M49.724,43.847l-1.594-1.594c-0.098-0.098-0.098-0.256,0-0.354c0.098-0.098,0.256-0.098,0.353,0l1.594,1.594     c0.098,0.098,0.098,0.256,0,0.354C49.98,43.945,49.822,43.945,49.724,43.847z"/></g></g><g><g><path d="M52.44,44.897c-0.169,0-2.253-2.149-2.372-2.269c-0.098-0.098-0.098-0.256,0-0.354c0.098-0.098,0.256-0.098,0.353,0     l2.196,2.195c0.098,0.098,0.098,0.256,0,0.354C52.568,44.873,52.504,44.897,52.44,44.897z"/></g></g><g><g><path d="M55.839,45.483c-0.064,0-0.128-0.024-0.177-0.073l-2.781-2.781c-0.098-0.098-0.098-0.256,0-0.354     c0.098-0.098,0.256-0.098,0.353,0l2.781,2.781c0.098,0.098,0.098,0.256,0,0.354C55.966,45.458,55.902,45.483,55.839,45.483z"/></g></g><g><g><path d="M57.349,44.285l-1.969-1.969c-0.098-0.098-0.098-0.256,0-0.354c0.098-0.098,0.256-0.098,0.353,0l1.969,1.969     c0.098,0.098,0.098,0.256,0,0.354C57.605,44.382,57.447,44.382,57.349,44.285z"/></g></g><g><g><path d="M57.298,41.734l-1.043-1.043c-0.098-0.098-0.098-0.256,0-0.354c0.098-0.098,0.256-0.098,0.353,0l1.043,1.043     c0.098,0.098,0.098,0.256,0,0.354C57.554,41.832,57.396,41.832,57.298,41.734z"/></g></g><g><g><path d="M56.136,47.759l-1.38-1.381c-0.098-0.098-0.098-0.256,0-0.354c0.098-0.098,0.256-0.098,0.353,0l1.38,1.381     c0.098,0.098,0.098,0.256,0,0.354C56.392,47.857,56.234,47.857,56.136,47.759z"/></g></g><g><g><path d="M54.729,47.644l1.811-1.81c0.098-0.098,0.256-0.098,0.354,0c0.098,0.098,0.098,0.256,0,0.354l-1.811,1.81     C54.85,48.23,54.494,47.878,54.729,47.644z"/></g></g><g><g><path d="M53.193,45.513l2.123-2.123c0.098-0.098,0.256-0.098,0.354,0c0.098,0.098,0.098,0.256,0,0.354l-2.123,2.123     C53.314,46.099,52.959,45.748,53.193,45.513z"/></g></g><g><g><path d="M50.567,43.878l1.906-1.906c0.098-0.098,0.256-0.098,0.354,0c0.098,0.098,0.098,0.256,0,0.354l-1.906,1.906     C50.688,44.464,50.332,44.113,50.567,43.878z"/></g></g><g><g><path d="M47.593,43.878l1.688-1.688c0.098-0.098,0.256-0.098,0.354,0c0.098,0.098,0.098,0.256,0,0.354l-1.688,1.688     C47.714,44.464,47.359,44.113,47.593,43.878z"/></g></g><g><g><path d="M45.463,44.126l1.612-1.612c0.098-0.098,0.256-0.098,0.354,0c0.098,0.098,0.098,0.256,0,0.354l-1.612,1.612     C45.584,44.712,45.229,44.361,45.463,44.126z"/></g></g><g><g><path d="M55.401,43.017c-0.064,0-0.128-0.024-0.177-0.073c-0.098-0.098-0.098-0.256,0-0.354l1.526-1.526     c0.232-0.232,0.588,0.119,0.354,0.354l-1.526,1.526C55.529,42.993,55.465,43.017,55.401,43.017z"/></g></g><g><g><path d="M56.315,40.913c-0.098-0.098-0.098-0.256,0-0.354l0.709-0.71c0.232-0.232,0.588,0.119,0.354,0.354     C57.115,40.466,56.566,41.163,56.315,40.913z"/></g></g><g><g><path d="M53.143,43.972c-0.221,0-0.334-0.269-0.177-0.427l1.282-1.281c0.098-0.098,0.256-0.098,0.354,0     c0.098,0.098,0.098,0.256,0,0.354l-1.282,1.281C53.271,43.948,53.207,43.972,53.143,43.972z"/></g></g><g><g><path d="M56.124,44.804c-0.064,0-0.128-0.024-0.177-0.073c-0.098-0.098-0.098-0.256,0-0.354l1.494-1.493     c0.098-0.098,0.256-0.098,0.354,0c0.098,0.098,0.098,0.256,0,0.353C57.676,43.356,56.29,44.804,56.124,44.804z"/></g></g><g><g><path d="M18.529,44.29l-2.483-2.483c-0.098-0.098-0.098-0.256,0-0.354c0.098-0.098,0.256-0.098,0.354,0l2.483,2.483     c0.098,0.098,0.098,0.256,0,0.353C18.785,44.387,18.627,44.387,18.529,44.29z"/></g></g><g><g><path d="M19.297,42.846L17.051,40.6c-0.098-0.098-0.098-0.256,0-0.354c0.098-0.098,0.256-0.098,0.354,0l2.246,2.246     C19.887,42.73,19.526,43.075,19.297,42.846z"/></g></g><g><g><path d="M19.913,41.014c-0.064,0-0.128-0.024-0.177-0.073l-1.413-1.413c-0.098-0.098-0.098-0.256,0-0.353     c0.098-0.098,0.256-0.098,0.354,0l1.413,1.413c0.098,0.098,0.098,0.256,0,0.354C20.041,40.99,19.977,41.014,19.913,41.014z"/></g></g><g><g><path d="M15.115,44.024l-1.682-1.683c-0.098-0.098-0.098-0.256,0-0.354c0.098-0.098,0.256-0.098,0.354,0l1.682,1.683     c0.098,0.098,0.098,0.256,0,0.354C15.371,44.122,15.213,44.122,15.115,44.024z"/></g></g><g><g><path d="M13.044,44.766l-1.62-1.62c-0.098-0.098-0.098-0.256,0-0.354c0.098-0.098,0.256-0.098,0.354,0l1.62,1.62     C13.63,44.645,13.278,45,13.044,44.766z"/></g></g><g><g><path d="M11.989,46.219c-0.166,0-1.452-1.348-1.57-1.466c-0.098-0.098-0.098-0.256,0-0.354c0.098-0.098,0.256-0.098,0.354,0     l1.393,1.393c0.098,0.098,0.098,0.256,0,0.354C12.117,46.195,12.053,46.219,11.989,46.219z"/></g></g><g><g><path d="M10.601,47.414l-1.588-1.589c-0.098-0.098-0.098-0.256,0-0.354c0.098-0.098,0.256-0.098,0.354,0l1.588,1.589     c0.098,0.098,0.098,0.256,0,0.354C10.857,47.511,10.698,47.511,10.601,47.414z"/></g></g><g><g><path d="M8.854,48.376c-0.064,0-0.128-0.024-0.177-0.073c-0.098-0.098-0.098-0.256,0-0.354l2.077-2.076     c0.232-0.232,0.588,0.119,0.354,0.353l-2.077,2.076C8.982,48.352,8.918,48.376,8.854,48.376z"/></g></g><g><g><path d="M10.486,44.801l2.198-2.197c0.098-0.098,0.256-0.098,0.354,0c0.098,0.098,0.098,0.256,0,0.354l-2.198,2.197     C10.607,45.387,10.252,45.036,10.486,44.801z"/></g></g><g><g><path d="M13.098,44.4l2.346-2.346c0.098-0.098,0.256-0.098,0.354,0c0.098,0.098,0.098,0.256,0,0.354l-2.346,2.346     C13.219,44.986,12.864,44.634,13.098,44.4z"/></g></g><g><g><path d="M16.247,43.596l2.046-2.046c0.098-0.098,0.256-0.098,0.353,0c0.098,0.098,0.098,0.256,0,0.354L16.6,43.95     C16.367,44.183,16.013,43.83,16.247,43.596z"/></g></g><g><g><path d="M18.299,40.741c-0.064,0-0.128-0.025-0.177-0.073c-0.098-0.098-0.098-0.256,0-0.354l0.669-0.67     c0.098-0.098,0.256-0.098,0.353,0c0.098,0.098,0.098,0.256,0,0.353l-0.669,0.67C18.427,40.716,18.363,40.741,18.299,40.741z"/></g></g><g><g><path d="M52.493,62.411l-1.469-1.469c-0.098-0.098-0.098-0.256,0-0.354c0.098-0.098,0.256-0.098,0.354,0l1.469,1.469     c0.098,0.098,0.098,0.256,0,0.354C52.749,62.508,52.591,62.508,52.493,62.411z"/></g></g><g><g><path d="M53.68,61.52c-0.164,0-1.299-1.196-1.416-1.313c-0.098-0.098-0.098-0.256,0-0.354c0.098-0.098,0.256-0.098,0.354,0     l1.239,1.239c0.098,0.098,0.098,0.256,0,0.354C53.808,61.496,53.744,61.52,53.68,61.52z"/></g></g><g><g><path d="M54.423,59.887l-1.011-1.012c-0.098-0.098-0.098-0.256,0-0.354c0.098-0.098,0.256-0.098,0.354,0l1.011,1.012     C55.013,59.771,54.652,60.116,54.423,59.887z"/></g></g><g><g><path d="M55.074,58.839l-1.02-1.02c-0.098-0.098-0.098-0.256,0-0.354c0.098-0.098,0.256-0.098,0.354,0l1.02,1.02     c0.098,0.098,0.098,0.256,0,0.354C55.33,58.937,55.172,58.937,55.074,58.839z"/></g></g><g><g><path d="M56.085,57.279l-0.929-0.929c-0.232-0.232,0.119-0.588,0.354-0.354l0.929,0.929c0.098,0.098,0.098,0.256,0,0.354     C56.34,57.376,56.182,57.376,56.085,57.279z"/></g></g><g><g><path d="M56.651,55.962l-1.081-1.081c-0.098-0.098-0.098-0.256,0-0.354c0.098-0.098,0.256-0.098,0.353,0l1.081,1.081     c0.098,0.098,0.098,0.256,0,0.354C56.906,56.06,56.748,56.06,56.651,55.962z"/></g></g><g><g><path d="M51.15,62.904l-1.365-1.365c-0.098-0.098-0.098-0.256,0-0.354c0.098-0.098,0.256-0.098,0.354,0l1.365,1.365     c0.098,0.098,0.098,0.256,0,0.354C51.405,63.001,51.247,63.001,51.15,62.904z"/></g></g><g><g><path d="M49.448,63.636l-0.812-0.812c-0.098-0.098-0.098-0.256,0-0.354c0.098-0.098,0.256-0.098,0.354,0l0.812,0.812     c0.098,0.098,0.098,0.256,0,0.354C49.704,63.734,49.546,63.734,49.448,63.636z"/></g></g><g><g><path d="M47.213,63.33c-0.232-0.232,0.119-0.588,0.354-0.354l0.758,0.758c0.098,0.098,0.098,0.256,0,0.354     C48.073,64.339,47.477,63.593,47.213,63.33z"/></g></g><g><g><path d="M45.579,64.037L44.642,63.1c-0.098-0.098-0.098-0.256,0-0.354c0.098-0.098,0.256-0.098,0.354,0l0.937,0.937     c0.098,0.098,0.098,0.256,0,0.354C45.835,64.134,45.676,64.134,45.579,64.037z"/></g></g><g><g><path d="M43.78,63.708l-0.653-0.653c-0.232-0.232,0.119-0.588,0.354-0.354l0.653,0.653c0.098,0.098,0.098,0.256,0,0.354     C44.036,63.805,43.878,63.805,43.78,63.708z"/></g></g><g><g><path d="M42.989,63.206l1.612-1.612c0.098-0.098,0.256-0.098,0.354,0c0.098,0.098,0.098,0.256,0,0.354l-1.612,1.612     C43.11,63.792,42.755,63.44,42.989,63.206z"/></g></g><g><g><path d="M44.091,63.756l1.711-1.711c0.098-0.098,0.256-0.098,0.354,0c0.098,0.098,0.098,0.256,0,0.354l-1.711,1.711     C44.212,64.342,43.857,63.991,44.091,63.756z"/></g></g><g><g><path d="M45.79,63.986l2.072-2.071c0.098-0.098,0.256-0.098,0.354,0c0.098,0.098,0.098,0.256,0,0.354l-2.072,2.071     C45.911,64.572,45.555,64.22,45.79,63.986z"/></g></g><g><g><path d="M47.673,63.848l3.08-3.08c0.098-0.098,0.256-0.098,0.354,0c0.098,0.098,0.098,0.256,0,0.354l-3.08,3.08     C47.794,64.434,47.438,64.082,47.673,63.848z"/></g></g><g><g><path d="M50.84,62.563l2.828-2.829c0.098-0.098,0.256-0.098,0.354,0c0.098,0.098,0.098,0.256,0,0.354l-2.828,2.829     C50.961,63.15,50.607,62.796,50.84,62.563z"/></g></g><g><g><path d="M53.359,59.5c-0.064,0-0.128-0.025-0.177-0.073c-0.098-0.098-0.098-0.256,0-0.354l2.156-2.155     c0.232-0.232,0.588,0.119,0.354,0.354l-2.156,2.155C53.486,59.475,53.423,59.5,53.359,59.5z"/></g></g><g><g><path d="M55.11,56.457l1.31-1.311c0.098-0.098,0.256-0.098,0.354,0c0.098,0.098,0.098,0.256,0,0.354l-1.31,1.31     C55.231,57.042,54.876,56.691,55.11,56.457z"/></g></g><g><g><path d="M21.369,64.155c-0.163,0-1.156-1.052-1.271-1.167c-0.232-0.232,0.119-0.588,0.354-0.353l1.094,1.094     C21.704,63.886,21.59,64.155,21.369,64.155z"/></g></g><g><g><path d="M22.84,63.574l-1.283-1.283c-0.232-0.233,0.119-0.588,0.354-0.354l1.283,1.283c0.098,0.098,0.098,0.256,0,0.354     C23.095,63.671,22.937,63.671,22.84,63.574z"/></g></g><g><g><path d="M24.388,62.333l-1.184-1.184c-0.098-0.098-0.098-0.256,0-0.354c0.098-0.098,0.256-0.098,0.354,0l1.184,1.184     c0.098,0.098,0.098,0.256,0,0.354C24.644,62.431,24.485,62.431,24.388,62.333z"/></g></g><g><g><path d="M25.557,60.651l-1.022-1.022c-0.098-0.098-0.098-0.256,0-0.354c0.098-0.098,0.256-0.098,0.354,0l1.022,1.022     c0.098,0.098,0.098,0.256,0,0.354C25.813,60.749,25.654,60.749,25.557,60.651z"/></g></g><g><g><path d="M26.282,59.032l-0.924-0.924c-0.098-0.098-0.098-0.256,0-0.354c0.098-0.098,0.256-0.098,0.354,0l0.924,0.924     c0.098,0.098,0.098,0.256,0,0.354C26.538,59.129,26.38,59.129,26.282,59.032z"/></g></g><g><g><path d="M27.267,57.481l-1.148-1.147c-0.098-0.098-0.098-0.256,0-0.354c0.098-0.098,0.256-0.098,0.354,0l1.148,1.147     c0.098,0.098,0.098,0.256,0,0.354C27.523,57.579,27.364,57.579,27.267,57.481z"/></g></g><g><g><path d="M18.17,63.974l-0.987-0.986c-0.098-0.098-0.098-0.256,0-0.353c0.098-0.098,0.256-0.098,0.353,0l0.987,0.986     C18.756,63.853,18.404,64.208,18.17,63.974z"/></g></g><g><g><path d="M14.902,62.544c-0.098-0.098-0.098-0.256,0-0.354c0.098-0.098,0.256-0.098,0.353,0l0.987,0.986     c0.098,0.098,0.098,0.256,0,0.354C15.983,63.79,15.169,62.811,14.902,62.544z"/></g></g><g><g><path d="M14.712,63.014l1.542-1.542c0.098-0.098,0.256-0.098,0.354,0c0.098,0.098,0.098,0.256,0,0.354l-1.542,1.542     C14.833,63.6,14.477,63.248,14.712,63.014z"/></g></g><g><g><path d="M16.549,63.521l1.417-1.417c0.098-0.098,0.256-0.098,0.354,0c0.098,0.098,0.098,0.256,0,0.354l-1.417,1.417     C16.67,64.108,16.316,63.754,16.549,63.521z"/></g></g><g><g><path d="M18.768,64.091l2.611-2.61c0.098-0.098,0.256-0.098,0.354,0c0.098,0.098,0.098,0.256,0,0.354l-2.611,2.61     C18.889,64.677,18.533,64.326,18.768,64.091z"/></g></g><g><g><path d="M21.556,63.395l3.298-3.299c0.232-0.232,0.588,0.119,0.354,0.354l-3.298,3.299     C21.677,63.981,21.322,63.629,21.556,63.395z"/></g></g><g><g><path d="M24.838,59.258c-0.064,0-0.128-0.024-0.177-0.073c-0.098-0.098-0.098-0.256,0-0.353l1.965-1.965     c0.232-0.232,0.588,0.119,0.354,0.354C26.86,57.34,25.007,59.258,24.838,59.258z"/></g></g><g><g><path d="M44.192,43.121c-0.169,0-2.405-2.301-2.524-2.421c-0.098-0.098-0.098-0.256,0-0.354c0.098-0.098,0.256-0.098,0.354,0     l2.348,2.348c0.098,0.098,0.098,0.256,0,0.354C44.32,43.096,44.256,43.121,44.192,43.121z"/></g></g><g><g><path d="M45.543,41.581c-0.064,0-0.128-0.024-0.177-0.073l-1.45-1.45c-0.098-0.098-0.098-0.256,0-0.354     c0.098-0.098,0.256-0.098,0.354,0l1.45,1.45c0.098,0.098,0.098,0.256,0,0.354C45.671,41.556,45.607,41.581,45.543,41.581z"/></g></g><g><g><path d="M45.45,39.752c-0.064,0-0.128-0.024-0.177-0.073l-1.1-1.1c-0.098-0.098-0.098-0.256,0-0.354     c0.098-0.098,0.256-0.098,0.354,0l1.1,1.1c0.098,0.098,0.098,0.256,0,0.354C45.578,39.728,45.514,39.752,45.45,39.752z"/></g></g><g><g><path d="M41.352,43.211l-1.676-1.676c-0.098-0.098-0.098-0.256,0-0.354c0.098-0.098,0.256-0.098,0.354,0l1.676,1.676     c0.098,0.098,0.098,0.256,0,0.354C41.608,43.309,41.45,43.309,41.352,43.211z"/></g></g><g><g><path d="M38.915,43.281l-1.038-1.038c-0.098-0.098-0.098-0.256,0-0.354c0.098-0.098,0.256-0.098,0.354,0l1.038,1.038     c0.098,0.098,0.098,0.256,0,0.354C39.171,43.378,39.012,43.378,38.915,43.281z"/></g></g><g><g><path d="M37.055,44.249l-1.299-1.3c-0.098-0.098-0.098-0.256,0-0.354c0.098-0.098,0.256-0.098,0.354,0l1.299,1.3     c0.098,0.098,0.098,0.256,0,0.354C37.311,44.346,37.153,44.346,37.055,44.249z"/></g></g><g><g><path d="M35.446,45.145l-0.719-0.718c-0.098-0.098-0.098-0.256,0-0.354c0.098-0.098,0.256-0.098,0.354,0l0.719,0.718     c0.098,0.098,0.098,0.256,0,0.354C35.702,45.243,35.544,45.243,35.446,45.145z"/></g></g><g><g><path d="M34.121,46.07l-0.936-0.936c-0.098-0.098-0.098-0.256,0-0.354c0.098-0.098,0.256-0.098,0.354,0l0.935,0.935     C34.712,45.953,34.35,46.299,34.121,46.07z"/></g></g><g><g><path d="M33.11,47.951l-1.21-1.21c-0.098-0.098-0.098-0.256,0-0.354c0.098-0.098,0.256-0.098,0.354,0l1.21,1.21     c0.098,0.098,0.098,0.256,0,0.354C33.366,48.048,33.208,48.048,33.11,47.951z"/></g></g><g><g><path d="M31.386,48.186l3.984-3.984c0.232-0.232,0.588,0.119,0.354,0.354L31.74,48.54C31.507,48.772,31.152,48.42,31.386,48.186z     "/></g></g><g><g><path d="M35.37,45.038l3.155-3.155c0.098-0.098,0.256-0.098,0.354,0c0.098,0.098,0.098,0.256,0,0.354l-3.155,3.155     C35.491,45.624,35.136,45.272,35.37,45.038z"/></g></g><g><g><path d="M38.969,42.853l2.399-2.399c0.098-0.098,0.256-0.098,0.354,0c0.098,0.098,0.098,0.256,0,0.354l-2.399,2.399     C39.09,43.439,38.735,43.087,38.969,42.853z"/></g></g><g><g><path d="M41.925,42.724l2.124-2.124c0.098-0.098,0.256-0.098,0.354,0c0.098,0.098,0.098,0.256,0,0.354l-2.124,2.124     C42.046,43.31,41.691,42.958,41.925,42.724z"/></g></g><g><g><path d="M44.286,39.809c-0.064,0-0.128-0.024-0.177-0.073c-0.098-0.098-0.098-0.256,0-0.354l1.064-1.064     c0.098-0.098,0.256-0.098,0.354,0c0.098,0.098,0.098,0.256,0,0.354l-1.064,1.064C44.414,39.785,44.35,39.809,44.286,39.809z"/></g></g><g><g><path d="M20.338,10.453c-0.052,0-0.105-0.017-0.15-0.05c-0.11-0.083-0.133-0.239-0.05-0.35c1.916-2.563,4.49-4.565,7.445-5.791     c0.127-0.055,0.274,0.007,0.327,0.135c0.053,0.128-0.008,0.273-0.135,0.326c-2.872,1.191-5.374,3.138-7.236,5.629     C20.489,10.418,20.414,10.453,20.338,10.453z"/></g></g><g><g><path d="M22.404,9.259c-0.074,0-0.147-0.032-0.196-0.096L21.189,7.87c-0.086-0.108-0.067-0.266,0.042-0.351     c0.108-0.086,0.266-0.068,0.351,0.042L22.6,8.855c0.085,0.108,0.067,0.266-0.042,0.351C22.513,9.242,22.458,9.259,22.404,9.259z"/></g></g><g><g><path d="M23.669,8.132c-0.025,0-0.05-0.004-0.075-0.012c-0.515-0.161-0.973-0.518-1.256-0.978     c-0.072-0.117-0.036-0.272,0.082-0.344c0.117-0.072,0.271-0.036,0.344,0.082c0.221,0.358,0.578,0.637,0.98,0.763     c0.132,0.041,0.205,0.182,0.164,0.314C23.874,8.064,23.776,8.132,23.669,8.132z"/></g></g><g><g><path d="M25.144,7.183c-0.037,0-0.075-0.008-0.11-0.025c-0.525-0.259-0.948-0.722-1.159-1.269     c-0.049-0.129,0.015-0.273,0.144-0.323c0.128-0.051,0.273,0.015,0.323,0.143c0.166,0.431,0.498,0.795,0.913,0.999     c0.124,0.062,0.175,0.211,0.114,0.335C25.324,7.132,25.235,7.183,25.144,7.183z"/></g></g><g><g><path d="M26.613,6.268c-0.062,0-0.123-0.023-0.171-0.068l-1.172-1.102c-0.101-0.095-0.106-0.253-0.011-0.353     c0.094-0.102,0.254-0.106,0.353-0.012l1.173,1.104c0.101,0.095,0.105,0.253,0.011,0.354C26.746,6.242,26.679,6.268,26.613,6.268z     "/></g></g><g><g><path d="M47.323,13.497l-0.792-0.793c-0.232-0.233,0.119-0.588,0.354-0.354l0.792,0.793c0.098,0.098,0.098,0.256,0,0.353     C47.579,13.594,47.421,13.594,47.323,13.497z"/></g></g><g><g><path d="M47.729,12.063c-0.098-0.098-0.098-0.256,0-0.354c0.098-0.098,0.256-0.098,0.354,0l1.041,1.041     c0.098,0.098,0.098,0.256,0,0.353C48.862,13.365,47.996,12.33,47.729,12.063z"/></g></g><g><g><path d="M49.849,11.73l-1.089-1.089c-0.098-0.098-0.098-0.256,0-0.354c0.098-0.098,0.256-0.098,0.354,0l1.089,1.089     c0.098,0.098,0.098,0.256,0,0.354C50.105,11.828,49.947,11.828,49.849,11.73z"/></g></g><g><g><path d="M50.447,10.376l-1.073-1.073c-0.098-0.098-0.098-0.256,0-0.354c0.098-0.098,0.256-0.098,0.354,0l1.073,1.073     c0.098,0.098,0.098,0.256,0,0.353C50.703,10.474,50.545,10.474,50.447,10.376z"/></g></g><g><g><path d="M50.902,8.992l-1.138-1.138c-0.098-0.098-0.098-0.256,0-0.354c0.098-0.098,0.256-0.098,0.354,0l1.138,1.138     c0.098,0.098,0.098,0.256,0,0.353C51.157,9.089,50.999,9.089,50.902,8.992z"/></g></g><g><g><path d="M46.337,11.228l-1.06-1.061c-0.232-0.232,0.119-0.588,0.354-0.354l1.06,1.061c0.098,0.098,0.098,0.256,0,0.354     C46.593,11.326,46.435,11.326,46.337,11.228z"/></g></g><g><g><path d="M46.527,10.367c-0.163,0-1.135-1.031-1.25-1.146c-0.232-0.233,0.119-0.588,0.354-0.354l1.073,1.073     c0.098,0.098,0.098,0.256,0,0.353C46.654,10.342,46.59,10.367,46.527,10.367z"/></g></g><g><g><path d="M45.592,11.383c-0.064,0-0.128-0.024-0.177-0.073c-0.098-0.098-0.098-0.256,0-0.354l1.701-1.701     c0.098-0.098,0.256-0.098,0.354,0c0.098,0.098,0.098,0.256,0,0.353C47.352,9.728,45.76,11.383,45.592,11.383z"/></g></g><g><g><path d="M46.168,12.462l2.158-2.158c0.098-0.098,0.256-0.098,0.354,0c0.098,0.098,0.098,0.256,0,0.354l-2.158,2.158     C46.289,13.048,45.934,12.697,46.168,12.462z"/></g></g><g><g><path d="M46.921,13.382l1.77-1.771c0.098-0.098,0.256-0.098,0.354,0c0.098,0.098,0.098,0.256,0,0.354l-1.77,1.77     C47.042,13.968,46.687,13.617,46.921,13.382z"/></g></g><g><g><path d="M48.715,9.823c-0.064,0-0.128-0.024-0.177-0.073c-0.098-0.098-0.098-0.256,0-0.354l1.455-1.455     c0.232-0.233,0.588,0.119,0.354,0.353L48.891,9.75C48.842,9.798,48.778,9.823,48.715,9.823z"/></g></g><g><g><path d="M15.874,12.937l-1.15-1.15c-0.098-0.098-0.098-0.256,0-0.354c0.098-0.098,0.256-0.098,0.354,0l1.15,1.15     c0.098,0.098,0.098,0.256,0,0.354C16.13,13.035,15.971,13.035,15.874,12.937z"/></g></g><g><g><path d="M16.575,11.623l-1.43-1.43c-0.098-0.098-0.098-0.256,0-0.354c0.098-0.098,0.256-0.098,0.354,0l1.43,1.43     c0.098,0.098,0.098,0.256,0,0.354C16.831,11.72,16.673,11.72,16.575,11.623z"/></g></g><g><g><path d="M17.15,10.134l-1.114-1.113c-0.098-0.098-0.098-0.256,0-0.353c0.098-0.098,0.256-0.098,0.354,0l1.114,1.113     c0.098,0.098,0.098,0.256,0,0.353C17.405,10.232,17.247,10.232,17.15,10.134z"/></g></g><g><g><path d="M17.775,9.119L16.786,8.13c-0.098-0.098-0.098-0.256,0-0.354c0.098-0.098,0.256-0.098,0.354,0l0.989,0.988     c0.098,0.098,0.098,0.256,0,0.353C18.03,9.216,17.872,9.216,17.775,9.119z"/></g></g><g><g><path d="M18.649,7.836l-1.16-1.159c-0.098-0.098-0.098-0.256,0-0.353c0.098-0.098,0.256-0.098,0.354,0l1.16,1.159     c0.098,0.098,0.098,0.256,0,0.353C18.904,7.934,18.746,7.934,18.649,7.836z"/></g></g><g><g><path d="M14.442,12.63c-0.098-0.098-0.098-0.256,0-0.354l1.617-1.617c0.098-0.098,0.256-0.098,0.354,0     c0.098,0.098,0.098,0.256,0,0.354l-1.617,1.617C14.698,12.728,14.54,12.728,14.442,12.63z"/></g></g><g><g><path d="M13.598,10.777l1.768-1.768c0.098-0.098,0.256-0.098,0.354,0c0.098,0.098,0.098,0.256,0,0.354l-1.768,1.768     C13.719,11.363,13.364,11.011,13.598,10.777z"/></g></g><g><g><path d="M16.869,8.344c-0.064,0-0.128-0.024-0.177-0.073c-0.098-0.098-0.098-0.256,0-0.353l1.413-1.413     c0.098-0.098,0.256-0.098,0.353,0c0.098,0.098,0.098,0.256,0,0.354l-1.413,1.413C16.997,8.32,16.933,8.344,16.869,8.344z"/></g></g></g><text x="0" y="81" fill="#000000" font-size="5px" font-weight="bold" font-family="'Helvetica Neue', Helvetica, Arial-Unicode, Arial, Sans-serif"></text><text x="0" y="86" fill="#000000" font-size="5px" font-weight="bold" font-family="'Helvetica Neue', Helvetica, Arial-Unicode, Arial, Sans-serif"></text></svg>