<svg xmlns="http://www.w3.org/2000/svg" xmlns:xlink="http://www.w3.org/1999/xlink" version="1.1" x="0px" y="0px" viewBox="0 0 156 195" style="enable-background:new 0 0 156 156;" xml:space="preserve"><g><path d="M85.3276596,56.5507393c-0.3048019,1.4324074,2.7365723,3.7779236,3.9089355,4.6467285   c0.2792969,0.2067871,0.5708008,0.3322754,0.8688965,0.3913574l-0.1621094,4.0319786   c-2.3183594-0.3010254-4.583252-1.0041504-6.5600586-2.050045c-2.4729004-1.286377-5.3249512-3.1708984-7.7678223-1.8349609   c-2.5009995,1.3641815-2.4930038,4.9834709-1.5856934,7.7879601c2.6432724,8.5018921,12.4958878,14.7938843,22.4958496,10.7493896   c4.3727875-1.7887573,8.1656494-5.4685287,9.8322754-10.3305664c0.7875977-2.3532715,0.7976074-5.4145508-1.2463379-6.8205528   c-2.3237305-1.5556641-5.3449707,0.0498047-7.9177246,1.1066856c-2.0014648,0.8193359-4.2468262,1.3005371-6.4997559,1.4035645   l0.1623535-4.0351524c1.8747559-0.2583008,3.8476563-2.5908203,4.7619629-3.8199463   c0.5185547-0.697876,0.9772949-1.8347168,0.0996094-2.4730225c-0.2893066-0.2092285-0.6479492-0.2890625-0.9970703-0.348877   c-2.762207-0.4885254-5.7236328-0.3989258-8.3461914,0.6682129C85.7964096,55.862751,85.4175034,56.1519356,85.3276596,56.5507393z    M103.0273666,70.2915802c0.8273926,0.5684814,1.1166992,1.6651611,0.6281738,2.5428467   C97.1028137,84.0933228,81.504158,83.2110291,76.2434311,71.777298c-0.2094727-0.4387207-0.2192383-0.8874512-0.0895996-1.3062744   c0.3683853-1.2990952,1.6518402-1.5206146,3.0012207-1.4459229c3.2211914,0.1098633,6.3820801,1.5456543,8.5957031,3.8989258   C92.0010986,68.8948441,98.1491547,66.9679413,103.0273666,70.2915802z M87.3518295,57.0093575   c0.3027496-0.9642563,3.1113663-1.5383568,3.8190918-1.0072021c0.4685059,0.3491211-0.0300293,0.8178711-0.3688965,1.0170898   C89.2600784,57.919239,87.0730896,57.8923988,87.3518295,57.0093575z"/><path d="M121.3445053,30.4848213c2.0029297-1.1279297,3.9960938-1.2998047,5.3330078-0.4697266   c1.2421875,0.7734375,1.947258,2.5078125,1.7538986,4.3144531c-0.15625,1.4560547-0.806633,2.9824219-2.0458908,4.8027344   c-0.2800064,0.4083443,0.3402557,0.8326569,0.6191406,0.421875c0.8261719-1.2119141,1.9492111-3.0644531,2.1728439-5.1445313   c0.2265625-2.1191406-0.5996094-4.0947266-2.103508-5.03125c-1.5761719-0.9804688-3.8554688-0.8095703-6.0966797,0.4521484   C120.5460587,30.0752926,120.9082413,30.7242908,121.3445053,30.4848213z"/><path d="M69.8425522,22.5951729c-1.7871094-1.8544922-3.9208984-2.6689453-5.7109375-2.1835938   c-1.7109375,0.4658203-3.0683594,2.1210938-3.4580078,4.2167969c-0.3837891,2.0546875,0.1601563,4.1513672,0.6035156,5.5507813   c0.1501389,0.4735241,0.8643456,0.2453041,0.7148438-0.2265625c-0.6650391-2.1005859-0.8496094-3.7490234-0.5810547-5.1875   c0.3320313-1.7861328,1.5048828-3.2451172,2.9179688-3.6289063c1.5224609-0.4179688,3.3808594,0.3251953,4.9726563,1.9785156   C69.6486435,23.4734592,70.1850815,22.9493523,69.8425522,22.5951729z"/><path d="M99.5700912,46.3305244c-0.3147202,0.3851738,0.2646866,0.858345,0.5800781,0.4765625   c0.6552734-0.7988281,1.4768066-1.4425049,2.3793945-1.951416c-1.8188934,2.6457481-0.5856705,7.0326881,2.0234375,6.5996094   c0.5185547-0.0997314,0.9970703-0.4089355,1.4057617-0.8675537c1.7541199-2.0318222,1.367157-5.8029823-0.5849609-6.7636719   c1.4599609-0.2723389,2.9765625-0.2156982,4.3730469,0.2652588c0.4698334,0.1589813,0.7123032-0.5482712,0.2441406-0.7089844   C106.3757553,42.1342354,101.9939194,43.3773994,99.5700912,46.3305244z M103.8347397,49.9196358   c-0.5083008,0-0.9072266-0.6083984-0.8671875-1.3562012c0.0297852-0.7478027,0.4685059-1.3562012,0.9770508-1.3562012   c0.5185547,0,0.9072266,0.6083984,0.8776855,1.3562012C104.7922592,49.3112373,104.3435287,49.9196358,103.8347397,49.9196358z"/><path d="M72.3738022,43.9272041c1.3173828-0.4150391,2.7336426-0.4639893,4.1015625-0.2154541   c-2.1534195,0.7183228-2.6617661,4.7867737-0.8300781,6.8759766c1.8015823,2.0711555,4.417778,0.3605995,4.2775879-3.0313721   c-0.0529785-1.286377-0.5307617-2.4221191-1.2131348-3.144043c1.2407227,0.5710449,2.3530273,1.407959,3.1875,2.4807129   c0.2998581,0.3827133,0.8983765-0.064743,0.5917969-0.4609375c-2.3466797-3.0146484-6.6923828-4.3701172-10.3417969-3.2197266   C71.6789169,43.3607368,71.8935928,44.0733566,72.3738022,43.9272041z M76.7619858,49.9196358   c-0.5085449,0-0.9572754-0.6083984-0.9870605-1.3562012c-0.0300293-0.7478027,0.3591309-1.3562012,0.8776855-1.3562012   c0.5083008,0,0.9470215,0.6083984,0.9770508,1.3562012C77.6594467,49.3112373,77.2705307,49.9196358,76.7619858,49.9196358z"/><path d="M139.2536774,123.9828644h-4.666748c-2.0657959-1.1171722-4.3473969-0.8005447-6.5458984,0h-1.5417404   c0.2189941-1.6652832-0.2805176-3.4719238-0.9956055-4.6962891c-1.1653748-2.0077438-3.6384735-3.2577362-6.0373535-2.6733398   c0.5928345-4.046524,0.9040756-7.5517807,1.0917969-11.2473145c1.3426971-3.3513412,1.432663-6.3367767,1.4680176-6.5695801   c0.4541016-5.4189453,1.3994141-16.6962891-5.7568359-23.9306641c-0.0024414-0.0024414-0.0063477-0.0013428-0.0090332-0.0037842   l-0.1572266-0.3665771c5.7260971-6.521759,8.3567276-14.7996178,7.7675781-22.680172   c11.0732803-5.0303268,12.3380051-20.6380749,2.1350098-26.786377c-4.6867676-2.8227539-12.5085449-2.9089355-17.1533203,1.7727051   c-1.427063-0.916851-2.9612885-1.7499275-5.1953125-2.6627197l4.2958984-4.8355713   c0.2733231-0.3072052-0.0794983-0.7606926-0.4365234-0.5898438c-3.1123047,1.4306641-6.5380859,2.2304688-9.9648438,2.3310547   c1.8544922-1.9746094,3.2802734-4.3476563,4.1484375-6.9130869c0.12883-0.3820572-0.3577957-0.6715965-0.6318359-0.3730469   c-1.9541016,2.1328125-4.4746094,3.6015635-7.1015625,5.0410166c-7.0358276,3.852953-7.6862869,3.1637383-11.6486816,4.3840332   c-3.0761719-5.8312988-10.5949707-7.9940195-15.9196777-6.6330566   c-11.4684067,2.9424477-14.8113441,18.2420998-5.6811523,26.217041c-3.867485,9.618988-2.2327271,20.9212456,4.1696777,29.5515099   c-0.089119,0.1047897,0.0044403-0.1055298-0.7336426,1.6077881c-2.536911-2.382431-6.3905907-1.3023682-9.6835938-0.1292725   c-3.3779297,1.2050781-5.5908203,2.9541016-6.5791016,5.1972656c-0.5458984,1.2369385-0.4572754,2.6220703,0.1755371,3.8894043   c-2.871582,1.5439453-5.597168,3.3283691-7.6716309,4.7268066c-6.6464844,4.5166016-14.1064472,10.1982422-19.0439472,18.1015625   c-5.1953125,8.3339844-6.4052725,17.8515625-3.2392578,25.4609375c1.6708984,4.0126953,5.1181641,8.578125,9.0576172,9.7285156   c16.7890301,4.8772125,35.5261765-2.9241791,47.050293-16.1689453h39.9824219   c-0.0346832,4.2084198,1.5374146,8.4358215,3.8217773,11.9912109c1.0274887,1.6029816,2.8950119,2.4353638,4.7246094,2.1376953   c4.6357422-0.7333984,8.9072189-3.015625,12.0273361-6.4257813h0.0009766   c2.2479248-2.4675751,3.2263489-5.4651947,0.8696289-7.703125h3.6079102   C139.7496948,124.7328644,139.75,123.9828644,139.2536774,123.9828644z M117.9946518,124.9759064   c0.348877-0.4986572,1.0270996-0.6182861,1.5158691-0.269165c0.4985352,0.3487549,0.6179199,1.0268555,0.269043,1.515625   c-0.3491211,0.4885254-1.0270996,0.6081543-1.515625,0.269043   C117.7654037,126.1425323,117.6455307,125.4645538,117.9946518,124.9759064z M119.4206772,122.9416046   c-0.6982422-0.4885254-0.7280273-1.6552734-0.0600586-2.6125488c0.6682129-0.9472656,1.7749023-1.3162842,2.4729004-0.8276367   c0.697998,0.4887695,0.7282715,1.6552734,0.0598145,2.6125488   C121.2253647,123.0612335,120.1184311,123.4302521,119.4206772,122.9416046z M61.4992905,42.8133125   c1.4323463-2.956604,3.9417801-6.0345879,6.0141602-8.645874c0.3068695-0.38591-0.2769241-0.8553085-0.5878906-0.4648438   c-2.0330505,2.5603485-4.4101715,5.4853668-5.8886719,8.3564453c-8.4203453-7.5764084-5.3115997-21.9959927,5.546875-24.7822266   c5.5073395-1.4118452,12.8122864,1.3069019,15.3388672,6.734375c0.0009766,0.0029297,0.0371094,0.078125,0.0390625,0.0800781   c0.1527328,0.3054695,0.6740723,0.2143726,0.6740723-0.2194824c3.9244461-1.1967354,4.4587936-0.453886,11.6901855-4.4143066   c2.1552734-1.1806641,4.2412109-2.3828125,6.03125-3.9580088c-0.9492188,2.1162119-2.3027344,4.0488291-3.9726563,5.6611338   c-0.2260971,0.2180233-0.1541061,0.6482468,0.4238281,0.6455078c3.2246094,0,6.4697266-0.6064453,9.4853516-1.7646484   l-5.8212891,6.5527344c-0.3292084,0.3689003,0.2284851,0.8694324,0.5605469,0.4980469l2.0986328-2.3623047   c2.1195526,0.8460732,3.7400894,1.7007675,5.2182617,2.6420898c-0.2114029,0.4224548,0.3141022,0.7181091,0.5913086,0.4116211   c4.1788025-4.721508,11.859375-5.014164,16.6777344-2.1123047c9.5835648,5.7752666,8.4986801,20.4319077-1.7890625,25.3417969   c-0.7159653-3.4455681-1.798912-6.0867844-3.2431641-9.6982422c-0.1845856-0.4602966-0.8797226-0.1834831-0.6972656,0.2773438   l0.2050781,0.5117188c3.2387314,8.1011543,2.8641205,8.5093765,2.9414063,8.7441406   c2.5974426,23.7736549-23.1083374,41.5770912-45.65625,30.8056602   C61.2158775,73.5328293,55.9632301,56.2232819,61.4992905,42.8133125z M48.5759506,79.2973175   c0.9023438-2.0478516,2.9697266-3.6601563,6.1455078-4.7929688c1.3310547-0.4746094,3.4941406-1.2460938,5.5029297-1.2460938   c5.0798111,0,6.8763351,5.9360657,1.6191406,9.7636719c-0.3615837,0.247818-0.3138351,0.2156754-0.3181152,0.2186279   c-0.0095215-0.0657959-0.0300293-0.130249-0.0754395-0.1854248c-0.9111328-1.1074219-1.3115234-2.6152344-1.0712891-4.0351563   c0.082386-0.4919586-0.658596-0.6101685-0.7402344-0.125c-0.2753906,1.6308594,0.1855469,3.3642578,1.2333984,4.6367188   c0.0268555,0.0327148,0.0615234,0.0532227,0.0957031,0.0744629c-1.5360222,0.940834-3.4497681,1.6862564-5.3378906,1.9398193   c-0.0007324-0.0880127-0.0239258-0.1773682-0.0869141-0.2476807c-1.0273438-1.1455078-1.2636719-2.9707031-0.5605469-4.3408203   c0.2273254-0.4451752-0.4456749-0.7794342-0.6679688-0.3417969c-0.8046875,1.5688477-0.5678711,3.6306152,0.5341797,5.003418   c-1.6568031,0.086586-3.4167213-0.2411194-4.6884766-1.2954102C48.8200912,83.195755,47.7009506,81.2816925,48.5759506,79.2973175z    M72.8806381,108.1393585c0.1682129,0.2984619,0.3168945,0.6079102,0.4516602,0.9204102   c0.9165039,2.5637207-0.8037109,5.1923828-2.4106445,6.9465332c-2.7626953,3.0126953-6.2890625,5.3603516-10.2060547,6.7958984   c-8.3681221-2.9793015-13.8291473-13.3931198-13.1435547-22.8242188c3.2613029-4.5855408,8.8537102-4.0790024,11.2060547-0.0205078   c1.1533203,1.9746094,1.7519531,5.1210938,0.6660156,7.3115234c-0.1546707,0.3136368,0.1649323,0.6532059,0.4931641,0.5078125   c3.0958633-1.4268112,5.9951019-2.7279587,9.3271484-2.0390625   C70.821312,106.0733185,72.1389389,106.9480743,72.8806381,108.1393585z M72.95681,125.0209503   c-12.5361328,13.6113281-30.4267578,19.5625-45.578125,15.1601563c-3.6806641-1.0742188-7.0253906-5.5722656-8.5742188-9.296875   c-3.0742178-7.3847656-1.8847656-16.6464844,3.1826172-24.7753906   c4.8632813-7.7841797,12.2470722-13.4052734,18.8281269-17.8769531c2.0627441-1.3916016,4.776123-3.1674805,7.6271973-4.6992188   c0.9332619,1.3843079,2.1601524,2.1746063,3.6906738,2.5714111c-2.8262939,3.4896698-4.8586197,7.2893066-5.6557617,12.0057373   c-1.3212891,7.8427734,1.375,16.1884766,7.0361328,21.7783203c5.4510765,5.3957596,13.660202,6.9642868,18.8710938,1.1494141   c6.5700455-7.3507996-0.6107941-15.9706116-0.6640625-16.1357422c-1.9720383-2.7012177-4.6389389-5.5591202-6.0712891-8.4238281   c-1.3173904-2.6157227-1.2736511-9.3383942-3.1140137-13.0389404c0.4753418-0.3648682,0.958252-0.7921143,1.4013672-1.2845459   c2.3603592,4.3240204,1.7138214,8.9876938,3.5847168,13.4318848   C71.2928772,104.4988098,86.5878906,110.2084656,72.95681,125.0209503z M79.1687241,112.5355988   c-0.896843-7.2741852-8.2891922-10.9334488-10.9560547-17.2412109c-1.8333435-4.3539124-1.1906128-9.33638-3.7646484-13.7694092   c1.7867889-2.4183044,1.6197128-5.2230072,0.2587891-6.9959717c0.1928711-0.4528809,0.3876953-0.9036865,0.5888672-1.3518066   c0.5651245,0.5053406,0.7597809,0.6552963,0.861084,0.7407227c12.6052933,14.9034119,35.8804703,15.7958832,49.3884277,1.1800537   c0.0541611,0.1004791,0.0454788,0.1790924,0.1826172,0.2745361c0.005127,0.0058594,0.0026855,0.0148926,0.0083008,0.0205078   c6.1957932,6.2640686,6.2049484,15.4379272,5.5009766,23.8369141c-0.4465332,5.4501724-3.0206223,10.1594696-6.5449219,12.953125   c-7.7646484,6.1542969-19.0048828,3.2539063-23.4746094,1.7216797c-4.6102295-1.5810242-9.0858841-4.1021957-9.2104492-8.9588623   c1.015625-0.0797119,2.0732422,0.208252,2.878418,0.8250732c0.3915863,0.3007889,0.8510666-0.2934418,0.4550781-0.5957031   c-0.9433594-0.7226563-2.1342773-1.0554199-3.3146973-0.9775391c0.080246-0.9575119,0.3683243-1.9004211,0.9187012-2.6882324   c0.0024414-0.0001221,0.0039063,0.0008545,0.0063477,0.0007324c1.0732422-0.0751953,2.1933594,0.1660156,3.1621094,0.6894531   c0.4379959,0.234108,0.7901077-0.4253998,0.3554688-0.6601563c-0.8796387-0.4748535-1.8742676-0.7363281-2.859375-0.7772217   c3.1364594-2.8000412,7.7939377-0.0002594,11.9257813,0.8338623c2.2988281,0.4658203,4.7451172,0.2597656,7.0761719-0.5878906   c0.4661331-0.17099,0.20784-0.8765106-0.2578125-0.7050781c-2.0571289,0.7496338-4.2043457,0.9592285-6.2446289,0.6281738   c2.6799164-3.7490158,0.4213943-6.8901291-2.8354492-7.279541c-1.9824219-0.2568359-3.8466797,0.4345703-5.5263672,1.1865234   c0.4033203-1.6445313-0.0761719-3.5585938-0.7988281-4.8115234c-2.2079849-3.7927933-7.6487045-3.3404541-9.5957031,1.2919922   c-1.7917633,4.3762436,0.1785507,10.4109802,2.7841797,14.4755859c0.3808594,0.590332,0.9003906,1.0722656,1.5012207,1.4133301   c1.2555695,3.9660568,5.4090881,6.058754,9.3366699,7.4060059c11.1172485,3.811554,23.2277603,2.9968491,28.7202148-7.390625   c-0.1851044,2.9379272-0.4810791,5.9700775-1.0336914,9.6525879c-2.2910995,0.9423599-4.1805954,3.2884521-4.4309082,7.1071777   H74.8503647C78.1914291,119.9079132,79.609642,116.1483917,79.1687241,112.5355988z M87.2497787,95.8900909   c1.9801483-0.9150696,4.2348175-1.9227066,6.4033203-1.4101563c1.0546875,0.2324219,1.9453125,0.8222656,2.4433594,1.6152344   c0.8327637,1.3518066,0.5576172,2.923584-0.7963867,4.6704102c-4.0164261-0.9201202-8.1937332-3.2713013-11.6108398-1.0131836   c-2.0387115,1.3463898-2.7333145,3.8892212-2.3144531,6.3518066c-1.8590698-1.6880951-5.3679504-9.5181198-3.3300781-14.4973145   c1.6965103-4.0346069,6.3382187-4.4916992,8.2539063-1.2041016c0.7832031,1.3574219,1.1923828,3.5039063,0.4580078,4.9794922   C86.6026382,95.6945038,86.9191208,96.0346222,87.2497787,95.8900909z"/><path d="M82.1716537,38.8637276c1.8154297,0.7832031,3.3623047,2.1572266,4.3554688,3.8662109   c0.2456131,0.4254951,0.8974991,0.0490112,0.6484375-0.3769531c-1.0732422-1.8466797-2.7451172-3.3310547-4.7070313-4.1787109   C82.0149155,37.9822693,81.7144012,38.6644135,82.1716537,38.8637276z"/><path d="M90.0827866,43.4291573c-0.0512924,0.4919357,0.6928177,0.5779305,0.7460938,0.078125   c0.4443359-4.2441406-0.5566406-8.5761719-2.8164063-12.1962891c-0.2621841-0.4199562-0.8989334-0.024929-0.6367188,0.3964844   C89.5486069,35.1869698,90.5095444,39.3500557,90.0827866,43.4291573z"/><path d="M94.8073959,43.8744698c1.2490234-2.7773438,3.4042969-5.1201172,6.0693359-6.5947266   c0.4357071-0.2412796,0.0686188-0.8977432-0.3632813-0.65625c-2.8056641,1.5527344-5.0751953,4.0185547-6.3896484,6.9443359   C93.9206543,44.0184898,94.6049118,44.3268929,94.8073959,43.8744698z"/></g><text x="0" y="171" fill="#000000" font-size="5px" font-weight="bold" font-family="'Helvetica Neue', Helvetica, Arial-Unicode, Arial, Sans-serif"></text><text x="0" y="176" fill="#000000" font-size="5px" font-weight="bold" font-family="'Helvetica Neue', Helvetica, Arial-Unicode, Arial, Sans-serif"></text></svg>