<svg xmlns="http://www.w3.org/2000/svg" xmlns:xlink="http://www.w3.org/1999/xlink" version="1.1" x="0px" y="0px" viewBox="0 0 66 82.5" enable-background="new 0 0 66 66" xml:space="preserve"><g><g><g><g><path d="M34.632,29.354c-2.519,0-5.213-0.455-8.008-1.351c-2.467-0.79-4.292-1.702-5.743-2.869      c-7.796-6.268-4.406-23.179,11.892-24.107c8.089-0.465,13.83,3.564,16.04,11.305c0.741,2.598,0.856,5.004,0.342,7.154      c-0.997,4.165-4.651,7.752-9.31,9.139C38.223,29.109,36.469,29.354,34.632,29.354z M32.829,2.026      c-8.352,0.476-12.061,4.878-13.703,8.487c-1.914,4.206-1.984,10.332,2.382,13.842c1.352,1.087,3.075,1.944,5.421,2.696      c4.643,1.487,8.98,1.704,12.631,0.617c4.882-1.454,10.806-6.248,8.292-15.06C45.855,5.617,40.697,1.582,32.829,2.026z"/></g></g><g><g><path d="M47.753,11.433c-0.275-0.017-0.485-0.254-0.468-0.53c0.018-0.274,0.237-0.489,0.53-0.468      c1.76,0.109,4.699,0.293,5.886-1.726c0.449-0.764,0.521-1.807,0.19-2.789c-0.288-0.853-0.867-1.694-1.722-2.498      c-2.878-2.712-4.936-0.661-6.327,3.075c-0.097,0.259-0.382,0.39-0.643,0.294c-0.259-0.097-0.391-0.385-0.294-0.643      c1.676-4.498,4.539-6.67,7.95-3.455c2.5,2.353,2.662,4.9,1.707,6.522C53.19,11.552,50.367,11.596,47.753,11.433z"/></g></g><g><g><path d="M18.271,11.577c-0.015,0-0.028-0.001-0.043-0.002c-1.055-0.089-2.178-0.217-3.24-0.55      c-4.381-1.372-4.8-5.29-3.478-7.537c2.361-4.016,8.582-3.032,10.026,2.666c0.068,0.268-0.094,0.54-0.361,0.608      c-0.272,0.067-0.539-0.095-0.608-0.362c-1.202-4.74-6.247-5.714-8.196-2.405c-1.013,1.725-0.817,4.906,2.915,6.076      c0.917,0.287,1.872,0.41,3.025,0.508c0.275,0.023,0.479,0.265,0.456,0.54C18.747,11.38,18.528,11.577,18.271,11.577z"/></g></g><g><g><path d="M35.577,27.421L35.577,27.421c-0.612,0-1.189-0.125-1.718-0.371c-0.356-0.166-1.04-0.741-1.377-0.741      c-1.019,0.155-1.703,0.848-2.89,0.88c-0.005,0-0.102,0.001-0.107,0.001c-2.043,0-3.958-1.595-4.454-3.71      c-0.45-1.916,0.258-4.131,1.803-5.643c2.765-2.705,7.91-3.133,11.112-1.055c1.788,1.16,2.928,3.088,2.975,5.034      c0.033,1.368-0.468,2.739-1.376,3.763C38.538,26.716,37.018,27.421,35.577,27.421z M32.482,25.31      c0.863,0,1.108,0.513,1.799,0.834c1.367,0.636,3.377,0.057,4.516-1.228c0.741-0.837,1.151-1.958,1.124-3.075      c-0.039-1.62-1.004-3.237-2.52-4.219c-2.8-1.816-7.43-1.455-9.868,0.931c-1.301,1.272-1.9,3.117-1.529,4.7      c0.387,1.648,1.916,2.938,3.481,2.938C30.487,26.165,31.609,25.31,32.482,25.31z"/></g></g><g><g><path d="M32.914,22.181L32.914,22.181c-1.179,0-2.242-1.06-2.685-1.686c-0.992-1.402-0.356-2.875,1.654-2.875l2.143,0.057      c1.768,0.051,2.181,1.145,1.783,2.297C35.35,21.297,33.975,22.181,32.914,22.181z M31.883,18.62      c-1.162,0-1.373,0.544-0.838,1.297c0.463,0.654,1.318,1.358,1.997,1.255c0.791-0.122,1.558-0.763,1.821-1.525      c0.287-0.831-0.11-0.948-0.867-0.97L31.883,18.62z"/></g></g><g><g><g><path d="M38.001,15.931c-0.674-0.882-0.752-2.188-0.191-3.176c0.344-0.605,1.074-0.966,1.956-0.966       c1.582,0,2.634,1.153,2.782,2.363c0.121,0.985-0.384,2.011-1.228,2.496C40.22,17.281,38.743,16.902,38.001,15.931z        M39.766,12.789c-0.517,0-0.923,0.172-1.087,0.46c-0.356,0.628-0.307,1.521,0.117,2.076c0.445,0.583,1.409,0.81,2.026,0.457       c0.497-0.286,0.806-0.919,0.733-1.507c-0.072-0.59-0.506-1.137-1.079-1.361C40.272,12.833,40.019,12.789,39.766,12.789z"/></g></g><g><g><path d="M40.978,15.064c-0.054,0-0.107-0.007-0.158-0.02c-0.186-0.045-0.344-0.165-0.431-0.334       c-0.099-0.195-0.092-0.427,0.02-0.623c0.111-0.196,0.308-0.321,0.525-0.335c0.133-0.002,0.276,0.029,0.393,0.104       c0.1,0.063,0.182,0.154,0.235,0.262c0.081,0.16,0.096,0.345,0.035,0.513c-0.01,0.028-0.021,0.054-0.035,0.08       c-0.021,0.042-0.047,0.081-0.076,0.118c-0.101,0.12-0.238,0.198-0.39,0.224C41.058,15.06,41.018,15.064,40.978,15.064z"/></g></g><g><g><path d="M40.134,13.855c-0.117,0-0.236-0.029-0.318-0.093c-0.096-0.056-0.17-0.141-0.212-0.242       c-0.023-0.049-0.037-0.101-0.036-0.156c-0.003-0.038-0.001-0.078,0.006-0.117c0.046-0.273,0.309-0.46,0.575-0.411l0.114,0.019       c0.226,0.037,0.397,0.222,0.418,0.45c0.021,0.228-0.117,0.44-0.333,0.516C40.284,13.843,40.209,13.855,40.134,13.855z"/></g></g></g><g><g><g><path d="M24.529,15.931c-0.674-0.882-0.752-2.188-0.191-3.176c0.344-0.605,1.074-0.966,1.955-0.966       c1.581,0,2.634,1.152,2.782,2.363c0.122,0.984-0.383,2.011-1.227,2.496C26.749,17.281,25.271,16.902,24.529,15.931z        M26.293,12.789c-0.517,0-0.922,0.172-1.086,0.46c-0.356,0.628-0.307,1.521,0.117,2.076c0.445,0.583,1.409,0.81,2.026,0.457       c0.497-0.286,0.805-0.919,0.732-1.506c-0.072-0.59-0.506-1.137-1.078-1.362C26.8,12.833,26.547,12.789,26.293,12.789z"/></g></g><g><g><path d="M27.507,15.064c-0.053,0-0.106-0.006-0.156-0.019c-0.188-0.044-0.348-0.167-0.434-0.338       c-0.099-0.192-0.091-0.425,0.021-0.62c0.11-0.195,0.307-0.321,0.524-0.335c0.132-0.004,0.273,0.028,0.389,0.102       c0.107,0.067,0.193,0.165,0.247,0.281c0.074,0.156,0.086,0.334,0.027,0.497c-0.013,0.037-0.029,0.071-0.048,0.105       c-0.019,0.034-0.041,0.066-0.066,0.096c-0.1,0.121-0.242,0.2-0.398,0.224C27.577,15.061,27.542,15.064,27.507,15.064z"/></g></g><g><g><path d="M26.662,13.855c-0.116,0-0.234-0.028-0.315-0.09c-0.103-0.058-0.181-0.151-0.221-0.259       c-0.019-0.041-0.029-0.084-0.03-0.129c-0.004-0.042-0.003-0.084,0.005-0.127c0.044-0.274,0.304-0.457,0.573-0.414l0.117,0.019       c0.226,0.037,0.397,0.222,0.418,0.45c0.021,0.228-0.117,0.44-0.333,0.516C26.812,13.843,26.737,13.855,26.662,13.855z"/></g></g></g><g><g><path d="M46.276,47.611c-0.281,0-0.563-0.019-0.844-0.058c-3.728-0.512-5.773-4.167-4.278-7.776      c0.996-2.405,3.339-4.169,6.428-4.841c0.272-0.056,0.536,0.113,0.595,0.382c0.059,0.27-0.112,0.536-0.382,0.595      c-2.765,0.601-4.848,2.148-5.716,4.246c-1.246,3.008,0.416,5.981,3.49,6.403c3.355,0.465,6.911-2.473,6.93-6.621      c0.011-2.514-1.234-5.028-3.505-7.079c-2.316-2.092-5.248-3.373-8.082-4.611c-0.605-0.264-0.206-1.182,0.4-0.916      c2.908,1.271,5.914,2.584,8.351,4.785c2.484,2.245,3.847,5.023,3.835,7.826c-0.01,2.275-0.944,4.354-2.633,5.854      C49.545,46.973,47.91,47.611,46.276,47.611z"/></g></g><g><g><path d="M18.861,47.723c-0.489,0-0.974-0.054-1.44-0.164c-2.379-0.561-4.416-2.663-5.068-5.231      c-1.109-4.36,1.331-9.09,6.367-12.344c2.027-1.31,4.253-2.298,6.404-3.253c0.252-0.111,0.548,0.001,0.66,0.254      c0.112,0.252-0.002,0.547-0.254,0.66c-2.117,0.94-4.307,1.912-6.267,3.179c-3.655,2.361-7.136,6.559-5.941,11.258      c1.936,7.615,12.193,4.727,10.891-0.97c-0.44-1.928-2.402-4.264-6.48-4.5c-0.275-0.016-0.486-0.252-0.47-0.528      c0.017-0.276,0.265-0.481,0.528-0.47c4.631,0.269,6.879,3.01,7.396,5.275c0.542,2.37-0.554,4.638-2.859,5.921      C21.248,47.41,20.039,47.723,18.861,47.723z"/></g></g><g><g><path d="M45.279,36.415c-2.901-3.808-8.496-4.251-11.962-0.984c-0.201,0.19-0.518,0.18-0.707-0.021      c-0.189-0.201-0.18-0.517,0.022-0.707c3.88-3.657,10.173-3.191,13.442,1.106c0.168,0.22,0.125,0.533-0.095,0.701      C45.758,36.678,45.445,36.635,45.279,36.415z"/></g></g><g><g><path d="M19.476,36.555c-0.189-0.201-0.181-0.517,0.02-0.707c4.252-4.016,11.798-4.817,14.259-0.559      c0.139,0.239,0.057,0.545-0.183,0.684c-0.237,0.137-0.545,0.057-0.683-0.183c-2.035-3.522-8.778-2.926-12.706,0.784      C19.981,36.766,19.663,36.756,19.476,36.555z"/></g></g><g><g><path d="M33.583,60.007c-0.071,0-0.143-0.015-0.208-0.045c-5.758-2.639-10.612-7.147-13.671-12.694      c-0.321-0.579,0.559-1.061,0.875-0.482c2.919,5.293,7.529,9.607,13.001,12.17c5.267-2.532,9.562-6.952,11.806-12.159      c0.108-0.254,0.403-0.371,0.657-0.261c0.253,0.109,0.37,0.403,0.261,0.657c-2.367,5.497-6.927,10.151-12.509,12.768      C33.728,59.991,33.655,60.007,33.583,60.007z"/></g></g><g><g><g><g><path d="M45.619,63.352c-6.54-4.589-3.947-14.355,1.449-13.184c0.002,0,0.004,0.001,0.006,0.001        c1.038-1.077,2.359-1.881,3.809-2.27c4.026-1.081,6.937,1.443,7.618,4.889c0.776,3.929-1.47,10.094-5.199,11.689        C50.846,65.528,47.895,64.949,45.619,63.352z M46.304,51.093c-0.852,0.015-1.755,0.446-2.379,1.168        c-1.878,2.176-1.827,7.399,2.269,10.272c2.125,1.492,4.699,1.885,6.715,1.024c3.27-1.398,5.302-7.078,4.611-10.575        c-0.596-3.016-3.034-5.014-6.378-4.117c-2.235,0.6-4.122,2.321-4.926,4.492c-0.095,0.259-0.382,0.393-0.643,0.295        c-0.259-0.096-0.391-0.383-0.295-0.642C45.532,52.327,45.88,51.682,46.304,51.093z"/></g></g><g><g><path d="M49.097,63.207c-0.721-0.687-1.061-1.77-1.011-3.221c0.104-3.054,1.446-5.774,3.986-8.085        c1.204-1.093,2.351-1.526,3.387-1.286c1.038,0.241,1.878,1.178,2.14,2.386c0.543,2.51-1.883,8.934-4.581,10.473        C51.785,64.176,50.12,64.18,49.097,63.207z M52.745,52.641c-2.333,2.123-3.564,4.606-3.659,7.379        c-0.04,1.153,0.195,1.981,0.7,2.462c0.701,0.667,1.899,0.601,2.735,0.124c2.296-1.31,4.55-7.31,4.1-9.393        c-0.148-0.682-0.636-1.448-1.39-1.624C54.346,51.385,53.415,52.032,52.745,52.641z"/></g></g></g><g><g><g><path d="M7.485,52.789c0.845-4.287,4.864-6.49,9.183-4.282c0.85,0.435,1.608,0.998,2.25,1.663c0,0,0,0,0.001,0        c1.069-0.232,2.234,0.055,3.195,0.785c4.187,3.188,2.132,12.803-5.593,13.944C9.153,65.985,6.703,56.737,7.485,52.789z         M8.466,52.983c-0.649,3.281,1.317,11.895,7.909,10.926c6.883-1.017,8.59-9.529,5.134-12.159        c-0.549-0.417-1.199-0.647-1.821-0.657c0.422,0.588,0.766,1.232,1.019,1.918c0.096,0.259-0.036,0.546-0.295,0.642        c-0.262,0.097-0.548-0.037-0.643-0.295c-0.63-1.703-1.894-3.11-3.558-3.961C12.491,47.494,9.183,49.355,8.466,52.983z"/></g></g><g><g><path d="M14.846,63.987L14.846,63.987c-0.944,0-2.769-0.437-4.386-3.363c-1.046-1.889-2.536-5.487-2.071-7.622        c0.255-1.179,1.207-2.447,2.697-2.447c2.314,0,6.634,4.165,6.815,9.432c0.049,1.452-0.292,2.535-1.012,3.221        C16.369,63.702,15.624,63.987,14.846,63.987z M11.086,51.554c-0.935,0-1.548,0.86-1.721,1.659        c-0.397,1.833,1.056,5.276,1.97,6.927c1.746,3.158,3.882,3.281,4.865,2.343c0.504-0.48,0.74-1.309,0.701-2.462        C16.739,55.31,12.832,51.554,11.086,51.554z"/></g></g></g></g><g><g><path d="M23.039,59.025c-0.228-0.157-0.284-0.469-0.127-0.696c0.156-0.228,0.468-0.283,0.695-0.126      c5.563,3.851,15.929,2.725,18.561-0.09c0.189-0.2,0.505-0.212,0.707-0.024c0.201,0.189,0.212,0.505,0.023,0.707      C39.986,61.91,29.072,63.201,23.039,59.025z"/></g></g><g><g><path d="M46.505,50.984c-0.008,0-0.016,0-0.023,0c-0.276-0.013-0.489-0.248-0.476-0.523c0.132-2.775-0.094-3.86,0.681-3.811      c0.276,0.013,0.489,0.248,0.476,0.523l-0.158,3.336C46.991,50.776,46.77,50.984,46.505,50.984z"/></g></g><g><g><path d="M19.223,51.075c-0.245,0-0.46-0.181-0.494-0.432c-0.164-1.188-0.091-2.43,0.213-3.592      c0.167-0.641,1.134-0.384,0.967,0.252c-0.27,1.037-0.336,2.145-0.189,3.204c0.038,0.273-0.153,0.526-0.427,0.563      C19.268,51.074,19.246,51.075,19.223,51.075z"/></g></g></g><g><g><path d="M36.962,22.684c-0.276,0-0.55-0.224-0.55-0.5c0-0.276,0.174-0.5,0.45-0.5h0.1c0.276,0,0.5,0.224,0.5,0.5     C37.462,22.461,37.238,22.684,36.962,22.684z"/></g></g><g><g><path d="M35.504,23.646c-0.276,0-0.5-0.224-0.5-0.5s0.224-0.533,0.5-0.533c0.276,0,0.5,0.19,0.5,0.467v0.066     C36.004,23.422,35.78,23.646,35.504,23.646z"/></g></g><g><g><path d="M37.049,24.373c-0.067,0-0.136-0.015-0.203-0.047l0.149-0.484l0.224-0.447c0.001,0,0.024,0.012,0.025,0.013     c0.244,0.124,0.365,0.432,0.244,0.678C37.399,24.264,37.23,24.373,37.049,24.373z"/></g></g><g><g><path d="M28.449,22.228c-0.175,0-0.336-0.09-0.418-0.261l0.421-0.284l0.459-0.199c0,0,0.004,0.01,0.004,0.011     c0.108,0.25,0.01,0.569-0.238,0.683C28.601,22.211,28.524,22.228,28.449,22.228z"/></g></g><g><g><path d="M29.669,23.646c-0.132,0-0.263-0.052-0.361-0.154c-0.188-0.197-0.201-0.524-0.009-0.716     c0.192-0.192,0.486-0.212,0.683-0.024c0.006,0.005,0.044,0.043,0.049,0.048c0.191,0.2,0.184,0.516-0.016,0.707     C29.918,23.6,29.793,23.646,29.669,23.646z"/></g></g><g><g><path d="M28.111,24.076c-0.276,0-0.517-0.224-0.517-0.5c0-0.276,0.207-0.5,0.483-0.5h0.033c0.276,0,0.5,0.224,0.5,0.5     C28.611,23.853,28.388,24.076,28.111,24.076z"/></g></g><g><g><path d="M38.342,28.475l-0.83-0.83c-0.098-0.098-0.098-0.256,0-0.354c0.097-0.097,0.255-0.098,0.354,0l0.83,0.83     c0.098,0.098,0.098,0.256,0,0.354C38.596,28.574,38.438,28.572,38.342,28.475z"/></g></g><g><g><path d="M39.832,28.138l-1.071-1.071c-0.098-0.098-0.098-0.256,0-0.354c0.098-0.098,0.256-0.098,0.354,0l1.071,1.071     c0.098,0.098,0.098,0.256,0,0.354C40.088,28.235,39.93,28.237,39.832,28.138z"/></g></g><g><g><path d="M41.038,27.503l-1.121-1.121c-0.098-0.098-0.098-0.256,0-0.354c0.098-0.098,0.256-0.098,0.354,0l1.121,1.121     c0.098,0.098,0.098,0.256,0,0.354C41.294,27.6,41.136,27.601,41.038,27.503z"/></g></g><g><g><path d="M42.301,26.667l-0.927-0.927c-0.098-0.098-0.098-0.256,0-0.354c0.099-0.099,0.257-0.097,0.353,0l0.927,0.927     c0.098,0.098,0.098,0.256,0,0.354C42.558,26.763,42.4,26.766,42.301,26.667z"/></g></g><g><g><path d="M43.54,25.677l-0.924-0.923c-0.098-0.098-0.098-0.256,0-0.354c0.098-0.098,0.256-0.098,0.354,0l0.924,0.923     c0.098,0.098,0.098,0.256,0,0.354C43.795,25.776,43.636,25.774,43.54,25.677z"/></g></g><g><g><path d="M44.747,24.871l-1.102-1.103c-0.098-0.098-0.098-0.256,0-0.354c0.098-0.098,0.256-0.098,0.353,0l1.103,1.103     c0.098,0.098,0.098,0.256,0,0.354C45.003,24.968,44.845,24.97,44.747,24.871z"/></g></g><g><g><path d="M46.122,23.633l-1.321-1.321c-0.098-0.098-0.098-0.256,0-0.354c0.098-0.098,0.256-0.098,0.353,0l1.321,1.321     c0.098,0.098,0.098,0.256,0,0.354C46.378,23.73,46.22,23.731,46.122,23.633z"/></g></g><g><g><path d="M46.734,22.232l-1.505-1.505c-0.098-0.098-0.098-0.256,0-0.354c0.098-0.098,0.256-0.098,0.354,0l1.505,1.505     c0.098,0.098,0.098,0.256,0,0.354C46.991,22.329,46.833,22.33,46.734,22.232z"/></g></g><g><g><path d="M47.419,21.117l-1.676-1.676c-0.098-0.098-0.098-0.256,0-0.354c0.098-0.098,0.256-0.098,0.354,0l1.676,1.676     c0.098,0.098,0.098,0.256,0,0.354C47.675,21.214,47.517,21.216,47.419,21.117z"/></g></g><g><g><path d="M48.35,19.178l-1.921-1.921c-0.098-0.098-0.098-0.256,0-0.354c0.098-0.098,0.256-0.098,0.354,0l1.921,1.921     c0.098,0.098,0.098,0.256,0,0.354C48.606,19.275,48.448,19.276,48.35,19.178z"/></g></g><g><g><path d="M48.38,17.365l-1.693-1.694c-0.098-0.098-0.098-0.256,0-0.354c0.098-0.098,0.256-0.098,0.353,0l1.693,1.694     c0.098,0.098,0.098,0.256,0,0.354C48.637,17.462,48.479,17.464,48.38,17.365z"/></g></g><g><g><path d="M48.581,15.596l-1.467-1.467c-0.098-0.098-0.098-0.256,0-0.353c0.098-0.098,0.256-0.098,0.353,0l1.467,1.467     c0.098,0.098,0.098,0.256,0,0.354C48.837,15.693,48.679,15.695,48.581,15.596z"/></g></g><g><g><path d="M48.305,13.478l-1.361-1.362c-0.098-0.098-0.098-0.256,0-0.354c0.098-0.099,0.256-0.097,0.354,0l1.361,1.362     c0.098,0.098,0.098,0.256,0,0.354C48.562,13.574,48.404,13.577,48.305,13.478z"/></g></g><g><g><path d="M36.276,27.924c-0.098-0.098-0.098-0.256,0-0.354c0.099-0.099,0.257-0.097,0.354,0l0.514,0.514     c0.098,0.098,0.098,0.256,0,0.354C36.883,28.699,36.538,28.186,36.276,27.924z"/></g></g><g><g><path d="M36.318,28.567c-0.098-0.098-0.098-0.256,0-0.354l1.43-1.429c0.098-0.098,0.256-0.097,0.354,0     c0.098,0.098,0.098,0.256,0,0.354l-1.43,1.429C36.575,28.663,36.417,28.666,36.318,28.567z"/></g></g><g><g><path d="M37.603,28.61c-0.098-0.098-0.098-0.256,0-0.354l3.188-3.187c0.098-0.098,0.256-0.098,0.354,0     c0.098,0.098,0.098,0.256,0,0.354l-3.188,3.187C37.86,28.707,37.702,28.708,37.603,28.61z"/></g></g><g><g><path d="M39.96,27.753c-0.098-0.098-0.098-0.256,0-0.354l5.067-5.066c0.098-0.098,0.256-0.098,0.354,0     c0.098,0.098,0.098,0.256,0,0.353l-5.067,5.066C40.216,27.85,40.058,27.851,39.96,27.753z"/></g></g><g><g><path d="M44.164,25.256c-0.064,0-0.128-0.024-0.177-0.073c-0.098-0.098-0.098-0.256,0-0.354l2.506-2.506     c0.232-0.232,0.588,0.119,0.354,0.354C46.726,22.797,44.332,25.256,44.164,25.256z"/></g></g><g><g><path d="M45.143,20.674l2.468-2.468c0.098-0.098,0.256-0.098,0.354,0c0.098,0.098,0.098,0.256,0,0.354l-2.468,2.468     C45.263,21.261,44.911,20.906,45.143,20.674z"/></g></g><g><g><path d="M46.258,17.771c-0.098-0.098-0.098-0.256,0-0.354l1.944-1.945c0.234-0.234,0.586,0.121,0.354,0.354l-1.944,1.945     C46.514,17.868,46.356,17.869,46.258,17.771z"/></g></g><g><g><path d="M46.728,14.987c-0.098-0.098-0.098-0.256,0-0.353l1.35-1.35c0.098-0.098,0.256-0.098,0.354,0     c0.098,0.098,0.098,0.256,0,0.354l-1.35,1.35C46.985,15.084,46.827,15.085,46.728,14.987z"/></g></g><g><g><path d="M47.993,12.789c-0.383,0-1.037,0.113-1.037-0.25c0-0.138,0.112-0.25,0.25-0.25h0.787c0.138,0,0.25,0.112,0.25,0.25     C48.243,12.677,48.131,12.789,47.993,12.789z"/></g></g><g><g><path d="M48.951,10.998c-0.167,0-1.561-1.457-1.679-1.575c-0.098-0.098-0.098-0.256,0-0.353c0.098-0.098,0.256-0.098,0.354,0     l1.502,1.502c0.098,0.098,0.098,0.256,0,0.353C49.079,10.973,49.016,10.998,48.951,10.998z"/></g></g><g><g><path d="M50.36,10.802l-1.379-1.379c-0.098-0.098-0.098-0.256,0-0.353c0.099-0.098,0.257-0.097,0.354,0l1.379,1.379     c0.098,0.098,0.098,0.256,0,0.354C50.617,10.898,50.459,10.901,50.36,10.802z"/></g></g><g><g><path d="M51.649,10.173l-1.469-1.469c-0.098-0.098-0.098-0.256,0-0.353c0.098-0.098,0.256-0.098,0.354,0l1.469,1.469     c0.098,0.098,0.098,0.256,0,0.353C51.906,10.269,51.748,10.271,51.649,10.173z"/></g></g><g><g><path d="M53.059,9.424l-1.74-1.74c-0.098-0.098-0.098-0.256,0-0.353c0.098-0.098,0.256-0.098,0.354,0l1.74,1.74     c0.098,0.098,0.098,0.256,0,0.353C53.316,9.521,53.158,9.522,53.059,9.424z"/></g></g><g><g><path d="M53.945,8.331l-1.307-1.306c-0.098-0.098-0.098-0.256,0-0.353c0.097-0.097,0.255-0.099,0.354,0l1.307,1.306     c0.098,0.098,0.098,0.256,0,0.353C54.2,8.43,54.042,8.427,53.945,8.331z"/></g></g><g><g><path d="M53.828,6.685l-1.01-1.01c-0.098-0.098-0.098-0.256,0-0.353c0.098-0.098,0.256-0.098,0.354,0l1.01,1.01     c0.098,0.098,0.098,0.256,0,0.353C54.085,6.782,53.926,6.784,53.828,6.685z"/></g></g><g><g><path d="M48.202,10.382c-0.098-0.098-0.098-0.256,0-0.354l2.023-2.023c0.099-0.099,0.257-0.097,0.354,0     c0.098,0.098,0.098,0.256,0,0.354l-2.023,2.023C48.459,10.479,48.3,10.48,48.202,10.382z"/></g></g><g><g><path d="M50.03,10.592c-0.098-0.098-0.098-0.256,0-0.354l2.429-2.429c0.098-0.098,0.256-0.098,0.354,0     c0.098,0.098,0.098,0.256,0,0.354l-2.429,2.429C50.287,10.689,50.128,10.69,50.03,10.592z"/></g></g><g><g><path d="M52.549,7.054c-0.098-0.098-0.098-0.256,0-0.353L53.54,5.71c0.098-0.098,0.256-0.098,0.354,0     c0.098,0.098,0.098,0.256,0,0.354l-0.991,0.991C52.805,7.151,52.647,7.153,52.549,7.054z"/></g></g><g><g><path d="M17.844,10.574l-1.861-1.862c-0.098-0.098-0.098-0.256,0-0.354c0.098-0.098,0.256-0.097,0.353,0l1.861,1.862     c0.098,0.098,0.098,0.256,0,0.354C18.101,10.67,17.943,10.673,17.844,10.574z"/></g></g><g><g><path d="M19.186,9.276L17.541,7.63c-0.098-0.098-0.098-0.256,0-0.354c0.098-0.098,0.256-0.098,0.353,0l1.646,1.646     c0.098,0.098,0.098,0.256,0,0.354C19.443,9.373,19.285,9.374,19.186,9.276z"/></g></g><g><g><path d="M19.578,7.633L18.19,6.245c-0.098-0.098-0.098-0.256,0-0.353c0.098-0.098,0.256-0.098,0.354,0l1.388,1.388     c0.098,0.098,0.098,0.256,0,0.354C19.835,7.73,19.676,7.731,19.578,7.633z"/></g></g><g><g><path d="M20.365,6.731l-1.439-1.439c-0.098-0.098-0.098-0.256,0-0.353c0.098-0.098,0.256-0.098,0.353,0l1.439,1.439     c0.098,0.098,0.098,0.256,0,0.353C20.622,6.828,20.463,6.829,20.365,6.731z"/></g></g><g><g><path d="M15.56,10.368l-1.31-1.31c-0.098-0.098-0.098-0.256,0-0.354c0.099-0.099,0.257-0.097,0.354,0l1.309,1.31     c0.098,0.098,0.098,0.256,0,0.354C15.817,10.465,15.659,10.467,15.56,10.368z"/></g></g><g><g><path d="M14.251,10.141c-0.098-0.098-0.098-0.256,0-0.353l1.851-1.851c0.098-0.098,0.256-0.098,0.354,0     c0.098,0.098,0.098,0.256,0,0.353l-1.851,1.851C14.507,10.238,14.349,10.239,14.251,10.141z"/></g></g><g><g><path d="M15.982,10.134l2.49-2.49c0.098-0.098,0.256-0.098,0.354,0c0.098,0.098,0.098,0.256,0,0.354l-2.49,2.49     C16.102,10.721,15.75,10.366,15.982,10.134z"/></g></g><g><g><path d="M18.58,6.851c-0.098-0.098-0.098-0.256,0-0.354l0.974-0.974c0.097-0.097,0.255-0.098,0.354,0     c0.098,0.098,0.098,0.256,0,0.353l-0.974,0.974C18.836,6.948,18.678,6.949,18.58,6.851z"/></g></g><g><g><path d="M45.563,46.99l-2.494-2.495c-0.098-0.098-0.098-0.256,0-0.353c0.098-0.098,0.256-0.098,0.354,0l2.494,2.495     c0.098,0.098,0.098,0.256,0,0.354C45.82,47.088,45.662,47.089,45.563,46.99z"/></g></g><g><g><path d="M47.434,46.854c-0.169,0-2.304-2.201-2.424-2.32c-0.098-0.098-0.098-0.256,0-0.354c0.098-0.098,0.256-0.098,0.354,0     l2.247,2.247c0.098,0.098,0.098,0.256,0,0.354C47.562,46.83,47.499,46.854,47.434,46.854z"/></g></g><g><g><path d="M48.825,45.949l-1.796-1.796c-0.098-0.098-0.098-0.256,0-0.354c0.098-0.098,0.256-0.098,0.354,0l1.796,1.796     c0.098,0.098,0.098,0.256,0,0.354C49.082,46.047,48.923,46.048,48.825,45.949z"/></g></g><g><g><path d="M50.163,44.888l-1.726-1.725c-0.098-0.098-0.098-0.256,0-0.354c0.098-0.098,0.256-0.098,0.354,0l1.726,1.725     c0.098,0.098,0.098,0.256,0,0.354C50.419,44.985,50.261,44.987,50.163,44.888z"/></g></g><g><g><path d="M51.425,43.877c-0.065,0-0.128-0.024-0.177-0.073l-1.249-1.25c-0.234-0.234,0.122-0.586,0.353-0.354l1.249,1.25     c0.098,0.098,0.098,0.256,0,0.354C51.553,43.852,51.488,43.877,51.425,43.877z"/></g></g><g><g><path d="M52.004,42.54l-1.586-1.585c-0.098-0.098-0.098-0.256,0-0.354c0.098-0.098,0.256-0.098,0.354,0l1.586,1.586     c0.098,0.098,0.098,0.256,0,0.354C52.26,42.637,52.102,42.639,52.004,42.54z"/></g></g><g><g><path d="M43.107,46.247c-0.098-0.098-0.098-0.256,0-0.353l2.554-2.554c0.098-0.098,0.256-0.098,0.354,0     c0.098,0.098,0.098,0.256,0,0.354l-2.554,2.554C43.364,46.344,43.206,46.346,43.107,46.247z"/></g></g><g><g><path d="M44.744,46.209c-0.098-0.098-0.098-0.256,0-0.354l2.779-2.779c0.098-0.098,0.256-0.098,0.354,0     c0.098,0.098,0.098,0.256,0,0.354l-2.779,2.779C45.001,46.306,44.842,46.307,44.744,46.209z"/></g></g><g><g><path d="M46.801,46.4c-0.098-0.098-0.098-0.256,0-0.354l3.158-3.158c0.098-0.098,0.256-0.098,0.354,0     c0.098,0.098,0.098,0.256,0,0.354L47.154,46.4C47.057,46.497,46.899,46.498,46.801,46.4z"/></g></g><g><g><path d="M50.304,42.287c-0.098-0.098-0.098-0.256,0-0.353l1.501-1.502c0.098-0.098,0.256-0.098,0.354,0     c0.098,0.098,0.098,0.256,0,0.354l-1.501,1.501C50.56,42.384,50.402,42.386,50.304,42.287z"/></g></g><g><g><path d="M17.762,46.788c-0.169,0-2.127-2.023-2.246-2.143c-0.098-0.098-0.098-0.256,0-0.354c0.098-0.098,0.256-0.098,0.354,0     l2.069,2.069c0.098,0.098,0.098,0.256,0,0.354C17.89,46.763,17.826,46.788,17.762,46.788z"/></g></g><g><g><path d="M20.177,46.691c-0.064,0-0.128-0.024-0.177-0.073l-2.027-2.027c-0.098-0.098-0.098-0.256,0-0.354     c0.098-0.098,0.256-0.098,0.354,0l2.027,2.027c0.098,0.098,0.098,0.256,0,0.354C20.305,46.666,20.241,46.691,20.177,46.691z"/></g></g><g><g><path d="M21.988,45.93l-1.668-1.667c-0.098-0.098-0.098-0.256,0-0.354c0.098-0.098,0.256-0.098,0.354,0l1.668,1.667     c0.098,0.098,0.098,0.256,0,0.354C22.245,46.027,22.086,46.029,21.988,45.93z"/></g></g><g><g><path d="M23.297,44.837l-1.12-1.12c-0.098-0.098-0.098-0.256,0-0.354c0.098-0.098,0.256-0.098,0.354,0l1.12,1.12     c0.098,0.098,0.098,0.256,0,0.354C23.551,44.936,23.393,44.933,23.297,44.837z"/></g></g><g><g><path d="M23.847,42.984l-0.796-0.796c-0.098-0.098-0.098-0.256,0-0.354c0.098-0.098,0.256-0.098,0.353,0l0.796,0.796     c0.098,0.098,0.098,0.256,0,0.354C24.103,43.081,23.945,43.082,23.847,42.984z"/></g></g><g><g><path d="M15.351,46.119c-0.098-0.098-0.098-0.256,0-0.354l1.748-1.748c0.098-0.098,0.256-0.098,0.354,0     c0.098,0.098,0.098,0.256,0,0.354l-1.748,1.748C15.608,46.216,15.45,46.218,15.351,46.119z"/></g></g><g><g><path d="M16.935,46.775c-0.098-0.098-0.098-0.256,0-0.354l2.502-2.502c0.098-0.098,0.256-0.098,0.354,0     c0.098,0.098,0.098,0.256,0,0.354l-2.502,2.502C17.192,46.872,17.034,46.873,16.935,46.775z"/></g></g><g><g><path d="M18.955,46.556c-0.098-0.098-0.098-0.256,0-0.354l3.576-3.576c0.098-0.098,0.256-0.098,0.353,0     c0.098,0.098,0.098,0.256,0,0.354l-3.576,3.576C19.211,46.653,19.053,46.655,18.955,46.556z"/></g></g><g><g><path d="M21.631,46.065c-0.098-0.098-0.098-0.256,0-0.354l2.379-2.379c0.098-0.098,0.256-0.098,0.354,0     c0.098,0.098,0.098,0.256,0,0.354l-2.379,2.379C21.887,46.162,21.729,46.163,21.631,46.065z"/></g></g><g><g><path d="M23.5,42.097c-0.065,0-0.128-0.024-0.177-0.073c-0.098-0.098-0.098-0.256,0-0.354l1.051-1.05     c0.099-0.099,0.257-0.097,0.354,0c0.098,0.098,0.098,0.256,0,0.354l-1.051,1.05C23.628,42.073,23.563,42.097,23.5,42.097z"/></g></g><g><g><path d="M33.638,58.699l-2.561-2.561c-0.098-0.098-0.098-0.256,0-0.354c0.098-0.098,0.256-0.098,0.354,0l2.561,2.561     c0.098,0.098,0.098,0.256,0,0.354C33.894,58.797,33.736,58.798,33.638,58.699z"/></g></g><g><g><path d="M35.891,57.853l-2.282-2.282c-0.098-0.098-0.098-0.256,0-0.354c0.098-0.098,0.256-0.098,0.354,0l2.282,2.282     c0.098,0.098,0.098,0.256,0,0.354C36.147,57.95,35.989,57.952,35.891,57.853z"/></g></g><g><g><path d="M37.462,56.48l-1.633-1.632c-0.098-0.098-0.098-0.256,0-0.354c0.098-0.098,0.256-0.098,0.354,0l1.633,1.632     c0.098,0.098,0.098,0.256,0,0.354C37.718,56.577,37.56,56.578,37.462,56.48z"/></g></g><g><g><path d="M38.525,55.477l-1.301-1.301c-0.098-0.098-0.098-0.256,0-0.354c0.098-0.098,0.256-0.098,0.354,0l1.301,1.301     c0.098,0.098,0.098,0.256,0,0.354C38.782,55.574,38.624,55.575,38.525,55.477z"/></g></g><g><g><path d="M39.816,54.753c-0.063,0-0.128-0.024-0.177-0.073l-1.279-1.278c-0.098-0.098-0.098-0.256,0-0.354     c0.097-0.097,0.255-0.099,0.354,0l1.279,1.278c0.098,0.098,0.098,0.256,0,0.354C39.944,54.728,39.881,54.753,39.816,54.753z"/></g></g><g><g><path d="M40.352,53.637l-1.165-1.166c-0.098-0.098-0.098-0.256,0-0.354c0.099-0.099,0.257-0.097,0.354,0l1.165,1.166     c0.098,0.098,0.098,0.256,0,0.354C40.61,53.733,40.451,53.736,40.352,53.637z"/></g></g><g><g><path d="M42.013,52.456l-1.586-1.586c-0.098-0.098-0.098-0.256,0-0.354c0.098-0.098,0.256-0.098,0.353,0l1.586,1.586     c0.098,0.098,0.098,0.256,0,0.354C42.269,52.553,42.111,52.554,42.013,52.456z"/></g></g><g><g><path d="M43.23,51.349l-1.357-1.357c-0.098-0.098-0.098-0.256,0-0.354c0.098-0.098,0.256-0.098,0.354,0l1.358,1.357     c0.098,0.098,0.098,0.256,0,0.354C43.487,51.446,43.329,51.448,43.23,51.349z"/></g></g><g><g><path d="M43.963,49.55c-0.063,0-0.128-0.024-0.177-0.073l-0.932-0.931c-0.098-0.098-0.098-0.256,0-0.354     c0.098-0.098,0.256-0.098,0.354,0l0.932,0.931c0.098,0.098,0.098,0.256,0,0.354C44.091,49.526,44.027,49.55,43.963,49.55z"/></g></g><g><g><path d="M30.199,58.102c-0.098-0.098-0.098-0.256,0-0.354l3.892-3.892c0.098-0.098,0.256-0.098,0.353,0     c0.098,0.098,0.098,0.256,0,0.354l-3.892,3.892C30.456,58.199,30.297,58.2,30.199,58.102z"/></g></g><g><g><path d="M32.214,58.515c-0.098-0.098-0.098-0.256,0-0.354l3.821-3.822c0.098-0.098,0.256-0.098,0.354,0     c0.098,0.098,0.098,0.256,0,0.354l-3.821,3.822C32.47,58.612,32.312,58.614,32.214,58.515z"/></g></g><g><g><path d="M33.712,58.618c-0.098-0.098-0.098-0.256,0-0.354l4.544-4.544c0.098-0.098,0.256-0.098,0.353,0     c0.098,0.098,0.098,0.256,0,0.354l-4.544,4.544C33.968,58.715,33.81,58.717,33.712,58.618z"/></g></g><g><g><path d="M39.261,54.146c-0.064,0-0.128-0.024-0.177-0.073c-0.098-0.098-0.098-0.256,0-0.354l2.476-2.477     c0.098-0.098,0.256-0.098,0.354,0c0.098,0.098,0.098,0.256,0,0.354l-2.476,2.477C39.389,54.122,39.325,54.146,39.261,54.146z"/></g></g><g><g><path d="M41.356,50.612c-0.098-0.098-0.098-0.256,0-0.354l1.703-1.703c0.099-0.099,0.257-0.097,0.354,0     c0.098,0.098,0.098,0.256,0,0.354l-1.703,1.703C41.613,50.708,41.455,50.71,41.356,50.612z"/></g></g><g><g><path d="M42.752,50.302c-0.098-0.098-0.098-0.256,0-0.354l1.038-1.039c0.097-0.097,0.255-0.098,0.354,0     c0.098,0.098,0.098,0.256,0,0.354l-1.038,1.039C43.008,50.399,42.85,50.4,42.752,50.302z"/></g></g><g><g><path d="M28.969,43.711c-0.098-0.098-0.098-0.256,0-0.354l3.479-3.479c0.098-0.098,0.256-0.098,0.354,0     c0.098,0.098,0.098,0.256,0,0.354l-3.479,3.479C29.225,43.808,29.067,43.809,28.969,43.711z"/></g></g><g><g><path d="M30.619,43.49L29.129,42c-0.098-0.098-0.098-0.256,0-0.354c0.098-0.098,0.256-0.098,0.354,0l1.49,1.49     c0.098,0.098,0.098,0.256,0,0.354C30.876,43.587,30.717,43.588,30.619,43.49z"/></g></g><g><g><path d="M31.59,42.269l-1.07-1.071c-0.098-0.098-0.098-0.256,0-0.354c0.099-0.098,0.257-0.097,0.354,0l1.07,1.071     c0.098,0.098,0.098,0.256,0,0.354C31.847,42.365,31.689,42.368,31.59,42.269z"/></g></g><g><g><path d="M32.047,41.441l-1.1-1.099c-0.098-0.098-0.098-0.256,0-0.354c0.098-0.098,0.256-0.098,0.354,0l1.1,1.099     c0.098,0.098,0.098,0.256,0,0.354C32.301,41.54,32.143,41.538,32.047,41.441z"/></g></g><g><g><path d="M24.439,31.645c-0.063,0-0.128-0.024-0.177-0.073l-0.803-0.802c-0.098-0.098-0.098-0.256,0-0.353     c0.097-0.097,0.255-0.098,0.354,0l0.803,0.802c0.098,0.098,0.098,0.256,0,0.354C24.567,31.62,24.504,31.645,24.439,31.645z"/></g></g><g><g><path d="M25.081,30.896c-0.064,0-0.128-0.024-0.177-0.073l-0.481-0.481c-0.098-0.098-0.098-0.256,0-0.353     c0.098-0.098,0.256-0.098,0.353,0l0.482,0.481c0.098,0.098,0.098,0.256,0,0.354C25.209,30.872,25.145,30.896,25.081,30.896z"/></g></g><g><g><path d="M23.476,31.645c-0.064,0-0.128-0.024-0.177-0.073c-0.098-0.098-0.098-0.256,0-0.354l1.636-1.636     c0.098-0.098,0.256-0.098,0.354,0c0.098,0.098,0.098,0.256,0,0.354l-1.636,1.636C23.604,31.62,23.541,31.645,23.476,31.645z"/></g></g><g><g><path d="M28.943,7.908l-2.06-2.061c-0.098-0.098-0.098-0.256,0-0.353c0.098-0.098,0.256-0.098,0.353,0l2.061,2.061     c0.098,0.098,0.098,0.256,0,0.353C29.2,8.005,29.042,8.007,28.943,7.908z"/></g></g><g><g><path d="M29.771,6.704l-1.606-1.605c-0.098-0.098-0.098-0.256,0-0.353c0.098-0.098,0.256-0.098,0.354,0l1.606,1.605     c0.098,0.098,0.098,0.256,0,0.353C30.028,6.801,29.87,6.803,29.771,6.704z"/></g></g><g><g><path d="M26.561,7.559c-0.098-0.098-0.098-0.256,0-0.354l2.486-2.486c0.098-0.098,0.256-0.098,0.353,0     c0.098,0.098,0.098,0.256,0,0.353l-2.486,2.486C26.818,7.656,26.66,7.658,26.561,7.559z"/></g></g></g><text x="0" y="81" fill="#000000" font-size="5px" font-weight="bold" font-family="'Helvetica Neue', Helvetica, Arial-Unicode, Arial, Sans-serif"></text><text x="0" y="86" fill="#000000" font-size="5px" font-weight="bold" font-family="'Helvetica Neue', Helvetica, Arial-Unicode, Arial, Sans-serif"></text></svg>