<svg xmlns:dc="http://purl.org/dc/elements/1.1/" xmlns:cc="http://creativecommons.org/ns#" xmlns:rdf="http://www.w3.org/1999/02/22-rdf-syntax-ns#" xmlns:svg="http://www.w3.org/2000/svg" xmlns="http://www.w3.org/2000/svg" xmlns:sodipodi="http://sodipodi.sourceforge.net/DTD/sodipodi-0.dtd" xmlns:inkscape="http://www.inkscape.org/namespaces/inkscape" version="1.1" x="0px" y="0px" viewBox="0 0 100 125"><g transform="translate(0,-952.36218)"><path style="font-size:medium;font-style:normal;font-variant:normal;font-weight:normal;font-stretch:normal;text-indent:0;text-align:start;text-decoration:none;line-height:normal;letter-spacing:normal;word-spacing:normal;text-transform:none;direction:ltr;block-progression:tb;writing-mode:lr-tb;text-anchor:start;baseline-shift:baseline;opacity:1;color:#000000;fill:#000000;fill-opacity:1;stroke:none;stroke-width:4;marker:none;visibility:visible;display:inline;overflow:visible;enable-background:accumulate;font-family:Sans;-inkscape-font-specification:Sans" d="M 21.6875 12 C 13.037776 12 6 18.94302 6 27.53125 L 6 67.21875 C 6 75.80695 13.037774 82.75 21.6875 82.75 C 26.905204 82.75 31.548607 80.265737 34.40625 76.375 L 36.65625 80.21875 C 40.994789 87.64815 50.563843 90.18665 58.0625 85.90625 C 62.253552 83.51405 64.950611 79.47905 65.71875 75.09375 A 2.0002 2.0002 0 1 0 61.78125 74.40625 C 61.212579 77.65295 59.24861 80.6367 56.09375 82.4375 C 50.448843 85.6597 43.343595 83.7526 40.09375 78.1875 L 31.09375 62.75 L 44.28125 55.21875 C 45.712756 56.680754 47.225979 58.010559 48.75 59.21875 C 55.368607 64.46565 62.288472 67.4597 64.0625 68.1875 A 2.0002 2.0002 0 0 0 65.59375 68.1875 C 67.368079 67.4586 74.287658 64.46745 80.90625 59.21875 C 87.524842 53.97 94 46.3153 94 36.34375 C 94 32.71606 93.270674 29.46328 91.75 26.75 C 87.808057 19.73262 80.290285 18.96875 77.28125 18.96875 C 73.231839 18.96875 69.968322 21.0008 67.71875 22.9375 C 66.593964 23.90585 65.708483 24.86385 65.09375 25.59375 C 64.944697 25.77073 64.955312 25.76708 64.84375 25.90625 C 64.7534 25.79472 64.700362 25.71995 64.59375 25.59375 C 63.977467 24.86425 63.094522 23.90536 61.96875 22.9375 C 59.717206 21.00179 56.446817 18.96875 52.40625 18.96875 C 50.114908 18.96875 46.694255 19.36348 43.375 21.28125 A 2.0002 2.0002 0 0 0 43.25 21.34375 A 2.0002 2.0002 0 0 0 43.21875 21.34375 A 2.0002 2.0002 0 0 0 43.03125 21.4375 A 2.0002 2.0002 0 0 0 42.71875 21.6875 A 2.0002 2.0002 0 0 0 42.53125 21.875 C 41.165321 22.802597 40.004125 23.949275 39.03125 25.25 C 38.378141 24.810363 37.675358 24.427753 36.96875 24.09375 C 35.381442 17.154106 29.140632 12 21.6875 12 z M 21.6875 16 C 26.438128 16 30.498005 18.741196 32.34375 22.6875 C 32.17738 22.664613 32.010876 22.642672 31.84375 22.625 C 28.652191 22.28753 25.336882 22.91644 22.34375 24.625 C 15.002709 28.815432 12.380784 38.01921 16.34375 45.375 L 10 45.375 L 10 27.53125 C 10 21.11438 15.160292 16 21.6875 16 z M 52.40625 22.96875 C 55.050103 22.96875 57.502466 24.38575 59.34375 25.96875 C 60.264392 26.76025 61.021628 27.58426 61.53125 28.1875 C 61.786061 28.48912 61.99571 28.73469 62.125 28.90625 C 62.25429 29.07781 62.385139 29.31106 62.28125 29.15625 C 62.85586 30.00902 63.825868 30.5 64.84375 30.5 C 65.861631 30.5 66.831635 30.00904 67.40625 29.15625 C 67.30893 29.30012 67.648532 28.79034 68.15625 28.1875 C 68.663968 27.58466 69.39372 26.75975 70.3125 25.96875 C 72.150059 24.38676 74.623886 22.96875 77.28125 22.96875 C 79.632999 22.96875 85.351279 23.50287 88.28125 28.71875 C 89.399228 30.71351 90 33.24676 90 36.34375 C 90 44.56986 84.566135 51.23355 78.4375 56.09375 C 72.732393 60.61805 66.903776 63.2351 64.8125 64.125 C 62.706084 63.2288 56.940262 60.60475 51.25 56.09375 C 45.122025 51.23565 39.65625 44.57945 39.65625 36.34375 C 39.65625 30.75733 41.57095 27.0232 45.125 24.84375 A 2.0002 2.0002 0 0 0 45.25 24.78125 C 45.26243 24.77425 45.26881 24.7573 45.28125 24.75 C 47.786264 23.27662 50.553293 22.96875 52.40625 22.96875 z M 30.53125 26.53125 C 32.86835 26.5975 35.127513 27.378919 37.03125 28.75 C 36.112349 31.005873 35.65625 33.552381 35.65625 36.34375 C 35.65625 42.513334 38.140133 47.785076 41.59375 52.15625 L 29.0625 59.3125 L 20.03125 43.84375 C 16.781475 38.27854 18.667554 31.31602 24.3125 28.09375 C 26.28403 26.968347 28.431795 26.471736 30.53125 26.53125 z M 10 49.375 L 18.65625 49.375 L 32.125 72.4375 C 30.2071 76.185235 26.292653 78.75 21.6875 78.75 C 15.160294 78.75 10 73.63565 10 67.21875 L 10 49.375 z " transform="translate(0,952.36218)"/></g><text x="0" y="115" fill="#000000" font-size="5px" font-weight="bold" font-family="'Helvetica Neue', Helvetica, Arial-Unicode, Arial, Sans-serif"></text><text x="0" y="120" fill="#000000" font-size="5px" font-weight="bold" font-family="'Helvetica Neue', Helvetica, Arial-Unicode, Arial, Sans-serif"></text></svg>