<svg xmlns="http://www.w3.org/2000/svg" xmlns:xlink="http://www.w3.org/1999/xlink" version="1.1" x="0px" y="0px" viewBox="0 0 100 125" style="enable-background:new 0 0 100 100;" xml:space="preserve"><g><path d="M24.666666,91.0083389V92.75c0,2.6233521,2.1266479,4.75,4.75,4.75h41.1666718c2.6233444,0,4.75-2.1266479,4.75-4.75   v-1.7416611c3.6834869-0.7575226,6.3285828-3.997757,6.3333282-7.7583389v-38   C81.6561203,37.9976501,76.2065659,31.9070969,69,31.0934162V24.666666h1.5833359c2.6233444,0,4.75-2.126646,4.75-4.75v-9.499999   C75.3280945,6.0465827,71.7867508,2.5052345,67.4166641,2.5H32.5833321   c-4.3700829,0.0052347-7.9114304,3.5465827-7.916666,7.916667v9.499999c0,2.623354,2.1266479,4.75,4.75,4.75H31v6.4267502   C23.7934341,31.9070969,18.3438797,37.9976501,18.333334,45.25v38   C18.3380795,87.010582,20.9831715,90.2508163,24.666666,91.0083389z M72.1666641,92.75   c0,0.8744507-0.7088776,1.5833359-1.5833282,1.5833359H29.416666c-0.8744488,0-1.5833321-0.7088852-1.5833321-1.5833359v-1.5833359   h44.3333282V92.75z M29.416666,21.5c-0.8744488,0-1.5833321-0.7088814-1.5833321-1.583334v-9.499999   c0-2.6233525,2.126646-4.7500005,4.7499981-4.7500005h34.8333321c2.6233521,0,4.75,2.1266479,4.75,4.7500005v9.499999   c0,0.8744526-0.7088776,1.583334-1.5833282,1.583334H29.416666z M65.8333359,24.666666V31H34.1666679v-6.333334H65.8333359z    M21.5,45.25c0.0069809-6.1182632,4.9650707-11.076355,11.0833321-11.0833321h34.8333321   C73.5349274,34.173645,78.4930191,39.1317368,78.5,45.25v38c0,2.6233521-2.1266479,4.75-4.75,4.75h-47.5   c-2.623354,0-4.75-2.1266479-4.75-4.75V45.25z"/><path d="M34.1666679,15.0083332V10.416667c0-0.8744507-0.7088852-1.583334-1.5833359-1.583334   C31.7088833,8.833333,31,9.5422163,31,10.416667v4.5916662c0,0.8744507,0.7088833,1.5833321,1.5833321,1.5833321   C33.4577827,16.5916653,34.1666679,15.8827839,34.1666679,15.0083332z"/><path d="M38.9166679,16.5916653c0.8744469,0,1.5833321-0.7088814,1.5833321-1.583333V10.416667   c0-0.8744507-0.7088852-1.583334-1.5833321-1.583334c-0.8744507,0-1.5833359,0.7088833-1.5833359,1.583334v4.5916662   C37.3333321,15.8827839,38.0422173,16.5916653,38.9166679,16.5916653z"/><path d="M46.8333321,16.5916653c0.8744507,0,1.5833359-0.7088814,1.5833359-1.583333V10.416667   c0-0.8744507-0.7088852-1.583334-1.5833359-1.583334c-0.8744469,0-1.5833321,0.7088833-1.5833321,1.583334v4.5916662   C45.25,15.8827839,45.9588852,16.5916653,46.8333321,16.5916653z"/><path d="M53.1666679,16.5916653c0.8744469,0,1.5833321-0.7088814,1.5833321-1.583333V10.416667   c0-0.8744507-0.7088852-1.583334-1.5833321-1.583334c-0.8744507,0-1.5833359,0.7088833-1.5833359,1.583334v4.5916662   C51.5833321,15.8827839,52.2922173,16.5916653,53.1666679,16.5916653z"/><path d="M61.0833321,16.5916653c0.8744507,0,1.5833359-0.7088814,1.5833359-1.583333V10.416667   c0-0.8744507-0.7088852-1.583334-1.5833359-1.583334C60.2088852,8.833333,59.5,9.5422163,59.5,10.416667v4.5916662   C59.5,15.8827839,60.2088852,16.5916653,61.0833321,16.5916653z"/><path d="M67.4166641,16.5916653C68.2911148,16.5916653,69,15.8827839,69,15.0083323V10.416667   c0-0.8744507-0.7088852-1.583334-1.5833359-1.583334s-1.5833282,0.7088833-1.5833282,1.583334v4.5916662   C65.8333359,15.8827839,66.5422134,16.5916653,67.4166641,16.5916653z"/><path d="M49.5376663,80.0152512c0.3015366,0.0907745,0.6231308,0.0907745,0.9246674,0   c16.0201645-4.879837,21.7043304-16.0930023,21.7043304-24.2091675c0-7.6950035-5.2154922-13.7227516-11.8749962-13.7227516   C56.5261154,42.0792427,52.8805084,43.4073677,50,45.8326683c-2.8805084-2.4253006-6.5261116-3.7534256-10.2916679-3.7493362   c-6.6594963,0-11.8749981,6.0277481-11.8749981,13.7227516C27.833334,63.9222488,33.5175018,75.1354141,49.5376663,80.0152512z    M39.7083321,45.25c3.421875-0.028347,6.7063255,1.3446999,9.08992,3.7999992   c0.3002853,0.3482742,0.7371483,0.54879,1.1970024,0.5494156c0.469429,0.033947,0.9239311-0.1730232,1.2064972-0.5494156   c2.3834877-2.4554558,5.6680069-3.8285332,9.0899162-3.7999992C65.7430878,45.25,69,50.6175003,69,55.8060837   c0,6.9587517-4.9875031,16.5933304-19,21.0361633c-14.0125008-4.4428329-19-14.0774117-19-21.0361633   C31,50.6175003,34.256916,45.25,39.7083321,45.25z"/></g><text x="0" y="115" fill="#000000" font-size="5px" font-weight="bold" font-family="'Helvetica Neue', Helvetica, Arial-Unicode, Arial, Sans-serif"></text><text x="0" y="120" fill="#000000" font-size="5px" font-weight="bold" font-family="'Helvetica Neue', Helvetica, Arial-Unicode, Arial, Sans-serif"></text></svg>