<svg xmlns="http://www.w3.org/2000/svg" version="1.1" viewBox="-5.0 -10.0 110.0 135.0">
 <g>
  <path d="m79.742 19.199c0.023437-4.75-2.0938-8.7656-6.2891-11.941-10.492-7.9375-20.66 0.54688-23.453 3.25-2.793-2.7031-12.961-11.191-23.453-3.25-4.1992 3.1758-6.3125 7.1914-6.2891 11.941 0.066407 13.832 18.328 30.125 25.926 36.305v39.562c0 0.55078 0.44922 1 1 1h5.6367c0.55078 0 1-0.44922 1-1l-0.003906-39.562c7.5977-6.1797 25.859-22.473 25.926-36.305zm-27.926 74.867h-3.6367v-36.969c0.66016 0.51172 1.0977 0.83984 1.2227 0.93359 0.17578 0.13281 0.38672 0.19531 0.59375 0.19531 0.21094 0 0.41797-0.066406 0.59375-0.19531 0.125-0.09375 0.5625-0.42188 1.2227-0.93359zm-1.8164-38.098c-4.082-3.1484-27.672-21.992-27.746-36.781-0.019531-4.1445 1.7773-7.5234 5.4961-10.336 2.8242-2.1367 5.6094-2.9297 8.1992-2.9297 7.293 0 12.98 6.3125 13.301 6.6719 0.19141 0.21484 0.46484 0.33984 0.75 0.33984s0.55859-0.125 0.75-0.33984c0.42969-0.49219 10.695-11.918 21.496-3.7422 3.7188 2.8125 5.5195 6.1953 5.4961 10.336-0.070313 14.781-23.66 33.633-27.742 36.781z"/>
  <path d="m69.836 12.043c-1.875-1.418-3.7461-2.1055-5.7266-2.1055-4.5703 0-9.0156 3.8203-10.348 5.2969l-3.7305 4.1953-3.7656-4.1719c-0.046875-0.054687-4.8594-5.3203-10.367-5.3203-1.9805 0-3.8516 0.6875-5.7266 2.1055-3.5195 2.6602-3.918 5.3398-3.9102 7.1211 0.039062 9.1016 12.473 22.508 23.109 31.219 0.18359 0.15234 0.41016 0.22656 0.63281 0.22656s0.44922-0.074219 0.63281-0.22656c10.637-8.7148 23.07-22.117 23.109-31.219 0.003906-1.7812-0.39062-4.457-3.9102-7.1211zm-19.836 36.273c-10.902-9.0664-21.711-21.441-21.742-29.16-0.007812-1.5586 0.35938-3.4297 3.1172-5.5156 1.5156-1.1445 2.9922-1.7031 4.5195-1.7031 3.8242 0 7.793 3.4492 8.8828 4.6602l4.5117 5c0.19141 0.21094 0.48047 0.32031 0.74609 0.33203 0.28516 0 0.55469-0.12109 0.74219-0.33594l4.4688-5.0234c1.0859-1.2031 5.0391-4.6328 8.8594-4.6328 1.5273 0 3.0078 0.55469 4.5195 1.7031 2.7578 2.0859 3.1211 3.9609 3.1172 5.5156-0.03125 7.7188-10.84 20.094-21.742 29.16z"/>
 </g>
<text x="0.0" y="117.5" font-size="5.0" font-weight="bold" font-family="Arbeit Regular, Helvetica, Arial-Unicode, Arial, Sans-serif" fill="#000000"></text><text x="0.0" y="122.5" font-size="5.0" font-weight="bold" font-family="Arbeit Regular, Helvetica, Arial-Unicode, Arial, Sans-serif" fill="#000000"></text></svg>