<svg xmlns="http://www.w3.org/2000/svg" xmlns:xlink="http://www.w3.org/1999/xlink" version="1.1" x="0px" y="0px" viewBox="0 0 512 640" style="enable-background:new 0 0 512 512;" xml:space="preserve"><g><path d="M410.2580566,101.7731934c-25.3300781-25.3310547-59.0087891-39.28125-94.8310547-39.28125   c-35.8232422,0-69.5019531,13.9501953-94.8320312,39.28125c-25.3310547,25.3305664-39.2822266,59.0092773-39.2822266,94.8325195   c0,33.8152466,12.4370117,65.7161865,35.1367188,90.4920654L64.2814941,439.2653809   c-2.34375,2.3432617-2.34375,6.1420898,0,8.4853516c1.1708984,1.1713867,2.7070312,1.7573242,4.2421875,1.7573242   s3.0712891-0.5859375,4.2421875-1.7573242l152.1708984-152.1703491   c25.5429688,23.378418,58.0144043,35.0751343,90.4902344,35.0751343c34.3427734,0,68.6865234-13.0727539,94.8310547-39.2177734   C462.5490723,239.1472168,462.5490723,154.0637207,410.2580566,101.7731934z M401.7736816,282.9523926   c-47.6142578,47.6118164-125.0820312,47.6108398-172.6943359,0   c-23.0644531-23.0639648-35.7666016-53.7294922-35.7666016-86.3466797c0-32.6176758,12.7021484-63.2832031,35.7666016-86.347168   c23.0644531-23.0644531,53.7294922-35.7666016,86.3476562-35.7666016c32.6171875,0,63.2822266,12.7021484,86.3466797,35.7666016   C449.3850098,157.8703613,449.3850098,235.3405762,401.7736816,282.9523926z"/><path d="M387.6193848,124.4118652c-19.2832031-19.2836914-44.921875-29.9038086-72.1933594-29.9038086   c-27.2705078,0-52.9091797,10.6201172-72.1933594,29.9038086s-29.9042969,44.9223633-29.9042969,72.1938477   c0,27.2709961,10.6201172,52.909668,29.9042969,72.1933594c19.9033203,19.9038086,46.0488281,29.8554688,72.1933594,29.8554688   c26.1455078,0,52.2900391-9.9516602,72.1933594-29.8554688c19.2841797-19.2836914,29.9042969-44.9223633,29.9042969-72.1933594   C417.5236816,169.3342285,406.9035645,143.6955566,387.6193848,124.4118652z M379.1350098,260.3137207   c-35.1289062,35.1279297-92.2871094,35.1293945-127.4179688,0c-17.0166016-17.0170898-26.3886719-39.6425781-26.3886719-63.7080078   c0-24.065918,9.3720703-46.6914062,26.3886719-63.7084961c17.0175781-17.0175781,39.6435547-26.3891602,63.7089844-26.3891602   c24.0664062,0,46.6914062,9.371582,63.7089844,26.3891602c17.0166016,17.0170898,26.3886719,39.6425781,26.3886719,63.7084961   C405.5236816,220.6711426,396.1516113,243.2966309,379.1350098,260.3137207z"/><path d="M387.9777832,177.1779785c-2.3193359-8.6875-11.6982422-12.0644531-19.9736328-15.0439453   c-4.8408203-1.7426758-9.8457031-3.5449219-12.2041016-5.902832c-2.3564453-2.3574219-4.1591797-7.3623047-5.9013672-12.2026367   c-2.9794922-8.2753906-6.3574219-17.6547852-15.0449219-19.9746094   c-8.9521484-2.3916016-16.6914062,4.2026367-23.5205078,10.0180664c-3.7998047,3.2358398-7.7294922,6.5825195-10.6914062,7.3730469   c-2.7392578,0.7324219-7.6376953-0.199707-12.3740234-1.1010742c-8.9726562-1.7060547-19.1425781-3.6411133-25.9423828,3.159668   c-6.7998047,6.7988281-4.8662109,16.9697266-3.1601562,25.9428711c0.9003906,4.7368164,1.8320312,9.6352539,1.1005859,12.3745117   c-0.7910156,2.9619141-4.1367188,6.8911133-7.3730469,10.6914062   c-5.8154297,6.8295898-12.4072266,14.5698242-10.0175781,23.5200195   c2.3193359,8.6879883,11.6992188,12.0649414,19.9746094,15.0444336c4.8398438,1.7426758,9.8457031,3.5449219,12.203125,5.9023438   c2.3564453,2.3574219,4.1591797,7.3623047,5.9013672,12.203125c2.9794922,8.2753906,6.3574219,17.6547852,15.0449219,19.9741211   c1.2919922,0.3452148,2.5585938,0.5029297,3.8007812,0.5029297c7.3652344-0.0004883,13.8759766-5.5444336,19.7197266-10.5205078   c3.7998047-3.2363281,7.7294922-6.5825195,10.6914062-7.3730469c2.7373047-0.7299805,7.6367188,0.199707,12.3740234,1.1005859   c8.9726562,1.7055664,19.1425781,3.6401367,25.9423828-3.1591797h0.0009766   c6.7988281-6.7993164,4.8652344-16.9697266,3.1591797-25.9428711c-0.9003906-4.7368164-1.8320312-9.6352539-1.1005859-12.375   c0.7910156-2.9614258,4.1367188-6.8911133,7.3730469-10.6914062   C383.7756348,193.8688965,390.3674316,186.1281738,387.9777832,177.1779785z M368.8234863,192.9182129   c-4.0996094,4.8154297-8.3398438,9.7944336-9.8300781,15.3759766c-1.4375,5.3852539-0.2470703,11.6513672,0.9052734,17.7114258   c1.09375,5.75,2.4541016,12.90625,0.1445312,15.2163086c-2.3125,2.3095703-9.4667969,0.9487305-15.2167969-0.144043   c-6.0605469-1.1523438-12.3251953-2.3427734-17.7109375-0.9057617c-5.5820312,1.4897461-10.5605469,5.7299805-15.3759766,9.8305664   c-4.3564453,3.7099609-9.7802734,8.3232422-12.6445312,7.5600586c-2.6210938-0.699707-4.9658203-7.2124023-6.8496094-12.4458008   c-2.1894531-6.0810547-4.4541016-12.3691406-8.7080078-16.6230469s-10.5419922-6.5180664-16.6230469-8.7075195   c-5.2324219-1.8842773-11.7451172-4.2290039-12.4453125-6.8496094c-0.765625-2.8671875,3.8505859-8.2885742,7.5605469-12.6445312   c4.1005859-4.8149414,8.3398438-9.7939453,9.8300781-15.3754883c1.4375-5.3857422,0.2460938-11.6518555-0.9052734-17.7119141   c-1.09375-5.75-2.4541016-12.9057617-0.1435547-15.2158203c0.9257812-0.9262695,2.6298828-1.262207,4.7099609-1.262207   c3.1103516,0,7.0605469,0.7509766,10.5058594,1.40625c6.0595703,1.1518555,12.3271484,2.3432617,17.7109375,0.9057617   c5.5820312-1.4902344,10.5605469-5.7299805,15.3759766-9.8305664c4.3564453-3.7099609,9.78125-8.3227539,12.6445312-7.5605469   c2.6201172,0.699707,4.9658203,7.2124023,6.8496094,12.4458008c2.1894531,6.0810547,4.453125,12.3691406,8.7070312,16.6230469   c4.2548828,4.2543945,10.5429688,6.5185547,16.6240234,8.7080078c5.2333984,1.8842773,11.7460938,4.2290039,12.4453125,6.8486328   C377.1496582,183.1413574,372.5334473,188.5622559,368.8234863,192.9182129z"/><path d="M293.4367676,174.6159668c-12.1240234,12.125-12.1240234,31.8535156,0,43.9785156   c5.8740234,5.8735352,13.6826172,9.1083984,21.9892578,9.1083984s16.1162109-3.2348633,21.9892578-9.1083984h0.0009766   c12.1240234-12.125,12.1240234-31.8535156-0.0009766-43.9785156   C325.2912598,162.4914551,305.5627441,162.4909668,293.4367676,174.6159668z M328.9309082,210.1091309   c-3.6074219,3.6069336-8.4033203,5.59375-13.5048828,5.59375c-5.1005859,0-9.8964844-1.9868164-13.5029297-5.59375   c-7.4462891-7.4458008-7.4462891-19.5620117-0.0009766-27.0078125c3.7236328-3.7231445,8.6132812-5.5844727,13.5039062-5.5844727   c4.8896484,0,9.78125,1.8618164,13.5039062,5.5844727C336.3762207,190.5471191,336.3762207,202.6633301,328.9309082,210.1091309z"/></g><text x="0" y="527" fill="#000000" font-size="5px" font-weight="bold" font-family="'Helvetica Neue', Helvetica, Arial-Unicode, Arial, Sans-serif"></text><text x="0" y="532" fill="#000000" font-size="5px" font-weight="bold" font-family="'Helvetica Neue', Helvetica, Arial-Unicode, Arial, Sans-serif"></text></svg>