<svg xmlns="http://www.w3.org/2000/svg" version="1.1" viewBox="-5.0 -10.0 110.0 135.0">
 <path d="m72.438 93.75h-9.7344c-0.85938 0-1.5625-0.70312-1.5625-1.5625s0.70312-1.5625 1.5625-1.5625h8.1406c-0.375-10.312-4.375-19.469-11.141-25.297-0.65625-0.5625-0.71875-1.5469-0.15625-2.2031s1.5469-0.71875 2.2031-0.15625c7.7812 6.7188 12.25 17.359 12.25 29.234 0 0.85938-0.70312 1.5625-1.5625 1.5625z"/>
 <path d="m37.297 93.75h-9.7344c-0.85938 0-1.5625-0.70312-1.5625-1.5625 0-11.797 4.4844-22.438 12.312-29.203 0.65625-0.5625 1.6406-0.5 2.2031 0.15625s0.48438 1.6406-0.15625 2.2031c-6.7969 5.8594-10.828 15-11.203 25.266h8.1406c0.85938 0 1.5625 0.70312 1.5625 1.5625s-0.70312 1.5625-1.5625 1.5625z"/>
 <path d="m62.703 93.75h-25.391c-0.85938 0-1.5625-0.70312-1.5625-1.5625 0-13.016 7.3906-18.953 14.266-18.953s14.266 5.9375 14.266 18.953c0 0.85938-0.70312 1.5625-1.5625 1.5625zm-23.797-3.125h22.188c-0.23438-4.3125-1.4531-7.9219-3.5781-10.484-2-2.4375-4.6719-3.7812-7.5156-3.7812-5.0938 0-10.562 4.4844-11.094 14.266z"/>
 <path d="m24.797 35.609c-4.0156 0-8.0938-2.1094-10.141-5.4375-2.25-3.6406-1.8281-8.0781 1.1406-12.219 2.7969-3.875 6.5469-5.6875 10.547-5.0938 4.5 0.65625 8.9219 4.4688 10.516 9.0625 0.21875 0.64062 0 1.3594-0.54688 1.7656-3.7656 2.7969-6.6406 6.4375-8.5312 10.844-0.20312 0.48438-0.65625 0.84375-1.1719 0.92188-0.59375 0.09375-1.2031 0.14062-1.8125 0.14062zm0.078125-19.719c-2.4375 0-4.6875 1.3281-6.5469 3.9062-2.2344 3.0938-2.5938 6.2031-1.0156 8.7344 1.5938 2.5625 4.8438 4.1562 7.9844 3.9375 1.9375-4.1562 4.6875-7.6875 8.1875-10.531-1.4688-3.0469-4.5781-5.5312-7.5938-5.9844-0.34375-0.046875-0.67188-0.078125-1.0156-0.078125z"/>
 <path d="m19.734 54.188c-0.75 0-1.4219-0.54688-1.5469-1.3281-0.125-0.84375 0.45312-1.6562 1.2969-1.7812l17.391-2.7031c0.85938-0.125 1.6562 0.45312 1.7812 1.2969s-0.45312 1.6562-1.2969 1.7812l-17.391 2.7031c-0.078125 0-0.15625 0.015625-0.23438 0.015625z"/>
 <path d="m23.719 65.281c-0.54688 0-1.0781-0.28125-1.3594-0.79688-0.42188-0.75-0.15625-1.7031 0.59375-2.125l14.531-8.1719c0.75-0.42188 1.7031-0.15625 2.125 0.59375s0.15625 1.7031-0.59375 2.125l-14.531 8.1719c-0.25 0.14062-0.5 0.20312-0.76562 0.20312z"/>
 <path d="m75.203 35.609c-0.60938 0-1.2188-0.046875-1.8125-0.14062-0.51562-0.09375-0.96875-0.4375-1.1719-0.92188-1.8906-4.3906-4.7656-8.0312-8.5312-10.844-0.54688-0.40625-0.76562-1.125-0.54688-1.7656 1.5938-4.5938 6.0156-8.4062 10.516-9.0625 4-0.59375 7.75 1.2188 10.547 5.0938 2.9844 4.125 3.3906 8.5781 1.1406 12.219-2.0625 3.3125-6.125 5.4375-10.141 5.4375zm-0.48438-3.1406c3.1406 0.21875 6.3906-1.375 7.9844-3.9375 1.5781-2.5312 1.2188-5.6406-1.0156-8.7344-2.1094-2.9219-4.7188-4.25-7.5469-3.8281-3.0312 0.4375-6.125 2.9375-7.5938 5.9844 3.5156 2.8281 6.25 6.375 8.1875 10.531z"/>
 <path d="m50 68.766c-2.2188 0-9.0625-1.5625-15.531-5.3125-9.0781-5.2812-13.281-12.422-12.156-20.656l0.09375-0.65625c-7.25-1-12.5-4.4688-14.844-9.8594-2.5469-5.8594-1.3438-13.281 3.0781-18.906 3.9844-5.0781 10.391-7.7656 16.734-7.0156 6.1562 0.71875 11.453 4.6094 14.703 10.734 2.5312-0.9375 4.375-1.5312 7.9219-1.5312s5.4062 0.59375 7.9219 1.5312c3.25-6.125 8.5469-10.016 14.703-10.734 6.3125-0.75 12.734 1.9531 16.734 7.0156 4.4219 5.625 5.6406 13.047 3.0781 18.906-2.3438 5.3906-7.5781 8.8594-14.844 9.8594 0.03125 0.20312 0.0625 0.42188 0.09375 0.64062 1.125 8.25-3.0938 15.391-12.156 20.672-6.4688 3.75-13.312 5.3125-15.531 5.3125zm-25.766-29.562c0.15625 0 0.3125 0.03125 0.46875 0.078125 0.75 0.25 1.2188 1 1.0625 1.7812-0.14062 0.70312-0.25 1.4375-0.35938 2.1875-1.1719 8.6562 5.1406 14.297 10.641 17.5 6 3.4844 12.328 4.8906 13.953 4.8906s7.9531-1.4062 13.969-4.8906c5.5-3.2031 11.812-8.8438 10.641-17.531-0.10938-0.73438-0.21875-1.4688-0.35938-2.1719-0.15625-0.78125 0.29688-1.5469 1.0469-1.7969 0.21875-0.078125 0.45312-0.09375 0.67188-0.0625 6.8594-0.64062 11.562-3.4531 13.609-8.1562 2.0625-4.75 0.98438-11.062-2.6719-15.719-3.3281-4.2188-8.6562-6.4531-13.906-5.8438-5.5625 0.65625-10.125 4.2969-12.875 10.234-0.34375 0.73438-1.2031 1.0938-1.9531 0.8125l-0.78125-0.28125c-2.6719-0.98438-4.1562-1.5312-7.375-1.5312s-4.7031 0.54688-7.375 1.5312l-0.78125 0.28125c-0.76562 0.28125-1.6094-0.078125-1.9531-0.8125-2.75-5.9531-7.3125-9.5781-12.875-10.234-5.25-0.60938-10.578 1.625-13.906 5.8438-3.6719 4.6562-4.7344 10.984-2.6719 15.719 2.0625 4.7188 6.7969 7.5469 13.719 8.1562h0.09375z"/>
 <path d="m80.266 54.188c-0.078125 0-0.15625 0-0.23438-0.015625l-17.391-2.7031c-0.85938-0.125-1.4375-0.9375-1.2969-1.7812 0.125-0.85938 0.9375-1.4375 1.7812-1.2969l17.391 2.7031c0.85938 0.125 1.4375 0.9375 1.2969 1.7812-0.125 0.76562-0.78125 1.3281-1.5469 1.3281z"/>
 <path d="m76.281 65.281c-0.26562 0-0.51562-0.0625-0.76562-0.20312l-14.531-8.1719c-0.75-0.42188-1.0156-1.375-0.59375-2.125s1.375-1.0156 2.125-0.59375l14.531 8.1719c0.75 0.42188 1.0156 1.375 0.59375 2.125-0.28125 0.51562-0.8125 0.79688-1.3594 0.79688z"/>
 <path d="m51.516 48.453h-3.0312c-0.85938 0-1.5625-0.70312-1.5625-1.5625s0.70312-1.5625 1.5625-1.5625h3.0312c0.85938 0 1.5625 0.70312 1.5625 1.5625s-0.70312 1.5625-1.5625 1.5625z"/>
 <path d="m40.234 42.875c-2.5781 0-4.6719-2.0938-4.6719-4.6719s2.0938-4.6719 4.6719-4.6719 4.6719 2.0938 4.6719 4.6719-2.0938 4.6719-4.6719 4.6719zm0-6.2031c-0.84375 0-1.5469 0.6875-1.5469 1.5469s0.6875 1.5469 1.5469 1.5469 1.5469-0.6875 1.5469-1.5469-0.6875-1.5469-1.5469-1.5469z"/>
 <path d="m59.766 42.875c-2.5781 0-4.6719-2.0938-4.6719-4.6719s2.0938-4.6719 4.6719-4.6719 4.6719 2.0938 4.6719 4.6719-2.0938 4.6719-4.6719 4.6719zm0-6.2031c-0.84375 0-1.5469 0.6875-1.5469 1.5469s0.6875 1.5469 1.5469 1.5469 1.5469-0.6875 1.5469-1.5469-0.6875-1.5469-1.5469-1.5469z"/>
<text x="0.0" y="117.5" font-size="5.0" font-weight="bold" font-family="Arbeit Regular, Helvetica, Arial-Unicode, Arial, Sans-serif" fill="#000000"></text><text x="0.0" y="122.5" font-size="5.0" font-weight="bold" font-family="Arbeit Regular, Helvetica, Arial-Unicode, Arial, Sans-serif" fill="#000000"></text></svg>