<svg xmlns="http://www.w3.org/2000/svg" xmlns:xlink="http://www.w3.org/1999/xlink" version="1.1" x="0px" y="0px" viewBox="0 0 60 75" style="enable-background:new 0 0 60 60;" xml:space="preserve"><path d="M28.9455566,21.1176758c0.868103-0.8690796,2.2827148-0.8701172,3.152771,0  c0.1953125,0.1953125,0.4512329,0.2930298,0.7070313,0.2930298c0.2559204,0,0.5117798-0.0977173,0.7070923-0.2930298  c0.390625-0.390564,0.390625-1.0233765,0-1.4140015c-1.647522-1.6489868-4.331604-1.6494751-5.9810181,0  c-0.390564,0.390625-0.390564,1.0234375,0,1.4140015C27.9220581,21.5083008,28.5549316,21.5083008,28.9455566,21.1176758z"/><path d="M35.1584473,15.168457c0.4365234,0.3374023,1.0648804,0.2573242,1.402832-0.1801758  c0.7787476-1.0087891,1.4936523-1.8397827,2.1234741-2.4702148c0.7080078-0.7074585,1.1337891-0.9857788,1.2769165-1.0702515  c0.8060913-0.0107422,3.2797852,1.0809937,5.7294922,3.6820679c0.1967773,0.2089844,0.4624023,0.3145142,0.7279663,0.3145142  c0.2461548,0,0.4927368-0.0903931,0.6856079-0.2720337c0.4017944-0.3789063,0.4208984-1.0116577,0.0424194-1.4135742  c-2.6600952-2.8251953-5.890625-4.6152344-7.6699219-4.2617188c-0.0507813,0.0103149-0.1015015,0.0244141-0.1503906,0.0425415  C39.0939331,9.625,38.4269409,9.9483032,37.270752,11.1040039c-0.6904907,0.6900024-1.4614868,1.5859985-2.2924805,2.6616821  C34.6408691,14.203186,34.7214355,14.8310547,35.1584473,15.168457z"/><path d="M20.0807495,53.8378906c0.3916016,0,0.7734985-0.0371094,1.1358032-0.1098022  c3.7163086-0.7475586,8.7583008-8.2793579,12.4411621-14.6873169c0.5037842,0.0064697,1.0028076,0.010498,1.4904175,0.010498  h0.0005493c1.7528687,0,2.8983765-0.0424805,2.8983765-0.0424805c0.5147095-0.0195313,0.9307251-0.4262085,0.9609985-0.9404297  c0.0297241-0.5032349,0.1169434-2.1816406,0.1207275-4.3920898c6.2665405-3.6687622,13.6781616-8.678894,14.6463623-12.3407593  c0.5673828-2.1465454-0.4428711-5.112854-2.7724609-8.1387329c-2.6958618-3.5014038-7.168457-7.034668-11.0835571-7.034668  c-0.3916016,0-0.7733765,0.0371704-1.1356812,0.1098633c-2.2700806,0.4570923-5.1774292,3.3822632-8.8770142,8.9220581  c-1.7791138,0.1431885-3.4329224,0.8995972-4.7089844,2.1756592c-1.5106812,1.5106812-2.2871094,3.5449219-2.1947632,5.6342163  c-2.1162109-0.0839233-4.1396484,0.6997681-5.6323242,2.1928711c-1.3043213,1.3040771-2.0192871,2.9647217-2.1547241,4.6751709  c-5.4523315,3.6781616-8.3997803,6.5583496-8.9907837,8.7921143c-0.5673828,2.1470337,0.4428101,5.1138306,2.7723999,8.1392212  C11.6930542,50.3046875,16.1657715,53.8374023,20.0807495,53.8378906z M39.1779785,8.2329102  c2.6654663-0.5400391,7.1831055,2.2138672,10.2401733,6.184082c1.9190063,2.4926758,2.8251953,4.8876953,2.4234009,6.4072876  c-0.5733643,2.1687622-5.4051514,6.1536255-12.7410278,10.5457153c-0.0587769-2.2154541-0.2199707-4.6886597-0.585022-6.9803467  c-0.534729-3.4237671-1.4255981-5.7765503-2.6690674-7.0199585c-0.2260132-0.2260132-0.4676514-0.4298096-0.7159424-0.6229858  c-0.06427-0.0499268-0.1296997-0.0974121-0.1954346-0.1451416c-0.2278442-0.1657715-0.4625244-0.3192139-0.7056274-0.4573364  c-0.0279541-0.0157471-0.0543823-0.0341187-0.0825195-0.0495605c-0.2944946-0.1623535-0.5997925-0.3015747-0.9128418-0.4223633  c-0.0145264-0.0055542-0.0293579-0.0102539-0.0438843-0.0157471c-0.319519-0.1210327-0.6470337-0.2200928-0.9818726-0.2964478  C36.3319702,9.390686,38.4363403,8.381897,39.1779785,8.2329102z M18.7843628,26.6109009  c1.0405884-1.0405273,2.4263306-1.6138306,3.9019165-1.6138306c0.421875,0,0.8441772,0.0483398,1.2553711,0.1431274  c0.3374023,0.0761108,0.6879883-0.0234985,0.9315796-0.2676392c0.2437134-0.2436523,0.3447266-0.5957031,0.2676392-0.9315796  c-0.4326172-1.8759766,0.1171875-3.803772,1.4707031-5.1572876c1.0419312-1.0419922,2.4271851-1.6159668,3.9003296-1.6186523  c0.0036011,0.000061,0.0071411,0.0014648,0.0107422,0.0014648c1.4785156,0,2.8666992,0.574707,3.909729,1.6171875  c0.1418457,0.1418457,0.2728271,0.3173828,0.4008179,0.5014648c0.046936,0.0685425,0.0938721,0.1366577,0.1395264,0.2115479  c0.0723267,0.1167603,0.1398315,0.2474365,0.2075806,0.3772583c0.1221313,0.2377319,0.2406616,0.4917603,0.3521729,0.777771  c0.0040283,0.0102539,0.0082397,0.0200806,0.0122681,0.0303955c0.6428223,1.6651611,1.1039429,4.1256104,1.3536987,7.2162476  c0.0028076,0.0349121,0.0059204,0.0696411,0.008667,0.1045532c0.0283203,0.3588867,0.0535889,0.7268066,0.0761719,1.1022949  c0.0023804,0.0394287,0.0048218,0.0788574,0.0071411,0.1182861c0.0709839,1.2174072,0.1123657,2.5183105,0.1216431,3.8966675  c0.000061,0.0109863,0.0040283,0.0211792,0.0044556,0.0321045c0.0106812,1.4674072-0.0149536,2.8129883-0.0591431,3.8809204  c-0.4824219,0.0092773-1.1348267,0.0180664-1.9086914,0.0180664h-0.0005493  c-0.7126465-0.000061-1.401001-0.0089722-2.0778809-0.0219116c-2.8010254-0.0548706-5.2697754-0.2161865-7.3477173-0.4705811  c-0.0560913-0.006897-0.1151733-0.0130615-0.1707153-0.0200806c-0.2329102-0.0293579-0.4539795-0.0614624-0.6765747-0.0932617  c-0.1399536-0.0200806-0.2828369-0.0394287-0.4187622-0.0604248c-0.1734619-0.0267334-0.338562-0.0552368-0.5053101-0.0834351  c-0.1706543-0.0289917-0.3416748-0.0579224-0.505249-0.088501c-0.137207-0.0255737-0.2686768-0.0522461-0.4007568-0.0789185  c-0.1792603-0.0362549-0.355896-0.0730591-0.5256348-0.1112671c-0.1116333-0.0250854-0.2199097-0.0508423-0.3273315-0.0767822  c-0.175354-0.0424194-0.345459-0.0858765-0.5094604-0.1304932c-0.0930786-0.0253296-0.1849365-0.0508423-0.274292-0.0769043  c-0.1646118-0.0479736-0.3215942-0.0974121-0.4735107-0.1478271c-0.0773315-0.0256958-0.1554565-0.0511475-0.2294312-0.0773926  c-0.1490479-0.0528564-0.2880859-0.1075439-0.4232788-0.1629028c-0.0650635-0.0266724-0.1328735-0.0528564-0.1946411-0.0800781  c-0.1310425-0.0576172-0.2498779-0.1173096-0.3660278-0.1774292c-0.0524292-0.0271606-0.109375-0.0535889-0.1586914-0.0811768  c-0.1170654-0.0655518-0.2197266-0.1332397-0.3192749-0.2015381c-0.0350342-0.0240479-0.0761719-0.0471802-0.1090088-0.0715332  c-0.1260376-0.0935059-0.2375488-0.18927-0.3306274-0.2876587c-0.265686-0.2806396-0.4977417-0.5797729-0.6977539-0.8919678  c-0.5978394-0.9348145-0.9157104-2.0130005-0.9107056-3.1256714C17.2041016,29.0395508,17.7306519,27.664856,18.7843628,26.6109009z   M8.1584473,39.1757813c0.2456055-0.9287109,1.5316772-3.0332031,7.2290039-6.9995117  c0.0030518,0.0133057,0.008667,0.0258789,0.0117798,0.0391846c0.0741577,0.3149414,0.1654663,0.6268311,0.2801514,0.9335938  c0.0036011,0.0097046,0.0064087,0.0196533,0.0100098,0.0292969c0.1152344,0.3044434,0.2509766,0.6029663,0.4061279,0.8953247  c0.0249023,0.0471191,0.0534668,0.0922852,0.0794067,0.1389771c0.1277466,0.2293091,0.2684326,0.4534302,0.4212036,0.6726685  c0.0467529,0.0671997,0.0925293,0.1344604,0.1414185,0.2003784c0.18927,0.2545166,0.3896484,0.5037231,0.6137085,0.7404785  c0.140625,0.1485596,0.3082886,0.2901611,0.4882813,0.4285889c0.0426025,0.0325928,0.0866699,0.0646362,0.1312256,0.0965576  c0.1742554,0.1252441,0.3623047,0.2468872,0.5697632,0.3635254c0.0112915,0.0062866,0.0211792,0.0131836,0.0325928,0.0194702  c0.2373047,0.1316528,0.4979858,0.2572632,0.777832,0.3778076c0.003479,0.0014648,0.0071411,0.0028687,0.0106201,0.0043335  c0.2731934,0.1173706,0.5687866,0.2289429,0.8822632,0.3356934c0.0040894,0.0013428,0.0080566,0.0027466,0.012146,0.0041504  c0.9025879,0.3064575,1.9708862,0.5691528,3.2041626,0.7876587c0.0043335,0.0007935,0.008728,0.0014648,0.0130615,0.0022583  c0.3582764,0.0633545,0.7307129,0.1228027,1.1166992,0.1787109c0.0544434,0.0079346,0.1087036,0.0158691,0.1634521,0.0236816  c0.3143921,0.0442505,0.6384888,0.0858765,0.9708862,0.1252441c0.1075439,0.0128784,0.2139893,0.0263062,0.3223877,0.0385132  c0.2391357,0.0267334,0.4864502,0.0512085,0.7345581,0.0755005c0.1987915,0.0197144,0.3961182,0.0402222,0.5968018,0.0579834  c0.0758667,0.0066528,0.1553955,0.0123291,0.2320557,0.0187378c1.2407227,0.1052856,2.5091553,0.1776123,3.7677612,0.2221069  c-4.4036865,7.4957275-8.3948975,12.3459473-10.5558472,12.7803955c-2.6621094,0.5380859-7.1831055-2.2138062-10.2396851-6.184082  C8.6628418,43.0903931,7.7565308,40.6948853,8.1584473,39.1757813z"/><path d="M20.022644,50.5517578c0.1655884,0,0.3228149-0.0146484,0.4692993-0.0438843  c0.4707031-0.0786743,1.3076172-0.6817017,2.2387085-1.6132813c1.5440063-1.5440063,3.4536133-4.0673828,5.5220337-7.2984009  c0.2978516-0.4647827,0.1620483-1.0834961-0.3032227-1.3812866c-0.4649048-0.2979126-1.0839844-0.1621094-1.3814087,0.3031616  c-1.9916992,3.1113281-3.8081055,5.519043-5.2518921,6.9628906c-0.6992188,0.6992188-1.1231079,0.9795532-1.2803345,1.0713501  c-0.8529663,0.0253906-3.2802734-1.0840454-5.7269897-3.6817017c-0.378479-0.4023438-1.0126953-0.4199219-1.4135742-0.0424194  c-0.4024048,0.3789063-0.4208984,1.0117188-0.0424805,1.4135132C15.2912598,48.8305664,18.2038574,50.5517578,20.022644,50.5517578z  "/><text x="0" y="75" fill="#000000" font-size="5px" font-weight="bold" font-family="'Helvetica Neue', Helvetica, Arial-Unicode, Arial, Sans-serif"></text><text x="0" y="80" fill="#000000" font-size="5px" font-weight="bold" font-family="'Helvetica Neue', Helvetica, Arial-Unicode, Arial, Sans-serif"></text></svg>