<svg xmlns="http://www.w3.org/2000/svg" xmlns:xlink="http://www.w3.org/1999/xlink" version="1.1" x="0px" y="0px" viewBox="0 0 100 125" enable-background="new 0 0 100 100" xml:space="preserve"><g display="none"><rect x="-683.475" y="-288.118" display="inline" fill="#000000" stroke="#000000" stroke-width="4" stroke-miterlimit="10" width="1326.95" height="420"/></g><g><path d="M37.134,61.212c0-1.019,0.828-1.848,1.848-1.848c1.019,0,1.848,0.829,1.848,1.848h1.436h1.437   c0-2.603-2.118-4.72-4.721-4.72c-2.602,0-4.72,2.117-4.72,4.72h1.436H37.134z"/><path d="M61.024,56.492c-2.603,0-4.721,2.117-4.721,4.72h1.436h1.436c0-1.019,0.829-1.848,1.848-1.848   c1.019,0,1.848,0.829,1.848,1.848h1.436h1.436C65.744,58.61,63.626,56.492,61.024,56.492z"/><path d="M51.706,79.841H50.96v-6.309c3.086-0.303,5.454-2.039,5.454-4.141c0-2.316-2.871-4.193-6.412-4.193   c-3.541,0-6.412,1.877-6.412,4.193c0,2.102,2.369,3.838,5.454,4.141v6.309h-0.495c-2.554-0.352-4.907-1.531-6.73-3.416   l-1.376,1.331c1.539,1.591,3.401,2.751,5.442,3.428v5.168h8.233V81.28c2.01-0.616,3.863-1.699,5.419-3.204l-1.331-1.376   C56.407,78.441,54.136,79.513,51.706,79.841z M52.205,84.437h-4.404v-2.681h0.606c0.501,0.064,1.006,0.109,1.518,0.117   c0.078,0.001,0.154,0.002,0.232,0.002c0.574,0,1.14-0.049,1.701-0.119h0.347V84.437z"/><path d="M86.143,67.503c0.795,0,1.436-0.642,1.436-1.436c0-0.795-0.642-1.436-1.436-1.436h-7.056   c-0.067-1.647-0.278-3.255-0.613-4.825l7.525-4.347c0.689-0.393,0.919-1.273,0.527-1.953c-0.402-0.689-1.283-0.929-1.963-0.527   l-6.855,3.954c-1.637-5.065-4.634-9.517-8.54-12.944c2.681-3.878,4.758-9.555,5.812-15.214c0.574-3.064,0.852-6.07,0.852-8.856   c0-5.113-0.938-9.479-2.729-12.073c-1.053-1.522-2.422-2.48-3.945-2.757c-6.415-1.168-11.977,9.469-13.95,20.077   c-0.46,2.48-0.728,4.912-0.814,7.229l-0.019,0.01c-1.226-0.948-2.748-1.474-4.318-1.474c-1.599,0-3.14,0.546-4.375,1.513   l-0.067-0.038c-0.086-2.317-0.354-4.758-0.814-7.238C42.829,14.557,37.257,3.92,30.851,5.088c-1.532,0.278-2.891,1.235-3.945,2.757   c-2.767,4.012-3.504,12.226-1.886,20.929c0.536,2.824,1.321,5.658,2.307,8.272c0.986,2.614,2.173,5.007,3.514,6.941   c-3.916,3.428-6.903,7.88-8.54,12.944l-6.855-3.954c-0.689-0.402-1.57-0.163-1.963,0.527c-0.402,0.68-0.163,1.561,0.527,1.953   l7.516,4.347c-0.335,1.57-0.536,3.179-0.613,4.825h-7.056c-0.795,0-1.436,0.641-1.436,1.436c0,0.795,0.641,1.436,1.436,1.436h7.075   c0.086,1.637,0.326,3.227,0.67,4.787l-7.592,4.385c-0.689,0.393-0.929,1.273-0.527,1.953c0.268,0.469,0.747,0.728,1.245,0.728   c0.239,0,0.488-0.067,0.718-0.201l6.961-4.012C26.285,86.67,37.18,95,50,95c12.82,0,23.725-8.33,27.603-19.857l6.961,4.012   c0.22,0.134,0.469,0.201,0.718,0.201c0.498,0,0.977-0.259,1.245-0.728c0.393-0.68,0.163-1.561-0.527-1.953l-7.592-4.385   c0.345-1.561,0.574-3.15,0.67-4.787H86.143z M58.971,25.864C60.962,15.17,65.644,8.832,68.22,8.832c0.086,0,0.172,0.01,0.249,0.029   c0.507,0.086,1.005,0.479,1.474,1.158c1.819,2.633,2.911,9.239,1.273,18.048c-0.536,2.882-1.264,5.429-2.097,7.64l0.048-3.475   v-0.01c0.019-1.704-0.843-3.236-2.298-4.107c-1.465-0.862-3.217-0.89-4.701-0.067l-3.801,2.126   C58.492,28.804,58.693,27.367,58.971,25.864z M63.567,30.556c0.833-0.46,1.561-0.134,1.829,0.029c0.278,0.163,0.91,0.641,0.9,1.608   l-0.172,11.719c-0.01,0.948-0.661,1.417-0.938,1.57c-0.574,0.325-1.273,0.316-1.838-0.019l-6.999-4.184   c0.01-0.029,0.019-0.057,0.029-0.077c0.115-0.23,0.23-0.46,0.316-0.689c0-0.01,0.01-0.029,0.01-0.038   c0.086-0.23,0.153-0.46,0.22-0.689c0.019-0.077,0.038-0.153,0.048-0.23c0.048-0.182,0.077-0.364,0.105-0.555   c0.01-0.077,0.019-0.153,0.029-0.23c0.029-0.249,0.048-0.507,0.048-0.766c0-0.278-0.019-0.546-0.048-0.814   c-0.01-0.077-0.019-0.153-0.029-0.23c-0.029-0.191-0.067-0.393-0.115-0.584c-0.019-0.067-0.029-0.144-0.057-0.22   c-0.067-0.249-0.144-0.498-0.239-0.747c-0.096-0.249-0.211-0.498-0.345-0.737c-0.01-0.01-0.019-0.038-0.029-0.057L63.567,30.556z    M46.946,35.161c0.795-0.862,1.924-1.36,3.112-1.36c1.168,0,2.288,0.479,3.092,1.34c0.728,0.766,1.13,1.781,1.13,2.863   c0,1.024-0.373,2.001-1.072,2.777c-0.785,0.9-1.934,1.427-3.15,1.427c-1.226,0-2.394-0.536-3.198-1.474   c-0.67-0.747-1.034-1.723-1.034-2.729C45.826,36.951,46.218,35.946,46.946,35.161z M43.738,41.231l-7.085,4.232   c-0.574,0.335-1.254,0.345-1.838,0.019c-0.278-0.153-0.919-0.622-0.938-1.57l-0.172-11.728c-0.01-0.948,0.622-1.436,0.89-1.599   c0.172-0.096,0.517-0.268,0.948-0.268c0.268,0,0.574,0.067,0.89,0.239l7.363,4.117c-0.546,1.015-0.843,2.154-0.843,3.332   C42.953,39.134,43.231,40.245,43.738,41.231z M28.793,28.066c-1.647-8.808-0.546-15.415,1.264-18.048   c0.469-0.68,0.967-1.072,1.474-1.158c2.508-0.46,7.439,5.946,9.507,17.004c0.278,1.503,0.469,2.949,0.603,4.318l-3.811-2.135   c-1.484-0.823-3.246-0.795-4.711,0.077c-1.455,0.871-2.307,2.403-2.288,4.107l0.057,3.475   C30.057,33.495,29.32,30.948,28.793,28.066z M50,91.17c-13.94,0-25.286-11.345-25.286-25.286c0-7.248,3.073-13.787,7.975-18.411   c0.23,0.191,0.469,0.364,0.728,0.517c0.728,0.402,1.513,0.603,2.298,0.603c0.833,0,1.656-0.22,2.403-0.67l7.468-4.452   c1.254,1.024,2.824,1.608,4.471,1.608c1.637,0,3.198-0.574,4.433-1.57l7.391,4.423c0.747,0.44,1.57,0.661,2.403,0.661   c0.785,0,1.58-0.201,2.307-0.603c0.259-0.153,0.498-0.326,0.728-0.517c4.902,4.615,7.966,11.164,7.966,18.411   C75.286,79.825,63.95,91.17,50,91.17z"/><path fill="none" d="M41.642,30.182l-3.811-2.135c-1.484-0.823-3.246-0.795-4.711,0.077c-1.455,0.871-2.307,2.403-2.288,4.107   l0.057,3.475c-0.833-2.212-1.57-4.758-2.097-7.64c-1.647-8.808-0.546-15.415,1.264-18.048c0.469-0.68,0.967-1.072,1.474-1.158   c2.508-0.46,7.439,5.946,9.507,17.004C41.316,27.367,41.508,28.813,41.642,30.182z"/><path fill="none" d="M71.217,28.066c-0.536,2.882-1.264,5.429-2.097,7.64l0.048-3.475v-0.01c0.019-1.704-0.843-3.236-2.298-4.107   c-1.465-0.862-3.217-0.89-4.701-0.067l-3.801,2.126c0.124-1.369,0.325-2.805,0.603-4.308C60.962,15.17,65.644,8.832,68.22,8.832   c0.086,0,0.172,0.01,0.249,0.029c0.507,0.086,1.005,0.479,1.474,1.158C71.762,12.652,72.854,19.258,71.217,28.066z"/></g><text x="0" y="115" fill="#000000" font-size="5px" font-weight="bold" font-family="'Helvetica Neue', Helvetica, Arial-Unicode, Arial, Sans-serif"></text><text x="0" y="120" fill="#000000" font-size="5px" font-weight="bold" font-family="'Helvetica Neue', Helvetica, Arial-Unicode, Arial, Sans-serif"></text></svg>