<svg xmlns="http://www.w3.org/2000/svg" xmlns:xlink="http://www.w3.org/1999/xlink" version="1.1" x="0px" y="0px" viewBox="0 0 55 68.75" style="enable-background:new 0 0 55 55;" xml:space="preserve"><g><path d="M33.8218613,15.3290491c0.2506447,0,0.4644547-0.1913309,0.4874153-0.4458008   c0.4775009-5.3065739,0.0960464-7.3794732-0.7921066-11.008687c-0.0650558-0.2630796-0.3348312-0.4261889-0.5921707-0.3597016   C32.6619186,3.5794342,32.5012016,3.8444271,32.5653,4.1070285l0.0425682,0.1726756   c0.736145,3.0081964,1.2226028,4.9956427,0.7256241,10.5155325C33.3077698,15.0796614,33.5303688,15.3290491,33.8218613,15.3290491   z"/><path d="M27.1865158,43.2719307c-0.0993423,0.0401917-0.2246628,0.0908966-0.1253223,0.050705   c-5.0967579,2.3082848-7.0216351,2.5978813-8.1511631,3.2440109c-0.7581482,0.4553642-1.1565933,1.2847824-0.968132,2.0175819   c0.319521,1.2541695,1.920002,1.454113,2.4495106,1.5201187c3.3473282,0.3950996,6.6807861,0.7901955,10.0180721,1.2005997   c2.2797241,0.2580833,4.7906113,0.4734459,6.74823-0.8275032c2.0156555-1.3593941,2.7390747-3.8169975,3.8787498-5.7753143   c1.1379395-1.9716644,2.5002136-3.4630852,4.0571671-4.4455681c0.0529175,9.4536171-0.1283264,9.2228241,0.1463699,9.4919128   c0.0932732,0.0918388,0.2348557,0.1530647,0.3510895,0.1406288l1.7181511-0.0267868   c0.2659492-0.0038261,0.4797592-0.2200317,0.482151-0.485981c0.0377579-4.5968399-0.5071983-7.2039413,0.762455-11.5085373   c0.536972-1.8297768,1.0814552-3.9019928,0.1396713-5.7293968c-0.8781509-1.6821136-2.754631-2.5069313-3.8065262-3.8055649   c0.0598526-0.1014652,0.1105537-0.2404785,0.1003304-0.3982067c0.9277153-2.8214703,1.5711823-5.6078415,1.9880447-8.7091331   c0.5648232-4.253273-0.3182755-10.092021-0.9241257-14.6291399c-0.0349197-0.2683411-0.2793427-0.4534535-0.5486412-0.4233189   c-0.2683411,0.0349178-0.4577599,0.2802992-0.4233208,0.5486407c0.5851364,4.3805375,1.4715309,10.2592068,0.925087,14.3746719   c-0.4102249,3.0526791-1.0440674,5.7934303-1.9590492,8.5707741c-0.6126175,0.4325275-1.4120789,0.5907345-2.4238586,0.6724091   c-2.765625,0.2196712-5.5379448,0.0411949-8.2538261-0.5108528c0.3591156-2.3141861,0.6379051-4.6329308,0.9249039-9.8477879   c0.0153084-0.2697773-0.1918068-0.5012875-0.4620628-0.5156364c-0.272644-0.0363541-0.5008087,0.1922874-0.5156364,0.4620628   c-0.4754562,8.5987167-1.4407387,15.8708115-5.0962696,24.9579468   C27.926239,42.8995514,27.766119,43.0052109,27.1865158,43.2719307z M39.0365791,29.6845856   c0.2477722,0.2200317,0.510376,0.8217659,0.599823,1.2541733c0.0975761,0.4706726-0.0353966,1.0944099-0.4716301,1.322094   c-0.5196037,0.2678375-1.1273727-0.1228409-1.1168938-0.6907024   C38.0550117,31.1693687,38.9411201,29.7848835,39.0365791,29.6845856z M33.2015915,28.7983074   c1.6017952,0.3243046,3.2222481,0.5191631,4.850174,0.5831985c-0.5814133,0.9309387-0.9716415,1.5152607-0.9835014,2.1714249   c-0.0233612,1.3357868,1.3994484,2.1720257,2.5485268,1.5775204c1.0476761-0.5465164,1.4610062-2.1517639,0.4182358-3.7481079   c1.1251602-0.0287228,2.355648-0.0371361,3.4802437-0.3887596c-0.497757,1.1342316-1.0728264,2.2734261-1.6388664,3.3849373   c-2.5505066,5.0119019-2.2787399,5.3739357-3.5472717,7.8282928h-0.0004768   c-1.3057137,2.5241432-3.7242928,5.3889427-6.5384846,5.7960052c-2.1480141,0.21875-3.2139301-0.0191841-4.2702007-0.4995537   c-0.1293278-0.1934242-0.1625729-0.4304352-0.0655918-0.5476227c0.2494965-0.2806854,0.9633598-0.2793694,1.3341122-1.0715141   c0.0761147-0.0521355,0.1400909-0.124424,0.1778793-0.2161407C30.9298992,38.8747368,32.3377953,33.8939819,33.2015915,28.7983074z   "/><path d="M18.1590576,12.8259659c0.2506428,0,0.4644547-0.1913309,0.4874153-0.4458008   c0.369257-4.098443,0.0742054-5.7027364-0.6122589-8.5056038c-0.0645733-0.2630796-0.3333931-0.4261889-0.5921669-0.3597016   c-0.2630806,0.0645742-0.4237976,0.3295672-0.3597031,0.5921686c0.6270885,2.5593991,0.9636059,4.0233235,0.5883427,8.1851254   C17.6448555,12.5772972,17.869236,12.8259659,18.1590576,12.8259659z"/><path d="M25.928936,22.1290588c-0.4799423,0.3237667-1.1317806,0.4279232-1.7788372,0.4801197   c-2.0795841,0.1641273-4.1653881,0.0340824-6.2102947-0.3712997c0.3805771-2.4864693,0.534647-4.5908642,0.6942329-7.4780388   c0.0357533-0.6301584-0.940815-0.7270193-0.9777012-0.0535727c-0.365099,6.5650969-1.0926151,12.1270494-3.8899908,19.1029892   c-0.0980568,0.0148735-7.0390491,2.7815666-7.1373501,2.8378525c-0.6256509,0.3759613-0.9528265,1.065712-0.7959352,1.6760559   c0.2645144,1.0408363,1.5540829,1.2015572,1.9807506,1.2541695c2.574832,0.3042183,5.1391411,0.6074753,7.7072763,0.923172   c1.7643099,0.198719,3.7239771,0.3704262,5.267333-0.6543503c2.4653893-1.6618347,2.3840008-5.3663063,5.9288578-7.7488899   v6.8257179c0,0.2798996,0.2354279,0.4985771,0.4974594,0.4898071l1.3216171-0.0210457   c0.2659492-0.0038261,0.4797611-0.2200317,0.4821529-0.485981c0.0225735-2.8218613-0.3168869-5.5224304,0.3826599-8.1238976   c0.2163277-0.8025551,0.5009403-1.6071472,0.6299572-2.4614697c0.5332508-3.5412922-1.9737206-4.1366634-3.2258339-5.619381   c0.043766-0.0941696,0.0606861-0.1873245,0.0576973-0.2792816c0.7115116-2.1678371,1.2061596-4.3111572,1.5269985-6.6966324   c0.4376431-3.2994785-0.2508507-7.8359694-0.7112732-11.2827682c-0.0349178-0.2683411-0.2793427-0.4524968-0.5486393-0.4233189   c-0.2683411,0.0349178-0.4577599,0.2802992-0.4233189,0.5486407c0.4466991,3.3428135,1.1321888,7.8619008,0.7122269,11.0282974   C27.1060371,17.9236126,26.623167,20.0138988,25.928936,22.1290588z M21.8177776,23.8777008   c0.2444248,0.2200317,0.5032005,0.8121986,0.5912113,1.2388668c0.0961437,0.4668465-0.0349178,1.0838871-0.4663677,1.3087006   c-0.509304,0.262661-1.1125698-0.1190014-1.1020641-0.6820927C20.8468857,25.3600197,21.7257977,23.9765587,21.8177776,23.8777008z    M17.7737656,23.2076263c1.0051441,0.1983261,2.019495,0.3332138,3.0390472,0.3992233   c-0.519598,0.8537331-0.9400406,1.4402122-0.9518681,2.1191063c-0.0159168,0.9072456,0.7080288,1.759285,1.7368031,1.759285   c1.4930077,0,2.4961281-1.8243599,1.2544117-3.8446693c0.8352356-0.0186119,1.7350883-0.0327015,2.5472088-0.2330055   c-0.3582668,0.7949791-0.7487602,1.5920506-1.1459522,2.3719616c-1.9639816,3.8604031-1.7525883,4.1336441-2.7278957,6.0202198   h0.0004787c-0.5966339,1.1530075-1.4836216,2.2778397-2.1996441,2.9694519   c-0.9540062,0.8515854-2.0464516,1.3267097-2.7451172,1.4288788c-1.6526527,0.1731644-2.4109602-0.0169258-3.1830244-0.3592224   c-0.1990871-0.3464928,0.0447836-0.2863464,0.5061293-0.5635872c0.2396698-0.151886,0.5831366-0.6208,0.6237383-0.7194023   C16.0272751,30.8971443,17.1062012,27.0961227,17.7737656,23.2076263z"/></g><text x="0" y="70" fill="#000000" font-size="5px" font-weight="bold" font-family="'Helvetica Neue', Helvetica, Arial-Unicode, Arial, Sans-serif"></text><text x="0" y="75" fill="#000000" font-size="5px" font-weight="bold" font-family="'Helvetica Neue', Helvetica, Arial-Unicode, Arial, Sans-serif"></text></svg>