<svg xmlns="http://www.w3.org/2000/svg" xmlns:xlink="http://www.w3.org/1999/xlink" version="1.1" x="0px" y="0px" viewBox="0 0 100 125" enable-background="new 0 0 100 100" xml:space="preserve"><path d="M50,5C25.187,5,5,25.187,5,50c0,24.813,20.187,45,45,45c24.813,0,45-20.187,45-45C95,25.187,74.813,5,50,5z M50,90.723  C27.545,90.723,9.278,72.455,9.278,50C9.278,27.545,27.545,9.278,50,9.278c22.455,0,40.723,18.268,40.723,40.722  C90.723,72.455,72.455,90.723,50,90.723z"/><g><path d="M73.531,62.761c-1.254-0.576-2.739-0.032-3.318,1.221c-0.059,0.124-5.939,12.486-20.289,12.486   c-14.233,0-20.035-11.951-20.29-12.492c-0.582-1.25-2.064-1.792-3.316-1.215c-1.253,0.58-1.799,2.065-1.22,3.318   c0.291,0.629,7.317,15.389,24.826,15.389c17.51,0,24.536-14.76,24.827-15.389C75.33,64.826,74.784,63.341,73.531,62.761z"/><path d="M36.229,58.879l1.113-1.463c0.78-1.025,7.647-10.142,8.582-14.366c1.179-5.325-1.293-9.775-6.012-10.82   c-3.023-0.671-5.977,0.392-7.965,2.754c-2.698-1.532-5.833-1.486-8.426,0.183c-2.098,1.353-3.386,3.399-3.627,5.763   c-0.213,2.093,0.407,4.391,1.747,6.47c2.343,3.637,11.948,9.803,13.036,10.493L36.229,58.879z M25.004,45.233   c-0.851-1.319-1.252-2.703-1.13-3.897c0.119-1.163,0.729-2.107,1.814-2.807c0.692-0.446,1.418-0.672,2.157-0.672   c1.1,0,2.254,0.51,3.25,1.436l1.95,1.814l1.198-2.378c1.036-2.058,2.815-3.034,4.804-2.593c3.029,0.671,3.521,3.565,2.971,6.05   c-0.492,2.219-4.037,7.594-6.752,11.318C31.427,50.955,26.237,47.147,25.004,45.233z"/><path d="M80.105,40.93c-0.241-2.364-1.529-4.411-3.627-5.763c-2.592-1.672-5.728-1.715-8.426-0.184   c-1.988-2.36-4.941-3.425-7.966-2.753c-4.718,1.045-7.189,5.494-6.012,10.82c0.936,4.224,7.802,13.341,8.582,14.366l1.113,1.463   l1.552-0.985c1.087-0.69,10.693-6.856,13.035-10.493C79.698,45.321,80.319,43.023,80.105,40.93z M74.996,45.234   c-1.231,1.911-6.423,5.719-10.263,8.272c-2.716-3.725-6.261-9.099-6.753-11.32c-0.549-2.485-0.058-5.379,2.971-6.05   c0.329-0.073,0.653-0.109,0.965-0.109c1.575,0,2.975,0.985,3.84,2.702l1.198,2.379l1.95-1.814c1.665-1.549,3.685-1.875,5.406-0.764   c1.086,0.7,1.697,1.644,1.815,2.807C76.248,42.53,75.847,43.914,74.996,45.234z"/></g><text x="0" y="115" fill="#000000" font-size="5px" font-weight="bold" font-family="'Helvetica Neue', Helvetica, Arial-Unicode, Arial, Sans-serif"></text><text x="0" y="120" fill="#000000" font-size="5px" font-weight="bold" font-family="'Helvetica Neue', Helvetica, Arial-Unicode, Arial, Sans-serif"></text></svg>