<svg xmlns="http://www.w3.org/2000/svg" xmlns:xlink="http://www.w3.org/1999/xlink" version="1.1" x="0px" y="0px" viewBox="0 0 100 125" style="enable-background:new 0 0 100 100;" xml:space="preserve"><style type="text/css">
	.st0{fill:#FFFFFF;}
	.st1{fill:#FFFFFF;stroke:#000000;stroke-width:1.5;stroke-linejoin:round;stroke-miterlimit:10;}
	.st2{fill:none;stroke:#0F0D0D;stroke-width:1.0281;stroke-miterlimit:10;}
	.st3{fill:#0F0D0D;}
</style><path d="M81.9,24.4c-3.6-2.9-11.2-7.5-21.5-6.6c-0.2,0-0.3,0.1-0.5,0.2l0,0c-8.1,6.6-8.3,36.5-8.3,41.6c-2.4-0.4-4.8-0.6-7.3-0.4  c-0.9,0.1-1.8,0.2-2.7,0.3c-0.1-31.2-13-47.1-20.7-53.8c-1.1-1-2.6-1.2-4-0.7c-1.4,0.5-2.3,1.8-2.5,3.2c-3.5,32,10.4,49.7,16,55.5  c-8,5.1-13.4,13.9-13.8,23.9c-0.1,1.7,0,3.5,0.3,5.2c0.2,1.7,1.7,3,3.5,3c0,0,0,0,0.1,0l0.2,0c1,0,1.9-0.5,2.6-1.2  c0.6-0.8,0.9-1.7,0.8-2.7c-0.1-1-0.2-2.1-0.2-3.2c0-6.4,2.7-12.5,7.5-16.7c4.8-4.3,11-6.3,17.5-5.6c10.5,1.2,18.8,9.6,19.8,20.2  c0.2,1.8,0.1,3.6-0.1,5.3c0,0,0,0,0,0c-0.1,1,0.2,2,0.8,2.7c0.7,0.8,1.6,1.2,2.7,1.2l0.2,0c1.7,0,3.2-1.3,3.4-3  c0.2-1.3,0.3-2.7,0.3-4.1c0-8.1-3.4-16-9.3-21.5c-1.1-1.1-2.3-2-3.6-2.9c1.1-7.4,8.5-19.5,11.3-24c0.4,1.3,0.8,2.8,1,4.2  c0.2,0.9,0.9,1.6,1.8,1.7c0.1,0,0.2,0,0.3,0c0.8,0,1.5-0.5,1.9-1.2c1.9-4.2,4.3-10.2,4.9-15.1C84.4,27.8,83.6,25.7,81.9,24.4z   M54.3,42.1c1.1-11.4,3.2-19.1,6.2-22.1c0.6,0.4,1.5,1.2,2.8,2.3c-1.4,2.5-8.2,16.3-8.4,38c-0.4-0.1-0.9-0.3-1.3-0.4  C53.5,58.4,53.5,50.6,54.3,42.1z M57.3,61.2c-0.3-0.1-0.5-0.2-0.8-0.3c-0.1-0.1-0.1-0.2-0.1-0.4c0.1-20.5,6.3-33.8,8-37.1  c1.6,1.7,3.5,3.9,5.3,6.8C66.5,40.1,63.1,48,60.2,55c-0.8,1.9-1.6,3.8-2.4,5.7C57.7,61,57.5,61.1,57.3,61.2z M16.3,8.4  c0.1-0.8,0.6-1.4,1.3-1.7c0.7-0.3,1.5-0.1,2.1,0.4c7.5,6.5,20,22,20.1,52.7c-0.7,0.2-1.3,0.3-2,0.5c0-0.1,0-0.1,0.1-0.2  c2.9-23.3-16-41.8-16.2-42c-0.3-0.3-0.7-0.3-1-0.2c-0.3,0.1-0.6,0.5-0.6,0.8c-0.5,19.1,8.3,38.4,13,43c0.1,0.1,0.2,0.2,0.3,0.3  c-0.4,0.2-0.8,0.4-1.2,0.6C26.9,57.5,12.8,40.2,16.3,8.4z M34.3,60.4C29.9,56,22.1,38.2,21.9,21.1c4.4,5,16.3,20.4,14.1,38.8  c0,0.4-0.3,0.7-0.6,0.8C35,60.8,34.6,60.7,34.3,60.4z M73.9,88.6c0,1.3-0.1,2.6-0.3,3.8c-0.1,0.8-0.8,1.4-1.6,1.4l-0.2,0  c-0.5,0-0.9-0.2-1.3-0.6c-0.3-0.3-0.4-0.8-0.4-1.2c0.3-1.9,0.3-3.8,0.1-5.7c-1-11.4-10.1-20.6-21.4-21.9c-7-0.8-13.8,1.4-19,6  c-5.1,4.6-8.1,11.2-8.1,18.1c0,1.1,0.1,2.3,0.2,3.4c0.1,0.5-0.1,0.9-0.4,1.3c-0.3,0.4-0.7,0.6-1.2,0.6l-0.2,0  c-0.8,0-1.5-0.6-1.6-1.4c-0.2-1.6-0.3-3.2-0.2-4.9C19,73.5,30.4,61.8,44.5,60.9c0.6,0,1.2-0.1,1.8-0.1c7.1,0,13.8,2.6,19,7.5  C70.8,73.7,73.9,80.8,73.9,88.6z M61.2,63.1c-0.7-0.4-1.4-0.8-2.2-1.2c0.1-0.2,0.3-0.4,0.3-0.6c0.8-1.9,1.6-3.8,2.4-5.7  c2.8-6.7,5.9-14.2,9.1-23.6c1,1.8,1.9,3.7,2.7,5.9C71.7,40.6,62.9,54.2,61.2,63.1z M82.2,29.5c-0.7,4.9-3.3,11.3-4.8,14.6  c0,0,0,0.1-0.1,0.1c-0.1,0-0.1-0.1-0.1-0.1c-2.5-13.3-10.1-21.2-13.9-24.4c8.3,0.1,14.4,3.9,17.5,6.3C81.8,26.8,82.4,28.2,82.2,29.5  z"/><text x="0" y="115" fill="#000000" font-size="5px" font-weight="bold" font-family="'Helvetica Neue', Helvetica, Arial-Unicode, Arial, Sans-serif"></text><text x="0" y="120" fill="#000000" font-size="5px" font-weight="bold" font-family="'Helvetica Neue', Helvetica, Arial-Unicode, Arial, Sans-serif"></text></svg>