<?xml version="1.0" encoding="utf-8"?>
<!DOCTYPE svg PUBLIC "-//W3C//DTD SVG 1.1//EN" "http://www.w3.org/Graphics/SVG/1.1/DTD/svg11.dtd">
<svg version="1.1" id="Layer_1" xmlns="http://www.w3.org/2000/svg" xmlns:xlink="http://www.w3.org/1999/xlink" x="0px" y="0px"
	 viewBox="0 0 2638.8013 1019.5342" enable-background="new 0 0 2638.8013 1019.5342" xml:space="preserve">
<g>
	<path fill="#110B0B" stroke="#110B0B" stroke-width="0.2029" d="M51.084,23.5898c12.4904-8.8713,28.7764-8.9301,43.4442-7.7532
		c131.9214,14.7561,263.4015,33.7343,393.94,57.9796c61.7604,11.6812,123.3444,24.5394,184.2221,40.2517
		c44.8566,11.7695,89.5366,24.8631,132.3187,42.9293c21.8325,9.4156,43.4737,19.964,62.3342,34.6171
		c11.2988,8.9448,22.1267,19.8463,26.452,33.9697c2.501,7.6796,1.1769,15.83,1.1622,23.745
		c-0.8975,45.4303,3.1778,91.552,18.0367,134.7167c3.3396,9.0919,6.5615,18.3163,11.2546,26.805
		c18.0956-46.7396,50.6382-88.3595,93.185-115.194c25.8929-16.3008,55.5961-26.7756,86.138-29.3208
		c38.2362-3.6338,77.3699,5.1492,110.8099,23.9363c50.8737,28.4969,88.4772,77.8847,106.7788,132.8335
		c4.2517-8.9154,7.0176-18.5811,11.6223-27.3788c21.0822-44.9154,55.5963-84.2108,99.7024-107.5439
		c34.6318-18.5369,75.0454-26.2459,114.0466-21.0968c49.3729,5.973,94.8474,32.7045,127.3458,69.8814
		c17.9044,20.3759,32.5427,43.6943,42.8557,68.7928c3.6927-5.87,5.5907-12.7111,8.1505-19.1402
		c16.9333-47.5783,20.5671-98.7903,18.5664-148.9137c-0.5591-12.5345,5.8994-24.1422,14.0499-33.2047
		c16.8156-18.1986,39.0746-30.1446,61.1571-40.7371c54.4929-25.0986,112.6343-40.9579,170.6431-55.5815
		c130.8329-31.6747,263.8136-53.6395,397.0294-72.5885c52.9333-7.2823,105.9404-14.0792,159.0649-19.861
		c13.2849-1.0151,27.5261-0.7944,39.4426,5.9437c9.5774,5.414,15.5356,16.5509,14.4324,27.5406
		c-1.3682,14.2411-9.1362,26.8198-17.4485,38.0744c-15.1238,19.9199-33.543,37.0445-52.6096,53.1099
		c-40.6636,33.8079-85.3877,62.6284-132.3774,86.8589c-37.3535,19.1402-76.5459,35.0437-117.3713,45.0919
		c77.4285,22.7887,154.9897,45.1213,232.4771,67.7482c12.5493,3.825,26.3196,6.2525,36.4268,15.3003
		c8.2532,7.0176,12.3137,18.743,9.4744,29.3061c-3.3689,13.5055-13.6968,23.8626-24.3335,32.1896
		c-20.5671,15.5798-44.5181,25.9517-68.7485,34.3817c-32.4546,10.9456-66.2034,17.8749-100.2319,21.4939
		c-69.249,7.6356-139.8218,1.5154-207.0403-16.5508c-9.5042-2.7806-19.1401-5.1492-28.3645-8.7683
		c54.3896,49.2259,109.3679,97.8487,163.9636,146.8541c6.1792,5.6346,12.6816,10.9456,18.5225,16.9626
		c6.9734,7.4149,12.2698,17.463,10.8867,27.9232c-1.1328,10.166-8.1504,18.7431-16.6392,23.9951
		c-13.2849,8.3123-29.0706,11.2988-44.4443,12.9758c-39.9724,3.3543-80.1506-3.5307-118.3279-15.1384
		c-44.1797-13.8292-86.1672-34.8231-123.4622-62.2313l-0.9268,0.5885l1.0005-0.2501c19.1254,42.3702,38.5156,84.6227,57.7,126.9636
		c2.8689,6.532,6.7234,13.0641,6.4585,20.4643c-0.1323,9.1508-6.9883,17.2422-15.624,19.8021
		c-13.9321,4.2812-28.5999,0.412-42.1053-3.5751c-29.4827-9.6656-56.9056-24.7895-82.3424-42.3848
		c-40.6195-28.4235-76.5754-64.4234-101.5414-107.4703c-17.5072-30.1299-29.1736-63.8789-32.3367-98.6578
		c-0.3973-6.488-1.5007-12.9171-1.9861-19.3904c-10.0631,3.6485-17.6837,11.5341-25.8341,18.1399
		c-14.197,11.8871-27.7466,25.6574-45.5627,32.0129c-4.8696,34.6171-17.8749,67.5865-34.3816,98.246
		c-24.1864,44.5624-55.817,84.6522-90.0515,121.8879c-39.207,42.3114-82.1659,81.0037-126.9635,117.298
		c-44.4005,35.941-90.7723,69.4106-138.2769,101.1147c-8.9008,6.2084-18.7283,11.7253-25.3044,20.5966
		c-7.2529-9.6658-18.2428-15.4475-27.9526-22.3033c-51.5504-34.4846-101.7179-71.1171-149.5021-110.6774
		c-41.6493-34.6171-81.6656-71.3526-118.1217-111.4572c-33.2783-36.7944-63.9525-76.3842-87.1973-120.3725
		c-15.4622-29.262-27.217-60.7012-32.3661-93.4941c-15.2562-3.1925-27.2906-13.9026-38.9277-23.5832
		c-11.7695-9.5627-22.3621-21.1115-36.2942-27.5847c-2.4275,14.8589-2.5157,30.0711-6.0908,44.7536
		c-11.3134,54.6252-42.7527,103.3657-82.4895,141.7784c-22.9505,22.2738-48.7699,41.5758-76.5165,57.4645
		c-21.9796,12.3286-45.1802,23.2595-70.0139,28.3351c-11.6076,1.9421-25.4221,2.4864-34.6758-6.0613
		c-7.2089-6.5762-7.9886-17.7277-3.9134-26.2018c20.5526-45.3421,41.2227-90.6399,61.834-135.9525
		c-47.9166,34.7936-103.0714,59.9067-161.1687,71.8233c-15.1826,2.8542-30.5124,5.3112-45.9746,5.9584
		c-22.1414,1.1329-44.8565,0.3089-65.9828-6.9882c-12.1226-4.3988-24.5688-12.2109-28.7176-25.1278
		c-3.6339-10.7397,0.4119-22.4356,7.5325-30.7479c6.3261-7.3707,14.1381-13.2554,21.1998-19.8757
		c54.3751-48.6082,108.7502-97.2161,163.1106-145.8389c-87.3885,28.0849-181.6181,35.8676-272.0962,19.4197
		c-40.0899-7.5325-80.0473-19.0519-115.5618-39.575c-15.3739-9.342-31.2186-20.4789-38.8246-37.3976
		c-5.0756-11.0192-2.9277-24.9072,5.8406-33.4107c9.3126-9.5186,22.7151-12.4904,35.029-16.0653
		c78.5909-22.8476,157.1964-45.6951,235.7726-68.5868c-58.8181-14.5795-114.0759-40.9137-165.7588-72.1765
		c-42.3114-26.1283-83.0927-55.4491-117.9451-91.1107C61.3823,93.6478,46.538,77.0674,40.6827,56.2649
		C37.1813,44.51,40.9181,30.828,51.084,23.5898 M69.312,31.343c-5.9583,1.3387-12.3139,4.5901-14.2852,10.8279
		c-2.1185,8.1651,1.6183,16.3154,5.3699,23.4066c8.3416,14.6531,19.8904,27.1876,31.7482,39.0601
		c37.2799,36.3383,80.3122,66.3064,125.1393,92.5524c49.4025,28.2468,102.0121,52.4332,158.1086,63.5847
		c21.906,4.0458,44.4299,5.9142,66.586,2.7218c-7.4883,2.9424-15.3886,4.5901-23.0388,7.0322
		c-100.8499,29.2914-201.6705,58.6563-302.491,87.9771c-7.7532,2.295-16.4185,5.6198-20.2288,13.3142
		c-3.4573,7.1647,0.5444,15.1974,5.0756,20.8909c10.1659,12.2991,24.1569,20.7143,38.1185,28.0849
		c27.982,14.2853,58.3032,23.3477,88.9186,29.9387c87.0208,17.8454,178.308,12.6375,263.2838-12.8288
		c31.8954-9.3715,62.6432-22.2444,92.5083-36.7355c-79.1205,70.2345-157.7849,140.9839-236.7288,211.4243
		c-6.0907,5.5317-13.2701,10.9163-15.7858,19.1255c-1.7654,5.2962,0.1912,11.181,4.1635,14.9473
		c8.2681,7.9885,19.9346,10.8427,30.8802,13.1083c22.774,3.8986,46.1217,2.8246,68.9399-0.1912
		c61.2603-8.9155,119.7547-33.6902,170.2605-69.2342c19.3609-13.4761,37.1035-29.1002,54.2427-45.2243
		c-29.7916,65.1589-59.3918,130.4208-89.0657,195.6533c-2.5305,4.3841-0.8975,10.7545,4.4871,11.8431
		c10.8132,2.6922,21.906-0.9711,32.322-3.8105c24.6571-7.9003,47.6812-20.1847,69.3665-34.1757
		c26.2901-17.1833,50.5942-37.53,71.5144-60.9807c35.4851-39.3837,61.3044-89.1686,65.6003-142.5581
		c1.1034-9.5038,1.7213-20.2288,8.5182-27.6289c5.4875-5.3992,13.9616-2.7806,19.817,0.5738
		c14.5941,8.4594,26.4225,20.7144,39.4573,31.2627c7.0764,5.6494,14.2116,11.7842,22.921,14.7119
		c-2.5304-33.6755,2.2362-67.7335,12.1227-99.9525c-29.3355-53.5806-37.8685-115.856-37.0887-176.1894
		c-0.1471-11.0928,2.6481-23.2448-4.0016-33.1017c-11.5636-18.0515-31.1157-28.7029-49.579-38.4421
		c-43.5766-21.4941-90.3457-35.4557-137.0118-48.5051c-58.4503-15.8447-117.6656-28.6882-177.0722-40.3841
		C374.5835,66.8868,235.6004,46.6433,96.1612,30.8722C87.2605,29.9894,78.1244,29.3863,69.312,31.343 M2447.5608,42.3474
		c-139.3508,18.2133-278.3635,40.1929-415.537,70.926c-62.29,14.5206-124.5656,30.1446-184.2662,53.3599
		c-24.8779,10.0777-49.991,21.0086-70.9259,38.1626c-9.3127,7.9592-18.5664,18.4928-18.5812,31.454
		c1.1034,31.4099,0.5001,63.011-4.3695,94.112c-4.9137,32.7633-14.0792,65.203-29.6885,94.5385
		c10.8131,33.1753,16.2419,68.3661,13.9762,103.2626c15.0355-7.9445,26.8051-20.5819,39.9281-31.145
		c8.3416-6.6056,16.7568-14.1528,27.4377-16.4921c5.5461-1.3094,11.0192,2.0597,13.4612,6.9734
		c4.9727,9.504,4.9727,20.5526,6.2086,30.9833c4.1486,34.6318,17.1686,67.8806,35.9115,97.1866
		c27.1288,42.2232,64.9824,76.899,107.4115,103.3804c23.0094,14.0057,47.4163,26.5403,73.78,32.7928
		c7.459,1.4418,15.6978,3.1778,22.9211-0.0442c4.3105-2.0302,4.4429-7.6059,2.4275-11.3281
		c-29.6003-65.1884-59.392-130.2885-88.8892-195.5209c45.1949,44.5916,100.2908,79.3705,160.6243,99.4081
		c32.219,10.6661,65.9387,17.5955,99.967,17.9191c17.1836,0,34.7937-1.2358,50.9329-7.6061
		c7.1353-3.0306,14.9766-7.5765,17.1833-15.5504c1.8389-8.3712-4.1929-15.7563-9.9453-21.0233
		c-62.3931-55.8315-124.8303-111.619-187.2529-167.4212c-18.1543-16.5509-36.9268-32.4839-54.7576-49.3436
		c113.4875,57.494,247.4246,75.6191,371.4309,45.6363c27.9819-7.0765,55.6404-16.4626,80.8564-30.7331
		c11.3723-6.7234,22.7446-14.2705,30.8066-24.9514c4.0017-5.4582,7.2678-13.0641,3.9136-19.6256
		c-4.0017-7.7385-12.8435-10.9898-20.6851-13.2996c-50.447-14.6824-100.8794-29.3796-151.3411-44.0032
		c-57.906-17.0805-116.062-33.4107-173.865-50.859c27.1729,3.8692,54.8018,0.3678,81.3567-5.8553
		c31.4539-7.6208,61.8193-19.2432,91.0813-32.9694c51.6091-24.4217,100.3938-54.9047,144.8091-90.787
		c19.4932-16.0506,38.4126-33.1017,54.1543-52.9333c6.9294-9.0919,13.8291-18.89,16.0654-30.3212
		c1.2947-6.0025-0.9121-12.8141-6.3557-16.0065c-9.2683-5.414-20.5083-4.7814-30.8213-4.1635
		C2513.7642,34.1235,2480.6331,38.0221,2447.5608,42.3474 M1094.8771,282.2688c-50.5206,7.1647-95.7302,37.7065-125.9042,78.223
		c-36.4707,48.6669-53.3894,110.9571-49.1376,171.4229c2.7805,33.1899,14.0057,65.1295,28.8058,94.7738
		c14.5353,28.8649,32.6457,55.7875,52.492,81.2538c34.1463,43.4293,73.2358,82.7543,114.4584,119.4457
		c43.2823,38.5305,89.1245,74.1185,136.2467,107.8234c22.7593,16.6243,46.5485,31.8071,69.6313,47.9607
		c4.1929-3.1926,8.6212-6.0466,13.0052-8.989c50.5353-33.499,99.6436-69.19,146.6774-107.4409
		c42.7234-34.8965,83.7695-71.9851,121.226-112.5311c32.8075-35.7499,63.1434-74.1774,86.4323-116.8858
		c17.6395-32.6752,31.1157-68.2484,34.4111-105.4548c4.3842-62.9227-14.2117-127.9051-53.8307-177.3222
		c-30.2917-38.0155-74.3539-66.1005-122.962-72.5296c-36.1176-5.208-73.6918,1.7507-105.9255,18.7136
		c-22.1412,11.49-41.8552,27.4523-58.3177,46.1659c-35.9559,40.8695-56.4496,94.2296-60.1716,148.3104
		c-0.5737,1.6477,0.4414,5.2964-2.2656,5.1786l1.3389-1.6035c-1.7214-35.6763-11.137-70.9406-27.1876-102.8361
		c-19.5079-38.5304-49.579-72.3088-87.6387-93.2292C1172.6736,284.0636,1132.922,276.3988,1094.8771,282.2688z"/>
	<path fill="#FFFFFF" stroke="#FFFFFF" stroke-width="0.2029" d="M69.312,31.343c8.8124-1.9567,17.9485-1.3536,26.8492-0.4708
		c139.4392,15.7711,278.4223,36.0147,416.2432,62.5696c59.4066,11.696,118.6219,24.5394,177.0722,40.3841
		c46.6661,13.0494,93.4352,27.011,137.0118,48.5051c18.4634,9.7393,38.0154,20.3906,49.579,38.4421
		c6.6497,9.8569,3.8545,22.0089,4.0016,33.1017c-0.7798,60.3333,7.7532,122.6088,37.0887,176.1894
		c-9.8865,32.2191-14.6531,66.277-12.1227,99.9525c-8.7094-2.9277-15.8447-9.0626-22.921-14.7119
		c-13.0347-10.5483-24.8632-22.8034-39.4573-31.2627c-5.8553-3.3543-14.3294-5.9729-19.817-0.5738
		c-6.7969,7.4001-7.4148,18.1251-8.5182,27.6289c-4.2958,53.3895-30.1152,103.1744-65.6003,142.5581
		c-20.9202,23.4507-45.2243,43.7973-71.5144,60.9807c-21.6853,13.991-44.7094,26.2755-69.3665,34.1757
		c-10.416,2.8394-21.5088,6.5027-32.322,3.8105c-5.3845-1.0887-7.0175-7.459-4.4871-11.8431
		c29.6738-65.2324,59.2741-130.4943,89.0657-195.6533c-17.1393,16.1241-34.8818,31.7482-54.2427,45.2243
		c-50.5059,35.5439-109.0003,60.3187-170.2605,69.2342c-22.8181,3.0158-46.1659,4.0898-68.9399,0.1912
		c-10.9456-2.2657-22.6122-5.1199-30.8802-13.1083c-3.9722-3.7663-5.9289-9.6511-4.1635-14.9473
		c2.5157-8.2092,9.6951-13.5938,15.7858-19.1255c78.9439-70.4405,157.6084-141.1898,236.7288-211.4243
		c-29.8651,14.4912-60.6129,27.3641-92.5083,36.7355c-84.9758,25.4662-176.263,30.6742-263.2838,12.8288
		c-30.6154-6.591-60.9366-15.6534-88.9186-29.9387c-13.9616-7.3707-27.9526-15.7858-38.1185-28.0849
		c-4.5312-5.6935-8.5329-13.7262-5.0756-20.8909c3.8104-7.6944,12.4757-11.0192,20.2288-13.3142
		c100.8205-29.3209,201.6411-58.6857,302.491-87.9771c7.6502-2.4421,15.5504-4.0899,23.0388-7.0322
		c-22.1561,3.1924-44.68,1.324-66.586-2.7218c-56.0964-11.1515-108.7061-35.3379-158.1086-63.5847
		c-44.8271-26.246-87.8593-56.2141-125.1393-92.5524c-11.8578-11.8725-23.4066-24.407-31.7482-39.0601
		c-3.7515-7.0911-7.4884-15.2415-5.3699-23.4066C56.9982,35.9331,63.3537,32.6817,69.312,31.343 M110.1375,54.6465
		c2.1626,6.3555,8.7683,9.0037,14.4471,11.3723c13.1083,5.0314,26.8492,8.1356,40.4871,11.3134
		c46.9162,10.1806,94.2296,18.3309,141.337,27.5553c63.2905,12.1668,126.3898,25.4221,188.9299,41.002
		c-0.6473,23.0241,16.0212,41.3992,31.2186,56.6996c-10.4454-15.727-18.0809-33.9844-17.2276-53.1981
		c16.3302,4.031,32.528,8.5329,48.7846,12.7994c0.1618,26.3195,15.0503,49.8291,31.5569,69.2194
		c-11.1222-19.8316-18.0956-42.3996-17.154-65.2766c22.2149,6.5762,44.4739,13.0052,66.5565,20.0228
		c-1.0004,28.644,14.4911,54.6252,31.6893,76.3252c-11.6518-21.9501-18.5369-46.7249-17.4482-71.691
		c17.2864,5.5463,34.5141,11.387,51.5798,17.6101c-2.8982,32.6898,13.0054,63.3493,30.8214,89.5807
		c-11.8578-26.4667-18.7282-55.5079-16.9334-84.6228c10.7691,3.8987,21.4352,8.0768,32.1749,12.1078
		c-2.5598,39.6633,12.6669,77.8259,31.5129,111.8987c-12.564-33.808-19.2137-70.0139-17.3011-106.1463
		c14.4764,5.6788,28.8058,11.7401,43.0323,17.9926c-7.1059,22.4356-12.8288,47.1516-5.2228,70.2345
		c6.8852,21.1116,24.4511,36.765,43.0176,47.8283c-22.9947-34.7935-29.6592-80.9006-13.6821-119.8871
		c2.0745-6.3261-2.2656-13.4319-8.3121-15.5946c-86.6235-36.6767-176.6456-64.8059-267.7562-87.9329
		C425.722,110.7135,292.9914,87.5276,160.5992,63.4001C143.7541,60.649,127.0561,56.6915,110.1375,54.6465 M138.399,370.5253
		c-3.472,0.9416-7.4442,0.9268-10.1512,3.5897c14.3735,0.1765,28.5999-2.5305,42.8263-4.2812
		c46.5778-7.1058,92.8025-16.2713,138.8654-26.0547c14.3293,14.8149,36,17.3158,55.2284,21.0674
		c-4.2518-2.1038-8.7389-3.5897-13.1524-5.2669c-10.3424-4.2958-20.0964-10.4308-27.5406-18.8901
		c17.9043-3.8545,35.794-7.7678,53.6395-11.8725c3.7809,4.9873,8.4299,9.2833,13.6967,12.7258
		c14.9326,9.6216,32.2632,14.859,49.4613,18.7282l0.4855,1.5594c0.206-0.4119,0.6179-1.2357,0.8239-1.6477
		c-18.8165-6.9734-36.7209-17.816-49.4467-33.5725l-0.1177-0.9857c12.917-3.5014,26.143-5.9289,39.0895-9.3715
		c14.756,21.038,40.7813,28.9236,64.2615,35.8235c1.4712,1.0887,3.5161,1.7213,5.2521,0.765
		c-1.3535-1.2799-3.2072-1.5153-4.9285-1.7948c-19.3608-8.5182-37.8831-20.5673-50.1969-38.1038
		c9.2243-2.1038,18.4193-4.3253,27.5848-6.6498c9.9011,10.8868,22.5974,18.7871,35.897,24.8926
		c10.8721,4.6194,21.803,9.7098,33.4548,12.0049c-21.9648-10.0482-42.5614-24.1569-57.4793-43.3853
		c1.3241-2.707,3.3985-6.0318,1.5154-8.9449c-1.5742-2.6039-4.9874-2.2215-7.5472-1.8683
		C365.3445,312.9725,252.0482,342.5875,138.399,370.5253 M604.2212,431.4472c-80.9153,63.2464-158.3881,130.7592-236.9348,196.8892
		c-2.3686,1.9714-5.0756,3.722-6.5321,6.5468c8.1798-3.5457,15.4034-8.886,22.8917-13.6527
		c37.1475-25.2162,72.5884-52.8449,107.9705-80.4592c9.8128,4.2518,20.729,2.6041,30.8508,0.5443
		c6.5909-1.4711,13.2996-2.81,19.4344-5.7376c-13.4173,2.0891-27.4524,2.3833-40.3106-2.6041
		c12.3433-10.2394,25.0249-20.0817,37.4271-30.2475c6.1642,3.4572,13.2701,4.5312,20.2141,5.1344
		c14.0792,0.5296,28.2762-1.5006,41.87-5.0904c-17.6984,0.7209-35.9852-0.0735-52.2125-7.915
		c9.0772-7.7972,18.4781-15.212,27.6583-22.8916c8.5329,5.1344,18.6547,6.7527,28.4528,7.0029
		c13.4026-0.0442,26.9521-1.589,39.8987-5.061c-19.9199,1.7803-40.7225-0.6767-58.6563-9.9746
		c6.3997-5.3109,12.8288-10.5926,19.1696-15.9918c12.8582,5.2227,26.9816,6.0613,40.7077,5.4875
		c9.5922-0.6326,19.2579-1.0739,28.6588-3.2513c-21.1999,0.1176-42.841-2.3245-62.1871-11.5782
		C613.372,433.7717,609.3998,427.2543,604.2212,431.4472 M684.2685,568.0911c-2.7952-0.809-4.7519,1.3978-6.0466,3.5604
		c-33.1899,50.4911-63.8789,102.5859-95.1122,154.2982c5.4875-3.2073,8.4446-9.2538,12.6375-13.8439
		c29.0707-38.1772,54.6988-78.8262,80.1797-119.4456c3.5162-4.9434,5.8553-10.9163,10.0188-15.2269
		c15.6387-2.0156,30.7037-7.6943,44.2239-15.6975C715.5607,567.2379,699.819,569.4005,684.2685,568.0911z"/>
	<path fill="#FFFFFF" stroke="#FFFFFF" stroke-width="0.2029" d="M2447.5608,42.3474c33.0723-4.3253,66.2034-8.224,99.364-11.8872
		c10.313-0.6179,21.553-1.2505,30.8213,4.1635c5.4436,3.1925,7.6504,10.0041,6.3557,16.0065
		c-2.2363,11.4312-9.136,21.2292-16.0654,30.3212c-15.7417,19.8316-34.6611,36.8827-54.1543,52.9333
		c-44.4153,35.8823-93.2,66.3654-144.8091,90.787c-29.262,13.7262-59.6274,25.3485-91.0813,32.9694
		c-26.5549,6.2231-54.1838,9.7245-81.3567,5.8553c57.803,17.4482,115.959,33.7785,173.865,50.859
		c50.4617,14.6236,100.894,29.3207,151.3411,44.0032c7.8416,2.3098,16.6833,5.5611,20.6851,13.2996
		c3.3542,6.5615,0.0881,14.1674-3.9136,19.6256c-8.062,10.6808-19.4343,18.228-30.8066,24.9514
		c-25.2161,14.2705-52.8745,23.6566-80.8564,30.7331c-124.0063,29.9828-257.9434,11.8578-371.4309-45.6363
		c17.8308,16.8598,36.6033,32.7928,54.7576,49.3436c62.4226,55.8022,124.8599,111.5896,187.2529,167.4212
		c5.7524,5.267,11.7842,12.6522,9.9453,21.0233c-2.2068,7.9739-10.0481,12.5198-17.1833,15.5504
		c-16.1392,6.3703-33.7493,7.6061-50.9329,7.6061c-34.0283-0.3236-67.748-7.2531-99.967-17.9191
		c-60.3335-20.0376-115.4293-54.8165-160.6243-99.4081c29.4972,65.2324,59.2888,130.3325,88.8892,195.5209
		c2.0154,3.7222,1.8831,9.2979-2.4275,11.3281c-7.2234,3.222-15.4622,1.486-22.9211,0.0442
		c-26.3638-6.2526-50.7706-18.7871-73.78-32.7928c-42.4291-26.4814-80.2827-61.1572-107.4115-103.3804
		c-18.7429-29.306-31.7629-62.5547-35.9115-97.1866c-1.236-10.4307-1.236-21.4793-6.2086-30.9833
		c-2.442-4.9137-7.915-8.2828-13.4612-6.9734c-10.6809,2.3393-19.0962,9.8865-27.4377,16.4921
		c-13.123,10.563-24.8926,23.2005-39.9281,31.145c2.2657-34.8965-3.1631-70.0873-13.9762-103.2626
		c15.6093-29.3355,24.7748-61.7753,29.6885-94.5385c4.8696-31.101,5.4729-62.702,4.3695-94.112
		c0.0148-12.9612,9.2684-23.4948,18.5812-31.454c20.9349-17.154,46.048-28.0849,70.9259-38.1626
		c59.7007-23.2153,121.9762-38.8393,184.2662-53.3599C2169.1973,82.5403,2308.21,60.5607,2447.5608,42.3474 M2172.9343,122.4389
		c-122.094,27.0845-243.2611,60.6277-358.5726,109.5447c-5.12,1.9861-8.6801,7.4-8.3712,12.9023
		c0.5885,3.7222,2.3245,7.15,3.5015,10.7397c11.9902,37.1475,4.7814,79.3118-16.7568,111.6044
		c14.7266-8.5182,28.2322-20.0082,37.1475-34.6612c9.901-16.4478,11.3135-36.6473,7.8121-55.1695
		c-1.2947-9.6657-4.5461-18.9342-6.7969-28.3204c14.1381-6.2085,28.379-12.1962,42.7378-17.8897
		c1.7361,36.1766-4.4135,72.7208-17.6984,106.3963c4.2078-6.2378,7.2825-13.123,10.5337-19.8905
		c13.8146-28.5999,23.4656-60.1568,21.3323-92.2434c10.8279-3.884,21.4353-8.3563,32.3514-12.0343
		c1.2799,29.056-4.752,58.3326-17.3746,84.5197c3.3102-3.6632,5.7522-7.9738,8.2533-12.2108
		c14.0498-23.1418,25.4514-49.682,22.9946-77.3256c16.9629-6.4291,34.2933-11.799,51.418-17.7866
		c1.2212,24.657-5.6641,48.9758-16.6832,70.8229c6.3849-7.0911,11.1663-15.4768,16.1979-23.539
		c9.0479-15.6534,15.6387-33.4253,14.6824-51.7417c22.0973-7.0176,44.4005-13.3731,66.6007-20.067
		c1.074,23.1124-6.1936,45.7834-17.2864,65.8209c16.2712-19.7433,31.7334-43.0763,31.6599-69.6313
		c16.1831-4.5018,32.4543-8.6359,48.6816-12.9759c1.0298,19.1254-6.3411,37.6183-17.1541,53.0658
		c5.3257-4.2077,9.4302-9.6804,13.9028-14.7413c9.5332-11.7695,18.272-25.8782,17.4187-41.6052
		c87.6238-22.2444,176.5425-38.9128,265.3435-55.6402c34.0432-6.8263,68.5278-12.3138,101.6736-22.9359
		c6.6646-2.9129,15.8743-5.0021,17.978-13.0642C2409.7512,75.92,2290.7764,96.443,2172.9343,122.4389 M2153.0437,289.2422
		c-4.1636,2.3686-1.8242,7.503-0.2795,10.8132c-15.1089,19.2137-35.7939,33.1459-57.7441,43.4148
		c10.8425-2.4274,21.1116-6.8852,31.3364-11.181c14.1086-6.2967,27.8643-14.3,38.2361-25.9518
		c9.2686,2.148,18.4927,4.4871,27.7612,6.6644c-13.1082,18.2575-32.6016,30.8067-53.1541,39.1925
		c9.8865-1.0887,19.155-5.1785,28.5117-8.3416c14.9326-5.8553,29.7473-14.1087,39.0454-27.6142
		c13.0935,3.3984,26.3489,6.1937,39.5161,9.3127c-12.2109,16.1831-30.2183,27.0404-48.917,34.1904
		c0.0146,0.2207,0.0295,0.6473,0.0442,0.868c22.6855-6.1938,48.0488-12.3875,63.3345-31.7777
		c17.8455,4.0605,35.7058,8.0475,53.625,11.8284c-10.6074,12.6375-26.3491,18.5075-41.1934,24.407
		c19.1694-4.1634,41.208-6.076,55.3901-21.2145c46.5779,9.5627,93.2,19.1255,140.2485,26.1283
		c13.8438,1.7213,27.6875,4.2664,41.6934,4.1635c-0.5886-0.4414-1.7654-1.3094-2.3391-1.7507
		c-113.4729-27.7467-226.5188-57.4352-340.8303-81.6216C2162.6064,289.9631,2157.8103,287.874,2153.0437,289.2422
		 M2028.9784,430.0643c-1.736,2.3687-2.8982,5.0756-2.3539,8.0915c-19.243,9.9012-41.2667,11.9755-62.5842,12.049
		c9.2389,2.1185,18.7429,2.5598,28.1879,3.1778c13.8733,0.6767,28.1438-0.1765,41.1638-5.4287
		c6.3408,5.311,12.6523,10.7102,19.1842,15.8446c-17.9042,9.5627-38.9423,11.9313-58.9209,10.0189
		c9.4597,2.9276,19.4343,3.678,29.2472,4.8401c13.3436,0.9121,27.6141,0.2796,39.4279-6.6938
		c9.1067,7.7237,18.5222,15.0797,27.5847,22.8769c-16.2712,8.0034-34.6465,8.4153-52.3743,8.121
		c10.1807,2.5159,20.6113,3.9576,31.0715,4.855c10.519,0.5738,21.6853-0.0589,31.1743-5.1049
		c12.4758,10.0776,24.9221,20.1994,37.53,30.1151c-12.9463,5.3994-27.2463,4.6638-40.8254,2.7512
		c6.6792,2.8392,13.7703,4.4724,20.8616,5.9436c9.8716,2.0448,20.4495,3.2071,30.0269-0.7208
		c33.4548,26.3783,67.1892,52.4477,102.2476,76.6636c9.2537,6.0613,18.2134,12.8582,28.3938,17.3157
		c-1.9419-3.5013-5.5903-5.4434-8.4297-8.0621c-77.1492-65.1295-153.5332-131.2446-232.8597-193.7407
		C2034.569,431.0059,2031.8473,430.0643,2028.9784,430.0643 M1908.3851,561.8533c14.0205,7.6795,29.1443,13.9174,45.1803,15.6387
		c27.2904,44.3269,55.0812,88.4625,86.1527,130.2737c5.1786,6.1937,9.4008,13.4319,15.9037,18.3751
		c-30.6304-51.4329-61.334-102.9244-94.0974-153.0624c-1.6329-2.6922-3.8103-6.0319-7.4589-4.9727
		C1938.5444,569.5181,1923.0383,566.8848,1908.3851,561.8533z"/>
	<path fill="#110B0B" stroke="#110B0B" stroke-width="0.1379" d="M110.1375,54.6465c16.9187,2.045,33.6166,6.0025,50.4618,8.7536
		c132.3922,24.1275,265.1228,47.3134,395.6465,80.4593c91.1107,23.127,181.1327,51.2562,267.7562,87.9329
		c6.0466,2.1626,10.3866,9.2685,8.3121,15.5946c-15.9771,38.9865-9.3126,85.0936,13.6821,119.8871
		c-18.5665-11.0633-36.1324-26.7167-43.0176-47.8283c-7.606-23.0829-1.8831-47.7989,5.2228-70.2345
		c-14.2264-6.2525-28.5558-12.3138-43.0323-17.9926c-1.9126,36.1324,4.7372,72.3383,17.3011,106.1463
		c-18.8459-34.0728-34.0727-72.2354-31.5129-111.8987c-10.7396-4.031-21.4058-8.2092-32.1749-12.1078
		c-1.7948,29.1149,5.0756,58.1561,16.9334,84.6228c-17.816-26.2313-33.7196-56.8908-30.8214-89.5807
		c-17.0657-6.2231-34.2934-12.0638-51.5798-17.6101c-1.0887,24.966,5.7964,49.7409,17.4482,71.691
		c-17.1982-21.7-32.6898-47.6812-31.6893-76.3252c-22.0826-7.0176-44.3416-13.4467-66.5565-20.0228
		c-0.9416,22.877,6.0318,45.445,17.154,65.2766c-16.5067-19.3902-31.3951-42.8999-31.5569-69.2194
		c-16.2567-4.2665-32.4544-8.7683-48.7846-12.7994c-0.8533,19.2137,6.7822,37.4711,17.2276,53.1981
		c-15.1974-15.3003-31.8659-33.6754-31.2186-56.6996c-62.5402-15.5799-125.6394-28.8352-188.9299-41.002
		c-47.1075-9.2244-94.4209-17.3747-141.337-27.5553c-13.6379-3.1778-27.3788-6.282-40.4871-11.3134
		C118.9057,63.6502,112.3001,61.0021,110.1375,54.6465z"/>
	<path fill="#110B0B" stroke="#110B0B" stroke-width="0.1379" d="M2172.9343,122.4389
		c117.842-25.9959,236.8169-46.519,355.5271-68.0572c-2.1038,8.0621-11.3135,10.1512-17.978,13.0642
		c-33.1458,10.622-67.6304,16.1095-101.6736,22.9359c-88.801,16.7274-177.7197,33.3959-265.3435,55.6402
		c0.8533,15.727-7.8855,29.8357-17.4187,41.6052c-4.4727,5.0609-8.5771,10.5337-13.9028,14.7413
		c10.813-15.4475,18.1838-33.9403,17.1541-53.0658c-16.2273,4.34-32.4985,8.4741-48.6816,12.9759
		c0.0735,26.5549-15.3887,49.8879-31.6599,69.6313c11.0928-20.0376,18.3604-42.7085,17.2864-65.8209
		c-22.2002,6.6939-44.5034,13.0494-66.6007,20.067c0.9563,18.3163-5.6345,36.0883-14.6824,51.7417
		c-5.0316,8.0622-9.813,16.4479-16.1979,23.539c11.0192-21.8471,17.9044-46.1659,16.6832-70.8229
		c-17.1246,5.9877-34.4551,11.3575-51.418,17.7866c2.4568,27.6436-8.9448,54.1839-22.9946,77.3256
		c-2.5011,4.237-4.9431,8.5476-8.2533,12.2108c12.6227-26.1871,18.6545-55.4637,17.3746-84.5197
		c-10.9161,3.678-21.5236,8.1504-32.3514,12.0343c2.1333,32.0866-7.5177,63.6435-21.3323,92.2434
		c-3.2512,6.7675-6.3259,13.6527-10.5337,19.8905c13.2849-33.6755,19.4344-70.2198,17.6984-106.3963
		c-14.3588,5.6935-28.5997,11.6812-42.7378,17.8897c2.2507,9.3862,5.5022,18.6547,6.7969,28.3204
		c3.5013,18.5222,2.0889,38.7217-7.8121,55.1695c-8.9153,14.653-22.4209,26.143-37.1475,34.6612
		c21.5382-32.2926,28.7471-74.4569,16.7568-111.6044c-1.177-3.5896-2.913-7.0175-3.5015-10.7397
		c-0.3088-5.5022,3.2512-10.9162,8.3712-12.9023C1929.6732,183.0666,2050.8403,149.5234,2172.9343,122.4389z"/>
	<path fill="#FFFFFF" stroke="#FFFFFF" stroke-width="0.2029" d="M1094.8771,282.2688c38.0449-5.87,77.7965,1.7948,111.3837,20.4494
		c38.0597,20.9203,68.1307,54.6988,87.6387,93.2292c16.0507,31.8954,25.4662,67.1598,27.1876,102.8361l-1.3389,1.6035
		c2.707,0.1178,1.6919-3.5309,2.2656-5.1786c3.722-54.0808,24.2157-107.4408,60.1716-148.3104
		c16.4625-18.7136,36.1765-34.6759,58.3177-46.1659c32.2338-16.9628,69.808-23.9215,105.9255-18.7136
		c48.6082,6.4292,92.6703,34.5141,122.962,72.5296c39.619,49.4172,58.2148,114.3995,53.8307,177.3222
		c-3.2954,37.2064-16.7716,72.7796-34.4111,105.4548c-23.2888,42.7084-53.6248,81.1359-86.4323,116.8858
		c-37.4564,40.546-78.5026,77.6346-121.226,112.5311c-47.0338,38.2509-96.1421,73.942-146.6774,107.4409
		c-4.384,2.9424-8.8124,5.7964-13.0052,8.989c-23.0829-16.1536-46.8721-31.3364-69.6313-47.9607
		c-47.1222-33.705-92.9644-69.2929-136.2467-107.8234c-41.2227-36.6913-80.3121-76.0164-114.4584-119.4457
		c-19.8463-25.4663-37.9567-52.389-52.492-81.2538c-14.8001-29.6443-26.0253-61.5839-28.8058-94.7738
		c-4.2518-60.4658,12.6669-122.7559,49.1376-171.4229C999.1469,319.9753,1044.3564,289.4335,1094.8771,282.2688 M1242.658,501.8142
		c-6.9146,2.8098-12.0933,9.2831-13.3584,16.639c-2.5598,12.2697,7.5767,25.1573,20.0818,25.7311
		c12.505,1.2947,24.4951-10.0187,23.5536-22.6416C1273.2292,506.7132,1256.1193,495.7527,1242.658,501.8142 M1382.406,501.8142
		c-9.7391,3.8838-15.7711,15.2562-13.0935,25.4809c2.4716,11.1368,14.4912,19.1107,25.7458,16.5361
		c12.3431-2.1331,20.8761-16.0654,16.8156-28.0262C1408.5049,503.6972,1393.9255,496.8269,1382.406,501.8142 M1300.5492,524.2498
		c-15.5063,8.3268-30.6155,17.3746-46.0924,25.7458c-2.3979,0.9856-3.5308,3.3689-4.5459,5.5905
		c-5.1786-2.251-10.1217-5.0609-15.4769-6.8998c-28.4822-11.0339-61.4956-9.1802-88.6831,4.6931
		c-26.8934,13.4614-47.9314,37.0298-60.6865,64.0261c-14.3,30.3212-19.4933,65.3207-12.8877,98.3047
		c9.239,40.958,33.5284,76.5607,60.2599,108.1617c53.9191,62.5697,120.6815,112.3693,189.0918,157.9467
		c44.7241-29.9534,88.7126-61.2896,128.8761-97.2455c37.2651-33.4254,72.7061-70.0138,98.084-113.5022
		c14.2706-24.8336,25.1573-52.6684,25.1868-81.6802c0.3384-34.3524-10.0776-68.984-30.5272-96.7161
		c-14.9178-20.2875-35.5585-36.7355-59.4652-45.0183c-29.3209-10.4749-62.8198-7.2823-89.9779,7.7974
		c-1.1182-1.8684-2.1332-3.9723-4.2076-4.8992c-10.6956-5.9288-21.3763-11.8871-31.9395-18.0366
		c-9.5627-5.2817-18.8754-11.4901-29.5415-14.2706C1318.4387,515.5109,1308.9203,520.0273,1300.5492,524.2498z"/>
	<path fill="#110B0B" stroke="#110B0B" stroke-width="0.1379" d="M138.399,370.5253
		c113.6493-27.9378,226.9455-57.5529,341.5216-81.5332c2.5598-0.3531,5.973-0.7356,7.5472,1.8683
		c1.8831,2.913-0.1913,6.2378-1.5154,8.9449c14.9179,19.2284,35.5145,33.3371,57.4793,43.3853
		c-11.6517-2.295-22.5827-7.3854-33.4548-12.0049c-13.2996-6.1055-25.9959-14.0057-35.897-24.8926
		c-9.1655,2.3245-18.3604,4.546-27.5848,6.6498c12.3138,17.5365,30.8361,29.5856,50.1969,38.1038
		c1.7213,0.2795,3.575,0.5149,4.9285,1.7948c-1.736,0.9563-3.7809,0.3237-5.2521-0.765
		c-23.4802-6.8999-49.5055-14.7855-64.2615-35.8235c-12.9465,3.4426-26.1725,5.87-39.0895,9.3715l0.1177,0.9857
		c12.7258,15.7565,30.6301,26.5991,49.4467,33.5725c-0.206,0.412-0.6179,1.2358-0.8239,1.6477l-0.4855-1.5594
		c-17.1982-3.8692-34.5288-9.1067-49.4613-18.7282c-5.2668-3.4425-9.9158-7.7385-13.6967-12.7258
		c-17.8455,4.1047-35.7352,8.018-53.6395,11.8725c7.4442,8.4593,17.1982,14.5942,27.5406,18.8901
		c4.4136,1.6772,8.9007,3.1631,13.1524,5.2669c-19.2284-3.7516-40.899-6.2526-55.2284-21.0674
		c-46.0629,9.7834-92.2876,18.9489-138.8654,26.0547c-14.2264,1.7507-28.4528,4.4577-42.8263,4.2812
		C130.9548,371.4522,134.927,371.4669,138.399,370.5253z"/>
	<path fill="#110B0B" stroke="#110B0B" stroke-width="0.1379" d="M2153.0437,289.2422c4.7666-1.3682,9.5627,0.7209,14.2852,1.53
		c114.3115,24.1863,227.3574,53.8749,340.8303,81.6216c0.5737,0.4413,1.7505,1.3093,2.3391,1.7507
		c-14.0059,0.1029-27.8496-2.4422-41.6934-4.1635c-47.0486-7.0029-93.6707-16.5656-140.2485-26.1283
		c-14.1821,15.1385-36.2207,17.0511-55.3901,21.2145c14.8442-5.8995,30.5859-11.7695,41.1934-24.407
		c-17.9192-3.781-35.7795-7.7679-53.625-11.8284c-15.2856,19.3903-40.6489,25.584-63.3345,31.7777
		c-0.0146-0.2207-0.0295-0.6473-0.0442-0.868c18.6987-7.15,36.7061-18.0073,48.917-34.1904
		c-13.1672-3.1189-26.4226-5.9142-39.5161-9.3127c-9.2981,13.5055-24.1128,21.7589-39.0454,27.6142
		c-9.3567,3.1631-18.6252,7.253-28.5117,8.3416c20.5525-8.3858,40.0459-20.935,53.1541-39.1925
		c-9.2686-2.1773-18.4927-4.5164-27.7612-6.6644c-10.3718,11.6518-24.1274,19.6551-38.2361,25.9518
		c-10.2249,4.2958-20.4939,8.7536-31.3364,11.181c21.9502-10.2689,42.6353-24.2011,57.7441-43.4148
		C2151.2195,296.7452,2148.8801,291.6108,2153.0437,289.2422z"/>
	<path fill="#110B0B" stroke="#110B0B" stroke-width="0.1379" d="M604.2212,431.4472c5.1786-4.1928,9.1508,2.3245,8.3711,7.1501
		c19.3461,9.2538,40.9872,11.6959,62.1871,11.5782c-9.4009,2.1773-19.0667,2.6187-28.6588,3.2513
		c-13.7261,0.5738-27.8495-0.2648-40.7077-5.4875c-6.3408,5.3992-12.7699,10.6808-19.1696,15.9918
		c17.9338,9.2979,38.7364,11.7549,58.6563,9.9746c-12.9465,3.472-26.4961,5.0168-39.8987,5.061
		c-9.7981-0.2502-19.9199-1.8684-28.4528-7.0029c-9.1802,7.6795-18.5811,15.0944-27.6583,22.8916
		c16.2272,7.8416,34.5141,8.6359,52.2125,7.915c-13.5938,3.5898-27.7908,5.62-41.87,5.0904
		c-6.944-0.6032-14.0499-1.6772-20.2141-5.1344c-12.4022,10.1658-25.0837,20.0081-37.4271,30.2475
		c12.8582,4.9874,26.8933,4.6932,40.3106,2.6041c-6.1349,2.9276-12.8435,4.2665-19.4344,5.7376
		c-10.1218,2.0598-21.038,3.7075-30.8508-0.5443c-35.382,27.6143-70.823,55.243-107.9705,80.4592
		c-7.4883,4.7667-14.7119,10.1071-22.8917,13.6527c1.4565-2.8248,4.1635-4.5754,6.5321-6.5468
		C445.8331,562.2064,523.3059,494.6935,604.2212,431.4472z"/>
	<path fill="#110B0B" stroke="#110B0B" stroke-width="0.1379" d="M2028.9784,430.0643c2.8689,0,5.5906,0.9416,7.7532,2.913
		c79.3265,62.496,155.7106,128.6111,232.8597,193.7407c2.8394,2.6187,6.4878,4.5608,8.4297,8.0621
		c-10.1804-4.4576-19.1401-11.2545-28.3938-17.3157c-35.0583-24.2159-68.7927-50.2853-102.2476-76.6636
		c-9.5774,3.9279-20.1553,2.7656-30.0269,0.7208c-7.0913-1.4712-14.1824-3.1044-20.8616-5.9436
		c13.5791,1.9126,27.8792,2.6482,40.8254-2.7512c-12.6079-9.9158-25.0542-20.0375-37.53-30.1151
		c-9.489,5.0461-20.6553,5.6787-31.1743,5.1049c-10.4602-0.8974-20.8909-2.3391-31.0715-4.855
		c17.7278,0.2943,36.103-0.1176,52.3743-8.121c-9.0625-7.7972-18.478-15.1531-27.5847-22.8769
		c-11.8137,6.9734-26.0842,7.6059-39.4279,6.6938c-9.8129-1.1621-19.7875-1.9124-29.2472-4.8401
		c19.9786,1.9124,41.0167-0.4561,58.9209-10.0189c-6.5319-5.1344-12.8434-10.5337-19.1842-15.8446
		c-13.02,5.2522-27.2905,6.1054-41.1638,5.4287c-9.4449-0.618-18.949-1.0593-28.1879-3.1778
		c21.3175-0.0735,43.3412-2.1479,62.5842-12.049C2026.0802,435.1399,2027.2424,432.433,2028.9784,430.0643z"/>
	<path fill="#110B0B" stroke="#110B0B" stroke-width="0.2029" d="M1242.658,501.8142c13.4613-6.0615,30.5713,4.899,30.277,19.7285
		c0.9415,12.6229-11.0486,23.9363-23.5536,22.6416c-12.5051-0.5738-22.6416-13.4614-20.0818-25.7311
		C1230.5647,511.0973,1235.7434,504.6241,1242.658,501.8142 M1239.5537,510.3912c-6.0024,2.1774-2.1185,12.2108,3.8839,9.5922
		C1250.1315,517.9678,1245.7621,507.1252,1239.5537,510.3912z"/>
	<path fill="#110B0B" stroke="#110B0B" stroke-width="0.2029" d="M1382.406,501.8142c11.5195-4.9873,26.0989,1.883,29.4679,13.9908
		c4.0605,11.9608-4.4724,25.8931-16.8156,28.0262c-11.2546,2.5746-23.2743-5.3993-25.7458-16.5361
		C1366.6349,517.0704,1372.6669,505.698,1382.406,501.8142 M1377.2863,511.2739c-1.78,3.2365-1.0298,8.2092,3.1779,8.9595
		c4.9873,1.236,8.5917-6.1495,4.2959-9.136C1382.6119,508.9347,1379.5962,510.2736,1377.2863,511.2739z"/>
	<path fill="#FFFFFF" stroke="#FFFFFF" stroke-width="0.1379" d="M1239.5537,510.3912c6.2084-3.266,10.5778,7.5767,3.8839,9.5922
		C1237.4352,522.6019,1233.5513,512.5685,1239.5537,510.3912z"/>
	<path fill="#FFFFFF" stroke="#FFFFFF" stroke-width="0.1379" d="M1377.2863,511.2739c2.3099-1.0003,5.3257-2.3391,7.4738-0.1765
		c4.2958,2.9865,0.6914,10.372-4.2959,9.136C1376.2565,519.483,1375.5062,514.5104,1377.2863,511.2739z"/>
	<path fill="#110B0B" stroke="#110B0B" stroke-width="0.2029" d="M1300.5492,524.2498c8.3711-4.2225,17.8895-8.739,27.467-6.0026
		c10.6661,2.7806,19.9788,8.989,29.5415,14.2706c10.5631,6.1495,21.2439,12.1078,31.9395,18.0366
		c2.0745,0.9269,3.0895,3.0308,4.2076,4.8992c27.1581-15.0797,60.657-18.2722,89.9779-7.7974
		c23.9067,8.2828,44.5474,24.7308,59.4652,45.0183c20.4496,27.7321,30.8656,62.3637,30.5272,96.7161
		c-0.0294,29.0118-10.9161,56.8466-25.1868,81.6802c-25.3779,43.4884-60.8188,80.0768-98.084,113.5022
		c-40.1635,35.9559-84.152,67.2921-128.8761,97.2455c-68.4103-45.5774-135.1727-95.377-189.0918-157.9467
		c-26.7314-31.6011-51.0209-67.2037-60.2599-108.1617c-6.6056-32.9839-1.4124-67.9835,12.8877-98.3047
		c12.7551-26.9963,33.7931-50.5648,60.6865-64.0261c27.1875-13.8732,60.2009-15.7269,88.6831-4.6931
		c5.3552,1.839,10.2983,4.6489,15.4769,6.8998c1.0151-2.2216,2.1479-4.6049,4.5459-5.5905
		C1269.9337,541.6245,1285.0428,532.5767,1300.5492,524.2498 M1303.874,527.7366c-12.6963,7.1939-24.9513,15.1089-37.6329,22.3325
		c-5.3257,2.2804-7.0176,9.754-3.9133,14.4324c17.8601,28.2615,35.588,56.626,53.4777,84.8727
		c1.3976,2.3539,3.4426,4.1929,5.6346,5.8406c4.3546-2.3833,6.5173-6.9882,9.1067-10.975
		c16.9186-26.8786,33.8079-53.772,50.7411-80.6504c2.7513-4.1194,1.2507-10.5927-3.2365-12.8289
		c-10.9604-6.2379-21.6559-12.9316-32.4545-19.4343c-6.2378-3.678-12.5345-7.5914-19.6403-9.2831
		C1318.0857,520.2922,1310.5826,524.1026,1303.874,527.7366 M1164.0377,553.8207c-23.9657,8.165-44.5918,24.7306-59.2743,45.1948
		c-18.5074,25.6282-27.9525,57.3027-28.2026,88.8009c-0.1765,18.4487,4.4136,36.662,11.4017,53.6542
		c9.9452,23.8334,24.4364,45.5039,40.5607,65.5857c17.9337,22.1118,37.9567,42.4437,59.0535,61.525
		c41.4581,37.6624,87.1384,70.3082,133.8634,101.056c40.693-26.614,80.4445-54.8312,117.4302-86.4617
		c35.8088-30.9097,69.9845-64.5116,96.0834-104.2191c16.845-25.9663,30.3506-55.4048,31.4246-86.8146
		c0.5885-31.5424-7.9592-63.5259-25.7753-89.7132c-14.2411-21.2291-34.7053-38.6039-58.7592-47.5781
		c-28.1292-10.6661-60.8337-8.9006-87.4769,5.1933c-1.7802,6.0908-6.3113,10.7985-9.5186,16.1536
		c-17.8896,26.6727-35.691,53.4042-53.5219,80.1208c-2.7659,4.0165-5.1786,8.6653-9.8275,10.7986
		c-5.1639-2.663-7.812-7.9739-10.9604-12.5345c-18.8605-28.2175-37.7212-56.4495-56.5818-84.6817
		c-2.0891-3.0305-4.4282-6.0613-5.0021-9.798C1223.0618,546.5824,1191.6224,544.1843,1164.0377,553.8207z"/>
	<path fill="#FFFFFF" stroke="#FFFFFF" stroke-width="0.1379" d="M1303.874,527.7366c6.7086-3.634,14.2117-7.4443,22.0826-5.6935
		c7.1057,1.6918,13.4025,5.6052,19.6403,9.2831c10.7986,6.5027,21.494,13.1965,32.4545,19.4343
		c4.4872,2.2362,5.9878,8.7095,3.2365,12.8289c-16.9332,26.8784-33.8225,53.7718-50.7411,80.6504
		c-2.5894,3.9869-4.7521,8.5917-9.1067,10.975c-2.192-1.6477-4.2371-3.4867-5.6346-5.8406
		c-17.8896-28.2468-35.6176-56.6113-53.4777-84.8727c-3.1042-4.6785-1.4124-12.152,3.9133-14.4324
		C1278.9227,542.8455,1291.1777,534.9305,1303.874,527.7366z"/>
	<path fill="#FFFFFF" stroke="#FFFFFF" stroke-width="0.1379" d="M1164.0377,553.8207c27.5847-9.6364,59.024-7.2383,84.9169,6.282
		c0.5739,3.7367,2.913,6.7675,5.0021,9.798c18.8606,28.2322,37.7213,56.4642,56.5818,84.6817
		c3.1484,4.5606,5.7965,9.8716,10.9604,12.5345c4.6489-2.1334,7.0616-6.7822,9.8275-10.7986
		c17.8308-26.7167,35.6322-53.4482,53.5219-80.1208c3.2073-5.3552,7.7384-10.0629,9.5186-16.1536
		c26.6432-14.0939,59.3478-15.8594,87.4769-5.1933c24.0538,8.9742,44.5181,26.349,58.7592,47.5781
		c17.816,26.1873,26.3638,58.1708,25.7753,89.7132c-1.074,31.4099-14.5796,60.8483-31.4246,86.8146
		c-26.0989,39.7075-60.2745,73.3094-96.0834,104.2191c-36.9857,31.6305-76.7372,59.8478-117.4302,86.4617
		c-46.725-30.7479-92.4053-63.3936-133.8634-101.056c-21.0968-19.0812-41.1198-39.4131-59.0535-61.525
		c-16.1243-20.0818-30.6155-41.7523-40.5607-65.5857c-6.9882-16.9921-11.5782-35.2054-11.4017-53.6542
		c0.2501-31.4982,9.6952-63.1727,28.2026-88.8009C1119.4459,578.5513,1140.072,561.9857,1164.0377,553.8207z"/>
	<path fill="#110B0B" stroke="#110B0B" stroke-width="0.1379" d="M684.2685,568.0911c15.5505,1.3094,31.2922-0.8532,45.9011-6.3555
		c-13.5203,8.0032-28.5852,13.6819-44.2239,15.6975c-4.1635,4.3106-6.5026,10.2836-10.0188,15.2269
		c-25.481,40.6194-51.109,81.2684-80.1797,119.4456c-4.1928,4.5901-7.1499,10.6367-12.6375,13.8439
		c31.2333-51.7123,61.9223-103.8071,95.1122-154.2982C679.5166,569.4889,681.4733,567.2821,684.2685,568.0911z"/>
	<path fill="#110B0B" stroke="#110B0B" stroke-width="0.1379" d="M1908.3851,561.8533c14.6532,5.0315,30.1593,7.6648,45.6804,6.2525
		c3.6486-1.0592,5.8259,2.2805,7.4589,4.9727c32.7634,50.138,63.467,101.6296,94.0974,153.0624
		c-6.5029-4.9432-10.7251-12.1815-15.9037-18.3751c-31.0715-41.8112-58.8623-85.9468-86.1527-130.2737
		C1937.5294,575.7707,1922.4056,569.5328,1908.3851,561.8533z"/>
</g>
</svg>
