<?xml version="1.0" encoding="UTF-8" standalone="no"?>
<!-- Created with Inkscape (http://www.inkscape.org/) -->

<svg
   xmlns:dc="http://purl.org/dc/elements/1.1/"
   xmlns:cc="http://creativecommons.org/ns#"
   xmlns:rdf="http://www.w3.org/1999/02/22-rdf-syntax-ns#"
   xmlns:svg="http://www.w3.org/2000/svg"
   xmlns="http://www.w3.org/2000/svg"
   version="1.1"
   width="401.56931"
   height="1009.9976"
   id="svg2">
  <title
     id="title3058">Big Bird</title>
  <defs
     id="defs4" />
  <metadata
     id="metadata7">
    <rdf:RDF>
      <cc:Work
         rdf:about="">
        <dc:format>image/svg+xml</dc:format>
        <dc:type
           rdf:resource="http://purl.org/dc/dcmitype/StillImage" />
        <dc:title>Big Bird</dc:title>
        <dc:date>2015</dc:date>
        <dc:creator>
          <cc:Agent>
            <dc:title>Doodleguy</dc:title>
          </cc:Agent>
        </dc:creator>
        <dc:rights>
          <cc:Agent>
            <dc:title>Public Domain</dc:title>
          </cc:Agent>
        </dc:rights>
        <cc:license
           rdf:resource="http://creativecommons.org/licenses/publicdomain/" />
      </cc:Work>
      <cc:License
         rdf:about="http://creativecommons.org/licenses/publicdomain/">
        <cc:permits
           rdf:resource="http://creativecommons.org/ns#Reproduction" />
        <cc:permits
           rdf:resource="http://creativecommons.org/ns#Distribution" />
        <cc:permits
           rdf:resource="http://creativecommons.org/ns#DerivativeWorks" />
      </cc:License>
    </rdf:RDF>
  </metadata>
  <g
     transform="translate(-149.60484,-18.803681)"
     id="layer1">
    <path
       d="m 150.18848,1027.4847 c -0.92787,-1.118 -0.7885,-1.9238 0.70036,-4.0499 1.02231,-1.4596 1.64984,-3.2496 1.39453,-3.9777 -0.25531,-0.7282 -0.0417,-1.0627 0.47467,-0.7436 0.55763,0.3447 0.75908,-0.3602 0.4961,-1.7359 -0.85616,-4.4787 1.6323,-11.6232 5.21175,-14.9631 1.85697,-1.7328 4.94722,-4.68522 6.86723,-6.56102 2.18658,-2.1363 5.13809,-3.8254 7.89946,-4.5206 2.42469,-0.6107 5.62233,-1.6152 7.10586,-2.2324 3.04263,-1.266 7.67536,-2.7323 16.03795,-5.0759 3.14458,-0.8814 6.36062,-2.174 7.14677,-2.8725 1.37174,-1.2189 25.31577,-5.6043 36.2103,-6.6319 2.88253,-0.2719 6.4164,-0.745 7.85305,-1.0515 1.43664,-0.3064 10.65597,-0.6846 20.4874,-0.8404 14.40067,-0.22836 18.61623,-0.60438 21.68693,-1.93463 2.09639,-0.90812 4.15453,-2.24818 4.57364,-2.97792 0.41912,-0.72973 1.3151,-1.32682 1.99108,-1.32682 1.34969,0 3.40924,-3.88889 4.03719,-7.62322 0.22033,-1.31024 0.88256,-4.74069 1.47164,-7.62322 1.16996,-5.72504 1.47777,-26.921 0.47405,-32.64312 -0.66894,-3.8135 -2.49526,-7.37879 -3.77981,-7.37879 -0.42858,0 -4.72069,-3.88284 -9.53803,-8.62853 -12.69797,-12.50914 -13.93491,-13.60052 -19.71716,-17.39682 -2.88253,-1.89251 -7.06339,-5.1232 -9.2908,-7.17931 -3.86151,-3.56452 -4.75618,-5.97291 -4.15647,-11.18895 0.10397,-0.90431 -7.57143,-4.12602 -8.24978,-3.46279 -0.1412,0.13806 -1.21322,-0.65193 -2.38226,-1.75552 -1.16903,-1.1036 -3.30473,-2.62438 -4.746,-3.37951 -1.44126,-0.75512 -2.62048,-1.79075 -2.62048,-2.30139 0,-0.51064 -0.64321,-0.92843 -1.42935,-0.92843 -0.78615,0 -1.42936,-0.34985 -1.42936,-0.77744 0,-0.42758 -1.65823,-1.70941 -3.68497,-2.8485 -2.02672,-1.13908 -6.85079,-5.07544 -10.72015,-8.74744 -3.86935,-3.67201 -7.46399,-6.68481 -7.98809,-6.69511 -0.52409,-0.0103 -0.32171,-0.41792 0.44974,-0.9058 1.20158,-0.75988 1.16742,-0.97732 -0.23822,-1.51671 -0.90248,-0.34631 -1.64087,-1.19779 -1.64087,-1.89217 0,-0.69439 -1.31365,-2.19793 -2.91923,-3.3412 -1.76579,-1.25736 -2.71137,-2.62032 -2.39317,-3.44953 0.33479,-0.87243 0.12467,-1.12281 -0.57786,-0.68861 -0.73565,0.45464 -0.90239,0.15707 -0.49984,-0.89198 0.37247,-0.97063 0.16053,-1.48728 -0.55274,-1.34744 -0.63626,0.12473 -1.02952,-0.52936 -0.87391,-1.45354 0.15561,-0.92418 -0.3804,-1.93488 -1.19113,-2.24598 -0.81073,-0.31112 -1.47405,-1.16298 -1.47405,-1.89306 0,-0.73007 -0.39898,-1.3274 -0.88663,-1.3274 -0.48765,0 -1.02365,-0.96482 -1.19113,-2.14403 -0.16747,-1.17922 -0.68418,-1.92963 -1.14824,-1.66758 -0.71864,0.4058 -1.87756,-1.54291 -2.4012,-4.03757 -0.54071,-2.57605 -4.3813,-10.16742 -6.11004,-12.07721 -1.14392,-1.26373 -1.57438,-2.00771 -0.95658,-1.65328 1.05044,0.60262 -0.49973,-2.6602 -5.22004,-10.98731 -1.77228,-3.12647 -3.57715,-8.48759 -4.53917,-13.48298 -0.18509,-0.96108 -0.55638,-2.46357 -0.82509,-3.33888 -0.42456,-1.38299 -1.47499,-12.93919 -3.00301,-33.03724 -0.63823,-8.39462 -0.62676,-14.01916 0.0524,-25.72837 0.6404,-11.04043 1.40018,-15.26779 4.50591,-25.07025 1.7517,-5.52877 1.78201,-6.14794 0.37692,-7.70055 -0.84037,-0.92859 -1.26369,-1.95261 -0.94072,-2.27558 0.32298,-0.32297 -0.25743,-2.0034 -1.28978,-3.73428 -1.03235,-1.73088 -2.43091,-5.29108 -3.10789,-7.91157 -0.67698,-2.62048 -1.57639,-5.15181 -1.99869,-5.62517 -0.42231,-0.47336 -0.389,-1.56848 0.074,-2.4336 0.463,-0.86512 0.48902,-2.14377 0.0578,-2.84146 -0.60153,-0.9733 -1.04452,-0.78171 -1.90341,0.82313 -1.30389,2.43635 -6.23219,2.49299 -6.23219,0.0716 0,-0.78614 0.56788,-1.31152 1.26195,-1.16751 0.69408,0.144 1.03431,-0.10652 0.75607,-0.55672 -0.46033,-0.74483 2.86623,-8.58023 4.12269,-9.7106 0.57013,-0.51291 0.70465,-1.04503 1.63358,-6.46183 0.56997,-3.32362 0.56961,-4.47007 -0.003,-9.26106 -0.12526,-1.04819 0.32768,-2.79765 1.00653,-3.88768 0.67885,-1.09003 0.9469,-2.26924 0.59567,-2.62048 -0.35123,-0.35123 -0.15179,-0.63861 0.44322,-0.63861 0.59499,0 0.83499,-0.64321 0.53332,-1.42935 -0.30168,-0.78615 -0.0873,-1.42936 0.47645,-1.42936 0.56372,0 0.7795,-0.6396 0.47953,-1.42132 -0.30563,-0.79644 0.096,-1.66746 0.91357,-1.98119 0.81123,-0.31129 1.30345,-1.36757 1.10865,-2.37909 -0.1927,-1.00058 0.18558,-2.36027 0.84059,-3.02155 1.72147,-1.7379 4.48141,-7.55111 3.21281,-6.76708 -0.58842,0.36367 -0.0414,-1.02273 1.21557,-3.08088 1.25699,-2.05816 2.6253,-3.88503 3.04069,-4.05973 0.4154,-0.17471 0.75527,-0.99855 0.75527,-1.83077 0,-0.83223 0.75041,-2.37103 1.66758,-3.41955 1.1974,-1.36889 1.26457,-1.67971 0.23823,-1.10237 -1.02634,0.57735 -0.95917,0.26653 0.23822,-1.10236 0.91717,-1.04853 1.66758,-2.40865 1.66758,-3.0225 0,-0.61386 0.4577,-1.1161 1.01712,-1.1161 0.59822,0 0.76873,-0.88304 0.41403,-2.14403 -0.40594,-1.44314 -0.31767,-1.73363 0.26999,-0.88859 0.65371,0.93999 1.17401,0.52892 2.07075,-1.63599 0.65872,-1.59028 1.76385,-3.36131 2.45585,-3.93563 0.692,-0.5743 2.40552,-3.26856 3.80782,-5.98723 1.40231,-2.71867 4.11926,-6.87266 6.03766,-9.2311 1.91841,-2.35843 4.71954,-6.11048 6.22472,-8.33789 1.5052,-2.22741 3.03475,-4.04984 3.39901,-4.04984 0.36425,0 1.22001,-1.04212 1.90168,-2.31582 0.68166,-1.2737 3.40139,-4.07454 6.04385,-6.22408 2.64244,-2.14953 5.30108,-4.85946 5.90807,-6.02207 0.60699,-1.1626 1.63645,-1.996 2.28767,-1.85199 0.65123,0.144 0.90783,-0.18512 0.57021,-0.73139 -0.33761,-0.54628 1.77454,-3.36261 4.69368,-6.25853 2.91914,-2.89591 5.30754,-5.87495 5.30754,-6.62007 0,-0.74513 0.89087,-1.83157 1.97971,-2.41429 1.1754,-0.62905 1.76054,-1.63065 1.44026,-2.46528 -0.29668,-0.77317 -0.12697,-1.15085 0.37716,-0.83928 0.50414,0.31157 1.67702,-0.41657 2.60641,-1.61808 2.56747,-3.31921 20.54065,-20.76618 21.39249,-20.76618 0.41091,0 1.47831,-1.17922 2.372,-2.62048 0.89369,-1.44127 2.54863,-3.6925 3.67765,-5.00274 5.85201,-6.79132 8.94167,-14.95562 9.60391,-25.3779 0.25954,-4.08451 0.65141,-7.6059 0.87083,-7.82533 0.21942,-0.21942 -0.0442,-1.227 -0.58586,-2.23907 -0.54164,-1.01207 -1.02105,-3.11501 -1.06536,-4.6732 -0.0443,-1.5582 -0.44366,-3.0575 -0.88746,-3.33179 -0.44382,-0.27428 -0.80693,-1.33102 -0.80693,-2.34828 0,-1.01726 -0.45412,-1.84956 -1.00914,-1.84956 -0.55503,0 -0.78531,-0.36217 -0.51173,-0.80482 0.7709,-1.24735 -3.11562,-10.692 -5.4465,-13.23553 -5.67326,-6.19087 -10.3587,-11.16915 -17.09342,-18.16175 -4.06175,-4.21727 -7.385,-8.15608 -7.385,-8.75292 0,-0.59684 -0.3216,-0.88661 -0.71467,-0.64393 -0.39308,0.2427 -0.78327,-0.48241 -0.8671,-1.61134 -0.0839,-1.12892 -0.91093,-3.76781 -1.83801,-5.8642 -0.92708,-2.09638 -1.71878,-4.45482 -1.75933,-5.24096 -0.11377,-2.20584 8.90958,-19.23819 11.61101,-21.91676 1.32141,-1.31024 2.06698,-1.73905 1.65681,-0.9529 -0.41017,0.78614 0.23297,0.42014 1.42922,-0.81334 2.48891,-2.5664 6.05193,-11.23309 5.19088,-12.62631 -0.31661,-0.51228 -1.32247,-0.69439 -2.23524,-0.40468 -0.91278,0.28971 -6.44238,0.75151 -12.288,1.02624 -8.68877,0.40836 -11.17996,0.21429 -13.6508,-1.06344 -4.07964,-2.10966 -8.09323,-6.58212 -11.02067,-12.28067 -2.22889,-4.33875 -2.37421,-5.3566 -1.79102,-12.54423 0.34909,-4.30229 1.06764,-9.25273 1.59678,-11.001 2.25316,-7.44438 3.22129,-13.57963 2.02629,-12.84108 -0.55047,0.34021 0.0408,-1.54066 1.31392,-4.17973 1.27313,-2.63907 2.41457,-5.74988 2.53655,-6.91292 0.12198,-1.16302 0.56487,-2.36759 0.98419,-2.67679 0.41933,-0.3092 0.83219,-1.48842 0.91746,-2.62049 0.0853,-1.13205 0.51791,-2.05829 0.96141,-2.05829 0.4435,0 0.55966,-0.39918 0.25813,-0.88705 -0.30154,-0.48789 -0.10544,-1.16072 0.43575,-1.4952 0.54119,-0.33448 0.69633,-1.07357 0.34476,-1.64243 -0.38152,-0.61731 -0.19571,-0.76018 0.46091,-0.35437 0.98238,0.60713 1.52844,-0.5316 1.21298,-2.52949 -0.062,-0.39307 0.36184,-0.71468 0.94201,-0.71468 0.58017,0 0.79949,-0.66548 0.48736,-1.47884 -0.31211,-0.81336 -0.19234,-1.24699 0.26617,-0.96363 0.45851,0.28338 1.05681,-0.33814 1.32957,-1.38117 0.332,-1.26956 0.13158,-1.67802 -0.60634,-1.23572 -0.72562,0.43493 -0.69808,0.16122 0.0806,-0.80104 0.65057,-0.80394 0.93986,-1.70472 0.64286,-2.00171 -0.29699,-0.297 0.34994,-0.82245 1.43763,-1.16767 1.08769,-0.34522 1.97761,-1.00703 1.97761,-1.47071 0,-1.27954 7.98626,-12.32017 12.20293,-16.86999 2.05134,-2.21341 3.46811,-4.31899 3.14838,-4.67907 -0.31972,-0.36007 -0.084,-0.37014 0.52382,-0.0224 1.45182,0.83067 4.27933,-0.27658 3.58308,-1.40313 -0.298,-0.48217 -0.18833,-0.76409 0.24369,-0.62649 1.25644,0.40017 6.97938,-2.25123 6.97938,-3.23351 0,-0.49144 0.3216,-0.69497 0.71467,-0.45229 0.69978,0.43205 1.13036,-3.63504 1.59851,-15.09876 0.26739,-6.54759 0.0622,-7.26715 -1.86177,-6.52885 -0.76636,0.29407 -1.16998,0.89614 -0.89694,1.33792 0.27304,0.44179 -0.44832,0.6213 -1.60301,0.39893 -2.26736,-0.43665 -3.63107,-2.01088 -3.65429,-4.2184 -0.008,-0.76295 -1.28264,-5.26542 -2.83249,-10.00548 -1.54985,-4.74006 -3.67014,-11.40554 -4.71175,-14.81216 -1.04162,-3.40663 -2.72943,-8.5523 -3.75069,-11.43483 -1.02126,-2.88253 -2.39341,-7.5994 -3.04922,-10.48193 -0.65581,-2.88253 -2.59237,-8.45701 -4.30347,-12.38774 -1.71109,-3.93072 -4.20193,-10.36281 -5.5352,-14.29354 -3.52772,-10.40038 -6.84161,-18.99914 -8.99739,-23.34611 -1.95228,-3.93658 -11.7662,-32.936063 -12.06099,-35.639371 -0.0914,-0.838097 -0.63271,-2.595822 -1.20293,-3.906063 -3.11639,-7.160815 -9.11881,-21.825472 -9.94588,-24.299016 -0.52572,-1.57229 -1.33713,-3.71632 -1.80314,-4.764513 -0.466,-1.048193 -0.96666,-2.549015 -1.11257,-3.335159 -0.14592,-0.786145 -0.4896,-1.643757 -0.76376,-1.905806 -0.27415,-0.262048 -1.24886,-1.655668 -2.166,-3.096933 -0.91715,-1.441265 -2.51526,-2.620482 -3.55137,-2.620482 -1.03611,0 -1.88384,-0.54791 -1.88384,-1.217581 0,-1.295195 3.29571,-4.499835 4.62771,-4.499835 1.32146,0 3.94841,3.378345 3.94841,5.07777 0,0.875899 0.64321,1.592548 1.42935,1.592548 0.78615,0 1.42936,0.660572 1.42936,1.467937 0,1.624318 2.14518,4.876851 8.57612,13.003128 6.15666,7.779688 8.99825,11.820862 8.79897,12.513441 -0.0956,0.332363 0.93232,1.793725 2.28437,3.247464 3.91593,4.210486 10.33222,13.819413 15.50847,23.225232 1.03813,1.88639 3.30538,5.31832 5.03833,7.6265 5.85676,7.80088 11.20697,16.350959 14.84565,23.724629 0.90519,1.83434 2.33937,4.10543 3.18708,5.04686 0.84771,0.94144 2.34853,3.29988 3.33515,5.24097 0.98664,1.9411 2.67253,5.03009 3.74644,6.86442 1.07391,1.83434 3.15772,6.1224 4.63069,9.52903 1.47298,3.40663 3.71931,7.74101 4.99183,9.63196 2.22746,3.30996 7.36493,16.09641 6.46738,16.09641 -0.24071,0 0.55718,1.60802 1.77309,3.57338 3.63323,5.87259 7.34218,13.44523 7.34218,14.99068 0,0.79579 0.4288,1.44689 0.9529,1.44689 0.5241,0 0.9529,0.52986 0.9529,1.17746 0,0.64759 1.05919,3.32763 2.35375,5.95564 2.29619,4.66134 5.03304,11.37483 7.77488,19.07173 1.96086,5.50452 2.62897,7.10314 5.04994,12.08317 1.19248,2.45298 1.88468,4.91862 1.53822,5.47919 -0.34646,0.56059 -0.28301,1.04103 0.14099,1.06766 5.93803,0.37298 9.60127,1.33816 10.92914,2.87957 0.87015,1.01009 2.07468,1.83652 2.67672,1.83652 0.60204,0 0.82961,0.42881 0.5057,0.9529 -0.32391,0.5241 -0.0519,0.95291 0.60451,0.95291 1.57115,0 10.07409,8.82337 13.99547,14.52289 3.6887,5.36133 11.7447,22.30836 13.48023,28.35772 0.67662,2.35844 1.76702,5.57448 2.42312,7.14677 1.14021,2.73244 2.67781,9.71969 2.25249,10.23588 -0.1115,0.13532 0.28327,1.15415 0.87727,2.26404 0.594,1.10989 1.34885,6.86672 1.67745,12.79295 0.3286,5.92622 0.97646,11.77182 1.4397,12.99022 0.51275,1.34864 0.49038,2.21527 -0.0572,2.21527 -0.49467,0 -0.71117,0.53601 -0.4811,1.19113 0.53395,1.52042 -2.19687,4.72606 -5.11147,6.0002 l -2.25109,0.98409 2.46275,2.92681 c 1.35451,1.60975 2.18883,3.20074 1.85405,3.53552 -0.33478,0.33478 -9.5e-4,0.614 0.74124,0.62049 1.26036,0.0111 5.63802,5.73367 5.63802,7.37025 0,0.40615 1.51946,2.44899 3.3766,4.53965 1.85712,2.09066 4.73564,6.58844 6.39669,9.99507 1.66105,3.40662 4.5732,8.5523 6.47144,11.43483 6.18589,9.39347 19.84256,37.63874 20.36433,42.11829 0.0427,0.36687 0.61369,1.20304 1.26881,1.85816 0.65512,0.65512 1.19113,2.19447 1.19113,3.42077 0,1.2263 0.82181,3.84052 1.82625,5.80938 1.59966,3.13559 2.10371,4.90289 3.30581,11.59077 0.14131,0.78615 0.95953,3.70962 1.81828,6.4966 1.00777,3.27059 1.25959,5.63563 0.71024,6.67032 -0.46813,0.88169 -1.08339,2.35349 -1.36725,3.27065 -0.75127,2.42746 -2.62643,2.06267 -7.34743,-1.42935 -2.30277,-1.70331 -7.40291,-4.76327 -11.33363,-6.79991 -3.93073,-2.03663 -7.57558,-4.18066 -8.09967,-4.76452 -1.25729,-1.40061 -7.83683,-6.30249 -8.45952,-6.30249 -0.26785,0 -2.11888,-1.51955 -4.11341,-3.37677 -1.99453,-1.85722 -6.41366,-5.37173 -9.82029,-7.81001 -3.40662,-2.4383 -9.73151,-7.37219 -14.05531,-10.96422 -4.32379,-3.59202 -7.86145,-6.2952 -7.86145,-6.00707 0,0.28814 -0.88397,-0.36009 -1.96439,-1.4405 -4.63925,-4.63925 -8.8788,1.33371 -9.14833,12.88877 -0.20048,8.59511 0.93476,12.16577 5.74373,18.06568 1.74168,2.13679 4.2563,5.60031 5.58806,7.69669 3.23004,5.08459 12.83512,14.76999 14.6475,14.76999 0.79489,0 1.23183,0.34533 0.97098,0.76739 -0.63635,1.02963 15.05159,17.33381 16.69649,17.35235 1.07304,0.0121 1.0691,0.15704 -0.0231,0.84873 -1.03526,0.65568 -0.88419,0.97151 0.70615,1.47627 1.11275,0.35317 2.45092,0.37778 2.97371,0.0547 0.54893,-0.33926 0.71164,0.0351 0.38512,0.88593 -0.31096,0.81035 -1.05646,1.18772 -1.65666,0.83859 -0.6002,-0.34913 -0.25053,0.32294 0.77706,1.49346 1.02758,1.17054 2.56226,1.94678 3.4104,1.725 0.84813,-0.2218 2.36582,0.22497 3.37262,0.99282 1.73572,1.32374 1.70715,1.36372 -0.55169,0.77172 -2.2157,-0.5807 -2.26123,-0.52703 -0.65122,0.76757 0.95206,0.76556 1.66674,1.68111 1.58817,2.03456 -0.0786,0.35345 0.17602,0.92851 0.56577,1.2779 0.38975,0.3494 0.40018,0.0993 0.0231,-0.55586 -1.33552,-2.32073 0.50412,-1.1408 4.07666,2.61471 1.99122,2.0932 3.92633,3.4999 4.30025,3.12598 0.37392,-0.37392 0.3992,0.0516 0.0561,0.94543 -0.45635,1.18925 0.0769,1.89165 1.98759,2.6181 1.43621,0.54604 2.34298,1.26111 2.01506,1.58903 -0.32792,0.32792 1.22063,2.38795 3.44123,4.57783 5.13893,5.06783 9.83164,11.08725 9.49303,12.17687 -0.144,0.4634 0.17959,0.56975 0.71911,0.23631 1.16871,-0.7223 10.50111,8.59093 10.50111,10.47955 0,0.72149 0.85489,1.91059 1.89974,2.64244 1.04486,0.73185 1.70661,1.52376 1.47057,1.75981 -0.23605,0.23604 1.24435,2.55602 3.28977,5.15549 15.04418,19.11924 18.71733,24.2477 17.3867,24.27541 -0.38536,0.008 -0.22449,0.32963 0.3575,0.71468 0.58199,0.38505 1.77222,2.09371 2.64496,3.79702 0.87272,1.70331 1.98136,3.09693 2.46362,3.09693 0.48226,0 3.78831,4.39527 7.34677,9.76726 3.55846,5.37198 6.80039,9.91107 7.2043,10.08686 0.4039,0.17579 0.49198,0.7118 0.19574,1.19113 -0.29624,0.47933 0.0268,0.87151 0.71775,0.87151 0.691,0 1.86481,0.96482 2.60847,2.14404 2.56867,4.07317 13.22196,25.60355 13.93525,28.16324 0.39355,1.41233 0.86629,2.99667 1.05051,3.52077 0.18423,0.52409 0.94579,4.18366 1.69236,8.13236 1.1768,6.22426 6.5025,18.10795 8.94983,19.97058 0.34986,0.26627 1.53195,1.77055 2.62688,3.34284 8.36612,12.01363 18.02926,47.34323 19.74288,72.18238 0.0633,0.91717 0.50447,1.66758 0.98043,1.66758 0.47597,0 0.3878,0.57545 -0.19592,1.2788 -0.58372,0.70334 -0.80865,1.53148 -0.49983,1.84029 0.30882,0.30882 0.64432,3.48861 0.74555,7.0662 0.10124,3.57758 0.47641,6.9777 0.8337,7.55582 0.3573,0.57811 0.42174,1.27899 0.14323,1.55752 -0.27853,0.27851 -0.64396,7.30643 -0.81209,15.61758 -0.28208,13.94502 -1.59666,24.21041 -3.39944,26.546 -0.40453,0.5241 -1.2939,3.47929 -1.97635,6.56709 -0.68246,3.08779 -2.21809,7.05425 -3.41252,8.81434 -1.19443,1.7601 -1.9768,3.20018 -1.73859,3.20018 0.23821,0 -1.27369,2.25123 -3.35977,5.00273 -2.08609,2.75151 -3.79473,5.53875 -3.79699,6.19387 -0.002,0.65512 -0.37934,1.19113 -0.83798,1.19113 -0.45863,0 -1.4448,1.26141 -2.19148,2.80315 -1.751,3.61542 -10.51659,12.88651 -13.89544,14.6968 -9.11192,4.88186 -29.91075,14.84123 -33.10658,15.85284 -2.09639,0.66359 -5.09803,1.87739 -6.67032,2.69732 -1.57229,0.81993 -3.93072,1.63636 -5.24096,1.81428 -4.09398,0.55594 -8.37473,2.19604 -9.60692,3.68072 -0.73315,0.8834 -1.41029,1.05834 -1.78015,0.45988 -0.38793,-0.62768 -1.47804,-0.50868 -3.11369,0.3399 -1.38423,0.71814 -2.76148,1.13247 -3.06058,0.92072 -0.2991,-0.21175 -0.36514,-0.13486 -0.14677,0.17086 0.71086,0.99522 -3.29442,4.29724 -4.39064,3.61974 -0.64768,-0.40029 -0.7988,-0.22712 -0.38546,0.44169 0.37396,0.60507 0.27082,1.10013 -0.2292,1.10013 -0.50002,0 -1.91895,1.06461 -3.15317,2.36579 -1.23423,1.30119 -2.78006,2.37321 -3.43518,2.38226 -0.65512,0.01 -1.19113,0.44527 -1.19113,0.96937 0,0.52409 -0.40127,0.9529 -0.89171,0.9529 -2.13757,0 -18.72041,16.29585 -19.68271,19.34207 -0.36456,1.15403 -1.48436,2.67637 -2.48843,3.38296 -1.00408,0.70661 -3.94151,5.63788 -6.52765,10.95838 -3.89607,8.01546 -4.77852,10.81705 -5.1481,16.34398 -0.53245,7.96293 0.52095,12.43824 4.21655,17.91409 1.51257,2.24123 3.04303,5.24192 3.40101,6.66832 0.35799,1.4263 1.03919,2.83326 1.51378,3.12657 0.47458,0.2934 0.61618,0.93251 0.31464,1.42039 -0.30152,0.48789 -0.0941,0.88706 0.46091,0.88706 0.55503,0 0.95837,0.32161 0.8963,0.71468 -0.062,0.39307 -0.062,1.17321 0,1.73371 0.13615,1.22943 6.97013,10.51118 7.95666,10.80649 4.85142,1.45217 6.41687,1.75637 6.05891,1.17717 -0.69298,-1.12124 7.32972,-1.10189 8.68268,0.021 0.85181,0.707 1.23716,0.7141 1.23716,0.023 0,-0.67668 8.30573,-1.02039 25.49015,-1.05498 27.12832,-0.0543 39.60796,0.56778 38.76408,1.93318 -0.29742,0.4812 0.41918,0.4885 1.67982,0.017 1.2395,-0.4635 4.48462,-0.4552 7.43945,0.019 2.88253,0.4625 10.84027,1.2022 17.68387,1.6439 11.97053,0.7725 12.71689,0.9473 19.65981,4.6052 3.96929,2.0912 8.44693,4.9641 9.95031,6.3842 1.50337,1.4201 5.35619,4.7291 8.56183,7.3533 6.64399,5.4388 8.48708,8.24657 7.63684,11.63427 -0.58063,2.3133 -1.84622,2.7204 -4.09217,1.3162 -0.60985,-0.3812 -4.01666,-0.019 -7.57069,0.8054 -4.2209,0.9789 -8.09205,1.2744 -11.16254,0.8521 -3.08465,-0.4242 -4.4957,-0.3149 -4.10445,0.3182 1.04092,1.6842 -6.42305,0.9661 -8.45218,-0.8132 -1.42096,-1.2461 -5.54216,-2.0606 -16.19934,-3.2018 -7.86145,-0.8419 -15.36556,-1.5435 -16.6758,-1.5591 -14.23392,-0.1704 -33.14146,-1.0207 -38.54265,-1.7333 -3.69612,-0.4877 -12.93791,-0.9911 -20.53731,-1.1187 -19.1419,-0.32147 -21.29914,-0.28487 -30.49289,0.5164 -4.86869,0.4243 -11.62426,0.2734 -16.93541,-0.3785 -5.80219,-0.71207 -9.43042,-0.76607 -10.56787,-0.1574 -1.49016,0.7975 -2.07884,0.1683 -4.21401,-4.50417 -2.00937,-4.3973 -5.56168,-14.2254 -5.92389,-16.3896 -0.53031,-3.1686 -2.86092,-7.64722 -4.2008,-8.07241 -1.53619,-0.4876 -4.40589,-4.8982 -4.11072,-6.31803 0.0656,-0.31541 -1.38464,-2.03063 -3.22265,-3.81161 l -3.34185,-3.23825 -1.86146,2.38226 c -5.27251,6.74769 -7.77383,11.62246 -11.16445,21.75814 -2.04733,6.1203 -3.62439,11.7957 -3.50457,12.6121 0.18807,1.2814 -2.86054,1.6384 -22.30316,2.6116 -12.38656,0.6199 -23.94549,1.5365 -25.68652,2.0368 -1.74104,0.5002 -7.95873,1.18017 -13.81709,1.51087 -6.58856,0.372 -13.74119,1.4638 -18.75126,2.8622 -4.45482,1.2434 -10.88691,2.7299 -14.29353,3.3034 -8.5887,1.4458 -12.38774,2.7737 -12.38774,4.33 0,0.8492 -1.11419,1.3475 -3.09693,1.3849 -5.11115,0.097 -7.38496,0.3794 -7.38573,0.9184 -4.1e-4,0.2808 -1.60843,0.6072 -3.57339,0.7254 -5.39406,0.3244 -8.23456,0.7352 -9.29006,1.344 -0.5241,0.3022 -3.63294,1.1284 -6.90855,1.8359 -3.2756,0.7076 -5.95564,1.6133 -5.95564,2.0128 0,0.3996 -0.56926,0.508 -1.26502,0.241 -0.69577,-0.267 -2.51819,0.032 -4.04984,0.6648 -1.53165,0.6326 -3.46932,1.186 -4.30593,1.23 -0.83662,0.044 -2.22478,0.6638 -3.0848,1.3776 -0.86002,0.7137 -2.23462,1.0403 -3.05465,0.7255 -0.82004,-0.3146 -1.25913,-0.1969 -0.97576,0.2616 0.28338,0.4584 -0.33815,1.0568 -1.38118,1.3296 -1.26956,0.332 -1.67802,0.1315 -1.23572,-0.6064 0.37123,-0.6193 -0.0274,-0.5444 -0.90985,0.1709 -0.86379,0.7002 -2.08437,0.9556 -2.7124,0.5675 -0.66326,-0.41 -0.89299,-0.3031 -0.54807,0.2551 0.32659,0.5283 -0.48495,1.4522 -1.80341,2.053 -3.10732,1.4157 -3.74262,1.3783 -5.13838,-0.3036 z m 12.03198,-10.7241 c 0.71641,-1.7146 1.19046,-3.3101 1.05344,-3.5455 -0.137,-0.2355 1.12577,-1.8455 2.80619,-3.578 3.04324,-3.1374 6.51756,-5.2033 16.47921,-9.79902 2.88253,-1.3298 7.385,-3.6994 10.00548,-5.2658 2.62048,-1.5664 5.83653,-3.3422 7.14677,-3.9462 1.31024,-0.6039 3.98202,-1.834 5.93729,-2.7336 2.05401,-0.9449 4.66921,-1.4176 6.19386,-1.1196 2.44425,0.4778 2.1821,0.7317 -3.55503,3.4447 -3.40663,1.611 -8.65082,4.5262 -11.65376,6.4782 -3.00295,1.9521 -10.19056,5.98492 -15.97248,8.96192 -5.78192,2.9769 -10.32608,5.5991 -10.09814,5.827 0.22794,0.2279 -0.84281,1.7301 -2.37944,3.338 -1.53664,1.6079 -2.6409,3.0765 -2.45392,3.2635 0.18698,0.187 3.22861,-0.5523 6.75917,-1.6427 3.53056,-1.0905 9.49191,-2.5716 13.24744,-3.2913 3.75553,-0.7199 9.82988,-2.1339 13.49856,-3.1424 3.66867,-1.0086 10.10076,-2.6111 14.29353,-3.5612 4.19278,-0.9501 8.69524,-2.1477 10.00548,-2.661 1.31024,-0.5134 3.45427,-1.0778 4.76452,-1.2543 6.11667,-0.8238 14.04142,-2.63862 16.19934,-3.70982 1.31024,-0.6505 6.02711,-1.4027 10.48193,-1.6716 13.01464,-0.7857 30.57042,-2.6045 35.89687,-3.719 2.71015,-0.5671 6.23117,-0.7703 7.8245,-0.4516 1.59333,0.3187 3.15763,0.1576 3.4762,-0.3579 0.31858,-0.5154 1.08562,-0.6221 1.70453,-0.237 1.72742,1.0748 14.32631,0.2778 15.53758,-0.983 0.5894,-0.6135 2.46162,-5.4035 4.16047,-10.6445 3.56875,-11.00953 5.66886,-15.46902 8.48356,-18.0146 1.10397,-0.99836 2.00721,-2.24656 2.00721,-2.77371 0,-0.52714 1.36613,-2.17814 3.03587,-3.66886 3.4791,-3.10618 3.30763,-2.15795 4.0213,-22.23503 0.29808,-8.38555 0.83624,-17.39048 1.19591,-20.01096 0.35968,-2.62048 0.6867,-5.83653 0.72673,-7.14677 0.0688,-2.25419 1.60715,-4.76451 2.91964,-4.76451 0.33041,0 0.29473,0.53601 -0.0793,1.19113 -0.37404,0.65512 0.67266,-0.0683 2.32602,-1.60764 1.65334,-1.53931 3.00608,-3.36174 3.00608,-4.04983 0,-0.68809 0.3313,-1.25108 0.73621,-1.25108 1.3046,0 4.37482,-6.66979 4.37482,-9.50393 0,-1.51111 -0.55928,-3.42134 -1.24284,-4.24498 -0.68359,-0.82365 -0.97596,-1.49753 -0.64973,-1.49753 2.65125,0 4.64002,-1.82401 3.94984,-3.62261 -0.44694,-1.16471 -0.28793,-1.20092 0.90953,-0.2071 0.79814,0.6624 1.45117,2.13869 1.45117,3.28065 0,4.10481 -4.51739,17.50447 -6.99737,20.75589 -1.39241,1.82555 -2.53166,3.84001 -2.53166,4.4766 0,0.63657 -0.4288,0.8924 -0.9529,0.56849 -0.5241,-0.32391 -0.9529,0.31529 -0.9529,1.42043 0,1.10516 -0.7067,3.37598 -1.57045,5.04628 -1.95035,3.77156 -3.14838,24.50262 -1.416,24.50262 0.59436,0 1.08064,0.45416 1.08064,1.00913 0,0.55506 -0.53601,0.73764 -1.19113,0.40584 -0.65512,-0.3319 -0.54792,-0.0353 0.23823,0.65836 1.87005,1.6509 2.23326,4.11044 0.95867,6.49203 -0.70244,1.31253 -0.72113,2.48574 -0.0593,3.72232 0.71753,1.34074 0.60347,2.10697 -0.44292,2.97535 -1.57128,1.30404 -1.96382,4.25023 -0.44089,3.30895 0.53264,-0.32913 0.6783,-1.10489 0.32368,-1.7238 -0.35462,-0.61891 -0.32588,-0.83941 0.0639,-0.48998 0.38974,0.34933 0.5657,0.81949 0.39099,1.04467 -0.1747,0.22517 0.27088,1.11851 0.99017,1.98518 0.9346,1.12614 0.98316,1.57581 0.17017,1.57581 -0.82534,0 -0.79197,0.37678 0.12154,1.37247 0.69256,0.75479 2.33121,2.92836 3.64145,4.83017 1.31024,1.9018 3.38519,4.71458 4.61099,6.25075 1.22582,1.5362 1.92372,2.7931 1.55091,2.7931 -0.37281,0 -0.1611,0.6226 0.47047,1.3836 0.64244,0.7741 0.87623,2.3483 0.53071,3.5733 -0.39524,1.4014 -0.31276,1.7532 0.22908,0.9771 0.57788,-0.8277 1.19653,0.3029 1.94866,3.5613 0.6061,2.6258 2.15845,6.4477 3.44967,8.4931 1.29123,2.0454 2.12912,3.9375 1.86197,4.2046 -0.26714,0.2672 0.0379,0.8093 0.67782,1.2049 0.7148,0.4418 0.91827,0.3223 0.52758,-0.3099 -0.4343,-0.7028 0.80319,-0.8927 3.9026,-0.599 2.49621,0.2364 9.25543,0.3944 15.02049,0.3511 34.89942,-0.2629 44.93206,-0.2425 54.45016,0.1114 5.83915,0.217 10.42351,0.7162 10.18746,1.1092 -0.39672,0.6607 3.70112,1.1854 5.86727,0.7515 3.42575,-0.6865 14.90772,-0.1509 17.88012,0.8339 3.88957,1.28882 9.27872,0.6024 9.3021,-1.1847 0.009,-0.6385 0.40098,-0.5043 0.91848,0.314 0.68932,1.09 2.89124,1.4353 9.2762,1.4543 4.60478,0.013 9.16362,0.48252 10.13075,1.04172 0.96714,0.5591 2.76495,0.8242 3.99514,0.589 2.21235,-0.4229 2.20016,-0.4671 -1.1185,-4.05392 -1.84537,-1.9944 -4.60799,-4.1452 -6.13917,-4.7795 -1.53117,-0.6342 -2.78395,-1.4875 -2.78395,-1.8962 0,-2.172 -12.24682,-6.8694 -20.27881,-7.7784 -3.21977,-0.3644 -3.58086,-1.8341 -0.7996,-3.2548 1.65433,-0.8451 -0.68356,-1.2694 -12.0182,-2.1812 -7.73964,-0.6227 -18.78894,-1.1177 -24.554,-1.1002 -5.76506,0.017 -15.78366,-0.1045 -22.26355,-0.2714 -7.73026,-0.1992 -13.30075,0.1268 -16.19935,0.9479 -15.47822,4.3849 -16.38102,4.5643 -17.95732,3.5701 -0.87638,-0.5528 -1.72887,-1.4116 -1.89444,-1.9082 -0.49068,-1.4721 6.0612,-4.4851 8.66889,-3.9867 2.08725,0.399 2.27306,0.2313 1.44923,-1.308 -0.51975,-0.9711 -1.35871,-1.76575 -1.86437,-1.76575 -0.50566,0 -0.91938,-0.44939 -0.91938,-0.99864 0,-0.54935 -1.41969,-3.22939 -3.15487,-5.95564 -1.73518,-2.72635 -3.44737,-5.73457 -3.80488,-6.685 -0.37607,-0.99969 -1.1165,-1.43964 -1.75688,-1.0439 -0.64815,0.4006 -0.85101,0.27015 -0.48951,-0.31484 0.33955,-0.54935 0.016,-2.438 -0.71891,-4.19706 -0.73496,-1.75896 -1.44199,-3.62694 -1.5712,-4.15104 -0.12919,-0.52409 -0.79432,-2.29173 -1.47805,-3.92815 -3.54908,-8.49417 -0.34782,-32.0279 5.51306,-40.52892 0.95907,-1.39114 1.74379,-2.85 1.74379,-3.2419 0,-2.29128 12.37134,-16.62195 14.34934,-16.62195 0.67744,0 3.62206,-2.4689 6.5436,-5.48643 2.92154,-3.01754 6.92056,-6.55519 8.88671,-7.86145 1.96614,-1.30626 3.81944,-3.13165 4.11844,-4.05643 0.29899,-0.92478 0.85482,-1.48908 1.23519,-1.254 0.38036,0.23507 1.31431,0.0233 2.07543,-0.47065 1.2783,-0.82956 -22.74223,-0.47393 -31.49129,0.46624 -9.4287,1.0132 -13.76932,0.83658 -10.95838,-0.44589 1.53992,-0.70257 1.2655,-0.83644 -1.42935,-0.69731 -1.83434,0.0947 -3.87117,0.56863 -4.52629,1.05317 -0.73903,0.54657 -1.64323,0.51598 -2.38226,-0.0806 -0.65512,-0.52886 -4.32969,-0.81768 -8.16572,-0.64183 -3.83603,0.17586 -7.96016,-0.055 -9.16474,-0.51295 -1.46453,-0.55681 -3.02117,-0.40156 -4.69846,0.46863 -1.37958,0.71574 -2.50832,1.05986 -2.50832,0.76472 0,-0.29514 -0.53601,-0.0991 -1.19113,0.43573 -1.77792,1.45138 -10.92281,3.97055 -11.74298,3.23488 -0.39164,-0.35129 -0.40362,-0.10271 -0.0266,0.55241 0.5188,0.90151 -0.83424,1.19113 -5.56463,1.19113 -3.53147,0 -6.25011,0.41449 -6.25011,0.95291 0,0.52409 -0.75041,0.94633 -1.66758,0.93831 -1.43236,-0.0126 -1.46596,-0.15104 -0.23823,-0.98185 1.04488,-0.70709 0.67977,-0.7923 -1.35737,-0.31683 -3.92311,0.91565 -10.68379,0.75024 -23.752,-0.58115 -6.21076,-0.63275 -12.71998,-0.98378 -14.46493,-0.78007 -1.74494,0.20372 -3.00524,0.0996 -2.80065,-0.23147 0.20457,-0.33102 -2.39834,-1.01588 -5.78427,-1.52189 -3.38592,-0.50602 -6.15622,-0.64016 -6.15622,-0.29807 0,0.91373 6.62896,7.58463 7.53695,7.58463 0.42619,0 0.57229,1.05982 0.32467,2.35516 l -0.45022,2.35517 -4.42038,-2.99758 c -3.87043,-2.62463 -4.18327,-2.71134 -2.51457,-0.69691 1.04819,1.26536 2.54901,2.79724 3.33516,3.40419 0.78614,0.60696 4.41843,3.97233 8.07175,7.47862 3.65332,3.50628 7.90112,7.02597 9.43958,7.82153 3.45513,1.78673 3.96972,2.20412 11.85242,9.6137 11.28708,10.60964 13.52374,13.04751 13.07389,14.24998 -0.24274,0.64884 0.0397,1.07764 0.62783,0.9529 0.58804,-0.12474 1.74554,0.93726 2.57222,2.36 1.18859,2.04559 1.25809,2.83177 0.33218,3.75769 -0.92591,0.92591 -1.77031,0.59661 -4.03588,-1.57395 -1.57577,-1.50965 -2.86502,-3.30781 -2.86502,-3.9959 0,-0.68809 -0.45769,-1.25107 -1.01711,-1.25107 -0.55941,0 -0.79293,0.75041 -0.51894,1.66757 1.32965,4.45071 -0.23236,31.11066 -2.19099,37.39514 -1.277,4.09739 -1.3129,5.71866 -0.0846,3.8179 1.29373,-2.00195 1.18432,-0.30712 -0.13991,2.16719 -2.53471,4.73621 -12.27013,10.26399 -18.91815,10.74189 -2.35843,0.1695 -7.93291,0.611 -12.38773,0.981 -4.45482,0.37 -11.18079,0.698 -14.9466,0.7288 -3.76581,0.03 -6.68291,0.3214 -6.48243,0.6459 0.20049,0.3243 -0.90318,0.4037 -2.45259,0.1762 -1.54941,-0.2273 -3.34919,0.024 -3.99951,0.5583 -0.65032,0.5344 -2.58278,0.85 -4.29437,0.7012 -1.71157,-0.1488 -3.34491,0.1064 -3.62961,0.5671 -0.28472,0.4607 -4.24441,0.8408 -8.79933,0.8448 -9.96844,0.01 -19.74493,1.4767 -22.44952,3.3711 -1.0885,0.7624 -3.06288,1.3881 -4.38754,1.3904 -1.32465,0 -5.4101,1.0652 -9.07877,2.3621 -3.66868,1.2969 -7.38598,2.367 -8.26067,2.3781 -0.8747,0.011 -2.80433,0.6109 -4.28807,1.3329 -1.48373,0.7221 -4.41293,2.1073 -6.50931,3.0781 -3.7449,1.7343 -13.36384,10.6823 -16.29921,15.1623 -3.08021,4.7009 -0.13301,3.9905 4.65654,-1.1225 8.78667,-9.38 10.38309,-10.8075 12.08697,-10.8075 0.91963,0 3.33991,-1.1435 5.37841,-2.5412 2.0385,-1.3976 4.34957,-2.6227 5.13572,-2.7222 0.78614,-0.1 3.50173,-1.1002 6.03463,-2.2234 2.53291,-1.1232 5.27942,-2.0422 6.10333,-2.0422 1.28657,0 1.25456,0.269 -0.22668,1.9058 -0.94861,1.0482 -2.27085,1.9058 -2.93833,1.9058 -0.66748,0 -1.78025,0.549 -2.4728,1.22 -0.69256,0.6709 -3.08162,1.8116 -5.30903,2.5347 -2.22741,0.7232 -4.04983,1.675 -4.04983,2.1153 0,0.4401 -0.46593,0.8003 -1.0354,0.8003 -0.56947,0 -4.22261,2.2033 -8.1181,4.8963 -4.89925,3.3868 -8.37509,6.745 -11.27495,10.8933 -3.66435,5.2419 -3.94467,5.9784 -2.22615,5.8489 1.24668,-0.094 2.44273,-1.2888 3.26866,-3.2655 z m 377.51131,-13.726 c 3.0391,-1.8979 0.63401,-6.43412 -6.259,-11.80472 -9.90462,-7.7172 -12.81319,-9.4991 -18.55612,-11.368 -4.45345,-1.4494 -5.7132,-1.5514 -6.90855,-0.5594 -0.99557,0.8263 -1.46191,0.8721 -1.46191,0.1437 0,-0.5882 -1.39362,-1.0357 -3.09694,-0.9944 -1.70331,0.041 -2.45372,0.2938 -1.66757,0.561 18.6694,6.3434 23.53592,8.8632 25.06329,12.9775 0.3476,0.9363 1.92315,2.4371 3.50122,3.3352 1.57807,0.898 2.87193,2.1838 2.87525,2.8574 0.008,1.6341 2.86104,5.92212 3.94016,5.92212 0.47093,0 1.62751,-0.4817 2.57017,-1.0704 z m -15.08043,-5.10752 c 0,-2.1334 -8.34887,-10.6486 -12.27157,-12.516 -1.89823,-0.9038 -4.52334,-1.7503 -5.83358,-1.8814 -6.64256,-0.6646 -11.88429,-2.702 -10.92883,-4.248 1.04653,-1.6933 -8.73654,-1.0408 -10.15658,0.6774 -1.18352,1.4321 -1.12218,1.4668 0.6454,0.3664 1.68597,-1.0497 2.76083,-0.8083 7.85593,1.7637 3.2465,1.6388 6.0537,2.8675 6.23823,2.7305 0.18454,-0.137 1.02585,0.3237 1.86959,1.024 0.84374,0.7002 1.99228,0.99 2.55232,0.6439 0.56004,-0.3462 0.90043,-0.081 0.75642,0.5892 -0.14401,0.6703 0.16697,1.2524 0.69107,1.2936 2.57866,0.2029 12.56704,8.0556 10.36037,8.1451 -0.45724,0.019 0.24067,0.6467 1.55091,1.3957 3.1602,1.8065 6.67032,1.8149 6.67032,0.016 z m -40.02191,-19.176 c 0,-0.2059 -0.64321,-0.3744 -1.42936,-0.3744 -0.78614,0 -1.42935,0.4153 -1.42935,0.9229 0,0.5077 0.64321,0.6762 1.42935,0.3745 0.78615,-0.3017 1.42936,-0.7169 1.42936,-0.923 z M 326.68582,866.89726 c 1.26588,-0.44005 2.05295,-0.58796 7.385,-1.3878 l 5.24096,-0.78618 -9.84355,-3.15283 c -9.61123,-3.07841 -12.54966,-4.53829 -12.54966,-6.23491 0,-1.37886 2.9223,-0.94041 10.95838,1.64412 7.34724,2.36298 19.74487,3.61791 34.30449,3.4724 2.62048,-0.0262 5.07955,0.44615 5.4646,1.04965 0.38505,0.60349 0.70574,0.66846 0.71266,0.14437 0.008,-0.61005 4.38475,-0.78148 12.16411,-0.47645 6.68333,0.26204 14.50995,0.1666 17.39248,-0.2121 2.88253,-0.3787 8.80549,-0.7656 13.16213,-0.85976 4.64873,-0.10047 7.40442,-0.49891 6.67032,-0.96444 -0.9933,-0.6299 -0.99943,-0.79624 -0.0298,-0.80782 0.67158,-0.008 1.4376,0.54974 1.70228,1.23948 0.36921,0.96214 1.63767,1.06649 5.44928,0.44829 2.73242,-0.44318 6.68327,-0.95949 8.77966,-1.14736 6.00453,-0.53811 12.70158,-2.32964 17.99526,-4.81392 2.68092,-1.25815 6.05362,-2.57629 7.49488,-2.92922 1.44127,-0.35293 2.62049,-1.02401 2.62049,-1.49129 10e-6,-0.46727 0.70698,-0.8496 1.57106,-0.8496 1.97615,0 13.67539,-5.89094 13.67539,-6.886 0,-0.40547 0.61258,-0.73722 1.36129,-0.73722 0.74871,0 2.03513,-0.67383 2.8587,-1.49742 0.82359,-0.82357 1.49742,-1.27469 1.49742,-1.00247 0,0.27222 1.27319,0.0511 2.82929,-0.49135 2.67852,-0.93374 11.31895,-8.40791 9.79776,-8.47529 -0.39366,-0.0174 0.29483,-0.87365 1.53,-1.9027 2.89853,-2.41484 13.50038,-18.39585 15.476,-23.32822 2.79677,-6.98246 4.84727,-13.27869 6.20315,-19.04735 1.60036,-6.80881 2.50574,-27.00641 1.4534,-32.42329 -0.85697,-4.41119 -0.44743,-6.42225 1.14612,-5.62809 0.61035,0.30418 0.35933,-0.062 -0.55784,-0.81379 -1.72321,-1.41244 -2.25808,-3.539 -0.89013,-3.539 0.92003,0 -2.0096,-29.26411 -3.48192,-34.78094 -0.55949,-2.09639 -1.24214,-5.09803 -1.517,-6.67032 -1.3472,-7.70606 -4.35648,-18.83114 -6.18613,-22.86966 -0.47489,-1.0482 -2.0312,-5.23307 -3.45848,-9.29972 -1.48526,-4.23186 -4.36203,-9.73332 -6.72683,-12.86419 -2.27247,-3.00865 -4.1432,-5.99119 -4.15716,-6.62788 -0.014,-0.63668 -0.86704,-1.60803 -1.89571,-2.15856 -1.12807,-0.60372 -1.64893,-1.57792 -1.31246,-2.45475 0.30683,-0.79958 0.18367,-1.38547 -0.27371,-1.30197 -2.03244,0.37104 -3.21383,-0.18154 -3.21383,-1.50323 0,-0.78615 -0.45412,-1.42936 -1.00915,-1.42936 -0.55502,0 -0.74362,-0.4296 -0.4191,-0.95468 0.32451,-0.52508 -0.46614,-1.35625 -1.75701,-1.84703 -1.29087,-0.49079 -2.66934,-1.41385 -3.06328,-2.05126 -0.45673,-0.739 -0.31763,-0.91256 0.38389,-0.47898 2.53802,1.56858 0.84465,-0.37059 -1.9968,-2.28665 -1.70331,-1.14858 -2.32425,-1.83881 -1.37986,-1.53384 1.00674,0.32511 1.47623,0.1648 1.13489,-0.38749 -0.3202,-0.5181 -1.20009,-0.942 -1.9553,-0.942 -0.75522,0 -1.32234,-0.3216 -1.26027,-0.71467 0.30611,-1.9387 -0.32793,-3.21925 -2.6686,-5.38964 -1.40566,-1.30341 -2.97274,-2.11212 -3.48239,-1.79714 -0.52429,0.32403 -0.62021,0.0769 -0.22092,-0.56918 0.82249,-1.33081 -1.18413,-4.14083 -2.41411,-3.38066 -0.45871,0.28349 -0.59352,-0.11129 -0.29957,-0.87731 0.33187,-0.86484 -0.21406,-1.63033 -1.44027,-2.01952 -1.0861,-0.34471 -1.97472,-1.06581 -1.97472,-1.60245 0,-1.43342 -8.51995,-9.69854 -12.38773,-12.01721 -1.83434,-1.09965 -4.83598,-3.557 -6.67032,-5.46075 -1.83434,-1.90376 -6.97802,-5.88853 -11.43041,-8.85506 -4.45239,-2.96653 -10.67008,-8.0194 -13.81709,-11.22862 -3.14701,-3.20921 -6.2441,-6.00643 -6.88242,-6.21602 -0.71859,-0.23595 -0.85462,-0.87355 -0.3572,-1.67418 0.94965,-1.52849 3.72369,-0.84268 6.35254,1.57053 1.00956,0.92674 3.8588,3.12879 6.33165,4.89347 2.47285,1.76466 4.26998,3.57434 3.99361,4.02152 -0.27638,0.44718 -0.0635,0.81306 0.47303,0.81306 0.53653,0 1.95546,0.89685 3.15316,1.99301 3.22594,2.95242 8.32349,6.32384 12.89781,8.53037 2.22741,1.07444 4.04983,2.38758 4.04983,2.91808 0,0.5305 0.42881,0.69953 0.9529,0.37562 0.5241,-0.32391 0.95291,-0.23459 0.95291,0.19847 0,0.43308 4.92654,5.86704 10.94789,12.0755 6.02133,6.20845 10.67194,11.73457 10.33469,12.28026 -0.33725,0.54569 -0.17249,0.71979 0.36613,0.3869 0.53862,-0.33288 3.44942,2.49505 6.46841,6.28432 4.64442,5.82938 10.7284,11.81297 8.74016,8.59594 -0.34211,-0.55355 -0.87129,-2.57495 -1.17596,-4.49202 -0.30467,-1.91707 -1.16791,-4.95497 -1.91829,-6.7509 -0.75039,-1.79594 -1.36434,-4.15018 -1.36434,-5.23166 0,-1.08147 -0.64321,-2.21313 -1.42936,-2.5148 -0.78614,-0.30168 -1.42935,-1.00749 -1.42935,-1.56848 0,-1.55977 -12.84728,-21.79386 -15.89353,-25.03184 -1.47844,-1.57149 -2.83646,-3.69405 -3.01783,-4.71679 -0.18136,-1.02274 -1.46778,-3.20164 -2.8587,-4.84199 -5.40847,-6.37836 -6.12798,-7.46537 -6.97711,-10.54065 -0.48255,-1.74766 -2.46636,-5.07522 -4.40847,-7.39455 -8.30995,-9.92406 -14.38723,-17.63205 -18.35104,-23.27514 -5.17627,-7.36919 -8.48898,-11.01126 -10.83395,-11.91111 -0.97714,-0.37497 -1.50686,-0.95152 -1.17715,-1.28122 1.26163,-1.26163 -23.89718,-27.90677 -35.10764,-37.18171 -3.14458,-2.60166 -7.64705,-7.12438 -10.00548,-10.05049 -2.35843,-2.92612 -5.87961,-6.32234 -7.82483,-7.54715 -1.94522,-1.22481 -3.44604,-2.68833 -3.33516,-3.25225 0.11088,-0.56393 -3.07734,-4.30626 -7.08494,-8.3163 -7.95537,-7.96021 -15.34141,-18.18487 -19.08262,-26.41647 -1.75609,-3.86387 -2.4479,-7.14564 -2.5993,-12.3305 -0.11346,-3.88591 -0.38641,-7.35672 -0.60656,-7.71292 -0.22015,-0.35621 0.63807,-1.85604 1.90716,-3.33297 2.22938,-2.59448 2.38129,-4.23355 0.39239,-4.23355 -1.19944,0 -6.161,-5.83331 -5.83789,-6.8636 0.13103,-0.41779 -0.37386,-0.75962 -1.12196,-0.75962 -0.74811,0 -2.20344,-1.07201 -3.23408,-2.38226 -1.03064,-1.31024 -2.36163,-2.38225 -2.95777,-2.38225 -0.59614,0 -1.34397,-0.67776 -1.66185,-1.50613 -0.31788,-0.82837 -1.27041,-1.32505 -2.11673,-1.10373 -1.16271,0.30405 -1.58199,-0.36153 -1.71557,-2.7234 -0.12751,-2.25453 0.27162,-3.22225 1.43196,-3.47189 2.71704,-0.58454 4.94391,0.36731 4.94391,2.11321 0,1.58919 9.7614,7.64484 12.32311,7.64484 0.60388,0 1.61587,0.43675 2.24888,0.97057 4.59439,3.87447 5.88345,4.74685 7.01412,4.74685 0.70595,0 1.28355,0.37418 1.28355,0.83152 0,0.45733 2.14009,1.89063 4.75575,3.1851 2.61566,1.29448 4.47382,2.63552 4.12924,2.9801 -0.34457,0.34457 0.0881,0.6265 0.96167,0.6265 0.8735,0 1.58818,0.4288 1.58818,0.9529 0,1.23439 2.51742,3.72818 6.68319,6.62045 1.82725,1.26866 4.93154,3.7285 6.89841,5.46632 1.96688,1.73782 4.21811,3.15967 5.00274,3.15967 0.78464,0 1.42661,0.43511 1.42661,0.96691 0,0.5318 1.28488,1.74829 2.85529,2.70331 1.5704,0.95503 2.53521,2.1138 2.14403,2.57507 -0.3912,0.46126 9.5e-4,0.29596 0.87148,-0.36734 1.22469,-0.93316 1.74304,-0.94664 2.29127,-0.0596 0.47473,0.76812 0.30471,0.89684 -0.51524,0.39008 -0.77504,-0.479 -1.08234,-0.33208 -0.83808,0.40068 0.21211,0.63636 0.59989,1.01765 0.86172,0.84732 0.51828,-0.33716 1.20318,0.17552 7.4787,5.59813 2.30494,1.99166 4.34177,3.514 4.52629,3.38298 0.18452,-0.13102 1.08591,-0.23166 2.00307,-0.22364 1.42512,0.0125 1.45976,0.1489 0.23823,0.93832 -1.13992,0.73667 -0.96304,0.92668 0.8735,0.93831 1.26656,0.008 2.02813,0.28931 1.69236,0.62508 -0.69717,0.69717 5.9131,5.04686 10.53655,6.93327 1.70331,0.69497 3.09693,1.64036 3.09693,2.10087 0,0.46051 0.39105,0.8373 0.86899,0.8373 1.60455,0 -1.79049,-15.08107 -4.71936,-20.96386 -0.91326,-1.83434 -2.40614,-6.3368 -3.31749,-10.00548 -1.70701,-6.87155 -2.83246,-9.43334 -12.34957,-28.11062 -5.82418,-11.42993 -12.75942,-23.11802 -14.04108,-23.66375 -0.41029,-0.1747 -0.74814,-1.24672 -0.75078,-2.38225 -0.003,-1.13555 -1.68865,-4.20866 -3.74668,-6.82914 -2.05804,-2.62049 -4.91368,-6.69414 -6.34588,-9.05258 -1.43219,-2.35843 -4.49358,-6.40523 -6.80308,-8.99286 -2.30951,-2.58765 -4.87125,-6.0181 -5.69276,-7.62323 -0.8215,-1.60513 -2.74437,-4.41923 -4.27303,-6.25357 -1.52866,-1.83434 -3.67627,-4.40718 -4.77246,-5.71742 -1.09619,-1.31024 -1.98141,-2.59666 -1.96714,-2.8587 0.069,-1.2674 -1.96241,-5.44782 -3.47282,-7.14677 -0.93187,-1.0482 -3.25084,-4.47865 -5.15326,-7.62322 -1.90242,-3.14458 -4.64907,-7.06724 -6.10366,-8.71702 -1.4546,-1.64976 -3.28793,-3.95354 -4.07407,-5.11949 -0.78615,-1.16595 -1.88209,-2.60337 -2.43542,-3.19428 -0.55334,-0.5909 -2.01476,-2.87693 -3.2476,-5.08006 -2.77463,-4.95839 -4.32246,-5.6985 -4.32246,-2.06685 0,1.50556 0.42881,2.74395 0.9529,2.75198 0.54219,0.009 0.49625,0.31633 -0.10658,0.71467 -0.58272,0.38505 -1.28976,1.98651 -1.57121,3.5588 -0.86947,4.85724 -1.4809,6.95928 -2.96929,10.20822 -0.78927,1.72282 -1.89206,4.90489 -2.45065,7.07125 -0.55859,2.16635 -1.65575,4.47009 -2.43814,5.11942 -0.78238,0.6493 -1.42251,1.77126 -1.42251,2.49323 0,0.72198 -0.4288,1.31268 -0.9529,1.31268 -0.5241,0 -0.9529,0.45155 -0.9529,1.00345 0,0.55191 -1.07202,2.58108 -2.38226,4.50927 -1.31024,1.92819 -2.38226,3.17496 -2.38226,2.77059 0,-0.76886 -1.48191,0.29369 -5.33168,3.82289 -1.26034,1.15539 -2.29154,1.83105 -2.29154,1.50147 0,-0.32958 -1.01144,0.35095 -2.24764,1.51231 -1.23621,1.16135 -3.85076,2.55419 -5.81013,3.0952 -3.93043,1.08524 -10.30166,4.64527 -8.32356,4.65092 0.68606,0.002 0.99864,0.40601 0.69464,0.89789 -0.304,0.49189 -1.31585,0.74737 -2.24855,0.56775 -1.34328,-0.25869 -1.65601,0.24876 -1.50425,2.44082 0.12659,1.82838 -0.26121,2.76742 -1.14283,2.76742 -0.73395,0 -1.33444,0.17934 -1.33444,0.39852 0,0.21918 -0.29468,1.184 -0.65486,2.14403 -0.52314,1.39442 -0.37036,1.55385 0.75959,0.79261 0.77795,-0.5241 0.64283,-0.24015 -0.30025,0.63098 -1.07047,0.9888 -1.47402,2.21109 -1.07411,3.25326 0.43718,1.13925 0.28658,1.45057 -0.47424,0.98036 -0.61316,-0.37896 -1.11483,-0.31576 -1.11483,0.14045 0,0.4562 -0.96482,1.86685 -2.14404,3.13477 -1.17921,1.26791 -2.0262,2.66706 -1.88219,3.10922 0.144,0.44214 -0.14481,0.55258 -0.64182,0.24542 -1.33857,-0.82729 -5.27574,5.19237 -5.06461,7.74344 0.12599,1.52218 -0.32946,2.20692 -1.47462,2.217 -1.08505,0.01 -1.27364,0.25843 -0.54642,0.72108 0.83069,0.52848 0.77917,1.30513 -0.20445,3.08234 -1.16895,2.11205 -1.32032,2.16424 -1.36332,0.47005 -0.0363,-1.43162 -0.25141,-1.58536 -0.86449,-0.6179 -0.44888,0.70835 -0.49231,2.72371 -0.0965,4.47858 0.39579,1.75487 0.48375,3.42655 0.19546,3.71484 -0.28828,0.28828 -0.0239,0.52415 0.58756,0.52415 0.61145,0 1.11172,0.83553 1.11172,1.85672 0,2.15075 3.88756,6.68413 5.82669,6.79464 1.10082,0.0627 1.10432,0.16103 0.0211,0.5918 -0.94644,0.37639 -0.99814,0.70248 -0.19049,1.20164 0.60965,0.37679 1.17684,1.5929 1.26043,2.70247 0.0836,1.10958 0.3353,1.83407 0.55937,1.60999 0.81959,-0.81959 5.86629,3.52538 5.25103,4.5209 -0.35059,0.56726 -0.19418,0.75489 0.34929,0.41901 0.54129,-0.33454 2.97473,1.63604 5.40764,4.37905 6.40987,7.2269 7.29908,8.32247 6.75488,8.32247 -0.26862,0 0.56462,1.66812 1.85167,3.70693 1.28704,2.03881 2.07857,3.96844 1.75894,4.28806 -0.31963,0.31962 -0.0809,0.58114 0.53058,0.58114 0.61145,0 1.11172,0.60845 1.11172,1.35213 0,1.54363 2.99943,7.54821 3.99631,8.00023 0.36363,0.16488 0.39796,0.98564 0.0763,1.8239 -0.32166,0.83826 -0.19038,1.28279 0.29176,0.98784 0.48703,-0.29794 0.92085,1.73692 0.97616,4.57872 0.0548,2.81324 -0.1954,4.93271 -0.55587,4.70993 -0.36046,-0.22279 -0.6554,0.20042 -0.6554,0.94046 0,0.74003 0.4236,1.08372 0.94133,0.76375 0.53235,-0.32901 0.6407,-0.0954 0.24939,0.53778 -0.38055,0.61575 -0.87491,3.14764 -1.09857,5.62642 -0.90975,10.08255 -4.80154,20.58609 -9.68912,26.14992 -0.78855,0.89765 -1.19623,2.25098 -0.90597,3.00741 0.29027,0.75642 -0.348,2.16601 -1.41837,3.13242 -1.07038,0.96641 -2.84001,3.68674 -3.9325,6.04517 -1.0925,2.35844 -2.22465,4.50247 -2.51589,4.76451 -0.29124,0.26205 -1.09719,1.48614 -1.791,2.7202 -1.04671,1.86173 -1.04671,2.11949 0,1.51392 0.69381,-0.4014 0.29273,0.33596 -0.89128,1.63857 -1.18401,1.3026 -1.86295,2.65817 -1.50876,3.01236 0.3542,0.35418 0.15066,0.64398 -0.4523,0.64398 -2.15337,0 -16.09297,22.73082 -21.11428,34.43029 -5.78495,13.47877 -6.97211,20.45827 -4.34418,25.54013 2.39009,4.62191 2.77257,7.68567 0.95951,7.68567 -0.82077,0 -2.22278,1.2837 -3.11557,2.85268 -0.89279,1.56898 -2.08194,2.85539 -2.64255,2.85871 -2.19981,0.013 -12.45399,13.93295 -18.60636,25.25794 -1.13887,2.09639 -2.36978,4.02601 -2.73536,4.28806 -1.68674,1.20905 -10.27907,20.9611 -10.79631,24.81855 -0.31943,2.38213 -0.85586,5.16937 -1.19208,6.19387 -0.49805,1.51756 -0.4208,1.59786 0.41687,0.43337 0.8888,-1.23555 1.03018,-1.20326 1.0428,0.23822 0.008,0.91717 -0.44941,1.66758 -1.01651,1.66758 -0.67137,0 -0.9207,2.32425 -0.71467,6.66227 0.33153,6.98047 -0.39693,8.2894 -3.98034,7.15207 -1.84493,-0.58557 -4.05869,2.20778 -5.09968,6.43484 -0.35495,1.44127 -1.0913,2.62049 -1.63634,2.62049 -0.54504,0 -0.71436,0.44759 -0.37626,0.99464 0.3381,0.54706 0.20813,1.51187 -0.28882,2.14403 -0.49694,0.63216 -1.18144,2.31347 -1.5211,3.73623 -0.45557,1.90831 -1.05243,2.44712 -2.27542,2.05415 -1.05145,-0.33785 -1.25284,-0.23679 -0.55057,0.27629 0.61131,0.44662 0.98629,2.51436 0.83715,4.61618 -0.31922,4.49882 -2.45764,11.99662 -3.27707,11.49018 -0.31525,-0.19483 -0.59422,0.99842 -0.61993,2.65169 -0.0257,1.65327 -0.30034,4.29236 -0.61032,5.86465 -0.30997,1.57229 -0.87909,4.50097 -1.26471,6.50817 -0.38562,2.00721 -1.32615,3.8893 -2.09006,4.18244 -1.13739,0.43647 -1.15875,0.68154 -0.1179,1.35328 1.04026,0.67137 1.01152,0.99066 -0.15833,1.75861 -1.03597,0.68007 -1.08696,0.94232 -0.18529,0.9529 0.85732,0.01 1.10662,0.97734 0.80197,3.11152 -0.24314,1.70332 -0.48943,3.09694 -0.5473,3.09694 -0.26464,0 -1.03437,15.75375 -0.97773,20.01095 0.0882,6.63279 0.79861,17.70676 1.29051,20.11753 0.22583,1.10681 0.51848,4.10845 0.65032,6.67032 0.13185,2.56187 0.53771,5.08674 0.90191,5.61084 0.3642,0.5241 1.43485,3.45594 2.3792,6.51522 1.24726,4.04055 2.31862,5.79104 3.91606,6.39838 1.30205,0.49504 2.43052,1.91874 2.76651,3.49027 1.40571,6.57508 7.99654,23.11554 9.98056,25.04739 0.26913,0.26205 2.01562,2.83489 3.8811,5.71742 11.63404,17.97689 17.35425,25.19284 22.40231,28.26018 0.9979,0.60635 1.70715,1.57116 1.57613,2.14403 -0.13102,0.57286 0.0834,0.94134 0.47645,0.81882 0.39307,-0.12252 1.89749,0.97259 3.34315,2.43356 1.44565,1.46097 3.05368,2.39352 3.57338,2.07232 0.5197,-0.32119 0.96088,-0.0227 0.98038,0.66338 0.0352,1.23623 14.35192,8.47685 17.80233,9.00343 2.34044,0.35718 11.51528,1.14158 14.5609,1.24489 1.95276,0.0662 2.12456,0.26386 0.9529,1.09619 -1.10063,0.78187 -0.8267,0.8839 1.19113,0.4437 1.51837,-0.33125 2.62048,-0.16328 2.62048,0.39938 0,0.53408 0.66852,0.97106 1.48559,0.97106 0.875,0 1.23761,-0.48958 0.88224,-1.19113 -0.33185,-0.65512 0.0717,-0.35876 0.89666,0.65858 0.88932,1.09664 1.50002,1.3535 1.50002,0.63091 0,-1.34596 5.44067,-0.75407 11.11127,1.20881 2.63847,0.91331 33.43737,1.43681 35.81919,0.60885 z M 455.5659,607.69753 c -0.32391,-0.5241 -0.13482,-0.9529 0.42021,-0.9529 0.55503,0 1.00914,0.4288 1.00914,0.9529 0,0.5241 -0.18909,0.9529 -0.42021,0.9529 -0.23112,0 -0.68523,-0.4288 -1.00914,-0.9529 z m -275.09644,88.11828 c -0.29338,-0.29339 -0.82621,0.23547 -1.18406,1.17524 -0.51712,1.35808 -0.40767,1.46753 0.53344,0.53344 0.65123,-0.64639 0.94401,-1.41529 0.65062,-1.70868 z m 2.53358,-5.07295 c -0.53692,-0.5652 -2.34955,0.86727 -2.34955,1.85681 0,0.51383 0.59996,0.38132 1.33325,-0.29446 0.73329,-0.67579 1.19062,-1.37884 1.0163,-1.56235 z m 4.32077,-29.9309 c 2.35844,-4.77614 5.24092,-9.83072 6.40553,-11.23241 1.1646,-1.40169 1.88648,-2.7795 1.60417,-3.0618 -0.2823,-0.2823 0.0103,-0.83687 0.65026,-1.23238 0.71708,-0.44318 0.91826,-0.32224 0.52431,0.31519 -0.35157,0.56886 -0.14582,1.33923 0.45724,1.71194 0.76813,0.47473 0.96487,-0.21893 0.65703,-2.31641 -0.2417,-1.64674 -0.0849,-2.99407 0.34843,-2.99407 0.43333,0 0.79445,-1.17921 0.80249,-2.62048 0.0481,-8.62338 10.25566,-33.71221 17.77357,-43.68524 1.22252,-1.62176 2.22276,-3.29651 2.22276,-3.72166 0,-0.42516 1.07201,-2.1785 2.38226,-3.89632 1.31024,-1.71781 2.38225,-3.59416 2.38225,-4.16968 0,-0.57551 0.64321,-1.29321 1.42936,-1.59488 0.78614,-0.30168 1.42935,-1.11009 1.42935,-1.7965 0,-0.68639 0.34657,-1.39092 0.77015,-1.56563 0.42358,-0.17469 2.21643,-2.46166 3.98412,-5.08214 1.76768,-2.62048 4.19875,-5.69995 5.40237,-6.84326 2.08242,-1.97809 2.1196,-2.24342 0.76761,-5.47919 -0.87911,-2.10401 -1.03985,-3.40045 -0.42159,-3.40045 0.64272,0 0.69358,-0.59497 0.14258,-1.66757 -0.98775,-1.92278 -0.47407,-6.81528 0.88785,-8.45629 0.51068,-0.61534 1.06625,-2.65377 1.2346,-4.52985 0.16834,-1.87608 0.8429,-4.05789 1.49903,-4.84847 0.65611,-0.79057 0.90789,-2.1802 0.55951,-3.08807 -0.34838,-0.90787 -0.31217,-1.32943 0.0804,-0.9368 0.755,0.755 4.15136,-5.47117 4.15136,-7.61023 0,-0.69134 1.44788,-3.29481 3.21751,-5.78549 1.76962,-2.49067 3.90366,-5.88149 4.7423,-7.53514 0.83863,-1.65366 2.07635,-3.58329 2.75049,-4.28807 0.67414,-0.70477 1.90874,-2.35342 2.74355,-3.66366 8.26037,-12.96448 8.71243,-13.78933 6.3974,-11.67306 -1.28995,1.17922 -2.80166,2.14404 -3.35934,2.14404 -1.1216,0 -8.91083,8.84144 -10.59324,12.02422 -0.5869,1.1103 -0.76059,2.35827 -0.38595,2.77325 0.37463,0.41499 0.16814,0.46027 -0.45887,0.10063 -1.26312,-0.72448 -6.24621,5.86028 -5.43192,7.17784 0.26981,0.43654 -0.099,0.79372 -0.81957,0.79372 -0.72057,0 -2.22999,1.60802 -3.35429,3.57338 -2.98296,5.21451 -7.95763,10.23637 -12.07621,12.19076 -1.98236,0.9407 -4.84088,3.41742 -6.35226,5.50382 -1.51138,2.08639 -2.75428,3.40751 -2.76201,2.9358 -0.0142,-0.8655 -1.39661,1.3286 -4.40681,6.99414 -0.90218,1.698 -2.3743,3.32022 -3.27137,3.60494 -0.89707,0.28472 -1.87928,1.25388 -2.18271,2.15369 -0.71302,2.11455 -2.72658,5.25466 -3.94215,6.14772 -0.5846,0.42949 -0.478,0.70572 0.27579,0.71468 1.003,0.0119 1.003,0.25878 0,1.34393 -0.67578,0.73113 -1.5503,1.13463 -1.94337,0.89666 -0.39308,-0.23797 -0.71468,0.17802 -0.71468,0.92441 0,0.7464 -0.88874,2.48693 -1.97497,3.86785 -1.0862,1.38092 -1.69829,2.51076 -1.36016,2.51076 0.33813,0 -0.27396,1.12985 -1.36019,2.51077 -1.08624,1.38092 -1.97497,3.09614 -1.97497,3.81161 0,0.71547 -0.50027,1.30085 -1.11172,1.30085 -0.61144,0 -0.84439,0.26732 -0.51766,0.59405 0.32673,0.32673 -0.51031,2.04196 -1.86009,3.81161 -1.66168,2.17859 -2.033,3.2244 -1.14992,3.23875 0.77244,0.0126 0.39313,0.72198 -0.93028,1.73992 -1.24398,0.95685 -2.3,2.84799 -2.38226,4.2662 -0.0813,1.4011 -0.45833,2.54777 -0.83795,2.54813 -1.75045,0.002 -9.66186,20.63785 -8.24724,21.51214 1.08647,0.67147 0.56466,3.67899 -0.95625,5.51158 -0.67582,0.8143 -0.91118,1.9944 -0.52303,2.62243 0.43251,0.69983 0.30214,0.89246 -0.33675,0.4976 -0.63613,-0.39316 -0.9859,0.10659 -0.89736,1.28212 0.15162,2.01271 1.64536,2.75231 1.64536,0.81468 0,-0.61144 0.28324,-0.82847 0.62943,-0.48229 0.34618,0.34618 -0.18983,1.56338 -1.19113,2.70487 -1.00131,1.1415 -1.28455,1.76203 -0.62943,1.37896 1.30644,-0.76391 1.50291,0.5379 0.59334,3.93155 -0.31448,1.17333 -0.85236,1.95991 -1.19528,1.74798 -0.72083,-0.4455 0.36293,16.04959 1.35714,20.65568 0.36767,1.70346 1.45542,4.65214 2.4172,6.5526 0.96178,1.90047 1.48119,3.7229 1.15425,4.04984 -0.32694,0.32694 -0.20137,0.56286 0.27904,0.52426 0.48043,-0.0386 2.80313,-3.97793 5.16156,-8.75406 z m 264.88781,-64.09584 c -0.66295,-0.79881 -1.45344,-1.2043 -1.75665,-0.90108 -0.30322,0.3032 0.0795,0.95021 0.85046,1.43778 2.01727,1.27576 2.28085,1.11965 0.90619,-0.5367 z M 339.24046,402.70807 c -0.61753,-0.99919 -2.31094,-0.19708 -2.31094,1.09463 0,0.47672 0.64075,0.62088 1.42389,0.32037 0.78313,-0.30052 1.1823,-0.93727 0.88705,-1.415 z m -5.16964,-5.60202 c -1.31025,-1.02488 -2.81107,-1.86343 -3.33516,-1.86343 -0.5241,0 0.11911,0.83855 1.42935,1.86343 1.31024,1.02489 2.81106,1.86343 3.33516,1.86343 0.5241,0 -0.11911,-0.83854 -1.42935,-1.86343 z m -69.96978,-63.90138 c 0.58283,-0.4837 1.26945,-0.6697 1.52583,-0.41332 1.14434,1.14434 20.35654,-7.1514 24.10014,-10.40634 4.49523,-3.90846 13.7453,-18.87029 15.66245,-25.33373 0.69954,-2.35843 1.49307,-4.93127 1.76339,-5.71742 0.77373,-2.25011 1.53962,-7.77472 1.60565,-11.58206 0.0333,-1.91532 0.382,-3.28363 0.77507,-3.04069 0.39308,0.24293 0.73516,-0.11962 0.76018,-0.80567 0.0251,-0.68606 0.61927,-5.74984 1.32055,-11.25285 1.63304,-12.81463 1.47971,-26.84441 -0.29986,-27.43759 -0.95522,-0.31841 -0.99363,-0.60541 -0.1507,-1.12636 0.83958,-0.51889 0.75625,-1.07396 -0.32325,-2.15348 -0.79992,-0.7999 -1.17908,-1.72969 -0.84258,-2.06618 0.33649,-0.3365 -0.31457,-1.26067 -1.44681,-2.05373 -1.13224,-0.79305 -2.56115,-3.11921 -3.17536,-5.16925 -0.6142,-2.05003 -1.66679,-3.93842 -2.33909,-4.1964 -2.68506,-1.03035 -21.79843,4.81164 -25.30605,7.73479 -0.85157,0.70967 -1.92359,1.20318 -2.38226,1.09668 -1.2286,-0.28527 -6.04484,1.83966 -7.33779,3.23744 -0.61565,0.66557 -1.25014,1.84312 -1.40997,2.61679 -0.40307,1.95119 -3.20567,3.931 -4.73428,3.34441 -0.69738,-0.26761 -1.03579,-0.11089 -0.75202,0.34826 0.28377,0.45915 -1.08758,2.57909 -3.04744,4.71096 -4.19533,4.56353 -10.40743,13.18388 -9.83315,13.64515 0.22031,0.17696 -0.66741,2.03697 -1.97272,4.13335 -3.20023,5.13973 -6.27345,11.76668 -7.07047,15.24644 -0.36012,1.57229 -1.44915,4.18258 -2.42008,5.80065 -1.62747,2.71219 -4.13773,15.52686 -3.22111,16.44347 0.21982,0.21982 -0.10805,1.30811 -0.72861,2.41841 -1.38785,2.48315 -2.48173,14.88293 -1.31293,14.88293 0.46532,0 0.58046,1.66083 0.25588,3.69074 -0.49557,3.09905 -0.17137,4.2176 2.02224,6.97723 4.03845,5.08049 5.84765,6.65851 6.89316,6.01234 0.52812,-0.32639 0.96021,0.0314 0.96021,0.79512 0,1.16012 1.76058,1.31542 10.70105,0.94397 5.88558,-0.24453 11.1779,-0.84036 11.76073,-1.32406 z m -11.44822,-70.24389 c -0.83849,-0.83849 -0.61953,-5.45526 0.30616,-6.45551 0.46079,-0.49789 1.34944,-2.50657 1.97479,-4.46374 0.62535,-1.95716 2.09356,-4.3156 3.2627,-5.24096 1.16914,-0.92536 2.43461,-2.49427 2.81216,-3.48645 0.37755,-0.99218 0.94714,-1.54328 1.26576,-1.22465 0.88258,0.88258 4.27339,-1.22614 3.63434,-2.26015 -0.31668,-0.51241 1.05239,-0.9051 3.15552,-0.9051 2.96396,0 3.91907,0.44813 4.72499,2.21694 0.86985,1.90911 0.48812,2.90147 -2.74913,7.14677 -2.06758,2.7114 -3.51102,4.92983 -3.20764,4.92983 0.30337,0 -0.94923,1.50082 -2.78356,3.33516 -1.83434,1.83434 -3.94016,3.33516 -4.6796,3.33516 -0.73945,0 -1.8398,0.59687 -2.44524,1.32638 -1.23667,1.4901 -4.45971,2.55787 -5.27125,1.74632 z m 108.85954,64.26074 c -0.224,-1.6255 0.18812,-2.04152 1.95524,-1.97374 l 2.23907,0.0859 -0.62835,-9.13844 c -0.3456,-5.02615 -0.83188,-9.84419 -1.08065,-10.70677 -0.24876,-0.86257 -0.62458,-2.92965 -0.83515,-4.59351 -0.21058,-1.66387 -0.94627,-3.72048 -1.63487,-4.57025 -1.06269,-1.31141 -1.03588,-1.41768 0.17734,-0.70275 1.23922,0.73024 1.25285,0.62475 0.10244,-0.79302 -0.72981,-0.89942 -1.07708,-1.88514 -0.77171,-2.1905 0.30537,-0.30537 -0.50474,-2.95195 -1.80024,-5.88131 -1.2955,-2.92935 -2.14091,-5.88518 -1.87868,-6.56853 0.26222,-0.68334 0.0361,-1.24244 -0.50246,-1.24244 -0.53858,0 -0.76148,-0.35235 -0.49532,-0.783 0.26616,-0.43066 -0.13734,-1.98048 -0.89667,-3.44409 -0.75932,-1.46358 -1.38058,-3.41716 -1.38058,-4.34127 0,-0.92411 -0.65357,-2.22262 -1.45239,-2.88558 -0.7988,-0.66295 -1.25867,-1.39907 -1.02191,-1.63583 0.23676,-0.23675 -0.59373,-2.26498 -1.84552,-4.50716 -1.2518,-2.24218 -2.00689,-4.3458 -1.67798,-4.6747 0.32891,-0.32891 0.12664,-0.59802 -0.44949,-0.59802 -0.57613,0 -1.33425,-0.90345 -1.68471,-2.00767 -1.10968,-3.49628 -12.37211,-16.058 -14.42003,-16.08359 -0.61144,-0.008 -1.26244,-0.46605 -1.44665,-1.01869 -0.28901,-0.86702 -2.06391,-1.51441 -4.88286,-1.781 -0.42401,-0.0401 -0.5059,-0.50172 -0.18199,-1.02581 0.32391,-0.5241 0.17055,-0.95291 -0.34081,-0.95291 -0.51135,0 -1.11013,0.53601 -1.33063,1.19113 -0.31319,0.93054 -0.74484,0.90721 -1.97307,-0.10661 -2.34667,-1.93702 -4.43488,-0.71577 -3.89231,2.27635 0.25025,1.38004 0.11878,2.30117 -0.29215,2.04696 -0.63186,-0.39089 -0.61904,6.78649 0.047,26.27619 0.0672,1.96536 0.38455,3.57338 0.70532,3.57338 0.32076,0 1.57565,1.92963 2.78864,4.28806 1.21299,2.35844 2.7018,4.28806 3.30848,4.28806 0.60668,0 1.84327,1.39362 2.74798,3.09694 3.28296,6.1809 4.28489,7.65106 7.59443,11.14362 1.85214,1.95457 4.72698,5.87493 6.38854,8.71191 1.66154,2.837 3.65692,5.87452 4.43417,6.75007 1.61212,1.81599 4.47013,6.59861 6.45142,10.79583 0.7422,1.57228 2.63241,4.24439 4.20046,5.93802 1.56806,1.69363 3.1277,3.95108 3.46587,5.01658 0.78731,2.48056 2.56565,1.44823 2.19083,-1.27177 z m -18.15074,-47.99644 c -1.96537,-2.83927 -3.57339,-5.75747 -3.57339,-6.48489 0,-0.72742 -0.58066,-1.66549 -1.29035,-2.08461 -1.69484,-1.00089 -2.58503,-6.00914 -1.44629,-8.13688 1.10593,-2.06645 5.08691,-2.19344 6.7489,-0.2153 0.67579,0.80433 1.84116,2.13656 2.5897,2.96051 1.24687,1.37247 1.8563,3.83843 2.02728,8.20303 0.0359,0.91717 0.36028,1.66755 0.72078,1.66751 1.16183,-1.2e-4 0.53775,5.35992 -0.85426,7.337 -1.29176,1.83467 -1.50059,1.69695 -4.92237,-3.24637 z m -28.96256,-54.83263 c -0.73904,-2.22741 -1.75204,-4.90744 -2.25114,-5.95564 -1.4146,-2.97095 -3.11374,-7.47223 -3.44266,-9.12015 -0.16433,-0.82332 -0.95375,-2.75295 -1.75428,-4.28806 -0.80053,-1.53512 -1.45814,-3.73064 -1.46137,-4.87892 -0.003,-1.14829 -0.4358,-2.35351 -0.96128,-2.67828 -0.52548,-0.32476 -1.85012,-2.6013 -2.94363,-5.05897 -1.09352,-2.45768 -4.95989,-10.70832 -8.59192,-18.33476 -3.63204,-7.62645 -6.7759,-14.76036 -6.98634,-15.85314 -0.21045,-1.09278 -0.82466,-2.78588 -1.36489,-3.76244 -0.54024,-0.97656 -1.73109,-3.49078 -2.64634,-5.58717 -0.91525,-2.09638 -1.93531,-4.02601 -2.2668,-4.28806 -0.33149,-0.26205 -2.1263,-3.47809 -3.98846,-7.14677 -6.90197,-13.59764 -8.52671,-16.22667 -10.74723,-17.39027 -1.46748,-0.76899 -4.26671,-5.15789 -7.90091,-12.38774 -8.41256,-16.735909 -9.947,-19.295009 -11.57949,-19.311919 -1.42954,-0.0149 -8.08587,-11.85439 -7.69953,-13.69511 0.0977,-0.46549 -0.18059,-1.1087 -0.61843,-1.42936 -0.43784,-0.32064 -1.62134,-2.083803 -2.63002,-3.91814 -1.00867,-1.834338 -3.25991,-5.094551 -5.00274,-7.244909 -1.74283,-2.150368 -3.16878,-4.223408 -3.16878,-4.60677 0,-1.006732 -8.80145,-12.063194 -9.24765,-11.616988 -0.20589,0.205875 0.98022,3.533725 2.63579,7.39521 1.65558,3.861486 3.43139,8.092897 3.94624,9.403139 0.51486,1.310241 1.4957,3.51966 2.17966,4.909811 0.77603,1.577292 0.90683,2.864273 0.34792,3.423188 -0.55891,0.558916 -0.34307,1.354229 0.57411,2.115419 0.80835,0.67087 1.46974,2.04196 1.46974,3.04686 0,1.0049 0.87383,3.53993 1.94184,5.63341 1.06801,2.09349 1.68405,4.22347 1.36896,4.73329 -0.31509,0.50982 0.0643,1.17148 0.84318,1.47035 0.77884,0.29887 1.65872,1.17573 1.95529,1.94857 0.32577,0.84894 0.13518,1.15546 -0.48148,0.77434 -0.56138,-0.34696 -0.30475,0.75366 0.57029,2.44581 0.87504,1.69215 1.70667,4.20498 1.84804,5.58407 0.27427,2.675289 1.44999,6.011769 2.39461,6.795499 0.31586,0.26205 1.99102,4.76451 3.72261,10.00548 1.73158,5.24097 3.72046,10.81545 4.41973,12.38774 0.69928,1.57228 1.98971,4.78833 2.86763,7.14676 0.87792,2.35844 1.95449,5.14568 2.39238,6.19387 1.26044,3.01716 4.88859,14.10151 5.30239,16.19935 0.64159,3.25268 5.50819,16.18374 6.20346,16.48326 0.36247,0.15615 0.45687,1.05703 0.20976,2.00197 -0.2471,0.94494 0.25654,2.42388 1.1192,3.28655 0.93488,0.93487 1.33405,2.30715 0.98813,3.39702 -0.31919,1.0057 -0.1271,2.10865 0.42686,2.45102 0.55397,0.34237 0.78515,0.98179 0.51375,1.42093 -0.2714,0.43914 0.41301,3.1672 1.52093,6.06236 1.87942,4.91124 2.26656,5.30653 5.77812,5.8998 4.12738,0.69732 5.15754,2.2592 6.02059,9.12822 0.36282,2.88766 0.1899,3.64397 -0.70959,3.1036 -0.80468,-0.48341 -0.76635,-0.19307 0.1185,0.8978 0.85221,1.05061 0.93521,1.61227 0.23823,1.61227 -0.63638,0 -1.06958,1.78174 -1.06958,4.3992 0,3.76321 0.24108,4.31997 1.66758,3.85118 22.51251,-7.3983 25.96992,-6.96591 31.87792,3.98676 2.34449,4.34637 3.62318,3.69768 2.0511,-1.04054 z"
       id="path3056"
       style="fill:#000000" />
  </g>
</svg>
